<svg width="332" height="171" viewBox="0 0 332 171" fill="none" xmlns="http://www.w3.org/2000/svg">
    <path d="M6.21969 62.1277C6.96829 50.5741 7.5203 42.0917 8.50647 35.4435C9.48762 28.8291 10.865 24.3034 13.1142 20.5976C17.2518 13.7802 23.4815 8.48211 30.8748 5.49274C34.8936 3.86782 39.5817 3.23494 46.2678 3.32854C52.9881 3.42263 61.4491 4.23975 72.973 5.35596L272.142 24.6475C283.023 25.7015 291.006 26.477 297.273 27.5978C303.503 28.7124 307.784 30.1296 311.313 32.3335C317.804 36.3871 322.878 42.3535 325.837 49.411C327.446 53.2482 328.157 57.7008 328.257 64.0297C328.357 70.3946 327.841 78.3989 327.134 89.3075L325.805 109.82C325.092 120.82 324.567 128.891 323.637 135.24C322.712 141.552 321.418 145.905 319.305 149.518C315.419 156.165 309.556 161.433 302.533 164.589C298.715 166.305 294.25 167.128 287.874 167.375C281.463 167.623 273.381 167.285 262.368 166.822L62.4938 158.413C51.0216 157.931 42.5995 157.574 35.9823 156.747C29.3994 155.925 24.8734 154.664 21.1335 152.522C14.2535 148.582 8.82107 142.536 5.63657 135.276C3.90551 131.329 3.13398 126.694 3.01748 120.061C2.90038 113.394 3.44304 104.982 4.18547 93.5231L6.21969 62.1277Z" fill="white" stroke="#EA0F0F" stroke-width="6"/>
</svg>
