<svg width="206" height="162" viewBox="0 0 206 162" fill="none" xmlns="http://www.w3.org/2000/svg">
<path fill-rule="evenodd" clip-rule="evenodd" d="M136.524 38.9492C136.066 40.3441 135.752 41.8071 135.133 43.1255C130.091 53.9106 124.998 64.6702 119.923 75.4383C118.913 77.5902 117.801 79.6996 116.961 81.9196C116.265 83.7483 116.536 85.5855 118.284 86.8018C119.846 87.8905 121.561 87.6864 123.012 86.6317C124.939 85.2453 126.857 83.7908 128.521 82.1152C142.118 68.3701 155.69 54.5995 169.211 40.7779C180.678 29.0657 192.094 17.294 203.501 5.5307C204.698 4.29738 206.718 3.31922 205.742 1.04822C205.139 -0.363712 203.238 -0.406232 200.513 1.26937C197.78 2.94498 194.988 4.69713 192.688 6.90009C183.496 15.7204 174.371 24.6258 165.434 33.7098C155.316 44.0016 145.42 54.5145 135.43 64.9339C134.471 65.9376 133.545 66.9752 131.967 67.6471C132.289 66.7455 132.561 65.8185 132.926 64.9339C136.109 57.3129 139.419 49.7343 142.424 42.0452C143.374 39.6126 143.866 36.8823 143.951 34.2711C144.113 29.2273 140.48 27.1775 136.117 29.7717C134.097 30.9795 132.247 32.57 130.566 34.2372C124.218 40.5653 117.928 46.97 111.689 53.4087C88.2634 77.5562 64.3198 101.151 39.2641 123.623C27.6954 134 16.8056 145.133 5.60186 155.927C3.74305 157.722 1.86729 159.491 0 161.277C0.161266 161.515 0.322479 161.753 0.475257 162C1.16276 161.779 1.96913 161.719 2.52932 161.311C5.13504 159.423 7.67284 157.441 10.2531 155.502C37.8296 134.722 63.5558 111.834 87.7372 87.1761C101.767 72.8697 115.798 58.5631 129.845 44.2652C131.78 42.3004 133.775 40.4037 135.744 38.4729C135.998 38.626 136.253 38.7876 136.508 38.9407L136.524 38.9492Z" fill="black"/>
</svg>
