<svg width="64" height="73" viewBox="0 0 64 73" fill="none" xmlns="http://www.w3.org/2000/svg">
<path fill-rule="evenodd" clip-rule="evenodd" d="M41.5271 58.68C38.5317 56.6975 35.5452 54.7106 32.5236 52.7371C31.6646 52.1816 30.8273 51.5973 29.7519 51.1504C27.7307 50.3117 25.1081 50.3056 22.7264 51.0553C20.2922 51.8231 19.1121 52.9106 19.2881 54.1616C19.3875 54.8828 19.8135 55.6114 20.449 56.2236C21.5813 57.3092 22.9571 58.3173 24.2721 59.3437C27.8079 62.1024 31.4659 64.8204 34.8975 67.6112C37.4784 69.71 41.441 71.058 45.7078 72.1739C50.3341 73.3879 55.9213 71.7763 57.1817 68.927C57.981 67.1333 58.1353 65.3245 58.6988 63.5199C59.9915 59.3554 61.4562 55.1922 62.6506 51.0275C63.2678 48.8803 63.49 46.7404 63.7941 44.6014C63.8807 43.9851 63.7721 43.3604 63.4806 42.7948C62.9856 41.8126 61.1956 41.2373 59.2677 41.3805C57.2235 41.5321 55.6337 42.1188 54.9011 43.0887C54.3504 43.8233 54.1039 44.598 53.8446 45.3532C52.8038 48.3942 51.8043 51.4337 50.7966 54.4734C50.4882 54.5015 50.1789 54.5335 49.8705 54.5616C49.5031 53.9629 49.1018 53.3696 48.7688 52.7617C45.5252 46.9309 42.316 41.0909 39.0385 35.2655C32.5458 23.7245 21.6777 13.3954 9.99774 3.29413C9.16035 2.57359 8.10636 1.91757 7.09437 1.25591C6.63246 0.953406 6.07676 0.670584 5.45239 0.450526C4.17281 -0.000423485 2.68587 -0.074732 1.21964 0.599279C-0.173988 1.2344 0.206413 1.85254 0.830819 2.48121C4.13912 5.77358 7.47357 9.05692 10.6439 12.3867C17.5979 19.6914 24.6568 26.96 29.9901 34.7044C35.1471 42.1992 38.7583 49.9906 42.1229 57.8316C42.2043 58.0167 42.1244 58.2321 42.1135 58.4289C41.9187 58.5086 41.7241 58.5883 41.5376 58.6676L41.5271 58.68Z" fill="black"/>
</svg>
