<svg width="126" height="72" viewBox="0 0 126 72" fill="none" xmlns="http://www.w3.org/2000/svg">
<path fill-rule="evenodd" clip-rule="evenodd" d="M109.407 58.3924C105.887 56.1364 102.337 53.9071 98.8516 51.6204C86.1086 43.2728 72.6943 35.665 58.9688 28.4099C49.9778 23.6556 41.0918 18.7757 31.99 14.1645C23.3689 9.79648 14.5448 5.68758 5.78141 1.49934C4.82332 1.04483 3.7248 0.684934 2.63984 0.54349C2.04466 0.467139 0.953837 0.828934 0.769414 1.20756C0.523915 1.72101 0.663277 2.61725 1.10067 3.03345C2.00657 3.88467 3.14584 4.60656 4.30941 5.23803C11.9035 9.34359 19.5179 13.4379 27.1541 17.4913C38.4149 23.4731 49.7466 29.3699 60.9653 35.4039C69.6741 40.0839 78.32 44.8372 86.8716 49.7005C92.4161 52.8532 97.7357 56.2603 103.144 59.5652C103.57 59.8245 103.894 60.1955 104.07 60.7996C100.671 60.008 97.2723 59.2164 93.8788 58.4171C91.3403 57.8193 88.8071 57.2137 86.2761 56.6142C86.1835 56.5934 86.0989 56.561 86.0063 56.5402C82.7231 55.7999 80.401 56.4258 79.4949 58.2957C78.541 60.281 79.7096 62.1236 83.066 63.1694C87.728 64.6214 92.5118 65.8137 97.2132 67.1718C103.639 69.0305 110.349 69.8815 117.031 70.8367C118.044 70.9818 119.102 71.061 120.126 70.9983C124.387 70.745 126.629 67.8175 125.037 64.6496C124.829 64.2288 124.541 63.8332 124.268 63.4341C119.296 56.1951 114.321 48.96 109.336 41.7306C108.558 40.602 107.742 39.492 106.89 38.3968C106.444 37.8198 105.947 37.2511 105.363 36.7648C103.994 35.6175 102.016 35.3843 100.459 36.1058C98.9563 36.8014 98.2084 38.1293 98.6376 39.6293C98.8681 40.4293 99.3067 41.2102 99.7644 41.9541C102.787 46.8481 105.838 51.7291 108.878 56.6157C109.195 57.1252 109.461 57.6629 109.75 58.1853C109.638 58.2571 109.524 58.3228 109.411 58.3946L109.407 58.3924Z" fill="black"/>
</svg>
