<svg width="85" height="40" viewBox="0 0 85 40" fill="none" xmlns="http://www.w3.org/2000/svg">
<path d="M8.24944 18.8115L7.03087 18.9009C6.45744 18.9429 5.99857 18.8004 5.65429 18.4734C5.32476 18.1292 5.14248 17.7182 5.10742 17.2403C5.0712 16.7465 5.19156 16.3133 5.4685 15.9407C5.7602 15.5509 6.19277 15.335 6.76621 15.293L9.92013 15.0616C10.4617 15.0219 10.9006 15.1098 11.2367 15.3254C11.6913 15.6283 11.9455 16.1462 11.9992 16.8789L12.9737 30.1636C13.0228 30.8326 12.8776 31.3637 12.5381 31.757C12.2134 32.1331 11.7643 32.3422 11.1909 32.3843C10.6015 32.4275 10.1187 32.2868 9.74259 31.962C9.36645 31.6373 9.15326 31.1325 9.10301 30.4475L8.24944 18.8115ZM23.6001 13.6738C25.9098 13.5043 27.7781 14.3041 29.2051 16.0732C30.4723 17.6297 31.1965 19.6425 31.3776 22.1114C31.5587 24.5804 31.1366 26.6853 30.1113 28.426C28.9577 30.3843 27.2261 31.4482 24.9164 31.6176C22.6067 31.7871 20.7384 30.9873 19.3115 29.2182C18.0431 27.6458 17.3183 25.625 17.1372 23.1561C16.9573 20.703 17.38 18.6061 18.4053 16.8654C19.5588 14.9071 21.2905 13.8432 23.6001 13.6738ZM24.6413 27.8664C25.7403 27.7858 26.5169 27.1283 26.9708 25.8939C27.332 24.9225 27.4629 23.7599 27.3635 22.4059C27.2666 21.0838 26.9686 19.9686 26.4695 19.0604C25.8232 17.8907 24.9585 17.3456 23.8753 17.425C22.7762 17.5056 21.9997 18.1631 21.5458 19.3975C21.1846 20.3689 21.0531 21.5236 21.1513 22.8616C21.2494 24.1996 21.548 25.3228 22.047 26.231C22.6934 27.4007 23.5581 27.9459 24.6413 27.8664ZM38.8135 12.5578C41.1232 12.3883 42.9915 13.1881 44.4184 14.9572C45.6857 16.5137 46.4098 18.5265 46.591 20.9955C46.7721 23.4644 46.3499 25.5693 45.3246 27.31C44.1711 29.2683 42.4395 30.3322 40.1298 30.5017C37.8201 30.6711 35.9518 29.8713 34.5248 28.1023C33.2564 26.5298 32.5316 24.5091 32.3505 22.0401C32.1706 19.587 32.5933 17.4901 33.6186 15.7494C34.7722 13.7911 36.5038 12.7272 38.8135 12.5578ZM39.8546 26.7504C40.9537 26.6698 41.7302 26.0123 42.1841 24.7779C42.5453 23.8065 42.6762 22.6439 42.5769 21.2899C42.4799 19.9678 42.1819 18.8526 41.6829 17.9444C41.0365 16.7747 40.1718 16.2296 39.0886 16.309C37.9896 16.3896 37.213 17.0472 36.7591 18.2816C36.3979 19.2529 36.2665 20.4076 36.3646 21.7456C36.4628 23.0836 36.7613 24.2068 37.2604 25.115C37.9067 26.2847 38.7714 26.8299 39.8546 26.7504Z" fill="black"/>
<circle cx="66.9581" cy="17.842" r="16" transform="rotate(-4.19548 66.9581 17.842)" fill="#EA0F0F"/>
<path d="M69.1889 9.65689C72.0402 9.44773 74.5211 11.5896 74.7302 14.4408C74.9394 17.292 72.7976 19.7729 69.9464 19.9821C69.6872 20.0011 69.4924 20.2266 69.5115 20.4858C69.5284 20.7162 69.7084 20.8957 69.9303 20.9194L70.0152 20.9207L75.1778 20.542L75.5221 25.2353L70.3595 25.614C67.5083 25.8232 65.0273 23.6813 64.8182 20.8301C64.609 17.9789 66.7508 15.498 69.6021 15.2888C69.8613 15.2698 70.056 15.0443 70.037 14.7851C70.0201 14.5547 69.84 14.3752 69.6181 14.3515L69.5332 14.3502L63.9013 14.7633C63.6709 14.7802 63.4914 14.9603 63.4678 15.1821L63.4664 15.267L64.2582 26.0616L59.565 26.4059L58.7731 15.6113C58.5691 12.8296 60.6027 10.4004 63.3497 10.0894L63.557 10.07L69.1889 9.65689Z" fill="white"/>
</svg>
