<svg width="124" height="133" viewBox="0 0 124 133" fill="none" xmlns="http://www.w3.org/2000/svg">
<path fill-rule="evenodd" clip-rule="evenodd" d="M2.62823 11.3936C3.959 10.7705 5.26614 10.083 6.58999 9.44393C8.29247 8.62099 9.9512 7.66454 11.7245 7.03457C17.1579 5.11684 22.8018 4.53857 28.5277 4.91584C42.3684 5.8285 55.3135 10.0024 67.225 17.0467C83.002 26.3771 88.9982 40.9858 88.2029 58.896C88.18 59.4081 87.9954 59.9135 87.8915 60.3966C85.3347 58.7509 82.9858 57.0614 80.4794 55.6633C76.6062 53.5066 72.4444 52.3128 67.9665 52.4923C61.2134 52.7593 56.3577 57.4318 56.2285 63.9368C56.1187 69.6356 58.1787 74.5261 62.3244 78.362C67.0659 82.7459 72.5739 83.6812 78.5727 81.3856C83.0241 79.6816 86.2149 76.5004 88.6714 72.4788C89.0153 71.9164 89.3833 71.3713 89.8776 70.5998C101.927 85.9189 108.397 103.569 114.4 121.504C113.279 121.049 112.347 120.438 111.389 119.871C109.693 118.865 108.014 117.813 106.258 116.928C104.914 116.251 103.614 116.681 102.927 117.789C102.294 118.81 102.452 120.094 103.452 121.078C104.102 121.719 104.849 122.267 105.591 122.803C109.871 125.911 114.161 129.005 118.447 132.1C118.62 132.224 118.79 132.349 118.972 132.455C121.033 133.617 123.157 132.714 123.695 130.38C123.882 129.567 123.894 128.694 123.877 127.847C123.774 122.389 123.596 116.935 123.536 111.479C123.503 108.901 122.17 107.32 119.872 105.93C118.844 107.488 117.872 108.956 116.863 110.481C116.746 110.21 116.566 109.848 116.422 109.475C115.263 106.507 114.182 103.501 112.945 100.567C107.61 87.9349 101.747 75.6054 92.5052 65.272C91.957 64.6562 91.9328 64.041 92.0842 63.3149C92.8903 59.4026 93.072 55.4469 92.6509 51.4739C90.7919 33.8821 83.1165 20.0838 67.1241 11.6996C59.2807 7.58623 51.0493 4.57222 42.4557 2.58494C35.08 0.877713 27.6336 0.297175 20.0876 1.07032C12.9284 1.80767 6.70224 4.55615 1.40496 9.44033C0.952102 9.85889 0.581839 10.3659 0.0503962 10.9687C1.0285 11.802 1.83543 11.776 2.64197 11.3999L2.62823 11.3936ZM75.8829 77.4392C72.2226 78.5519 68.9241 77.8136 66.0496 75.3677C62.8196 72.6191 61.1835 69.0062 61.0461 64.763C60.9334 61.263 62.6397 58.919 66.0462 58.1783C67.7133 57.8183 69.5515 57.7453 71.2346 58.0276C77.2897 59.0493 81.9797 62.5579 86.4155 66.8827C84.1579 71.9511 81.1582 75.8344 75.8904 77.4336L75.8829 77.4392Z" fill="#EA0F0F"/>
</svg>
