<svg width="219" height="143" viewBox="0 0 219 143" fill="none" xmlns="http://www.w3.org/2000/svg">
    <path fill-rule="evenodd" clip-rule="evenodd" d="M60.2306 79.0303C58.4679 74.977 56.9857 72.2636 56.075 69.3664C52.428 57.764 48.9248 46.1244 45.435 34.4808C43.4154 27.7496 41.7556 20.9147 39.4522 14.2934C38.2942 10.9625 36.4548 7.70159 34.235 4.94994C29.5762 -0.803488 22.3976 -1.45444 17.0547 3.64037C14.0465 6.50613 11.3688 10.1643 9.7756 13.9753C3.84257 28.1448 1.1842 43.0992 0.626674 58.4247C0.547528 60.6224 0.820791 62.8812 1.2749 65.0324C1.72172 67.0898 2.74809 69.0126 5.30285 69.0145C8.05888 69.0207 8.39978 66.9492 8.77772 64.8071C11.3058 50.6396 15.0228 36.7923 20.08 23.322C21.3715 19.8703 23.1518 16.6076 25.2727 12.0496C27.0517 14.93 28.4854 16.5939 29.1852 18.5141C31.7714 25.5877 34.1278 32.7545 36.5609 39.8827C40.5469 51.5505 44.4202 63.2605 48.5546 74.8824C49.7523 78.2454 51.3989 81.5289 53.3279 84.5329C57.19 90.5546 63.1919 91.2067 67.856 85.7894C71.6247 81.4099 74.7151 76.4269 77.8706 71.5568C83.0914 63.506 88.6297 55.7119 95.6281 49.1005C97.9671 46.8849 100.541 44.8038 103.313 43.1642C107.549 40.6508 109.947 41.4701 111.662 46.1738C113.002 49.8477 113.98 53.7368 114.435 57.61C115.333 65.2493 115.595 72.9595 116.413 80.6238C117.421 90.1436 118.433 99.6769 120.043 109.107C120.814 113.585 122.524 118.061 124.591 122.139C129.3 131.373 137.836 132.647 145.113 125.247C148.074 122.233 150.469 118.618 152.819 115.069C155.659 110.799 158.124 106.297 160.845 101.953C161.747 100.514 162.814 99.1495 164.003 97.9396C166.719 95.1567 168.05 95.034 171.051 97.3966C172.794 98.7728 174.431 100.329 175.895 101.999C179.733 106.387 183.592 110.776 187.184 115.373C194.421 124.64 203.239 132.272 212.175 139.787C213.908 141.248 215.719 143.054 218.943 142.428C218.572 141.108 218.436 139.99 217.956 139.029C209.7 122.116 199.149 106.755 186.197 93.0587C183.614 90.3304 180.833 87.7004 177.826 85.4581C170.827 80.2205 162.57 80.309 156.131 86.1786C152.661 89.3422 149.798 93.3308 147.28 97.3314C144.283 102.093 142.003 107.299 139.294 112.246C138.253 114.142 136.907 115.866 135.069 118.614C133.617 115.736 132.13 113.808 131.666 111.675C129.924 103.66 128.161 95.623 127.105 87.5074C126.179 80.394 126.361 73.1529 125.75 66.0017C125.282 60.5578 124.569 55.1085 123.523 49.7324C122.87 46.408 121.762 43.0693 120.254 40.0387C116.244 31.9929 108.715 28.8628 100.43 32.3458C95.9584 34.2295 91.4623 36.9782 88.157 40.4532C82.4304 46.4944 77.4427 53.261 72.4958 59.9927C69.3691 64.2478 66.9049 68.9857 64.0962 73.4752C63.1247 75.0245 61.9983 76.4812 60.2086 79.0075L60.2306 79.0303Z" fill="black"/>
</svg>
