<svg width="414" height="267" viewBox="0 0 414 267" fill="none" xmlns="http://www.w3.org/2000/svg">
    <path d="M0 74.6292C0 51.3993 0 39.7843 4.58161 31.0546C8.60947 23.38 15.0211 17.2214 22.8516 13.5056C31.7586 9.27896 43.3642 9.74634 66.5753 10.6811L352.575 22.1987C374.158 23.0679 384.95 23.5025 393.156 27.9794C400.379 31.9195 406.211 37.9909 409.857 45.366C414 53.7458 414 64.5462 414 86.1469V193.95C414 215.78 414 226.694 409.795 235.126C406.095 242.545 400.18 248.631 392.87 252.542C384.563 256.987 373.653 257.299 351.832 257.924L65.8321 266.115C42.8534 266.773 31.3641 267.102 22.5583 262.835C14.8155 259.083 8.48876 252.935 4.51703 245.303C0 236.623 0 225.129 0 202.141V74.6292Z" fill="#EAEAE9"/>
    <rect x="261" y="9.76172" width="112" height="48" rx="24" transform="rotate(-5 261 9.76172)" fill="#EA0F0F"/>
    <path d="M291.471 18.0437L289.288 43.9261L284.28 44.3643L286.445 18.4834L291.471 18.0437ZM298.303 28.3684L297.92 32.672L288.885 33.4625L289.267 29.1589L298.303 28.3684ZM300.174 17.2823L299.793 21.6034L289.829 22.4751L290.192 18.1555L300.174 17.2823ZM303.415 16.9987L311.121 16.3421C312.655 16.255 313.968 16.4754 315.061 17.0032C316.165 17.5184 317.017 18.3143 317.617 19.3911C318.227 20.4552 318.535 21.7576 318.541 23.2981C318.547 24.5798 318.37 25.7187 318.01 26.7148C317.661 27.6982 317.127 28.5801 316.407 29.3607C315.686 30.1296 314.782 30.8262 313.696 31.4506L312.077 32.5098L305.388 33.0951L305.751 28.7755L309.992 28.4398C310.773 28.3596 311.422 28.1205 311.94 27.7223C312.458 27.324 312.849 26.8134 313.112 26.1905C313.387 25.5665 313.539 24.8885 313.569 24.1565C313.591 23.6017 313.549 23.0467 313.441 22.4914C313.346 21.9352 313.129 21.4777 312.792 21.119C312.455 20.7603 311.952 20.5926 311.283 20.6158L308.077 20.8786L306.258 42.4415L301.25 42.8796L303.415 16.9987ZM312.58 41.8884L309.011 30.7488L314.053 30.2901L317.896 41.1409L317.921 41.4211L312.58 41.8884ZM335.465 35.616L335.083 39.9196L324.331 40.8603L324.678 36.5597L335.465 35.616ZM328.072 14.8415L325.89 40.7239L320.882 41.1621L323.046 15.2812L328.072 14.8415ZM334.965 24.6492L334.607 28.8271L325.273 29.6437L325.614 25.4673L334.965 24.6492ZM337.248 14.0387L336.867 18.3598L326.133 19.299L326.513 14.9778L337.248 14.0387ZM352.943 34.0869L352.561 38.3905L341.809 39.3312L342.156 35.0306L352.943 34.0869ZM345.55 13.3124L343.367 39.1948L338.359 39.633L340.524 13.7521L345.55 13.3124ZM352.442 23.1201L352.084 27.298L342.751 28.1146L343.091 23.9382L352.442 23.1201ZM354.726 12.5096L354.345 16.8307L343.61 17.7699L343.991 13.4487L354.726 12.5096Z" fill="white"/>
</svg>
