<svg width="471" height="256" viewBox="0 0 471 256" fill="none" xmlns="http://www.w3.org/2000/svg">
<path d="M0 74.0644C0 52.1566 0 41.2027 4.22629 32.7541C7.94507 25.32 13.8875 19.2292 21.2275 15.3281C29.5693 10.8946 40.5198 10.6244 62.4209 10.0838L405.421 1.61851C428.32 1.05335 439.77 0.770765 448.541 5.0508C456.254 8.81435 462.552 14.9588 466.505 22.5764C471 31.2395 471 42.6927 471 65.599V190.269C471 213.217 471 224.691 466.494 233.362C462.531 240.987 456.219 247.134 448.491 250.891C439.702 255.165 428.232 254.858 405.292 254.246L62.2921 245.09C40.432 244.506 29.502 244.214 21.1778 239.775C13.8529 235.869 7.92487 229.78 4.21549 222.354C0 213.914 0 202.98 0 181.112V74.0644Z" fill="#EA0F0F"/>
<path d="M51.6719 65.4453H44.3672L44.3281 61.4219H50.4609C51.5417 61.4219 52.4271 61.2852 53.1172 61.0117C53.8073 60.7253 54.3216 60.3151 54.6602 59.7812C55.0117 59.2344 55.1875 58.5703 55.1875 57.7891C55.1875 56.9036 55.0182 56.1875 54.6797 55.6406C54.3542 55.0938 53.8398 54.6966 53.1367 54.4492C52.4466 54.2018 51.5547 54.0781 50.4609 54.0781H46.3984V77.9258H40.5391V49.4883H50.4609C52.1146 49.4883 53.5924 49.6445 54.8945 49.957C56.2096 50.2695 57.3229 50.7448 58.2344 51.3828C59.1458 52.0208 59.8424 52.8281 60.3242 53.8047C60.806 54.7682 61.0469 55.9141 61.0469 57.2422C61.0469 58.4141 60.7799 59.4948 60.2461 60.4844C59.7253 61.474 58.8984 62.2812 57.7656 62.9062C56.6458 63.5312 55.181 63.8763 53.3711 63.9414L51.6719 65.4453ZM51.418 77.9258H42.7656L45.0508 73.3555H51.418C52.4466 73.3555 53.2865 73.1927 53.9375 72.8672C54.5885 72.5286 55.0703 72.0729 55.3828 71.5C55.6953 70.9271 55.8516 70.2695 55.8516 69.5273C55.8516 68.694 55.7083 67.9714 55.4219 67.3594C55.1484 66.7474 54.7057 66.2786 54.0938 65.9531C53.4818 65.6146 52.6745 65.4453 51.6719 65.4453H46.0273L46.0664 61.4219H53.0977L54.4453 63.0039C56.1771 62.9779 57.5703 63.2839 58.625 63.9219C59.6927 64.5469 60.4674 65.3607 60.9492 66.3633C61.444 67.3659 61.6914 68.4401 61.6914 69.5859C61.6914 71.4089 61.2943 72.9453 60.5 74.1953C59.7057 75.4323 58.5404 76.3633 57.0039 76.9883C55.4805 77.6133 53.6185 77.9258 51.418 77.9258ZM77.1406 73.1602V63.7461C77.1406 63.069 77.0299 62.4896 76.8086 62.0078C76.5872 61.513 76.2422 61.1289 75.7734 60.8555C75.3177 60.582 74.7253 60.4453 73.9961 60.4453C73.3711 60.4453 72.8307 60.556 72.375 60.7773C71.9193 60.9857 71.5677 61.2917 71.3203 61.6953C71.0729 62.0859 70.9492 62.5482 70.9492 63.082H65.3242C65.3242 62.1836 65.5326 61.3307 65.9492 60.5234C66.3659 59.7161 66.9714 59.0065 67.7656 58.3945C68.5599 57.7695 69.5039 57.2812 70.5977 56.9297C71.7044 56.5781 72.9414 56.4023 74.3086 56.4023C75.9492 56.4023 77.4076 56.6758 78.6836 57.2227C79.9596 57.7695 80.9622 58.5898 81.6914 59.6836C82.4336 60.7773 82.8047 62.1445 82.8047 63.7852V72.8281C82.8047 73.987 82.8763 74.9375 83.0195 75.6797C83.1628 76.4089 83.3711 77.0469 83.6445 77.5938V77.9258H77.9609C77.6875 77.3529 77.4792 76.6367 77.3359 75.7773C77.2057 74.9049 77.1406 74.0326 77.1406 73.1602ZM77.8828 65.0547L77.9219 68.2383H74.7773C74.0352 68.2383 73.3906 68.3229 72.8438 68.4922C72.2969 68.6615 71.8477 68.9023 71.4961 69.2148C71.1445 69.5143 70.8841 69.8659 70.7148 70.2695C70.5586 70.6732 70.4805 71.1159 70.4805 71.5977C70.4805 72.0794 70.5911 72.5156 70.8125 72.9062C71.0339 73.2839 71.3529 73.5833 71.7695 73.8047C72.1862 74.013 72.6745 74.1172 73.2344 74.1172C74.0807 74.1172 74.8164 73.9479 75.4414 73.6094C76.0664 73.2708 76.5482 72.8542 76.8867 72.3594C77.2383 71.8646 77.4206 71.3958 77.4336 70.9531L78.918 73.3359C78.7096 73.8698 78.4232 74.4232 78.0586 74.9961C77.707 75.569 77.2578 76.1094 76.7109 76.6172C76.1641 77.112 75.5065 77.5221 74.7383 77.8477C73.9701 78.1602 73.0586 78.3164 72.0039 78.3164C70.6628 78.3164 69.4453 78.0495 68.3516 77.5156C67.2708 76.9688 66.4115 76.2201 65.7734 75.2695C65.1484 74.306 64.8359 73.2122 64.8359 71.9883C64.8359 70.8815 65.0443 69.8984 65.4609 69.0391C65.8776 68.1797 66.4896 67.457 67.2969 66.8711C68.1172 66.2721 69.1393 65.8229 70.3633 65.5234C71.5872 65.2109 73.0065 65.0547 74.6211 65.0547H77.8828ZM98.5664 72.0859C98.5664 71.6823 98.4492 71.3177 98.2148 70.9922C97.9805 70.6667 97.5443 70.3672 96.9062 70.0938C96.2812 69.8073 95.3763 69.5469 94.1914 69.3125C93.1237 69.0781 92.1276 68.7852 91.2031 68.4336C90.2917 68.069 89.4974 67.6328 88.8203 67.125C88.1562 66.6172 87.6354 66.0182 87.2578 65.3281C86.8802 64.625 86.6914 63.8242 86.6914 62.9258C86.6914 62.0404 86.8802 61.207 87.2578 60.4258C87.6484 59.6445 88.2018 58.9544 88.918 58.3555C89.6471 57.7435 90.5326 57.2682 91.5742 56.9297C92.6289 56.5781 93.8138 56.4023 95.1289 56.4023C96.9648 56.4023 98.5404 56.6953 99.8555 57.2812C101.184 57.8672 102.199 58.6745 102.902 59.7031C103.618 60.7188 103.977 61.8776 103.977 63.1797H98.3516C98.3516 62.6328 98.2344 62.1445 98 61.7148C97.7786 61.2721 97.4271 60.9271 96.9453 60.6797C96.4766 60.4193 95.8646 60.2891 95.1094 60.2891C94.4844 60.2891 93.944 60.3997 93.4883 60.6211C93.0326 60.8294 92.681 61.1159 92.4336 61.4805C92.1992 61.832 92.082 62.2227 92.082 62.6523C92.082 62.9779 92.1471 63.2708 92.2773 63.5312C92.4206 63.7786 92.6484 64.0065 92.9609 64.2148C93.2734 64.4232 93.6771 64.6185 94.1719 64.8008C94.6797 64.9701 95.3047 65.1263 96.0469 65.2695C97.5703 65.582 98.931 65.9922 100.129 66.5C101.327 66.9948 102.277 67.6719 102.98 68.5312C103.684 69.3776 104.035 70.4909 104.035 71.8711C104.035 72.8086 103.827 73.668 103.41 74.4492C102.993 75.2305 102.395 75.9141 101.613 76.5C100.832 77.0729 99.8945 77.5221 98.8008 77.8477C97.7201 78.1602 96.5026 78.3164 95.1484 78.3164C93.1823 78.3164 91.5156 77.9648 90.1484 77.2617C88.7943 76.5586 87.7656 75.6667 87.0625 74.5859C86.3724 73.4922 86.0273 72.3724 86.0273 71.2266H91.3594C91.3854 71.9948 91.5807 72.6133 91.9453 73.082C92.3229 73.5508 92.7982 73.8893 93.3711 74.0977C93.957 74.306 94.5885 74.4102 95.2656 74.4102C95.9948 74.4102 96.6003 74.3125 97.082 74.1172C97.5638 73.9089 97.9284 73.6354 98.1758 73.2969C98.4362 72.9453 98.5664 72.5417 98.5664 72.0859ZM113.625 56.793V77.9258H107.98V56.793H113.625ZM107.629 51.2852C107.629 50.4648 107.915 49.7878 108.488 49.2539C109.061 48.7201 109.829 48.4531 110.793 48.4531C111.743 48.4531 112.505 48.7201 113.078 49.2539C113.664 49.7878 113.957 50.4648 113.957 51.2852C113.957 52.1055 113.664 52.7826 113.078 53.3164C112.505 53.8503 111.743 54.1172 110.793 54.1172C109.829 54.1172 109.061 53.8503 108.488 53.3164C107.915 52.7826 107.629 52.1055 107.629 51.2852ZM127.004 73.9219C127.694 73.9219 128.306 73.7917 128.84 73.5312C129.374 73.2578 129.79 72.8802 130.09 72.3984C130.402 71.9036 130.565 71.3242 130.578 70.6602H135.871C135.858 72.1445 135.461 73.4661 134.68 74.625C133.898 75.7708 132.85 76.6758 131.535 77.3398C130.22 77.9909 128.749 78.3164 127.121 78.3164C125.48 78.3164 124.048 78.043 122.824 77.4961C121.613 76.9492 120.604 76.194 119.797 75.2305C118.99 74.2539 118.384 73.1211 117.98 71.832C117.577 70.5299 117.375 69.1367 117.375 67.6523V67.0859C117.375 65.5885 117.577 64.1953 117.98 62.9062C118.384 61.6042 118.99 60.4714 119.797 59.5078C120.604 58.5312 121.613 57.7695 122.824 57.2227C124.035 56.6758 125.454 56.4023 127.082 56.4023C128.814 56.4023 130.331 56.7344 131.633 57.3984C132.948 58.0625 133.977 59.013 134.719 60.25C135.474 61.474 135.858 62.9258 135.871 64.6055H130.578C130.565 63.9023 130.415 63.2643 130.129 62.6914C129.855 62.1185 129.452 61.6628 128.918 61.3242C128.397 60.9727 127.753 60.7969 126.984 60.7969C126.164 60.7969 125.493 60.9727 124.973 61.3242C124.452 61.6628 124.048 62.1315 123.762 62.7305C123.475 63.3164 123.273 63.987 123.156 64.7422C123.052 65.4844 123 66.2656 123 67.0859V67.6523C123 68.4727 123.052 69.2604 123.156 70.0156C123.26 70.7708 123.456 71.4414 123.742 72.0273C124.042 72.6133 124.452 73.0755 124.973 73.4141C125.493 73.7526 126.171 73.9219 127.004 73.9219Z" fill="white"/>
<path d="M41.2266 106.02L46.3945 116.014L51.5762 106.02H54.5703L47.707 118.488V125.926H45.0684V118.488L38.2051 106.02H41.2266ZM55.1719 118.693V118.379C55.1719 117.312 55.3268 116.324 55.6367 115.412C55.9466 114.492 56.3932 113.694 56.9766 113.02C57.5599 112.336 58.2663 111.807 59.0957 111.434C59.9251 111.051 60.8548 110.859 61.8848 110.859C62.9238 110.859 63.8581 111.051 64.6875 111.434C65.526 111.807 66.237 112.336 66.8203 113.02C67.4128 113.694 67.8639 114.492 68.1738 115.412C68.4837 116.324 68.6387 117.312 68.6387 118.379V118.693C68.6387 119.76 68.4837 120.749 68.1738 121.66C67.8639 122.572 67.4128 123.369 66.8203 124.053C66.237 124.727 65.5306 125.256 64.7012 125.639C63.8809 126.012 62.9512 126.199 61.9121 126.199C60.873 126.199 59.9388 126.012 59.1094 125.639C58.2799 125.256 57.569 124.727 56.9766 124.053C56.3932 123.369 55.9466 122.572 55.6367 121.66C55.3268 120.749 55.1719 119.76 55.1719 118.693ZM57.7012 118.379V118.693C57.7012 119.432 57.7878 120.129 57.9609 120.785C58.1341 121.432 58.3939 122.007 58.7402 122.508C59.0957 123.009 59.5378 123.406 60.0664 123.697C60.5951 123.98 61.2103 124.121 61.9121 124.121C62.6048 124.121 63.2109 123.98 63.7305 123.697C64.2591 123.406 64.6966 123.009 65.043 122.508C65.3893 122.007 65.6491 121.432 65.8223 120.785C66.0046 120.129 66.0957 119.432 66.0957 118.693V118.379C66.0957 117.65 66.0046 116.962 65.8223 116.314C65.6491 115.658 65.3848 115.079 65.0293 114.578C64.6829 114.068 64.2454 113.667 63.7168 113.375C63.1973 113.083 62.5866 112.938 61.8848 112.938C61.1921 112.938 60.5814 113.083 60.0527 113.375C59.5332 113.667 59.0957 114.068 58.7402 114.578C58.3939 115.079 58.1341 115.658 57.9609 116.314C57.7878 116.962 57.7012 117.65 57.7012 118.379ZM80.8613 122.508V111.133H83.4043V125.926H80.9844L80.8613 122.508ZM81.3398 119.391L82.3926 119.363C82.3926 120.348 82.2878 121.259 82.0781 122.098C81.8776 122.927 81.5495 123.647 81.0938 124.258C80.638 124.868 80.041 125.347 79.3027 125.693C78.5645 126.031 77.6667 126.199 76.6094 126.199C75.8893 126.199 75.2285 126.094 74.627 125.885C74.0345 125.675 73.5241 125.352 73.0957 124.914C72.6673 124.477 72.3346 123.907 72.0977 123.205C71.8698 122.503 71.7559 121.66 71.7559 120.676V111.133H74.2852V120.703C74.2852 121.368 74.3581 121.92 74.5039 122.357C74.6589 122.786 74.8639 123.128 75.1191 123.383C75.3835 123.629 75.6751 123.802 75.9941 123.902C76.3223 124.003 76.6595 124.053 77.0059 124.053C78.0814 124.053 78.9336 123.848 79.5625 123.438C80.1914 123.018 80.6426 122.458 80.916 121.756C81.1986 121.045 81.3398 120.257 81.3398 119.391ZM100.125 124.121C100.727 124.121 101.283 123.998 101.793 123.752C102.303 123.506 102.723 123.169 103.051 122.74C103.379 122.303 103.566 121.806 103.611 121.25H106.018C105.972 122.125 105.676 122.941 105.129 123.697C104.591 124.445 103.885 125.051 103.01 125.516C102.135 125.971 101.173 126.199 100.125 126.199C99.013 126.199 98.0423 126.003 97.2129 125.611C96.3926 125.219 95.709 124.682 95.1621 123.998C94.6243 123.314 94.2188 122.531 93.9453 121.646C93.681 120.753 93.5488 119.81 93.5488 118.816V118.242C93.5488 117.249 93.681 116.31 93.9453 115.426C94.2188 114.533 94.6243 113.744 95.1621 113.061C95.709 112.377 96.3926 111.839 97.2129 111.447C98.0423 111.055 99.013 110.859 100.125 110.859C101.283 110.859 102.294 111.096 103.16 111.57C104.026 112.035 104.705 112.673 105.197 113.484C105.699 114.286 105.972 115.198 106.018 116.219H103.611C103.566 115.608 103.393 115.057 103.092 114.564C102.8 114.072 102.399 113.68 101.889 113.389C101.387 113.088 100.799 112.938 100.125 112.938C99.3503 112.938 98.6986 113.092 98.1699 113.402C97.6504 113.703 97.2357 114.113 96.9258 114.633C96.625 115.143 96.4062 115.713 96.2695 116.342C96.1419 116.962 96.0781 117.595 96.0781 118.242V118.816C96.0781 119.464 96.1419 120.102 96.2695 120.73C96.3971 121.359 96.6113 121.929 96.9121 122.439C97.222 122.95 97.6367 123.36 98.1562 123.67C98.6849 123.971 99.3411 124.121 100.125 124.121ZM117.584 123.396V115.781C117.584 115.198 117.465 114.692 117.229 114.264C117.001 113.826 116.654 113.489 116.189 113.252C115.725 113.015 115.15 112.896 114.467 112.896C113.829 112.896 113.268 113.006 112.785 113.225C112.311 113.443 111.938 113.73 111.664 114.086C111.4 114.441 111.268 114.824 111.268 115.234H108.738C108.738 114.706 108.875 114.182 109.148 113.662C109.422 113.143 109.814 112.673 110.324 112.254C110.844 111.826 111.464 111.488 112.184 111.242C112.913 110.987 113.724 110.859 114.617 110.859C115.693 110.859 116.641 111.042 117.461 111.406C118.29 111.771 118.938 112.322 119.402 113.061C119.876 113.79 120.113 114.706 120.113 115.809V122.699C120.113 123.191 120.154 123.715 120.236 124.271C120.327 124.827 120.46 125.306 120.633 125.707V125.926H117.994C117.867 125.634 117.766 125.247 117.693 124.764C117.62 124.271 117.584 123.816 117.584 123.396ZM118.021 116.957L118.049 118.734H115.492C114.772 118.734 114.13 118.794 113.564 118.912C112.999 119.021 112.525 119.19 112.143 119.418C111.76 119.646 111.468 119.933 111.268 120.279C111.067 120.617 110.967 121.013 110.967 121.469C110.967 121.934 111.072 122.357 111.281 122.74C111.491 123.123 111.805 123.428 112.225 123.656C112.653 123.875 113.177 123.984 113.797 123.984C114.572 123.984 115.255 123.82 115.848 123.492C116.44 123.164 116.91 122.763 117.256 122.289C117.611 121.815 117.803 121.355 117.83 120.908L118.91 122.125C118.846 122.508 118.673 122.932 118.391 123.396C118.108 123.861 117.73 124.308 117.256 124.736C116.791 125.156 116.235 125.507 115.588 125.789C114.95 126.062 114.23 126.199 113.428 126.199C112.425 126.199 111.546 126.003 110.789 125.611C110.042 125.219 109.458 124.695 109.039 124.039C108.629 123.374 108.424 122.631 108.424 121.811C108.424 121.018 108.579 120.32 108.889 119.719C109.199 119.108 109.645 118.602 110.229 118.201C110.812 117.791 111.514 117.481 112.334 117.271C113.154 117.062 114.07 116.957 115.082 116.957H118.021ZM126.621 114.291V125.926H124.092V111.133H126.484L126.621 114.291ZM126.02 117.969L124.967 117.928C124.976 116.916 125.126 115.982 125.418 115.125C125.71 114.259 126.12 113.507 126.648 112.869C127.177 112.231 127.806 111.739 128.535 111.393C129.273 111.037 130.089 110.859 130.982 110.859C131.712 110.859 132.368 110.96 132.951 111.16C133.535 111.352 134.031 111.661 134.441 112.09C134.861 112.518 135.18 113.074 135.398 113.758C135.617 114.432 135.727 115.257 135.727 116.232V125.926H133.184V116.205C133.184 115.43 133.07 114.811 132.842 114.346C132.614 113.872 132.281 113.53 131.844 113.32C131.406 113.102 130.868 112.992 130.23 112.992C129.602 112.992 129.027 113.124 128.508 113.389C127.997 113.653 127.555 114.018 127.182 114.482C126.817 114.947 126.53 115.48 126.32 116.082C126.12 116.674 126.02 117.303 126.02 117.969ZM152.434 124.121C153.035 124.121 153.591 123.998 154.102 123.752C154.612 123.506 155.031 123.169 155.359 122.74C155.688 122.303 155.874 121.806 155.92 121.25H158.326C158.281 122.125 157.984 122.941 157.438 123.697C156.9 124.445 156.193 125.051 155.318 125.516C154.443 125.971 153.482 126.199 152.434 126.199C151.322 126.199 150.351 126.003 149.521 125.611C148.701 125.219 148.018 124.682 147.471 123.998C146.933 123.314 146.527 122.531 146.254 121.646C145.99 120.753 145.857 119.81 145.857 118.816V118.242C145.857 117.249 145.99 116.31 146.254 115.426C146.527 114.533 146.933 113.744 147.471 113.061C148.018 112.377 148.701 111.839 149.521 111.447C150.351 111.055 151.322 110.859 152.434 110.859C153.591 110.859 154.603 111.096 155.469 111.57C156.335 112.035 157.014 112.673 157.506 113.484C158.007 114.286 158.281 115.198 158.326 116.219H155.92C155.874 115.608 155.701 115.057 155.4 114.564C155.109 114.072 154.708 113.68 154.197 113.389C153.696 113.088 153.108 112.938 152.434 112.938C151.659 112.938 151.007 113.092 150.479 113.402C149.959 113.703 149.544 114.113 149.234 114.633C148.934 115.143 148.715 115.713 148.578 116.342C148.451 116.962 148.387 117.595 148.387 118.242V118.816C148.387 119.464 148.451 120.102 148.578 120.73C148.706 121.359 148.92 121.929 149.221 122.439C149.531 122.95 149.945 123.36 150.465 123.67C150.993 123.971 151.65 124.121 152.434 124.121ZM163.699 104.926V125.926H161.17V104.926H163.699ZM163.098 117.969L162.045 117.928C162.054 116.916 162.204 115.982 162.496 115.125C162.788 114.259 163.198 113.507 163.727 112.869C164.255 112.231 164.884 111.739 165.613 111.393C166.352 111.037 167.167 110.859 168.061 110.859C168.79 110.859 169.446 110.96 170.029 111.16C170.613 111.352 171.109 111.661 171.52 112.09C171.939 112.518 172.258 113.074 172.477 113.758C172.695 114.432 172.805 115.257 172.805 116.232V125.926H170.262V116.205C170.262 115.43 170.148 114.811 169.92 114.346C169.692 113.872 169.359 113.53 168.922 113.32C168.484 113.102 167.947 112.992 167.309 112.992C166.68 112.992 166.105 113.124 165.586 113.389C165.076 113.653 164.633 114.018 164.26 114.482C163.895 114.947 163.608 115.48 163.398 116.082C163.198 116.674 163.098 117.303 163.098 117.969ZM175.922 118.693V118.379C175.922 117.312 176.077 116.324 176.387 115.412C176.697 114.492 177.143 113.694 177.727 113.02C178.31 112.336 179.016 111.807 179.846 111.434C180.675 111.051 181.605 110.859 182.635 110.859C183.674 110.859 184.608 111.051 185.438 111.434C186.276 111.807 186.987 112.336 187.57 113.02C188.163 113.694 188.614 114.492 188.924 115.412C189.234 116.324 189.389 117.312 189.389 118.379V118.693C189.389 119.76 189.234 120.749 188.924 121.66C188.614 122.572 188.163 123.369 187.57 124.053C186.987 124.727 186.281 125.256 185.451 125.639C184.631 126.012 183.701 126.199 182.662 126.199C181.623 126.199 180.689 126.012 179.859 125.639C179.03 125.256 178.319 124.727 177.727 124.053C177.143 123.369 176.697 122.572 176.387 121.66C176.077 120.749 175.922 119.76 175.922 118.693ZM178.451 118.379V118.693C178.451 119.432 178.538 120.129 178.711 120.785C178.884 121.432 179.144 122.007 179.49 122.508C179.846 123.009 180.288 123.406 180.816 123.697C181.345 123.98 181.96 124.121 182.662 124.121C183.355 124.121 183.961 123.98 184.48 123.697C185.009 123.406 185.447 123.009 185.793 122.508C186.139 122.007 186.399 121.432 186.572 120.785C186.755 120.129 186.846 119.432 186.846 118.693V118.379C186.846 117.65 186.755 116.962 186.572 116.314C186.399 115.658 186.135 115.079 185.779 114.578C185.433 114.068 184.995 113.667 184.467 113.375C183.947 113.083 183.337 112.938 182.635 112.938C181.942 112.938 181.331 113.083 180.803 113.375C180.283 113.667 179.846 114.068 179.49 114.578C179.144 115.079 178.884 115.658 178.711 116.314C178.538 116.962 178.451 117.65 178.451 118.379ZM191.891 118.693V118.379C191.891 117.312 192.046 116.324 192.355 115.412C192.665 114.492 193.112 113.694 193.695 113.02C194.279 112.336 194.985 111.807 195.814 111.434C196.644 111.051 197.574 110.859 198.604 110.859C199.643 110.859 200.577 111.051 201.406 111.434C202.245 111.807 202.956 112.336 203.539 113.02C204.132 113.694 204.583 114.492 204.893 115.412C205.202 116.324 205.357 117.312 205.357 118.379V118.693C205.357 119.76 205.202 120.749 204.893 121.66C204.583 122.572 204.132 123.369 203.539 124.053C202.956 124.727 202.249 125.256 201.42 125.639C200.6 126.012 199.67 126.199 198.631 126.199C197.592 126.199 196.658 126.012 195.828 125.639C194.999 125.256 194.288 124.727 193.695 124.053C193.112 123.369 192.665 122.572 192.355 121.66C192.046 120.749 191.891 119.76 191.891 118.693ZM194.42 118.379V118.693C194.42 119.432 194.507 120.129 194.68 120.785C194.853 121.432 195.113 122.007 195.459 122.508C195.814 123.009 196.257 123.406 196.785 123.697C197.314 123.98 197.929 124.121 198.631 124.121C199.324 124.121 199.93 123.98 200.449 123.697C200.978 123.406 201.415 123.009 201.762 122.508C202.108 122.007 202.368 121.432 202.541 120.785C202.723 120.129 202.814 119.432 202.814 118.693V118.379C202.814 117.65 202.723 116.962 202.541 116.314C202.368 115.658 202.104 115.079 201.748 114.578C201.402 114.068 200.964 113.667 200.436 113.375C199.916 113.083 199.305 112.938 198.604 112.938C197.911 112.938 197.3 113.083 196.771 113.375C196.252 113.667 195.814 114.068 195.459 114.578C195.113 115.079 194.853 115.658 194.68 116.314C194.507 116.962 194.42 117.65 194.42 118.379ZM217.143 122.002C217.143 121.637 217.061 121.3 216.896 120.99C216.742 120.671 216.418 120.384 215.926 120.129C215.443 119.865 214.714 119.637 213.738 119.445C212.918 119.272 212.175 119.067 211.51 118.83C210.854 118.593 210.293 118.306 209.828 117.969C209.372 117.632 209.021 117.235 208.775 116.779C208.529 116.324 208.406 115.79 208.406 115.18C208.406 114.596 208.534 114.045 208.789 113.525C209.053 113.006 209.423 112.546 209.896 112.145C210.38 111.743 210.958 111.429 211.633 111.201C212.307 110.973 213.059 110.859 213.889 110.859C215.074 110.859 216.085 111.069 216.924 111.488C217.762 111.908 218.405 112.468 218.852 113.17C219.298 113.863 219.521 114.633 219.521 115.48H216.992C216.992 115.07 216.869 114.674 216.623 114.291C216.386 113.899 216.035 113.576 215.57 113.32C215.115 113.065 214.554 112.938 213.889 112.938C213.187 112.938 212.617 113.047 212.18 113.266C211.751 113.475 211.437 113.744 211.236 114.072C211.045 114.4 210.949 114.747 210.949 115.111C210.949 115.385 210.995 115.631 211.086 115.85C211.186 116.059 211.359 116.255 211.605 116.438C211.852 116.611 212.198 116.775 212.645 116.93C213.091 117.085 213.661 117.24 214.354 117.395C215.566 117.668 216.564 117.996 217.348 118.379C218.132 118.762 218.715 119.231 219.098 119.787C219.48 120.343 219.672 121.018 219.672 121.811C219.672 122.458 219.535 123.05 219.262 123.588C218.997 124.126 218.61 124.59 218.1 124.982C217.598 125.365 216.997 125.666 216.295 125.885C215.602 126.094 214.823 126.199 213.957 126.199C212.654 126.199 211.551 125.967 210.648 125.502C209.746 125.037 209.062 124.436 208.598 123.697C208.133 122.959 207.9 122.18 207.9 121.359H210.443C210.48 122.052 210.68 122.604 211.045 123.014C211.41 123.415 211.856 123.702 212.385 123.875C212.913 124.039 213.438 124.121 213.957 124.121C214.65 124.121 215.229 124.03 215.693 123.848C216.167 123.665 216.527 123.415 216.773 123.096C217.02 122.777 217.143 122.412 217.143 122.002ZM229.133 126.199C228.103 126.199 227.169 126.026 226.33 125.68C225.501 125.324 224.785 124.827 224.184 124.189C223.591 123.551 223.135 122.795 222.816 121.92C222.497 121.045 222.338 120.088 222.338 119.049V118.475C222.338 117.271 222.516 116.201 222.871 115.262C223.227 114.314 223.71 113.512 224.32 112.855C224.931 112.199 225.624 111.702 226.398 111.365C227.173 111.028 227.975 110.859 228.805 110.859C229.862 110.859 230.773 111.042 231.539 111.406C232.314 111.771 232.947 112.281 233.439 112.938C233.932 113.585 234.296 114.35 234.533 115.234C234.77 116.109 234.889 117.066 234.889 118.105V119.24H223.842V117.176H232.359V116.984C232.323 116.328 232.186 115.69 231.949 115.07C231.721 114.451 231.357 113.94 230.855 113.539C230.354 113.138 229.671 112.938 228.805 112.938C228.23 112.938 227.702 113.061 227.219 113.307C226.736 113.544 226.321 113.899 225.975 114.373C225.628 114.847 225.359 115.426 225.168 116.109C224.977 116.793 224.881 117.581 224.881 118.475V119.049C224.881 119.751 224.977 120.411 225.168 121.031C225.368 121.642 225.656 122.18 226.029 122.645C226.412 123.109 226.872 123.474 227.41 123.738C227.957 124.003 228.577 124.135 229.27 124.135C230.163 124.135 230.919 123.952 231.539 123.588C232.159 123.223 232.701 122.736 233.166 122.125L234.697 123.342C234.378 123.825 233.973 124.285 233.48 124.723C232.988 125.16 232.382 125.516 231.662 125.789C230.951 126.062 230.108 126.199 229.133 126.199ZM253.51 123.396V115.781C253.51 115.198 253.391 114.692 253.154 114.264C252.926 113.826 252.58 113.489 252.115 113.252C251.65 113.015 251.076 112.896 250.393 112.896C249.755 112.896 249.194 113.006 248.711 113.225C248.237 113.443 247.863 113.73 247.59 114.086C247.326 114.441 247.193 114.824 247.193 115.234H244.664C244.664 114.706 244.801 114.182 245.074 113.662C245.348 113.143 245.74 112.673 246.25 112.254C246.77 111.826 247.389 111.488 248.109 111.242C248.839 110.987 249.65 110.859 250.543 110.859C251.618 110.859 252.566 111.042 253.387 111.406C254.216 111.771 254.863 112.322 255.328 113.061C255.802 113.79 256.039 114.706 256.039 115.809V122.699C256.039 123.191 256.08 123.715 256.162 124.271C256.253 124.827 256.385 125.306 256.559 125.707V125.926H253.92C253.792 125.634 253.692 125.247 253.619 124.764C253.546 124.271 253.51 123.816 253.51 123.396ZM253.947 116.957L253.975 118.734H251.418C250.698 118.734 250.055 118.794 249.49 118.912C248.925 119.021 248.451 119.19 248.068 119.418C247.686 119.646 247.394 119.933 247.193 120.279C246.993 120.617 246.893 121.013 246.893 121.469C246.893 121.934 246.997 122.357 247.207 122.74C247.417 123.123 247.731 123.428 248.15 123.656C248.579 123.875 249.103 123.984 249.723 123.984C250.497 123.984 251.181 123.82 251.773 123.492C252.366 123.164 252.835 122.763 253.182 122.289C253.537 121.815 253.729 121.355 253.756 120.908L254.836 122.125C254.772 122.508 254.599 122.932 254.316 123.396C254.034 123.861 253.656 124.308 253.182 124.736C252.717 125.156 252.161 125.507 251.514 125.789C250.876 126.062 250.156 126.199 249.354 126.199C248.351 126.199 247.471 126.003 246.715 125.611C245.967 125.219 245.384 124.695 244.965 124.039C244.555 123.374 244.35 122.631 244.35 121.811C244.35 121.018 244.505 120.32 244.814 119.719C245.124 119.108 245.571 118.602 246.154 118.201C246.738 117.791 247.439 117.481 248.26 117.271C249.08 117.062 249.996 116.957 251.008 116.957H253.947ZM279.363 119.596H281.988C281.852 120.854 281.492 121.979 280.908 122.973C280.325 123.966 279.5 124.755 278.434 125.338C277.367 125.912 276.036 126.199 274.441 126.199C273.275 126.199 272.213 125.98 271.256 125.543C270.308 125.105 269.492 124.486 268.809 123.684C268.125 122.872 267.596 121.902 267.223 120.771C266.858 119.632 266.676 118.365 266.676 116.971V114.988C266.676 113.594 266.858 112.331 267.223 111.201C267.596 110.062 268.13 109.087 268.822 108.275C269.524 107.464 270.367 106.84 271.352 106.402C272.336 105.965 273.443 105.746 274.674 105.746C276.178 105.746 277.449 106.029 278.488 106.594C279.527 107.159 280.334 107.943 280.908 108.945C281.492 109.939 281.852 111.092 281.988 112.404H279.363C279.236 111.475 278.999 110.677 278.652 110.012C278.306 109.337 277.814 108.818 277.176 108.453C276.538 108.089 275.704 107.906 274.674 107.906C273.79 107.906 273.01 108.075 272.336 108.412C271.671 108.749 271.11 109.228 270.654 109.848C270.208 110.467 269.87 111.21 269.643 112.076C269.415 112.942 269.301 113.904 269.301 114.961V116.971C269.301 117.946 269.401 118.862 269.602 119.719C269.811 120.576 270.126 121.327 270.545 121.975C270.964 122.622 271.497 123.132 272.145 123.506C272.792 123.87 273.557 124.053 274.441 124.053C275.562 124.053 276.456 123.875 277.121 123.52C277.786 123.164 278.288 122.654 278.625 121.988C278.971 121.323 279.217 120.525 279.363 119.596ZM287.73 104.926V125.926H285.201V104.926H287.73ZM287.129 117.969L286.076 117.928C286.085 116.916 286.236 115.982 286.527 115.125C286.819 114.259 287.229 113.507 287.758 112.869C288.286 112.231 288.915 111.739 289.645 111.393C290.383 111.037 291.199 110.859 292.092 110.859C292.821 110.859 293.477 110.96 294.061 111.16C294.644 111.352 295.141 111.661 295.551 112.09C295.97 112.518 296.289 113.074 296.508 113.758C296.727 114.432 296.836 115.257 296.836 116.232V125.926H294.293V116.205C294.293 115.43 294.179 114.811 293.951 114.346C293.723 113.872 293.391 113.53 292.953 113.32C292.516 113.102 291.978 112.992 291.34 112.992C290.711 112.992 290.137 113.124 289.617 113.389C289.107 113.653 288.665 114.018 288.291 114.482C287.926 114.947 287.639 115.48 287.43 116.082C287.229 116.674 287.129 117.303 287.129 117.969ZM303.371 111.133V125.926H300.828V111.133H303.371ZM300.637 107.209C300.637 106.799 300.76 106.452 301.006 106.17C301.261 105.887 301.635 105.746 302.127 105.746C302.61 105.746 302.979 105.887 303.234 106.17C303.499 106.452 303.631 106.799 303.631 107.209C303.631 107.601 303.499 107.938 303.234 108.221C302.979 108.494 302.61 108.631 302.127 108.631C301.635 108.631 301.261 108.494 301.006 108.221C300.76 107.938 300.637 107.601 300.637 107.209ZM307.418 104.926H309.961V123.055L309.742 125.926H307.418V104.926ZM319.955 118.406V118.693C319.955 119.769 319.827 120.767 319.572 121.688C319.317 122.599 318.943 123.392 318.451 124.066C317.959 124.741 317.357 125.265 316.646 125.639C315.936 126.012 315.12 126.199 314.199 126.199C313.26 126.199 312.436 126.04 311.725 125.721C311.023 125.393 310.43 124.923 309.947 124.312C309.464 123.702 309.077 122.964 308.785 122.098C308.503 121.232 308.307 120.257 308.197 119.172V117.914C308.307 116.82 308.503 115.84 308.785 114.975C309.077 114.109 309.464 113.37 309.947 112.76C310.43 112.14 311.023 111.671 311.725 111.352C312.426 111.023 313.242 110.859 314.172 110.859C315.102 110.859 315.926 111.042 316.646 111.406C317.367 111.762 317.968 112.272 318.451 112.938C318.943 113.603 319.317 114.4 319.572 115.33C319.827 116.251 319.955 117.276 319.955 118.406ZM317.412 118.693V118.406C317.412 117.668 317.344 116.975 317.207 116.328C317.07 115.672 316.852 115.098 316.551 114.605C316.25 114.104 315.854 113.712 315.361 113.43C314.869 113.138 314.263 112.992 313.543 112.992C312.905 112.992 312.349 113.102 311.875 113.32C311.41 113.539 311.014 113.835 310.686 114.209C310.357 114.574 310.089 114.993 309.879 115.467C309.678 115.932 309.528 116.415 309.428 116.916V120.211C309.574 120.849 309.811 121.464 310.139 122.057C310.476 122.64 310.923 123.118 311.479 123.492C312.044 123.866 312.741 124.053 313.57 124.053C314.254 124.053 314.837 123.916 315.32 123.643C315.812 123.36 316.209 122.973 316.51 122.48C316.82 121.988 317.048 121.419 317.193 120.771C317.339 120.124 317.412 119.432 317.412 118.693ZM325.902 111.133V125.926H323.359V111.133H325.902ZM323.168 107.209C323.168 106.799 323.291 106.452 323.537 106.17C323.792 105.887 324.166 105.746 324.658 105.746C325.141 105.746 325.51 105.887 325.766 106.17C326.03 106.452 326.162 106.799 326.162 107.209C326.162 107.601 326.03 107.938 325.766 108.221C325.51 108.494 325.141 108.631 324.658 108.631C324.166 108.631 323.792 108.494 323.537 108.221C323.291 107.938 323.168 107.601 323.168 107.209ZM341.064 124.395L345.18 111.133H347.887L341.953 128.209C341.816 128.574 341.634 128.965 341.406 129.385C341.188 129.813 340.905 130.219 340.559 130.602C340.212 130.984 339.793 131.294 339.301 131.531C338.818 131.777 338.239 131.9 337.564 131.9C337.364 131.9 337.109 131.873 336.799 131.818C336.489 131.764 336.27 131.718 336.143 131.682L336.129 129.631C336.202 129.64 336.316 129.649 336.471 129.658C336.635 129.676 336.749 129.686 336.812 129.686C337.387 129.686 337.874 129.608 338.275 129.453C338.676 129.307 339.014 129.057 339.287 128.701C339.57 128.355 339.811 127.876 340.012 127.266L341.064 124.395ZM338.043 111.133L341.885 122.617L342.541 125.283L340.723 126.213L335.281 111.133H338.043ZM349.281 118.693V118.379C349.281 117.312 349.436 116.324 349.746 115.412C350.056 114.492 350.503 113.694 351.086 113.02C351.669 112.336 352.376 111.807 353.205 111.434C354.035 111.051 354.964 110.859 355.994 110.859C357.033 110.859 357.967 111.051 358.797 111.434C359.635 111.807 360.346 112.336 360.93 113.02C361.522 113.694 361.973 114.492 362.283 115.412C362.593 116.324 362.748 117.312 362.748 118.379V118.693C362.748 119.76 362.593 120.749 362.283 121.66C361.973 122.572 361.522 123.369 360.93 124.053C360.346 124.727 359.64 125.256 358.811 125.639C357.99 126.012 357.061 126.199 356.021 126.199C354.982 126.199 354.048 126.012 353.219 125.639C352.389 125.256 351.678 124.727 351.086 124.053C350.503 123.369 350.056 122.572 349.746 121.66C349.436 120.749 349.281 119.76 349.281 118.693ZM351.811 118.379V118.693C351.811 119.432 351.897 120.129 352.07 120.785C352.243 121.432 352.503 122.007 352.85 122.508C353.205 123.009 353.647 123.406 354.176 123.697C354.704 123.98 355.32 124.121 356.021 124.121C356.714 124.121 357.32 123.98 357.84 123.697C358.368 123.406 358.806 123.009 359.152 122.508C359.499 122.007 359.758 121.432 359.932 120.785C360.114 120.129 360.205 119.432 360.205 118.693V118.379C360.205 117.65 360.114 116.962 359.932 116.314C359.758 115.658 359.494 115.079 359.139 114.578C358.792 114.068 358.355 113.667 357.826 113.375C357.307 113.083 356.696 112.938 355.994 112.938C355.301 112.938 354.691 113.083 354.162 113.375C353.643 113.667 353.205 114.068 352.85 114.578C352.503 115.079 352.243 115.658 352.07 116.314C351.897 116.962 351.811 117.65 351.811 118.379ZM374.971 122.508V111.133H377.514V125.926H375.094L374.971 122.508ZM375.449 119.391L376.502 119.363C376.502 120.348 376.397 121.259 376.188 122.098C375.987 122.927 375.659 123.647 375.203 124.258C374.747 124.868 374.15 125.347 373.412 125.693C372.674 126.031 371.776 126.199 370.719 126.199C369.999 126.199 369.338 126.094 368.736 125.885C368.144 125.675 367.633 125.352 367.205 124.914C366.777 124.477 366.444 123.907 366.207 123.205C365.979 122.503 365.865 121.66 365.865 120.676V111.133H368.395V120.703C368.395 121.368 368.467 121.92 368.613 122.357C368.768 122.786 368.973 123.128 369.229 123.383C369.493 123.629 369.785 123.802 370.104 123.902C370.432 124.003 370.769 124.053 371.115 124.053C372.191 124.053 373.043 123.848 373.672 123.438C374.301 123.018 374.752 122.458 375.025 121.756C375.308 121.045 375.449 120.257 375.449 119.391ZM391.062 104.926V125.926H388.52V104.926H391.062ZM397.871 111.133V125.926H395.328V111.133H397.871ZM395.137 107.209C395.137 106.799 395.26 106.452 395.506 106.17C395.761 105.887 396.135 105.746 396.627 105.746C397.11 105.746 397.479 105.887 397.734 106.17C397.999 106.452 398.131 106.799 398.131 107.209C398.131 107.601 397.999 107.938 397.734 108.221C397.479 108.494 397.11 108.631 396.627 108.631C396.135 108.631 395.761 108.494 395.506 108.221C395.26 107.938 395.137 107.601 395.137 107.209ZM404.475 104.926V125.926H401.932V104.926H404.475ZM413.512 111.133L407.059 118.037L403.449 121.783L403.244 119.09L405.828 116L410.422 111.133H413.512ZM411.201 125.926L405.924 118.871L407.236 116.615L414.182 125.926H411.201ZM421.988 126.199C420.958 126.199 420.024 126.026 419.186 125.68C418.356 125.324 417.641 124.827 417.039 124.189C416.447 123.551 415.991 122.795 415.672 121.92C415.353 121.045 415.193 120.088 415.193 119.049V118.475C415.193 117.271 415.371 116.201 415.727 115.262C416.082 114.314 416.565 113.512 417.176 112.855C417.786 112.199 418.479 111.702 419.254 111.365C420.029 111.028 420.831 110.859 421.66 110.859C422.717 110.859 423.629 111.042 424.395 111.406C425.169 111.771 425.803 112.281 426.295 112.938C426.787 113.585 427.152 114.35 427.389 115.234C427.626 116.109 427.744 117.066 427.744 118.105V119.24H416.697V117.176H425.215V116.984C425.178 116.328 425.042 115.69 424.805 115.07C424.577 114.451 424.212 113.94 423.711 113.539C423.21 113.138 422.526 112.938 421.66 112.938C421.086 112.938 420.557 113.061 420.074 113.307C419.591 113.544 419.176 113.899 418.83 114.373C418.484 114.847 418.215 115.426 418.023 116.109C417.832 116.793 417.736 117.581 417.736 118.475V119.049C417.736 119.751 417.832 120.411 418.023 121.031C418.224 121.642 418.511 122.18 418.885 122.645C419.268 123.109 419.728 123.474 420.266 123.738C420.812 124.003 421.432 124.135 422.125 124.135C423.018 124.135 423.775 123.952 424.395 123.588C425.014 123.223 425.557 122.736 426.021 122.125L427.553 123.342C427.234 123.825 426.828 124.285 426.336 124.723C425.844 125.16 425.238 125.516 424.518 125.789C423.807 126.062 422.964 126.199 421.988 126.199ZM48.6504 159.396V151.781C48.6504 151.198 48.5319 150.692 48.2949 150.264C48.0671 149.826 47.7207 149.489 47.2559 149.252C46.791 149.015 46.2168 148.896 45.5332 148.896C44.8952 148.896 44.3346 149.006 43.8516 149.225C43.3776 149.443 43.0039 149.73 42.7305 150.086C42.4661 150.441 42.334 150.824 42.334 151.234H39.8047C39.8047 150.706 39.9414 150.182 40.2148 149.662C40.4883 149.143 40.8802 148.673 41.3906 148.254C41.9102 147.826 42.5299 147.488 43.25 147.242C43.9792 146.987 44.7904 146.859 45.6836 146.859C46.7591 146.859 47.707 147.042 48.5273 147.406C49.3568 147.771 50.0039 148.322 50.4688 149.061C50.9427 149.79 51.1797 150.706 51.1797 151.809V158.699C51.1797 159.191 51.2207 159.715 51.3027 160.271C51.3939 160.827 51.526 161.306 51.6992 161.707V161.926H49.0605C48.9329 161.634 48.8327 161.247 48.7598 160.764C48.6868 160.271 48.6504 159.816 48.6504 159.396ZM49.0879 152.957L49.1152 154.734H46.5586C45.8385 154.734 45.196 154.794 44.6309 154.912C44.0658 155.021 43.5918 155.19 43.209 155.418C42.8262 155.646 42.5345 155.933 42.334 156.279C42.1335 156.617 42.0332 157.013 42.0332 157.469C42.0332 157.934 42.138 158.357 42.3477 158.74C42.5573 159.123 42.8717 159.428 43.291 159.656C43.7194 159.875 44.2435 159.984 44.8633 159.984C45.638 159.984 46.3216 159.82 46.9141 159.492C47.5065 159.164 47.9759 158.763 48.3223 158.289C48.6777 157.815 48.8691 157.355 48.8965 156.908L49.9766 158.125C49.9128 158.508 49.7396 158.932 49.457 159.396C49.1745 159.861 48.7962 160.308 48.3223 160.736C47.8574 161.156 47.3014 161.507 46.6543 161.789C46.0163 162.062 45.2962 162.199 44.4941 162.199C43.4915 162.199 42.612 162.003 41.8555 161.611C41.1081 161.219 40.5247 160.695 40.1055 160.039C39.6953 159.374 39.4902 158.631 39.4902 157.811C39.4902 157.018 39.6452 156.32 39.9551 155.719C40.265 155.108 40.7116 154.602 41.2949 154.201C41.8783 153.791 42.5801 153.481 43.4004 153.271C44.2207 153.062 45.1367 152.957 46.1484 152.957H49.0879ZM57.6875 150.291V161.926H55.1582V147.133H57.5508L57.6875 150.291ZM57.0859 153.969L56.0332 153.928C56.0423 152.916 56.1927 151.982 56.4844 151.125C56.776 150.259 57.1862 149.507 57.7148 148.869C58.2435 148.231 58.8724 147.739 59.6016 147.393C60.3398 147.037 61.1556 146.859 62.0488 146.859C62.778 146.859 63.4342 146.96 64.0176 147.16C64.6009 147.352 65.0977 147.661 65.5078 148.09C65.9271 148.518 66.2461 149.074 66.4648 149.758C66.6836 150.432 66.793 151.257 66.793 152.232V161.926H64.25V152.205C64.25 151.43 64.1361 150.811 63.9082 150.346C63.6803 149.872 63.3477 149.53 62.9102 149.32C62.4727 149.102 61.9349 148.992 61.2969 148.992C60.668 148.992 60.0938 149.124 59.5742 149.389C59.0638 149.653 58.6217 150.018 58.248 150.482C57.8835 150.947 57.5964 151.48 57.3867 152.082C57.1862 152.674 57.0859 153.303 57.0859 153.969ZM79.959 159.055V140.926H82.502V161.926H80.1777L79.959 159.055ZM70.0059 154.693V154.406C70.0059 153.276 70.1426 152.251 70.416 151.33C70.6986 150.4 71.0951 149.603 71.6055 148.938C72.125 148.272 72.7402 147.762 73.4512 147.406C74.1712 147.042 74.9733 146.859 75.8574 146.859C76.7871 146.859 77.5983 147.023 78.291 147.352C78.9928 147.671 79.5853 148.14 80.0684 148.76C80.5605 149.37 80.9479 150.109 81.2305 150.975C81.513 151.84 81.709 152.82 81.8184 153.914V155.172C81.7181 156.257 81.5221 157.232 81.2305 158.098C80.9479 158.964 80.5605 159.702 80.0684 160.312C79.5853 160.923 78.9928 161.393 78.291 161.721C77.5892 162.04 76.7689 162.199 75.8301 162.199C74.9642 162.199 74.1712 162.012 73.4512 161.639C72.7402 161.265 72.125 160.741 71.6055 160.066C71.0951 159.392 70.6986 158.599 70.416 157.688C70.1426 156.767 70.0059 155.769 70.0059 154.693ZM72.5488 154.406V154.693C72.5488 155.432 72.6217 156.124 72.7676 156.771C72.9225 157.419 73.1595 157.988 73.4785 158.48C73.7975 158.973 74.2031 159.36 74.6953 159.643C75.1875 159.916 75.7754 160.053 76.459 160.053C77.2975 160.053 77.9857 159.875 78.5234 159.52C79.0703 159.164 79.5078 158.695 79.8359 158.111C80.1641 157.528 80.4193 156.895 80.6016 156.211V152.916C80.4922 152.415 80.3327 151.932 80.123 151.467C79.9225 150.993 79.6582 150.574 79.3301 150.209C79.0111 149.835 78.6146 149.539 78.1406 149.32C77.6758 149.102 77.1243 148.992 76.4863 148.992C75.7936 148.992 75.1966 149.138 74.6953 149.43C74.2031 149.712 73.7975 150.104 73.4785 150.605C73.1595 151.098 72.9225 151.672 72.7676 152.328C72.6217 152.975 72.5488 153.668 72.5488 154.406ZM102.969 147.133H105.266V161.611C105.266 162.915 105.001 164.027 104.473 164.947C103.944 165.868 103.206 166.565 102.258 167.039C101.319 167.522 100.234 167.764 99.0039 167.764C98.4935 167.764 97.8919 167.682 97.1992 167.518C96.5156 167.363 95.8411 167.094 95.1758 166.711C94.5195 166.337 93.9681 165.831 93.5215 165.193L94.8477 163.689C95.4674 164.437 96.1146 164.956 96.7891 165.248C97.4727 165.54 98.1471 165.686 98.8125 165.686C99.6146 165.686 100.307 165.535 100.891 165.234C101.474 164.934 101.925 164.487 102.244 163.895C102.572 163.311 102.736 162.591 102.736 161.734V150.387L102.969 147.133ZM92.7832 154.693V154.406C92.7832 153.276 92.9154 152.251 93.1797 151.33C93.4531 150.4 93.8405 149.603 94.3418 148.938C94.8522 148.272 95.4674 147.762 96.1875 147.406C96.9076 147.042 97.7188 146.859 98.6211 146.859C99.5508 146.859 100.362 147.023 101.055 147.352C101.757 147.671 102.349 148.14 102.832 148.76C103.324 149.37 103.712 150.109 103.994 150.975C104.277 151.84 104.473 152.82 104.582 153.914V155.172C104.482 156.257 104.286 157.232 103.994 158.098C103.712 158.964 103.324 159.702 102.832 160.312C102.349 160.923 101.757 161.393 101.055 161.721C100.353 162.04 99.5326 162.199 98.5938 162.199C97.7096 162.199 96.9076 162.012 96.1875 161.639C95.4766 161.265 94.8659 160.741 94.3555 160.066C93.8451 159.392 93.4531 158.599 93.1797 157.688C92.9154 156.767 92.7832 155.769 92.7832 154.693ZM95.3125 154.406V154.693C95.3125 155.432 95.3854 156.124 95.5312 156.771C95.6862 157.419 95.9186 157.988 96.2285 158.48C96.5475 158.973 96.9531 159.36 97.4453 159.643C97.9375 159.916 98.5254 160.053 99.209 160.053C100.048 160.053 100.74 159.875 101.287 159.52C101.834 159.164 102.267 158.695 102.586 158.111C102.914 157.528 103.169 156.895 103.352 156.211V152.916C103.251 152.415 103.096 151.932 102.887 151.467C102.686 150.993 102.422 150.574 102.094 150.209C101.775 149.835 101.378 149.539 100.904 149.32C100.43 149.102 99.8743 148.992 99.2363 148.992C98.5436 148.992 97.9466 149.138 97.4453 149.43C96.9531 149.712 96.5475 150.104 96.2285 150.605C95.9186 151.098 95.6862 151.672 95.5312 152.328C95.3854 152.975 95.3125 153.668 95.3125 154.406ZM115.246 162.199C114.216 162.199 113.282 162.026 112.443 161.68C111.614 161.324 110.898 160.827 110.297 160.189C109.704 159.551 109.249 158.795 108.93 157.92C108.611 157.045 108.451 156.088 108.451 155.049V154.475C108.451 153.271 108.629 152.201 108.984 151.262C109.34 150.314 109.823 149.512 110.434 148.855C111.044 148.199 111.737 147.702 112.512 147.365C113.286 147.028 114.089 146.859 114.918 146.859C115.975 146.859 116.887 147.042 117.652 147.406C118.427 147.771 119.061 148.281 119.553 148.938C120.045 149.585 120.41 150.35 120.646 151.234C120.883 152.109 121.002 153.066 121.002 154.105V155.24H109.955V153.176H118.473V152.984C118.436 152.328 118.299 151.69 118.062 151.07C117.835 150.451 117.47 149.94 116.969 149.539C116.467 149.138 115.784 148.938 114.918 148.938C114.344 148.938 113.815 149.061 113.332 149.307C112.849 149.544 112.434 149.899 112.088 150.373C111.742 150.847 111.473 151.426 111.281 152.109C111.09 152.793 110.994 153.581 110.994 154.475V155.049C110.994 155.751 111.09 156.411 111.281 157.031C111.482 157.642 111.769 158.18 112.143 158.645C112.525 159.109 112.986 159.474 113.523 159.738C114.07 160.003 114.69 160.135 115.383 160.135C116.276 160.135 117.033 159.952 117.652 159.588C118.272 159.223 118.814 158.736 119.279 158.125L120.811 159.342C120.492 159.825 120.086 160.285 119.594 160.723C119.102 161.16 118.495 161.516 117.775 161.789C117.064 162.062 116.221 162.199 115.246 162.199ZM130.148 147.133V149.074H122.15V147.133H130.148ZM124.857 143.537H127.387V158.262C127.387 158.763 127.464 159.141 127.619 159.396C127.774 159.652 127.975 159.82 128.221 159.902C128.467 159.984 128.731 160.025 129.014 160.025C129.223 160.025 129.442 160.007 129.67 159.971C129.907 159.925 130.085 159.889 130.203 159.861L130.217 161.926C130.016 161.99 129.752 162.049 129.424 162.104C129.105 162.167 128.717 162.199 128.262 162.199C127.642 162.199 127.072 162.076 126.553 161.83C126.033 161.584 125.618 161.174 125.309 160.6C125.008 160.016 124.857 159.232 124.857 158.248V143.537ZM148.674 158.002C148.674 157.637 148.592 157.3 148.428 156.99C148.273 156.671 147.949 156.384 147.457 156.129C146.974 155.865 146.245 155.637 145.27 155.445C144.449 155.272 143.706 155.067 143.041 154.83C142.385 154.593 141.824 154.306 141.359 153.969C140.904 153.632 140.553 153.235 140.307 152.779C140.061 152.324 139.938 151.79 139.938 151.18C139.938 150.596 140.065 150.045 140.32 149.525C140.585 149.006 140.954 148.546 141.428 148.145C141.911 147.743 142.49 147.429 143.164 147.201C143.839 146.973 144.59 146.859 145.42 146.859C146.605 146.859 147.617 147.069 148.455 147.488C149.294 147.908 149.936 148.468 150.383 149.17C150.829 149.863 151.053 150.633 151.053 151.48H148.523C148.523 151.07 148.4 150.674 148.154 150.291C147.917 149.899 147.566 149.576 147.102 149.32C146.646 149.065 146.085 148.938 145.42 148.938C144.718 148.938 144.148 149.047 143.711 149.266C143.283 149.475 142.968 149.744 142.768 150.072C142.576 150.4 142.48 150.747 142.48 151.111C142.48 151.385 142.526 151.631 142.617 151.85C142.717 152.059 142.891 152.255 143.137 152.438C143.383 152.611 143.729 152.775 144.176 152.93C144.622 153.085 145.192 153.24 145.885 153.395C147.097 153.668 148.095 153.996 148.879 154.379C149.663 154.762 150.246 155.231 150.629 155.787C151.012 156.343 151.203 157.018 151.203 157.811C151.203 158.458 151.066 159.05 150.793 159.588C150.529 160.126 150.141 160.59 149.631 160.982C149.13 161.365 148.528 161.666 147.826 161.885C147.133 162.094 146.354 162.199 145.488 162.199C144.185 162.199 143.082 161.967 142.18 161.502C141.277 161.037 140.594 160.436 140.129 159.697C139.664 158.959 139.432 158.18 139.432 157.359H141.975C142.011 158.052 142.212 158.604 142.576 159.014C142.941 159.415 143.387 159.702 143.916 159.875C144.445 160.039 144.969 160.121 145.488 160.121C146.181 160.121 146.76 160.03 147.225 159.848C147.699 159.665 148.059 159.415 148.305 159.096C148.551 158.777 148.674 158.412 148.674 158.002ZM153.855 154.693V154.379C153.855 153.312 154.01 152.324 154.32 151.412C154.63 150.492 155.077 149.694 155.66 149.02C156.243 148.336 156.95 147.807 157.779 147.434C158.609 147.051 159.538 146.859 160.568 146.859C161.607 146.859 162.542 147.051 163.371 147.434C164.21 147.807 164.921 148.336 165.504 149.02C166.096 149.694 166.548 150.492 166.857 151.412C167.167 152.324 167.322 153.312 167.322 154.379V154.693C167.322 155.76 167.167 156.749 166.857 157.66C166.548 158.572 166.096 159.369 165.504 160.053C164.921 160.727 164.214 161.256 163.385 161.639C162.564 162.012 161.635 162.199 160.596 162.199C159.557 162.199 158.622 162.012 157.793 161.639C156.964 161.256 156.253 160.727 155.66 160.053C155.077 159.369 154.63 158.572 154.32 157.66C154.01 156.749 153.855 155.76 153.855 154.693ZM156.385 154.379V154.693C156.385 155.432 156.471 156.129 156.645 156.785C156.818 157.432 157.077 158.007 157.424 158.508C157.779 159.009 158.221 159.406 158.75 159.697C159.279 159.98 159.894 160.121 160.596 160.121C161.288 160.121 161.895 159.98 162.414 159.697C162.943 159.406 163.38 159.009 163.727 158.508C164.073 158.007 164.333 157.432 164.506 156.785C164.688 156.129 164.779 155.432 164.779 154.693V154.379C164.779 153.65 164.688 152.962 164.506 152.314C164.333 151.658 164.068 151.079 163.713 150.578C163.367 150.068 162.929 149.667 162.4 149.375C161.881 149.083 161.27 148.938 160.568 148.938C159.876 148.938 159.265 149.083 158.736 149.375C158.217 149.667 157.779 150.068 157.424 150.578C157.077 151.079 156.818 151.658 156.645 152.314C156.471 152.962 156.385 153.65 156.385 154.379ZM173.01 150.072V161.926H170.467V147.133H172.873L173.01 150.072ZM172.49 153.969L171.314 153.928C171.324 152.916 171.456 151.982 171.711 151.125C171.966 150.259 172.344 149.507 172.846 148.869C173.347 148.231 173.971 147.739 174.719 147.393C175.466 147.037 176.332 146.859 177.316 146.859C178.009 146.859 178.647 146.96 179.23 147.16C179.814 147.352 180.32 147.657 180.748 148.076C181.176 148.495 181.509 149.033 181.746 149.689C181.983 150.346 182.102 151.139 182.102 152.068V161.926H179.572V152.191C179.572 151.417 179.44 150.797 179.176 150.332C178.921 149.867 178.556 149.53 178.082 149.32C177.608 149.102 177.052 148.992 176.414 148.992C175.667 148.992 175.042 149.124 174.541 149.389C174.04 149.653 173.639 150.018 173.338 150.482C173.037 150.947 172.818 151.48 172.682 152.082C172.554 152.674 172.49 153.303 172.49 153.969ZM182.074 152.574L180.379 153.094C180.388 152.283 180.52 151.503 180.775 150.756C181.04 150.008 181.418 149.343 181.91 148.76C182.411 148.176 183.027 147.716 183.756 147.379C184.485 147.033 185.319 146.859 186.258 146.859C187.051 146.859 187.753 146.964 188.363 147.174C188.983 147.383 189.503 147.707 189.922 148.145C190.35 148.573 190.674 149.124 190.893 149.799C191.111 150.473 191.221 151.275 191.221 152.205V161.926H188.678V152.178C188.678 151.348 188.546 150.706 188.281 150.25C188.026 149.785 187.661 149.462 187.188 149.279C186.723 149.088 186.167 148.992 185.52 148.992C184.964 148.992 184.471 149.088 184.043 149.279C183.615 149.471 183.255 149.735 182.963 150.072C182.671 150.4 182.448 150.779 182.293 151.207C182.147 151.635 182.074 152.091 182.074 152.574ZM201.188 162.199C200.158 162.199 199.223 162.026 198.385 161.68C197.555 161.324 196.84 160.827 196.238 160.189C195.646 159.551 195.19 158.795 194.871 157.92C194.552 157.045 194.393 156.088 194.393 155.049V154.475C194.393 153.271 194.57 152.201 194.926 151.262C195.281 150.314 195.764 149.512 196.375 148.855C196.986 148.199 197.678 147.702 198.453 147.365C199.228 147.028 200.03 146.859 200.859 146.859C201.917 146.859 202.828 147.042 203.594 147.406C204.368 147.771 205.002 148.281 205.494 148.938C205.986 149.585 206.351 150.35 206.588 151.234C206.825 152.109 206.943 153.066 206.943 154.105V155.24H195.896V153.176H204.414V152.984C204.378 152.328 204.241 151.69 204.004 151.07C203.776 150.451 203.411 149.94 202.91 149.539C202.409 149.138 201.725 148.938 200.859 148.938C200.285 148.938 199.757 149.061 199.273 149.307C198.79 149.544 198.376 149.899 198.029 150.373C197.683 150.847 197.414 151.426 197.223 152.109C197.031 152.793 196.936 153.581 196.936 154.475V155.049C196.936 155.751 197.031 156.411 197.223 157.031C197.423 157.642 197.71 158.18 198.084 158.645C198.467 159.109 198.927 159.474 199.465 159.738C200.012 160.003 200.632 160.135 201.324 160.135C202.217 160.135 202.974 159.952 203.594 159.588C204.214 159.223 204.756 158.736 205.221 158.125L206.752 159.342C206.433 159.825 206.027 160.285 205.535 160.723C205.043 161.16 204.437 161.516 203.717 161.789C203.006 162.062 202.163 162.199 201.188 162.199ZM219.357 150.072V161.926H216.814V147.133H219.221L219.357 150.072ZM218.838 153.969L217.662 153.928C217.671 152.916 217.803 151.982 218.059 151.125C218.314 150.259 218.692 149.507 219.193 148.869C219.695 148.231 220.319 147.739 221.066 147.393C221.814 147.037 222.68 146.859 223.664 146.859C224.357 146.859 224.995 146.96 225.578 147.16C226.161 147.352 226.667 147.657 227.096 148.076C227.524 148.495 227.857 149.033 228.094 149.689C228.331 150.346 228.449 151.139 228.449 152.068V161.926H225.92V152.191C225.92 151.417 225.788 150.797 225.523 150.332C225.268 149.867 224.904 149.53 224.43 149.32C223.956 149.102 223.4 148.992 222.762 148.992C222.014 148.992 221.39 149.124 220.889 149.389C220.387 149.653 219.986 150.018 219.686 150.482C219.385 150.947 219.166 151.48 219.029 152.082C218.902 152.674 218.838 153.303 218.838 153.969ZM228.422 152.574L226.727 153.094C226.736 152.283 226.868 151.503 227.123 150.756C227.387 150.008 227.766 149.343 228.258 148.76C228.759 148.176 229.374 147.716 230.104 147.379C230.833 147.033 231.667 146.859 232.605 146.859C233.398 146.859 234.1 146.964 234.711 147.174C235.331 147.383 235.85 147.707 236.27 148.145C236.698 148.573 237.021 149.124 237.24 149.799C237.459 150.473 237.568 151.275 237.568 152.205V161.926H235.025V152.178C235.025 151.348 234.893 150.706 234.629 150.25C234.374 149.785 234.009 149.462 233.535 149.279C233.07 149.088 232.514 148.992 231.867 148.992C231.311 148.992 230.819 149.088 230.391 149.279C229.962 149.471 229.602 149.735 229.311 150.072C229.019 150.4 228.796 150.779 228.641 151.207C228.495 151.635 228.422 152.091 228.422 152.574ZM240.727 154.693V154.379C240.727 153.312 240.882 152.324 241.191 151.412C241.501 150.492 241.948 149.694 242.531 149.02C243.115 148.336 243.821 147.807 244.65 147.434C245.48 147.051 246.41 146.859 247.439 146.859C248.479 146.859 249.413 147.051 250.242 147.434C251.081 147.807 251.792 148.336 252.375 149.02C252.967 149.694 253.419 150.492 253.729 151.412C254.038 152.324 254.193 153.312 254.193 154.379V154.693C254.193 155.76 254.038 156.749 253.729 157.66C253.419 158.572 252.967 159.369 252.375 160.053C251.792 160.727 251.085 161.256 250.256 161.639C249.436 162.012 248.506 162.199 247.467 162.199C246.428 162.199 245.493 162.012 244.664 161.639C243.835 161.256 243.124 160.727 242.531 160.053C241.948 159.369 241.501 158.572 241.191 157.66C240.882 156.749 240.727 155.76 240.727 154.693ZM243.256 154.379V154.693C243.256 155.432 243.342 156.129 243.516 156.785C243.689 157.432 243.949 158.007 244.295 158.508C244.65 159.009 245.092 159.406 245.621 159.697C246.15 159.98 246.765 160.121 247.467 160.121C248.16 160.121 248.766 159.98 249.285 159.697C249.814 159.406 250.251 159.009 250.598 158.508C250.944 158.007 251.204 157.432 251.377 156.785C251.559 156.129 251.65 155.432 251.65 154.693V154.379C251.65 153.65 251.559 152.962 251.377 152.314C251.204 151.658 250.939 151.079 250.584 150.578C250.238 150.068 249.8 149.667 249.271 149.375C248.752 149.083 248.141 148.938 247.439 148.938C246.747 148.938 246.136 149.083 245.607 149.375C245.088 149.667 244.65 150.068 244.295 150.578C243.949 151.079 243.689 151.658 243.516 152.314C243.342 152.962 243.256 153.65 243.256 154.379ZM259.895 149.457V161.926H257.365V147.133H259.826L259.895 149.457ZM264.516 147.051L264.502 149.402C264.292 149.357 264.092 149.329 263.9 149.32C263.718 149.302 263.508 149.293 263.271 149.293C262.688 149.293 262.173 149.384 261.727 149.566C261.28 149.749 260.902 150.004 260.592 150.332C260.282 150.66 260.036 151.052 259.854 151.508C259.68 151.954 259.566 152.447 259.512 152.984L258.801 153.395C258.801 152.501 258.887 151.663 259.061 150.879C259.243 150.095 259.521 149.402 259.895 148.801C260.268 148.19 260.742 147.716 261.316 147.379C261.9 147.033 262.592 146.859 263.395 146.859C263.577 146.859 263.786 146.882 264.023 146.928C264.26 146.964 264.424 147.005 264.516 147.051ZM272.719 162.199C271.689 162.199 270.755 162.026 269.916 161.68C269.087 161.324 268.371 160.827 267.77 160.189C267.177 159.551 266.721 158.795 266.402 157.92C266.083 157.045 265.924 156.088 265.924 155.049V154.475C265.924 153.271 266.102 152.201 266.457 151.262C266.812 150.314 267.296 149.512 267.906 148.855C268.517 148.199 269.21 147.702 269.984 147.365C270.759 147.028 271.561 146.859 272.391 146.859C273.448 146.859 274.359 147.042 275.125 147.406C275.9 147.771 276.533 148.281 277.025 148.938C277.518 149.585 277.882 150.35 278.119 151.234C278.356 152.109 278.475 153.066 278.475 154.105V155.24H267.428V153.176H275.945V152.984C275.909 152.328 275.772 151.69 275.535 151.07C275.307 150.451 274.943 149.94 274.441 149.539C273.94 149.138 273.257 148.938 272.391 148.938C271.816 148.938 271.288 149.061 270.805 149.307C270.322 149.544 269.907 149.899 269.561 150.373C269.214 150.847 268.945 151.426 268.754 152.109C268.562 152.793 268.467 153.581 268.467 154.475V155.049C268.467 155.751 268.562 156.411 268.754 157.031C268.954 157.642 269.242 158.18 269.615 158.645C269.998 159.109 270.458 159.474 270.996 159.738C271.543 160.003 272.163 160.135 272.855 160.135C273.749 160.135 274.505 159.952 275.125 159.588C275.745 159.223 276.287 158.736 276.752 158.125L278.283 159.342C277.964 159.825 277.559 160.285 277.066 160.723C276.574 161.16 275.968 161.516 275.248 161.789C274.537 162.062 273.694 162.199 272.719 162.199ZM292.146 161.926H289.617V145.574C289.617 144.508 289.809 143.61 290.191 142.881C290.583 142.143 291.144 141.587 291.873 141.213C292.602 140.83 293.468 140.639 294.471 140.639C294.762 140.639 295.054 140.657 295.346 140.693C295.646 140.73 295.938 140.785 296.221 140.857L296.084 142.922C295.893 142.876 295.674 142.844 295.428 142.826C295.191 142.808 294.954 142.799 294.717 142.799C294.179 142.799 293.714 142.908 293.322 143.127C292.939 143.337 292.648 143.646 292.447 144.057C292.247 144.467 292.146 144.973 292.146 145.574V161.926ZM295.291 147.133V149.074H287.279V147.133H295.291ZM303.918 162.199C302.888 162.199 301.954 162.026 301.115 161.68C300.286 161.324 299.57 160.827 298.969 160.189C298.376 159.551 297.921 158.795 297.602 157.92C297.283 157.045 297.123 156.088 297.123 155.049V154.475C297.123 153.271 297.301 152.201 297.656 151.262C298.012 150.314 298.495 149.512 299.105 148.855C299.716 148.199 300.409 147.702 301.184 147.365C301.958 147.028 302.76 146.859 303.59 146.859C304.647 146.859 305.559 147.042 306.324 147.406C307.099 147.771 307.732 148.281 308.225 148.938C308.717 149.585 309.081 150.35 309.318 151.234C309.555 152.109 309.674 153.066 309.674 154.105V155.24H298.627V153.176H307.145V152.984C307.108 152.328 306.971 151.69 306.734 151.07C306.507 150.451 306.142 149.94 305.641 149.539C305.139 149.138 304.456 148.938 303.59 148.938C303.016 148.938 302.487 149.061 302.004 149.307C301.521 149.544 301.106 149.899 300.76 150.373C300.413 150.847 300.145 151.426 299.953 152.109C299.762 152.793 299.666 153.581 299.666 154.475V155.049C299.666 155.751 299.762 156.411 299.953 157.031C300.154 157.642 300.441 158.18 300.814 158.645C301.197 159.109 301.658 159.474 302.195 159.738C302.742 160.003 303.362 160.135 304.055 160.135C304.948 160.135 305.704 159.952 306.324 159.588C306.944 159.223 307.486 158.736 307.951 158.125L309.482 159.342C309.163 159.825 308.758 160.285 308.266 160.723C307.773 161.16 307.167 161.516 306.447 161.789C305.736 162.062 304.893 162.199 303.918 162.199ZM321.35 159.396V151.781C321.35 151.198 321.231 150.692 320.994 150.264C320.766 149.826 320.42 149.489 319.955 149.252C319.49 149.015 318.916 148.896 318.232 148.896C317.594 148.896 317.034 149.006 316.551 149.225C316.077 149.443 315.703 149.73 315.43 150.086C315.165 150.441 315.033 150.824 315.033 151.234H312.504C312.504 150.706 312.641 150.182 312.914 149.662C313.188 149.143 313.579 148.673 314.09 148.254C314.609 147.826 315.229 147.488 315.949 147.242C316.678 146.987 317.49 146.859 318.383 146.859C319.458 146.859 320.406 147.042 321.227 147.406C322.056 147.771 322.703 148.322 323.168 149.061C323.642 149.79 323.879 150.706 323.879 151.809V158.699C323.879 159.191 323.92 159.715 324.002 160.271C324.093 160.827 324.225 161.306 324.398 161.707V161.926H321.76C321.632 161.634 321.532 161.247 321.459 160.764C321.386 160.271 321.35 159.816 321.35 159.396ZM321.787 152.957L321.814 154.734H319.258C318.538 154.734 317.895 154.794 317.33 154.912C316.765 155.021 316.291 155.19 315.908 155.418C315.525 155.646 315.234 155.933 315.033 156.279C314.833 156.617 314.732 157.013 314.732 157.469C314.732 157.934 314.837 158.357 315.047 158.74C315.257 159.123 315.571 159.428 315.99 159.656C316.419 159.875 316.943 159.984 317.562 159.984C318.337 159.984 319.021 159.82 319.613 159.492C320.206 159.164 320.675 158.763 321.021 158.289C321.377 157.815 321.568 157.355 321.596 156.908L322.676 158.125C322.612 158.508 322.439 158.932 322.156 159.396C321.874 159.861 321.495 160.308 321.021 160.736C320.557 161.156 320.001 161.507 319.354 161.789C318.715 162.062 317.995 162.199 317.193 162.199C316.191 162.199 315.311 162.003 314.555 161.611C313.807 161.219 313.224 160.695 312.805 160.039C312.395 159.374 312.189 158.631 312.189 157.811C312.189 157.018 312.344 156.32 312.654 155.719C312.964 155.108 313.411 154.602 313.994 154.201C314.577 153.791 315.279 153.481 316.1 153.271C316.92 153.062 317.836 152.957 318.848 152.957H321.787ZM334.051 147.133V149.074H326.053V147.133H334.051ZM328.76 143.537H331.289V158.262C331.289 158.763 331.367 159.141 331.521 159.396C331.676 159.652 331.877 159.82 332.123 159.902C332.369 159.984 332.633 160.025 332.916 160.025C333.126 160.025 333.344 160.007 333.572 159.971C333.809 159.925 333.987 159.889 334.105 159.861L334.119 161.926C333.919 161.99 333.654 162.049 333.326 162.104C333.007 162.167 332.62 162.199 332.164 162.199C331.544 162.199 330.975 162.076 330.455 161.83C329.936 161.584 329.521 161.174 329.211 160.6C328.91 160.016 328.76 159.232 328.76 158.248V143.537ZM346.068 158.508V147.133H348.611V161.926H346.191L346.068 158.508ZM346.547 155.391L347.6 155.363C347.6 156.348 347.495 157.259 347.285 158.098C347.085 158.927 346.757 159.647 346.301 160.258C345.845 160.868 345.248 161.347 344.51 161.693C343.771 162.031 342.874 162.199 341.816 162.199C341.096 162.199 340.436 162.094 339.834 161.885C339.242 161.675 338.731 161.352 338.303 160.914C337.874 160.477 337.542 159.907 337.305 159.205C337.077 158.503 336.963 157.66 336.963 156.676V147.133H339.492V156.703C339.492 157.368 339.565 157.92 339.711 158.357C339.866 158.786 340.071 159.128 340.326 159.383C340.59 159.629 340.882 159.802 341.201 159.902C341.529 160.003 341.867 160.053 342.213 160.053C343.288 160.053 344.141 159.848 344.77 159.438C345.398 159.018 345.85 158.458 346.123 157.756C346.406 157.045 346.547 156.257 346.547 155.391ZM354.996 149.457V161.926H352.467V147.133H354.928L354.996 149.457ZM359.617 147.051L359.604 149.402C359.394 149.357 359.193 149.329 359.002 149.32C358.82 149.302 358.61 149.293 358.373 149.293C357.79 149.293 357.275 149.384 356.828 149.566C356.382 149.749 356.003 150.004 355.693 150.332C355.383 150.66 355.137 151.052 354.955 151.508C354.782 151.954 354.668 152.447 354.613 152.984L353.902 153.395C353.902 152.501 353.989 151.663 354.162 150.879C354.344 150.095 354.622 149.402 354.996 148.801C355.37 148.19 355.844 147.716 356.418 147.379C357.001 147.033 357.694 146.859 358.496 146.859C358.678 146.859 358.888 146.882 359.125 146.928C359.362 146.964 359.526 147.005 359.617 147.051ZM367.82 162.199C366.79 162.199 365.856 162.026 365.018 161.68C364.188 161.324 363.473 160.827 362.871 160.189C362.279 159.551 361.823 158.795 361.504 157.92C361.185 157.045 361.025 156.088 361.025 155.049V154.475C361.025 153.271 361.203 152.201 361.559 151.262C361.914 150.314 362.397 149.512 363.008 148.855C363.618 148.199 364.311 147.702 365.086 147.365C365.861 147.028 366.663 146.859 367.492 146.859C368.549 146.859 369.461 147.042 370.227 147.406C371.001 147.771 371.635 148.281 372.127 148.938C372.619 149.585 372.984 150.35 373.221 151.234C373.458 152.109 373.576 153.066 373.576 154.105V155.24H362.529V153.176H371.047V152.984C371.01 152.328 370.874 151.69 370.637 151.07C370.409 150.451 370.044 149.94 369.543 149.539C369.042 149.138 368.358 148.938 367.492 148.938C366.918 148.938 366.389 149.061 365.906 149.307C365.423 149.544 365.008 149.899 364.662 150.373C364.316 150.847 364.047 151.426 363.855 152.109C363.664 152.793 363.568 153.581 363.568 154.475V155.049C363.568 155.751 363.664 156.411 363.855 157.031C364.056 157.642 364.343 158.18 364.717 158.645C365.1 159.109 365.56 159.474 366.098 159.738C366.645 160.003 367.264 160.135 367.957 160.135C368.85 160.135 369.607 159.952 370.227 159.588C370.846 159.223 371.389 158.736 371.854 158.125L373.385 159.342C373.066 159.825 372.66 160.285 372.168 160.723C371.676 161.16 371.07 161.516 370.35 161.789C369.639 162.062 368.796 162.199 367.82 162.199ZM385.143 158.002C385.143 157.637 385.061 157.3 384.896 156.99C384.742 156.671 384.418 156.384 383.926 156.129C383.443 155.865 382.714 155.637 381.738 155.445C380.918 155.272 380.175 155.067 379.51 154.83C378.854 154.593 378.293 154.306 377.828 153.969C377.372 153.632 377.021 153.235 376.775 152.779C376.529 152.324 376.406 151.79 376.406 151.18C376.406 150.596 376.534 150.045 376.789 149.525C377.053 149.006 377.423 148.546 377.896 148.145C378.38 147.743 378.958 147.429 379.633 147.201C380.307 146.973 381.059 146.859 381.889 146.859C383.074 146.859 384.085 147.069 384.924 147.488C385.762 147.908 386.405 148.468 386.852 149.17C387.298 149.863 387.521 150.633 387.521 151.48H384.992C384.992 151.07 384.869 150.674 384.623 150.291C384.386 149.899 384.035 149.576 383.57 149.32C383.115 149.065 382.554 148.938 381.889 148.938C381.187 148.938 380.617 149.047 380.18 149.266C379.751 149.475 379.437 149.744 379.236 150.072C379.045 150.4 378.949 150.747 378.949 151.111C378.949 151.385 378.995 151.631 379.086 151.85C379.186 152.059 379.359 152.255 379.605 152.438C379.852 152.611 380.198 152.775 380.645 152.93C381.091 153.085 381.661 153.24 382.354 153.395C383.566 153.668 384.564 153.996 385.348 154.379C386.132 154.762 386.715 155.231 387.098 155.787C387.48 156.343 387.672 157.018 387.672 157.811C387.672 158.458 387.535 159.05 387.262 159.588C386.997 160.126 386.61 160.59 386.1 160.982C385.598 161.365 384.997 161.666 384.295 161.885C383.602 162.094 382.823 162.199 381.957 162.199C380.654 162.199 379.551 161.967 378.648 161.502C377.746 161.037 377.062 160.436 376.598 159.697C376.133 158.959 375.9 158.18 375.9 157.359H378.443C378.48 158.052 378.68 158.604 379.045 159.014C379.41 159.415 379.856 159.702 380.385 159.875C380.913 160.039 381.438 160.121 381.957 160.121C382.65 160.121 383.229 160.03 383.693 159.848C384.167 159.665 384.527 159.415 384.773 159.096C385.02 158.777 385.143 158.412 385.143 158.002ZM400.688 140.926V161.926H398.145V140.926H400.688ZM407.496 147.133V161.926H404.953V147.133H407.496ZM404.762 143.209C404.762 142.799 404.885 142.452 405.131 142.17C405.386 141.887 405.76 141.746 406.252 141.746C406.735 141.746 407.104 141.887 407.359 142.17C407.624 142.452 407.756 142.799 407.756 143.209C407.756 143.601 407.624 143.938 407.359 144.221C407.104 144.494 406.735 144.631 406.252 144.631C405.76 144.631 405.386 144.494 405.131 144.221C404.885 143.938 404.762 143.601 404.762 143.209ZM414.1 140.926V161.926H411.557V140.926H414.1ZM423.137 147.133L416.684 154.037L413.074 157.783L412.869 155.09L415.453 152L420.047 147.133H423.137ZM420.826 161.926L415.549 154.871L416.861 152.615L423.807 161.926H420.826ZM431.613 162.199C430.583 162.199 429.649 162.026 428.811 161.68C427.981 161.324 427.266 160.827 426.664 160.189C426.072 159.551 425.616 158.795 425.297 157.92C424.978 157.045 424.818 156.088 424.818 155.049V154.475C424.818 153.271 424.996 152.201 425.352 151.262C425.707 150.314 426.19 149.512 426.801 148.855C427.411 148.199 428.104 147.702 428.879 147.365C429.654 147.028 430.456 146.859 431.285 146.859C432.342 146.859 433.254 147.042 434.02 147.406C434.794 147.771 435.428 148.281 435.92 148.938C436.412 149.585 436.777 150.35 437.014 151.234C437.251 152.109 437.369 153.066 437.369 154.105V155.24H426.322V153.176H434.84V152.984C434.803 152.328 434.667 151.69 434.43 151.07C434.202 150.451 433.837 149.94 433.336 149.539C432.835 149.138 432.151 148.938 431.285 148.938C430.711 148.938 430.182 149.061 429.699 149.307C429.216 149.544 428.801 149.899 428.455 150.373C428.109 150.847 427.84 151.426 427.648 152.109C427.457 152.793 427.361 153.581 427.361 154.475V155.049C427.361 155.751 427.457 156.411 427.648 157.031C427.849 157.642 428.136 158.18 428.51 158.645C428.893 159.109 429.353 159.474 429.891 159.738C430.438 160.003 431.057 160.135 431.75 160.135C432.643 160.135 433.4 159.952 434.02 159.588C434.639 159.223 435.182 158.736 435.646 158.125L437.178 159.342C436.859 159.825 436.453 160.285 435.961 160.723C435.469 161.16 434.863 161.516 434.143 161.789C433.432 162.062 432.589 162.199 431.613 162.199ZM45.8477 196.121C46.4492 196.121 47.0052 195.998 47.5156 195.752C48.026 195.506 48.4453 195.169 48.7734 194.74C49.1016 194.303 49.2884 193.806 49.334 193.25H51.7402C51.6947 194.125 51.3984 194.941 50.8516 195.697C50.3138 196.445 49.6074 197.051 48.7324 197.516C47.8574 197.971 46.8958 198.199 45.8477 198.199C44.7357 198.199 43.765 198.003 42.9355 197.611C42.1152 197.219 41.4316 196.682 40.8848 195.998C40.347 195.314 39.9414 194.531 39.668 193.646C39.4036 192.753 39.2715 191.81 39.2715 190.816V190.242C39.2715 189.249 39.4036 188.31 39.668 187.426C39.9414 186.533 40.347 185.744 40.8848 185.061C41.4316 184.377 42.1152 183.839 42.9355 183.447C43.765 183.055 44.7357 182.859 45.8477 182.859C47.0052 182.859 48.0169 183.096 48.8828 183.57C49.7487 184.035 50.4277 184.673 50.9199 185.484C51.4212 186.286 51.6947 187.198 51.7402 188.219H49.334C49.2884 187.608 49.1152 187.057 48.8145 186.564C48.5228 186.072 48.1217 185.68 47.6113 185.389C47.11 185.088 46.5221 184.938 45.8477 184.938C45.0729 184.938 44.4212 185.092 43.8926 185.402C43.373 185.703 42.9583 186.113 42.6484 186.633C42.3477 187.143 42.1289 187.713 41.9922 188.342C41.8646 188.962 41.8008 189.595 41.8008 190.242V190.816C41.8008 191.464 41.8646 192.102 41.9922 192.73C42.1198 193.359 42.334 193.929 42.6348 194.439C42.9447 194.95 43.3594 195.36 43.8789 195.67C44.4076 195.971 45.0638 196.121 45.8477 196.121ZM57.1133 185.457V197.926H54.584V183.133H57.0449L57.1133 185.457ZM61.7344 183.051L61.7207 185.402C61.5111 185.357 61.3105 185.329 61.1191 185.32C60.9368 185.302 60.7272 185.293 60.4902 185.293C59.9069 185.293 59.3919 185.384 58.9453 185.566C58.4987 185.749 58.1204 186.004 57.8105 186.332C57.5007 186.66 57.2546 187.052 57.0723 187.508C56.8991 187.954 56.7852 188.447 56.7305 188.984L56.0195 189.395C56.0195 188.501 56.1061 187.663 56.2793 186.879C56.4616 186.095 56.7396 185.402 57.1133 184.801C57.487 184.19 57.9609 183.716 58.5352 183.379C59.1185 183.033 59.8112 182.859 60.6133 182.859C60.7956 182.859 61.0052 182.882 61.2422 182.928C61.4792 182.964 61.6432 183.005 61.7344 183.051ZM72.248 195.396V187.781C72.248 187.198 72.1296 186.692 71.8926 186.264C71.6647 185.826 71.3184 185.489 70.8535 185.252C70.3887 185.015 69.8145 184.896 69.1309 184.896C68.4928 184.896 67.9323 185.006 67.4492 185.225C66.9753 185.443 66.6016 185.73 66.3281 186.086C66.0638 186.441 65.9316 186.824 65.9316 187.234H63.4023C63.4023 186.706 63.5391 186.182 63.8125 185.662C64.0859 185.143 64.4779 184.673 64.9883 184.254C65.5078 183.826 66.1276 183.488 66.8477 183.242C67.5768 182.987 68.388 182.859 69.2812 182.859C70.3568 182.859 71.3047 183.042 72.125 183.406C72.9544 183.771 73.6016 184.322 74.0664 185.061C74.5404 185.79 74.7773 186.706 74.7773 187.809V194.699C74.7773 195.191 74.8184 195.715 74.9004 196.271C74.9915 196.827 75.1237 197.306 75.2969 197.707V197.926H72.6582C72.5306 197.634 72.4303 197.247 72.3574 196.764C72.2845 196.271 72.248 195.816 72.248 195.396ZM72.6855 188.957L72.7129 190.734H70.1562C69.4362 190.734 68.7936 190.794 68.2285 190.912C67.6634 191.021 67.1895 191.19 66.8066 191.418C66.4238 191.646 66.1322 191.933 65.9316 192.279C65.7311 192.617 65.6309 193.013 65.6309 193.469C65.6309 193.934 65.7357 194.357 65.9453 194.74C66.1549 195.123 66.4694 195.428 66.8887 195.656C67.3171 195.875 67.8411 195.984 68.4609 195.984C69.2357 195.984 69.9193 195.82 70.5117 195.492C71.1042 195.164 71.5736 194.763 71.9199 194.289C72.2754 193.815 72.4668 193.355 72.4941 192.908L73.5742 194.125C73.5104 194.508 73.3372 194.932 73.0547 195.396C72.7721 195.861 72.3939 196.308 71.9199 196.736C71.4551 197.156 70.8991 197.507 70.252 197.789C69.6139 198.062 68.8939 198.199 68.0918 198.199C67.0892 198.199 66.2096 198.003 65.4531 197.611C64.7057 197.219 64.1224 196.695 63.7031 196.039C63.293 195.374 63.0879 194.631 63.0879 193.811C63.0879 193.018 63.2428 192.32 63.5527 191.719C63.8626 191.108 64.3092 190.602 64.8926 190.201C65.4759 189.791 66.1777 189.481 66.998 189.271C67.8184 189.062 68.7344 188.957 69.7461 188.957H72.6855ZM82.5293 197.926H80V181.574C80 180.508 80.1914 179.61 80.5742 178.881C80.9661 178.143 81.5267 177.587 82.2559 177.213C82.985 176.83 83.8509 176.639 84.8535 176.639C85.1452 176.639 85.4368 176.657 85.7285 176.693C86.0293 176.73 86.321 176.785 86.6035 176.857L86.4668 178.922C86.2754 178.876 86.0566 178.844 85.8105 178.826C85.5736 178.808 85.3366 178.799 85.0996 178.799C84.5618 178.799 84.097 178.908 83.7051 179.127C83.3223 179.337 83.0306 179.646 82.8301 180.057C82.6296 180.467 82.5293 180.973 82.5293 181.574V197.926ZM85.6738 183.133V185.074H77.6621V183.133H85.6738ZM94.6836 183.133V185.074H86.6855V183.133H94.6836ZM89.3926 179.537H91.9219V194.262C91.9219 194.763 91.9993 195.141 92.1543 195.396C92.3092 195.652 92.5098 195.82 92.7559 195.902C93.002 195.984 93.2663 196.025 93.5488 196.025C93.7585 196.025 93.9772 196.007 94.2051 195.971C94.4421 195.925 94.6198 195.889 94.7383 195.861L94.752 197.926C94.5514 197.99 94.2871 198.049 93.959 198.104C93.64 198.167 93.2526 198.199 92.7969 198.199C92.1771 198.199 91.6074 198.076 91.0879 197.83C90.5684 197.584 90.1536 197.174 89.8438 196.6C89.543 196.016 89.3926 195.232 89.3926 194.248V179.537ZM100.398 183.133V197.926H97.8555V183.133H100.398ZM97.6641 179.209C97.6641 178.799 97.7871 178.452 98.0332 178.17C98.2884 177.887 98.6621 177.746 99.1543 177.746C99.6374 177.746 100.007 177.887 100.262 178.17C100.526 178.452 100.658 178.799 100.658 179.209C100.658 179.601 100.526 179.938 100.262 180.221C100.007 180.494 99.6374 180.631 99.1543 180.631C98.6621 180.631 98.2884 180.494 98.0332 180.221C97.7871 179.938 97.6641 179.601 97.6641 179.209ZM106.988 186.291V197.926H104.459V183.133H106.852L106.988 186.291ZM106.387 189.969L105.334 189.928C105.343 188.916 105.493 187.982 105.785 187.125C106.077 186.259 106.487 185.507 107.016 184.869C107.544 184.231 108.173 183.739 108.902 183.393C109.641 183.037 110.456 182.859 111.35 182.859C112.079 182.859 112.735 182.96 113.318 183.16C113.902 183.352 114.398 183.661 114.809 184.09C115.228 184.518 115.547 185.074 115.766 185.758C115.984 186.432 116.094 187.257 116.094 188.232V197.926H113.551V188.205C113.551 187.43 113.437 186.811 113.209 186.346C112.981 185.872 112.648 185.53 112.211 185.32C111.773 185.102 111.236 184.992 110.598 184.992C109.969 184.992 109.395 185.124 108.875 185.389C108.365 185.653 107.923 186.018 107.549 186.482C107.184 186.947 106.897 187.48 106.688 188.082C106.487 188.674 106.387 189.303 106.387 189.969ZM129.52 183.133H131.816V197.611C131.816 198.915 131.552 200.027 131.023 200.947C130.495 201.868 129.757 202.565 128.809 203.039C127.87 203.522 126.785 203.764 125.555 203.764C125.044 203.764 124.443 203.682 123.75 203.518C123.066 203.363 122.392 203.094 121.727 202.711C121.07 202.337 120.519 201.831 120.072 201.193L121.398 199.689C122.018 200.437 122.665 200.956 123.34 201.248C124.023 201.54 124.698 201.686 125.363 201.686C126.165 201.686 126.858 201.535 127.441 201.234C128.025 200.934 128.476 200.487 128.795 199.895C129.123 199.311 129.287 198.591 129.287 197.734V186.387L129.52 183.133ZM119.334 190.693V190.406C119.334 189.276 119.466 188.251 119.73 187.33C120.004 186.4 120.391 185.603 120.893 184.938C121.403 184.272 122.018 183.762 122.738 183.406C123.458 183.042 124.27 182.859 125.172 182.859C126.102 182.859 126.913 183.023 127.605 183.352C128.307 183.671 128.9 184.14 129.383 184.76C129.875 185.37 130.262 186.109 130.545 186.975C130.827 187.84 131.023 188.82 131.133 189.914V191.172C131.033 192.257 130.837 193.232 130.545 194.098C130.262 194.964 129.875 195.702 129.383 196.312C128.9 196.923 128.307 197.393 127.605 197.721C126.904 198.04 126.083 198.199 125.145 198.199C124.26 198.199 123.458 198.012 122.738 197.639C122.027 197.265 121.417 196.741 120.906 196.066C120.396 195.392 120.004 194.599 119.73 193.688C119.466 192.767 119.334 191.769 119.334 190.693ZM121.863 190.406V190.693C121.863 191.432 121.936 192.124 122.082 192.771C122.237 193.419 122.469 193.988 122.779 194.48C123.098 194.973 123.504 195.36 123.996 195.643C124.488 195.916 125.076 196.053 125.76 196.053C126.598 196.053 127.291 195.875 127.838 195.52C128.385 195.164 128.818 194.695 129.137 194.111C129.465 193.528 129.72 192.895 129.902 192.211V188.916C129.802 188.415 129.647 187.932 129.438 187.467C129.237 186.993 128.973 186.574 128.645 186.209C128.326 185.835 127.929 185.539 127.455 185.32C126.981 185.102 126.425 184.992 125.787 184.992C125.094 184.992 124.497 185.138 123.996 185.43C123.504 185.712 123.098 186.104 122.779 186.605C122.469 187.098 122.237 187.672 122.082 188.328C121.936 188.975 121.863 189.668 121.863 190.406ZM151.326 195.396V187.781C151.326 187.198 151.208 186.692 150.971 186.264C150.743 185.826 150.396 185.489 149.932 185.252C149.467 185.015 148.893 184.896 148.209 184.896C147.571 184.896 147.01 185.006 146.527 185.225C146.053 185.443 145.68 185.73 145.406 186.086C145.142 186.441 145.01 186.824 145.01 187.234H142.48C142.48 186.706 142.617 186.182 142.891 185.662C143.164 185.143 143.556 184.673 144.066 184.254C144.586 183.826 145.206 183.488 145.926 183.242C146.655 182.987 147.466 182.859 148.359 182.859C149.435 182.859 150.383 183.042 151.203 183.406C152.033 183.771 152.68 184.322 153.145 185.061C153.618 185.79 153.855 186.706 153.855 187.809V194.699C153.855 195.191 153.896 195.715 153.979 196.271C154.07 196.827 154.202 197.306 154.375 197.707V197.926H151.736C151.609 197.634 151.508 197.247 151.436 196.764C151.363 196.271 151.326 195.816 151.326 195.396ZM151.764 188.957L151.791 190.734H149.234C148.514 190.734 147.872 190.794 147.307 190.912C146.742 191.021 146.268 191.19 145.885 191.418C145.502 191.646 145.21 191.933 145.01 192.279C144.809 192.617 144.709 193.013 144.709 193.469C144.709 193.934 144.814 194.357 145.023 194.74C145.233 195.123 145.548 195.428 145.967 195.656C146.395 195.875 146.919 195.984 147.539 195.984C148.314 195.984 148.997 195.82 149.59 195.492C150.182 195.164 150.652 194.763 150.998 194.289C151.354 193.815 151.545 193.355 151.572 192.908L152.652 194.125C152.589 194.508 152.415 194.932 152.133 195.396C151.85 195.861 151.472 196.308 150.998 196.736C150.533 197.156 149.977 197.507 149.33 197.789C148.692 198.062 147.972 198.199 147.17 198.199C146.167 198.199 145.288 198.003 144.531 197.611C143.784 197.219 143.201 196.695 142.781 196.039C142.371 195.374 142.166 194.631 142.166 193.811C142.166 193.018 142.321 192.32 142.631 191.719C142.941 191.108 143.387 190.602 143.971 190.201C144.554 189.791 145.256 189.481 146.076 189.271C146.896 189.062 147.812 188.957 148.824 188.957H151.764ZM160.363 185.457V197.926H157.834V183.133H160.295L160.363 185.457ZM164.984 183.051L164.971 185.402C164.761 185.357 164.561 185.329 164.369 185.32C164.187 185.302 163.977 185.293 163.74 185.293C163.157 185.293 162.642 185.384 162.195 185.566C161.749 185.749 161.37 186.004 161.061 186.332C160.751 186.66 160.505 187.052 160.322 187.508C160.149 187.954 160.035 188.447 159.98 188.984L159.27 189.395C159.27 188.501 159.356 187.663 159.529 186.879C159.712 186.095 159.99 185.402 160.363 184.801C160.737 184.19 161.211 183.716 161.785 183.379C162.368 183.033 163.061 182.859 163.863 182.859C164.046 182.859 164.255 182.882 164.492 182.928C164.729 182.964 164.893 183.005 164.984 183.051ZM174.199 183.133V185.074H166.201V183.133H174.199ZM168.908 179.537H171.438V194.262C171.438 194.763 171.515 195.141 171.67 195.396C171.825 195.652 172.025 195.82 172.271 195.902C172.518 195.984 172.782 196.025 173.064 196.025C173.274 196.025 173.493 196.007 173.721 195.971C173.958 195.925 174.135 195.889 174.254 195.861L174.268 197.926C174.067 197.99 173.803 198.049 173.475 198.104C173.156 198.167 172.768 198.199 172.312 198.199C171.693 198.199 171.123 198.076 170.604 197.83C170.084 197.584 169.669 197.174 169.359 196.6C169.059 196.016 168.908 195.232 168.908 194.248V179.537ZM179.914 183.133V197.926H177.371V183.133H179.914ZM177.18 179.209C177.18 178.799 177.303 178.452 177.549 178.17C177.804 177.887 178.178 177.746 178.67 177.746C179.153 177.746 179.522 177.887 179.777 178.17C180.042 178.452 180.174 178.799 180.174 179.209C180.174 179.601 180.042 179.938 179.777 180.221C179.522 180.494 179.153 180.631 178.67 180.631C178.178 180.631 177.804 180.494 177.549 180.221C177.303 179.938 177.18 179.601 177.18 179.209ZM187.748 197.926H185.219V181.574C185.219 180.508 185.41 179.61 185.793 178.881C186.185 178.143 186.745 177.587 187.475 177.213C188.204 176.83 189.07 176.639 190.072 176.639C190.364 176.639 190.656 176.657 190.947 176.693C191.248 176.73 191.54 176.785 191.822 176.857L191.686 178.922C191.494 178.876 191.275 178.844 191.029 178.826C190.792 178.808 190.555 178.799 190.318 178.799C189.781 178.799 189.316 178.908 188.924 179.127C188.541 179.337 188.249 179.646 188.049 180.057C187.848 180.467 187.748 180.973 187.748 181.574V197.926ZM190.893 183.133V185.074H182.881V183.133H190.893ZM202.432 195.396V187.781C202.432 187.198 202.313 186.692 202.076 186.264C201.848 185.826 201.502 185.489 201.037 185.252C200.572 185.015 199.998 184.896 199.314 184.896C198.676 184.896 198.116 185.006 197.633 185.225C197.159 185.443 196.785 185.73 196.512 186.086C196.247 186.441 196.115 186.824 196.115 187.234H193.586C193.586 186.706 193.723 186.182 193.996 185.662C194.27 185.143 194.661 184.673 195.172 184.254C195.691 183.826 196.311 183.488 197.031 183.242C197.76 182.987 198.572 182.859 199.465 182.859C200.54 182.859 201.488 183.042 202.309 183.406C203.138 183.771 203.785 184.322 204.25 185.061C204.724 185.79 204.961 186.706 204.961 187.809V194.699C204.961 195.191 205.002 195.715 205.084 196.271C205.175 196.827 205.307 197.306 205.48 197.707V197.926H202.842C202.714 197.634 202.614 197.247 202.541 196.764C202.468 196.271 202.432 195.816 202.432 195.396ZM202.869 188.957L202.896 190.734H200.34C199.62 190.734 198.977 190.794 198.412 190.912C197.847 191.021 197.373 191.19 196.99 191.418C196.607 191.646 196.316 191.933 196.115 192.279C195.915 192.617 195.814 193.013 195.814 193.469C195.814 193.934 195.919 194.357 196.129 194.74C196.339 195.123 196.653 195.428 197.072 195.656C197.501 195.875 198.025 195.984 198.645 195.984C199.419 195.984 200.103 195.82 200.695 195.492C201.288 195.164 201.757 194.763 202.104 194.289C202.459 193.815 202.65 193.355 202.678 192.908L203.758 194.125C203.694 194.508 203.521 194.932 203.238 195.396C202.956 195.861 202.577 196.308 202.104 196.736C201.639 197.156 201.083 197.507 200.436 197.789C199.798 198.062 199.077 198.199 198.275 198.199C197.273 198.199 196.393 198.003 195.637 197.611C194.889 197.219 194.306 196.695 193.887 196.039C193.477 195.374 193.271 194.631 193.271 193.811C193.271 193.018 193.426 192.32 193.736 191.719C194.046 191.108 194.493 190.602 195.076 190.201C195.66 189.791 196.361 189.481 197.182 189.271C198.002 189.062 198.918 188.957 199.93 188.957H202.869ZM214.859 196.121C215.461 196.121 216.017 195.998 216.527 195.752C217.038 195.506 217.457 195.169 217.785 194.74C218.113 194.303 218.3 193.806 218.346 193.25H220.752C220.706 194.125 220.41 194.941 219.863 195.697C219.326 196.445 218.619 197.051 217.744 197.516C216.869 197.971 215.908 198.199 214.859 198.199C213.747 198.199 212.777 198.003 211.947 197.611C211.127 197.219 210.443 196.682 209.896 195.998C209.359 195.314 208.953 194.531 208.68 193.646C208.415 192.753 208.283 191.81 208.283 190.816V190.242C208.283 189.249 208.415 188.31 208.68 187.426C208.953 186.533 209.359 185.744 209.896 185.061C210.443 184.377 211.127 183.839 211.947 183.447C212.777 183.055 213.747 182.859 214.859 182.859C216.017 182.859 217.029 183.096 217.895 183.57C218.76 184.035 219.439 184.673 219.932 185.484C220.433 186.286 220.706 187.198 220.752 188.219H218.346C218.3 187.608 218.127 187.057 217.826 186.564C217.535 186.072 217.133 185.68 216.623 185.389C216.122 185.088 215.534 184.938 214.859 184.938C214.085 184.938 213.433 185.092 212.904 185.402C212.385 185.703 211.97 186.113 211.66 186.633C211.359 187.143 211.141 187.713 211.004 188.342C210.876 188.962 210.812 189.595 210.812 190.242V190.816C210.812 191.464 210.876 192.102 211.004 192.73C211.132 193.359 211.346 193.929 211.646 194.439C211.956 194.95 212.371 195.36 212.891 195.67C213.419 195.971 214.076 196.121 214.859 196.121ZM229.789 183.133V185.074H221.791V183.133H229.789ZM224.498 179.537H227.027V194.262C227.027 194.763 227.105 195.141 227.26 195.396C227.415 195.652 227.615 195.82 227.861 195.902C228.107 195.984 228.372 196.025 228.654 196.025C228.864 196.025 229.083 196.007 229.311 195.971C229.548 195.925 229.725 195.889 229.844 195.861L229.857 197.926C229.657 197.99 229.393 198.049 229.064 198.104C228.745 198.167 228.358 198.199 227.902 198.199C227.283 198.199 226.713 198.076 226.193 197.83C225.674 197.584 225.259 197.174 224.949 196.6C224.648 196.016 224.498 195.232 224.498 194.248V179.537ZM241.369 194.002C241.369 193.637 241.287 193.3 241.123 192.99C240.968 192.671 240.645 192.384 240.152 192.129C239.669 191.865 238.94 191.637 237.965 191.445C237.145 191.272 236.402 191.067 235.736 190.83C235.08 190.593 234.52 190.306 234.055 189.969C233.599 189.632 233.248 189.235 233.002 188.779C232.756 188.324 232.633 187.79 232.633 187.18C232.633 186.596 232.76 186.045 233.016 185.525C233.28 185.006 233.649 184.546 234.123 184.145C234.606 183.743 235.185 183.429 235.859 183.201C236.534 182.973 237.286 182.859 238.115 182.859C239.3 182.859 240.312 183.069 241.15 183.488C241.989 183.908 242.632 184.468 243.078 185.17C243.525 185.863 243.748 186.633 243.748 187.48H241.219C241.219 187.07 241.096 186.674 240.85 186.291C240.613 185.899 240.262 185.576 239.797 185.32C239.341 185.065 238.781 184.938 238.115 184.938C237.413 184.938 236.844 185.047 236.406 185.266C235.978 185.475 235.663 185.744 235.463 186.072C235.271 186.4 235.176 186.747 235.176 187.111C235.176 187.385 235.221 187.631 235.312 187.85C235.413 188.059 235.586 188.255 235.832 188.438C236.078 188.611 236.424 188.775 236.871 188.93C237.318 189.085 237.887 189.24 238.58 189.395C239.792 189.668 240.79 189.996 241.574 190.379C242.358 190.762 242.941 191.231 243.324 191.787C243.707 192.343 243.898 193.018 243.898 193.811C243.898 194.458 243.762 195.05 243.488 195.588C243.224 196.126 242.837 196.59 242.326 196.982C241.825 197.365 241.223 197.666 240.521 197.885C239.829 198.094 239.049 198.199 238.184 198.199C236.88 198.199 235.777 197.967 234.875 197.502C233.973 197.037 233.289 196.436 232.824 195.697C232.359 194.959 232.127 194.18 232.127 193.359H234.67C234.706 194.052 234.907 194.604 235.271 195.014C235.636 195.415 236.083 195.702 236.611 195.875C237.14 196.039 237.664 196.121 238.184 196.121C238.876 196.121 239.455 196.03 239.92 195.848C240.394 195.665 240.754 195.415 241 195.096C241.246 194.777 241.369 194.412 241.369 194.002ZM262.889 195.396V187.781C262.889 187.198 262.77 186.692 262.533 186.264C262.305 185.826 261.959 185.489 261.494 185.252C261.029 185.015 260.455 184.896 259.771 184.896C259.133 184.896 258.573 185.006 258.09 185.225C257.616 185.443 257.242 185.73 256.969 186.086C256.704 186.441 256.572 186.824 256.572 187.234H254.043C254.043 186.706 254.18 186.182 254.453 185.662C254.727 185.143 255.118 184.673 255.629 184.254C256.148 183.826 256.768 183.488 257.488 183.242C258.217 182.987 259.029 182.859 259.922 182.859C260.997 182.859 261.945 183.042 262.766 183.406C263.595 183.771 264.242 184.322 264.707 185.061C265.181 185.79 265.418 186.706 265.418 187.809V194.699C265.418 195.191 265.459 195.715 265.541 196.271C265.632 196.827 265.764 197.306 265.938 197.707V197.926H263.299C263.171 197.634 263.071 197.247 262.998 196.764C262.925 196.271 262.889 195.816 262.889 195.396ZM263.326 188.957L263.354 190.734H260.797C260.077 190.734 259.434 190.794 258.869 190.912C258.304 191.021 257.83 191.19 257.447 191.418C257.064 191.646 256.773 191.933 256.572 192.279C256.372 192.617 256.271 193.013 256.271 193.469C256.271 193.934 256.376 194.357 256.586 194.74C256.796 195.123 257.11 195.428 257.529 195.656C257.958 195.875 258.482 195.984 259.102 195.984C259.876 195.984 260.56 195.82 261.152 195.492C261.745 195.164 262.214 194.763 262.561 194.289C262.916 193.815 263.107 193.355 263.135 192.908L264.215 194.125C264.151 194.508 263.978 194.932 263.695 195.396C263.413 195.861 263.035 196.308 262.561 196.736C262.096 197.156 261.54 197.507 260.893 197.789C260.255 198.062 259.535 198.199 258.732 198.199C257.73 198.199 256.85 198.003 256.094 197.611C255.346 197.219 254.763 196.695 254.344 196.039C253.934 195.374 253.729 194.631 253.729 193.811C253.729 193.018 253.883 192.32 254.193 191.719C254.503 191.108 254.95 190.602 255.533 190.201C256.117 189.791 256.818 189.481 257.639 189.271C258.459 189.062 259.375 188.957 260.387 188.957H263.326ZM275.59 183.133V185.074H267.592V183.133H275.59ZM270.299 179.537H272.828V194.262C272.828 194.763 272.906 195.141 273.061 195.396C273.215 195.652 273.416 195.82 273.662 195.902C273.908 195.984 274.173 196.025 274.455 196.025C274.665 196.025 274.883 196.007 275.111 195.971C275.348 195.925 275.526 195.889 275.645 195.861L275.658 197.926C275.458 197.99 275.193 198.049 274.865 198.104C274.546 198.167 274.159 198.199 273.703 198.199C273.083 198.199 272.514 198.076 271.994 197.83C271.475 197.584 271.06 197.174 270.75 196.6C270.449 196.016 270.299 195.232 270.299 194.248V179.537ZM291.695 183.133V185.074H283.697V183.133H291.695ZM286.404 179.537H288.934V194.262C288.934 194.763 289.011 195.141 289.166 195.396C289.321 195.652 289.521 195.82 289.768 195.902C290.014 195.984 290.278 196.025 290.561 196.025C290.77 196.025 290.989 196.007 291.217 195.971C291.454 195.925 291.632 195.889 291.75 195.861L291.764 197.926C291.563 197.99 291.299 198.049 290.971 198.104C290.652 198.167 290.264 198.199 289.809 198.199C289.189 198.199 288.619 198.076 288.1 197.83C287.58 197.584 287.165 197.174 286.855 196.6C286.555 196.016 286.404 195.232 286.404 194.248V179.537ZM297.191 176.926V197.926H294.662V176.926H297.191ZM296.59 189.969L295.537 189.928C295.546 188.916 295.697 187.982 295.988 187.125C296.28 186.259 296.69 185.507 297.219 184.869C297.747 184.231 298.376 183.739 299.105 183.393C299.844 183.037 300.66 182.859 301.553 182.859C302.282 182.859 302.938 182.96 303.521 183.16C304.105 183.352 304.602 183.661 305.012 184.09C305.431 184.518 305.75 185.074 305.969 185.758C306.188 186.432 306.297 187.257 306.297 188.232V197.926H303.754V188.205C303.754 187.43 303.64 186.811 303.412 186.346C303.184 185.872 302.852 185.53 302.414 185.32C301.977 185.102 301.439 184.992 300.801 184.992C300.172 184.992 299.598 185.124 299.078 185.389C298.568 185.653 298.126 186.018 297.752 186.482C297.387 186.947 297.1 187.48 296.891 188.082C296.69 188.674 296.59 189.303 296.59 189.969ZM316.223 198.199C315.193 198.199 314.258 198.026 313.42 197.68C312.59 197.324 311.875 196.827 311.273 196.189C310.681 195.551 310.225 194.795 309.906 193.92C309.587 193.045 309.428 192.088 309.428 191.049V190.475C309.428 189.271 309.605 188.201 309.961 187.262C310.316 186.314 310.799 185.512 311.41 184.855C312.021 184.199 312.714 183.702 313.488 183.365C314.263 183.028 315.065 182.859 315.895 182.859C316.952 182.859 317.863 183.042 318.629 183.406C319.404 183.771 320.037 184.281 320.529 184.938C321.021 185.585 321.386 186.35 321.623 187.234C321.86 188.109 321.979 189.066 321.979 190.105V191.24H310.932V189.176H319.449V188.984C319.413 188.328 319.276 187.69 319.039 187.07C318.811 186.451 318.447 185.94 317.945 185.539C317.444 185.138 316.76 184.938 315.895 184.938C315.32 184.938 314.792 185.061 314.309 185.307C313.826 185.544 313.411 185.899 313.064 186.373C312.718 186.847 312.449 187.426 312.258 188.109C312.066 188.793 311.971 189.581 311.971 190.475V191.049C311.971 191.751 312.066 192.411 312.258 193.031C312.458 193.642 312.745 194.18 313.119 194.645C313.502 195.109 313.962 195.474 314.5 195.738C315.047 196.003 315.667 196.135 316.359 196.135C317.253 196.135 318.009 195.952 318.629 195.588C319.249 195.223 319.791 194.736 320.256 194.125L321.787 195.342C321.468 195.825 321.062 196.285 320.57 196.723C320.078 197.16 319.472 197.516 318.752 197.789C318.041 198.062 317.198 198.199 316.223 198.199ZM334.898 178.02V197.926H332.26V178.02H334.898ZM343.238 186.975V189.135H334.324V186.975H343.238ZM344.592 178.02V180.18H334.324V178.02H344.592ZM355.611 195.396V187.781C355.611 187.198 355.493 186.692 355.256 186.264C355.028 185.826 354.682 185.489 354.217 185.252C353.752 185.015 353.178 184.896 352.494 184.896C351.856 184.896 351.296 185.006 350.812 185.225C350.339 185.443 349.965 185.73 349.691 186.086C349.427 186.441 349.295 186.824 349.295 187.234H346.766C346.766 186.706 346.902 186.182 347.176 185.662C347.449 185.143 347.841 184.673 348.352 184.254C348.871 183.826 349.491 183.488 350.211 183.242C350.94 182.987 351.751 182.859 352.645 182.859C353.72 182.859 354.668 183.042 355.488 183.406C356.318 183.771 356.965 184.322 357.43 185.061C357.904 185.79 358.141 186.706 358.141 187.809V194.699C358.141 195.191 358.182 195.715 358.264 196.271C358.355 196.827 358.487 197.306 358.66 197.707V197.926H356.021C355.894 197.634 355.794 197.247 355.721 196.764C355.648 196.271 355.611 195.816 355.611 195.396ZM356.049 188.957L356.076 190.734H353.52C352.799 190.734 352.157 190.794 351.592 190.912C351.027 191.021 350.553 191.19 350.17 191.418C349.787 191.646 349.495 191.933 349.295 192.279C349.094 192.617 348.994 193.013 348.994 193.469C348.994 193.934 349.099 194.357 349.309 194.74C349.518 195.123 349.833 195.428 350.252 195.656C350.68 195.875 351.204 195.984 351.824 195.984C352.599 195.984 353.283 195.82 353.875 195.492C354.467 195.164 354.937 194.763 355.283 194.289C355.639 193.815 355.83 193.355 355.857 192.908L356.938 194.125C356.874 194.508 356.701 194.932 356.418 195.396C356.135 195.861 355.757 196.308 355.283 196.736C354.818 197.156 354.262 197.507 353.615 197.789C352.977 198.062 352.257 198.199 351.455 198.199C350.452 198.199 349.573 198.003 348.816 197.611C348.069 197.219 347.486 196.695 347.066 196.039C346.656 195.374 346.451 194.631 346.451 193.811C346.451 193.018 346.606 192.32 346.916 191.719C347.226 191.108 347.673 190.602 348.256 190.201C348.839 189.791 349.541 189.481 350.361 189.271C351.182 189.062 352.098 188.957 353.109 188.957H356.049ZM368.039 196.121C368.641 196.121 369.197 195.998 369.707 195.752C370.217 195.506 370.637 195.169 370.965 194.74C371.293 194.303 371.48 193.806 371.525 193.25H373.932C373.886 194.125 373.59 194.941 373.043 195.697C372.505 196.445 371.799 197.051 370.924 197.516C370.049 197.971 369.087 198.199 368.039 198.199C366.927 198.199 365.956 198.003 365.127 197.611C364.307 197.219 363.623 196.682 363.076 195.998C362.538 195.314 362.133 194.531 361.859 193.646C361.595 192.753 361.463 191.81 361.463 190.816V190.242C361.463 189.249 361.595 188.31 361.859 187.426C362.133 186.533 362.538 185.744 363.076 185.061C363.623 184.377 364.307 183.839 365.127 183.447C365.956 183.055 366.927 182.859 368.039 182.859C369.197 182.859 370.208 183.096 371.074 183.57C371.94 184.035 372.619 184.673 373.111 185.484C373.613 186.286 373.886 187.198 373.932 188.219H371.525C371.48 187.608 371.307 187.057 371.006 186.564C370.714 186.072 370.313 185.68 369.803 185.389C369.301 185.088 368.714 184.938 368.039 184.938C367.264 184.938 366.613 185.092 366.084 185.402C365.564 185.703 365.15 186.113 364.84 186.633C364.539 187.143 364.32 187.713 364.184 188.342C364.056 188.962 363.992 189.595 363.992 190.242V190.816C363.992 191.464 364.056 192.102 364.184 192.73C364.311 193.359 364.525 193.929 364.826 194.439C365.136 194.95 365.551 195.36 366.07 195.67C366.599 195.971 367.255 196.121 368.039 196.121ZM382.969 183.133V185.074H374.971V183.133H382.969ZM377.678 179.537H380.207V194.262C380.207 194.763 380.285 195.141 380.439 195.396C380.594 195.652 380.795 195.82 381.041 195.902C381.287 195.984 381.551 196.025 381.834 196.025C382.044 196.025 382.262 196.007 382.49 195.971C382.727 195.925 382.905 195.889 383.023 195.861L383.037 197.926C382.837 197.99 382.572 198.049 382.244 198.104C381.925 198.167 381.538 198.199 381.082 198.199C380.462 198.199 379.893 198.076 379.373 197.83C378.854 197.584 378.439 197.174 378.129 196.6C377.828 196.016 377.678 195.232 377.678 194.248V179.537ZM384.992 190.693V190.379C384.992 189.312 385.147 188.324 385.457 187.412C385.767 186.492 386.214 185.694 386.797 185.02C387.38 184.336 388.087 183.807 388.916 183.434C389.745 183.051 390.675 182.859 391.705 182.859C392.744 182.859 393.678 183.051 394.508 183.434C395.346 183.807 396.057 184.336 396.641 185.02C397.233 185.694 397.684 186.492 397.994 187.412C398.304 188.324 398.459 189.312 398.459 190.379V190.693C398.459 191.76 398.304 192.749 397.994 193.66C397.684 194.572 397.233 195.369 396.641 196.053C396.057 196.727 395.351 197.256 394.521 197.639C393.701 198.012 392.771 198.199 391.732 198.199C390.693 198.199 389.759 198.012 388.93 197.639C388.1 197.256 387.389 196.727 386.797 196.053C386.214 195.369 385.767 194.572 385.457 193.66C385.147 192.749 384.992 191.76 384.992 190.693ZM387.521 190.379V190.693C387.521 191.432 387.608 192.129 387.781 192.785C387.954 193.432 388.214 194.007 388.561 194.508C388.916 195.009 389.358 195.406 389.887 195.697C390.415 195.98 391.031 196.121 391.732 196.121C392.425 196.121 393.031 195.98 393.551 195.697C394.079 195.406 394.517 195.009 394.863 194.508C395.21 194.007 395.469 193.432 395.643 192.785C395.825 192.129 395.916 191.432 395.916 190.693V190.379C395.916 189.65 395.825 188.962 395.643 188.314C395.469 187.658 395.205 187.079 394.85 186.578C394.503 186.068 394.066 185.667 393.537 185.375C393.018 185.083 392.407 184.938 391.705 184.938C391.012 184.938 390.402 185.083 389.873 185.375C389.354 185.667 388.916 186.068 388.561 186.578C388.214 187.079 387.954 187.658 387.781 188.314C387.608 188.962 387.521 189.65 387.521 190.379ZM404.16 185.457V197.926H401.631V183.133H404.092L404.16 185.457ZM408.781 183.051L408.768 185.402C408.558 185.357 408.357 185.329 408.166 185.32C407.984 185.302 407.774 185.293 407.537 185.293C406.954 185.293 406.439 185.384 405.992 185.566C405.546 185.749 405.167 186.004 404.857 186.332C404.548 186.66 404.301 187.052 404.119 187.508C403.946 187.954 403.832 188.447 403.777 188.984L403.066 189.395C403.066 188.501 403.153 187.663 403.326 186.879C403.508 186.095 403.786 185.402 404.16 184.801C404.534 184.19 405.008 183.716 405.582 183.379C406.165 183.033 406.858 182.859 407.66 182.859C407.842 182.859 408.052 182.882 408.289 182.928C408.526 182.964 408.69 183.005 408.781 183.051ZM415.521 196.395L419.637 183.133H422.344L416.41 200.209C416.273 200.574 416.091 200.965 415.863 201.385C415.645 201.813 415.362 202.219 415.016 202.602C414.669 202.984 414.25 203.294 413.758 203.531C413.275 203.777 412.696 203.9 412.021 203.9C411.821 203.9 411.566 203.873 411.256 203.818C410.946 203.764 410.727 203.718 410.6 203.682L410.586 201.631C410.659 201.64 410.773 201.649 410.928 201.658C411.092 201.676 411.206 201.686 411.27 201.686C411.844 201.686 412.331 201.608 412.732 201.453C413.133 201.307 413.471 201.057 413.744 200.701C414.027 200.355 414.268 199.876 414.469 199.266L415.521 196.395ZM412.5 183.133L416.342 194.617L416.998 197.283L415.18 198.213L409.738 183.133H412.5Z" fill="white"/>
</svg>
