<svg width="355" height="367" viewBox="0 0 355 367" fill="none" xmlns="http://www.w3.org/2000/svg">
    <path d="M1.08617 134.002C0.358438 120.152 -0.00542647 113.226 2.4475 107.866C4.60413 103.154 8.22824 99.266 12.7779 96.7843C17.9527 93.9615 24.8865 93.8389 38.7542 93.5936L315.921 88.6912C329.576 88.4497 336.404 88.3289 341.63 90.9109C346.226 93.1814 349.975 96.864 352.326 101.419C355 106.599 355 113.428 355 127.085V328.6C355 342.041 355 348.762 352.384 353.896C350.083 358.412 346.412 362.083 341.896 364.384C336.762 367 330.041 367 316.6 367H49.7634C36.9463 367 30.5378 367 25.5425 364.553C21.1454 362.399 17.5123 358.952 15.1307 354.674C12.4251 349.814 12.0888 343.414 11.4163 330.615L1.08617 134.002Z" fill="#EAEAE9"/>
    <path d="M281.675 121.466C284.228 125.264 289.935 124.876 291.949 120.766L330.898 41.27C332.912 37.1602 329.721 32.4119 325.155 32.723L236.835 38.7397C232.269 39.0507 229.752 44.1879 232.305 47.9865L281.675 121.466Z" fill="#FF9F0A"/>
    <path d="M288.404 74.4962C288.505 75.9796 288.17 77.2711 287.399 78.3708C286.629 79.4705 285.521 80.0695 284.078 80.1678C282.595 80.2689 281.398 79.8469 280.488 78.902C279.618 77.9544 279.13 76.6988 279.023 75.1353L277.573 53.8474C277.472 52.3641 277.807 51.0725 278.578 49.9728C279.348 48.8731 280.456 48.2741 281.899 48.1758C283.382 48.0748 284.559 48.4981 285.429 49.4457C286.339 50.3906 286.847 51.6448 286.954 53.2083L288.404 74.4962ZM284.254 82.7536C285.658 82.6581 286.916 83.0959 288.029 84.0673C289.142 85.0386 289.748 86.2459 289.847 87.6891C289.945 89.1324 289.508 90.4107 288.537 91.5241C287.566 92.6374 286.379 93.2419 284.975 93.3375C283.532 93.4358 282.255 93.0193 281.145 92.0881C280.071 91.114 279.484 89.8853 279.383 88.402C279.287 86.9988 279.705 85.7419 280.637 84.6313C281.605 83.4778 282.811 82.852 284.254 82.7536Z" fill="black"/>
</svg>
