<svg width="373" height="228" viewBox="0 0 373 228" fill="none" xmlns="http://www.w3.org/2000/svg">
<path d="M371.269 182.427C372.22 196.503 372.695 203.541 370.263 208.989C368.125 213.778 364.477 217.735 359.877 220.254C354.644 223.121 347.591 223.218 333.485 223.412L38.9283 227.464C25.3204 227.652 18.5164 227.745 13.3107 225.156C8.73242 222.878 5.00122 219.198 2.66098 214.651C0 209.482 0 202.677 0 189.068V38.4C0 24.9587 0 18.2381 2.61584 13.1042C4.91681 8.58833 8.58835 4.91681 13.1042 2.61584C18.2381 0 24.9587 0 38.4 0H323.054C335.698 0 342.02 0 346.975 2.39978C351.337 4.51259 354.958 7.8969 357.36 12.1072C360.088 16.8894 360.514 23.197 361.366 35.8122L371.269 182.427Z" fill="#EAEAE9"/>
</svg>
