<svg width="67" height="53" viewBox="0 0 67 53" fill="none" xmlns="http://www.w3.org/2000/svg">
<path fill-rule="evenodd" clip-rule="evenodd" d="M0.322124 51.4994C14.6366 39.6717 27.6876 26.3977 42.634 15.2059C41.6007 12.8072 39.9382 11.3764 37.7679 10.4895C36.7969 10.0918 35.7836 9.78642 34.7983 9.42343C33.8713 9.08042 33.2917 8.43634 33.3797 7.41045C33.4686 6.3727 34.2024 5.8963 35.1449 5.68069C35.3026 5.64414 35.4573 5.59547 35.6185 5.5671C44.6206 3.92514 53.619 2.27893 62.6206 0.644867C63.4146 0.502186 64.266 0.28019 65.0234 0.432651C65.7259 0.573316 66.5809 1.03433 66.9024 1.61266C67.1287 2.01758 66.6261 2.88333 66.3444 3.49469C66.1233 3.97932 65.7131 4.37923 65.4377 4.84417C64.7065 6.07495 64.1967 7.49592 63.252 8.53704C59.2833 12.9105 55.1912 17.1721 51.1404 21.4683C50.6975 21.9373 50.2575 22.4224 49.7483 22.8153C48.4689 23.8051 47.1465 23.7083 46.1042 22.4561C45.5464 21.7857 45.1793 20.9501 44.7727 20.1673C44.4188 19.4835 44.1268 18.7683 43.7032 17.8295C42.0217 19.1047 40.4989 20.1607 39.0826 21.3434C30.144 28.8211 21.2459 36.3453 12.2922 43.81C9.68394 45.9846 6.99118 48.0581 4.26245 50.0774C3.19182 50.8715 1.91381 51.389 0.730407 52.0322C0.591858 51.8518 0.457542 51.6677 0.318989 51.4873L0.322124 51.4994ZM46.4362 12.4086C49.844 10.183 53.5271 7.77828 57.2102 5.37353C57.1707 5.25564 57.1349 5.14194 57.0952 5.02799C52.1614 5.97536 47.2316 6.92305 42.774 7.77685C43.9325 9.24364 45.1205 10.7442 46.4362 12.4086ZM48.4228 18.7407C51.4506 15.7501 54.0061 12.7421 56.7799 9.74153C55.0151 10.0502 50.8132 12.6448 47.277 15.564C47.6299 16.5454 47.9536 17.4335 48.4228 18.7407Z" fill="black"/>
</svg>
