<svg width="69" height="57" viewBox="0 0 69 57" fill="none" xmlns="http://www.w3.org/2000/svg">
    <path d="M21.8502 27.6571L21.4253 32.2789L7.14906 33.4736L7.55636 28.8532L21.8502 27.6571ZM17.6352 21.1304L15.9652 39.9681L11.4108 40.3492L13.0808 21.5115L17.6352 21.1304ZM29.2767 29.7521L25.338 29.0586L27.5002 15.895L39.4993 14.8909L39.1853 19.1506L31.1976 19.8191L30.1337 25.4469C30.5414 25.1188 30.9836 24.8525 31.4604 24.6479C31.9372 24.4434 32.4262 24.3143 32.9274 24.2606C34.0951 24.1629 35.063 24.3465 35.831 24.8114C36.6097 25.2637 37.2323 25.8877 37.6987 26.6836C38.1651 27.4796 38.504 28.3685 38.7155 29.3503C38.927 30.3322 39.0309 31.2937 39.0273 32.2348C39.0287 33.3753 38.8631 34.4887 38.5306 35.5749C38.1981 36.6611 37.7157 37.6423 37.0834 38.5184C36.4511 39.3945 35.6645 40.1129 34.7236 40.6738C33.7827 41.2347 32.7035 41.5485 31.4861 41.6151C30.4215 41.6806 29.4692 41.5428 28.6292 41.2015C27.8009 40.8592 27.0772 40.3612 26.458 39.7074C25.8506 39.0526 25.3696 38.2932 25.0151 37.4292C24.6722 36.5641 24.472 35.646 24.4142 34.6748L29.1438 34.279C29.1946 34.7451 29.2876 35.2254 29.4231 35.7197C29.5702 36.213 29.8 36.6407 30.1125 37.0026C30.4357 37.3519 30.8839 37.5084 31.4571 37.4722C32.0663 37.4447 32.5499 37.2514 32.9079 36.8921C33.2766 36.5203 33.5568 36.0735 33.7483 35.5518C33.9389 35.0184 34.0633 34.467 34.1215 33.8977C34.1904 33.3157 34.2239 32.8014 34.2218 32.3547C34.2216 31.9313 34.1952 31.4749 34.1425 30.9854C34.0898 30.4959 33.9743 30.0293 33.7961 29.5856C33.6286 29.1292 33.375 28.7683 33.0352 28.5027C32.6955 28.2371 32.2575 28.1327 31.7213 28.1893C31.1598 28.2245 30.6854 28.3877 30.2982 28.6788C29.9217 28.9573 29.5812 29.3151 29.2767 29.7521ZM58.2964 13.3179L58.0959 16.4039L48.7109 39.8032L43.4909 40.24L52.9097 17.8787L43.0302 18.7054L43.3194 14.5712L58.2964 13.3179Z" fill="black"/>
    <path d="M62.312 16.4245C58.4052 5.15559 46.1399 1.23259 33.0106 2.12114C16.8527 3.21467 1.99998 9.55953 2 28.5619C2.00002 51.2782 24.4599 56.1657 36.1781 54.7855C47.8962 53.4053 66.4976 42.4025 66.9859 24C67.3765 9.27796 59.5572 3.50133 55.4884 2.12114" stroke="#EA0F0F" stroke-width="3" stroke-linecap="round" stroke-linejoin="round"/>
</svg>
