<svg width="218" height="129" viewBox="0 0 218 129" fill="none" xmlns="http://www.w3.org/2000/svg">
<mask id="path-1-inside-1_1_2015" fill="white">
<path d="M217.226 40.5656C217.534 26.3655 217.688 19.2655 214.983 13.9146C212.607 9.21177 208.748 5.42184 204.004 3.12964C198.605 0.521558 191.509 0.802372 177.317 1.364L38.1197 6.87245C24.5356 7.41001 17.7436 7.67879 12.6862 10.5381C8.23826 13.0528 4.709 16.9214 2.61208 21.5808C0.227777 26.8788 0.581923 33.6669 1.29021 47.2431L3.61986 91.8965C4.32016 105.32 4.67031 112.031 7.55008 117.022C10.0832 121.412 13.941 124.887 18.5707 126.949C23.8339 129.294 30.5454 128.944 43.9684 128.244L179.903 121.152C192.457 120.497 198.734 120.169 203.541 117.535C207.774 115.216 211.209 111.675 213.399 107.373C215.885 102.488 216.021 96.2036 216.293 83.6355L217.226 40.5656Z"/>
</mask>
<path d="M217.226 40.5656C217.534 26.3655 217.688 19.2655 214.983 13.9146C212.607 9.21177 208.748 5.42184 204.004 3.12964C198.605 0.521558 191.509 0.802372 177.317 1.364L38.1197 6.87245C24.5356 7.41001 17.7436 7.67879 12.6862 10.5381C8.23826 13.0528 4.709 16.9214 2.61208 21.5808C0.227777 26.8788 0.581923 33.6669 1.29021 47.2431L3.61986 91.8965C4.32016 105.32 4.67031 112.031 7.55008 117.022C10.0832 121.412 13.941 124.887 18.5707 126.949C23.8339 129.294 30.5454 128.944 43.9684 128.244L179.903 121.152C192.457 120.497 198.734 120.169 203.541 117.535C207.774 115.216 211.209 111.675 213.399 107.373C215.885 102.488 216.021 96.2036 216.293 83.6355L217.226 40.5656Z" fill="white" stroke="#EA0F0F" stroke-width="4" mask="url(#path-1-inside-1_1_2015)"/>
</svg>
