<svg width="268" height="131" viewBox="0 0 268 131" fill="none" xmlns="http://www.w3.org/2000/svg">
<mask id="path-1-inside-1_1_2022" fill="white">
<path d="M265.98 53.0851C267.826 38.5243 268.749 31.2439 266.478 25.508C264.566 20.6802 261.139 16.6028 256.713 13.8877C251.454 10.6618 244.124 10.317 229.462 9.62747L42.5218 0.83493C28.7409 0.186759 21.8504 -0.137326 16.4989 2.35113C11.9898 4.4478 8.2434 7.89328 5.77734 12.2114C2.85051 17.3364 2.59781 24.2298 2.09241 38.0168L0.432277 83.304C-0.068418 96.9626 -0.318766 103.792 2.19095 109.089C4.30585 113.553 7.74662 117.256 12.0437 119.692C17.1429 122.583 23.9722 122.833 37.6308 123.334L220.753 130.046C233.345 130.508 239.641 130.739 244.689 128.514C248.947 126.637 252.569 123.562 255.111 119.664C258.124 115.044 258.917 108.793 260.502 96.2928L265.98 53.0851Z"/>
</mask>
<path d="M265.98 53.0851C267.826 38.5243 268.749 31.2439 266.478 25.508C264.566 20.6802 261.139 16.6028 256.713 13.8877C251.454 10.6618 244.124 10.317 229.462 9.62747L42.5218 0.83493C28.7409 0.186759 21.8504 -0.137326 16.4989 2.35113C11.9898 4.4478 8.2434 7.89328 5.77734 12.2114C2.85051 17.3364 2.59781 24.2298 2.09241 38.0168L0.432277 83.304C-0.068418 96.9626 -0.318766 103.792 2.19095 109.089C4.30585 113.553 7.74662 117.256 12.0437 119.692C17.1429 122.583 23.9722 122.833 37.6308 123.334L220.753 130.046C233.345 130.508 239.641 130.739 244.689 128.514C248.947 126.637 252.569 123.562 255.111 119.664C258.124 115.044 258.917 108.793 260.502 96.2928L265.98 53.0851Z" fill="white" stroke="#EA0F0F" stroke-width="4" mask="url(#path-1-inside-1_1_2022)"/>
</svg>
