<svg width="59" height="100" viewBox="0 0 59 100" fill="none" xmlns="http://www.w3.org/2000/svg">
<path fill-rule="evenodd" clip-rule="evenodd" d="M45.7007 79.7381C44.8225 76.1105 43.9364 72.4837 43.0775 68.8498C42.839 67.8222 42.5627 66.779 42.518 65.7325C42.4352 63.7667 43.433 62.2615 45.1105 61.6241C46.8266 60.9741 48.3891 61.35 49.5996 62.659C50.2981 63.4126 50.8792 64.3599 51.2612 65.3146C51.9365 67.0107 52.4395 68.771 52.9844 70.5144C54.4485 75.2007 55.8241 79.9175 57.3608 84.5753C58.5165 88.0783 58.3764 91.6459 57.8825 95.1632C57.3514 98.9809 53.5664 100.618 50.1737 98.5865C48.0356 97.3107 46.1291 95.6517 44.0701 94.2306C39.3217 90.9468 34.5087 87.7626 29.7977 84.4224C27.3683 82.701 25.0976 80.7609 22.7964 78.8685C22.1338 78.3227 21.5373 77.6571 21.0713 76.9442C20.2575 75.7124 20.3552 74.1333 21.2395 73.1693C22.177 72.1471 23.3849 71.805 24.656 72.3231C25.617 72.7178 26.5027 73.3253 27.3733 73.9066C30.8778 76.2491 34.3649 78.6138 37.8555 80.974C38.0022 80.8248 38.1533 80.679 38.3 80.5297C37.8293 79.7414 37.3769 78.9388 36.8834 78.1612C32.1698 70.6743 27.4335 63.1981 22.7382 55.6971C13.4361 40.8366 7.04676 24.6453 1.20103 8.20997C0.785672 7.0352 0.519129 5.7989 0.230744 4.58118C0.0986139 4.02489 0.0224857 3.43398 0.0367452 2.86444C0.0660282 1.69728 0.559381 0.775396 1.80912 0.588219C2.99136 0.404997 3.47708 1.21959 3.88016 2.18387C5.97639 7.25567 8.05339 12.3337 10.2407 17.3628C15.0393 28.3948 19.7609 39.4518 25.6291 49.9819C31.31 60.1702 37.8854 69.7612 44.606 79.2592C44.764 79.4845 45.0146 79.6469 45.2197 79.8307C45.3756 79.7964 45.5316 79.762 45.684 79.7321L45.7007 79.7381Z" fill="#EA0F0F"/>
</svg>
