<svg width="20" height="14" viewBox="0 0 20 14" fill="none" xmlns="http://www.w3.org/2000/svg">
<path fill-rule="evenodd" clip-rule="evenodd" d="M7.04239 5.20545C5.69457 7.07571 4.81509 8.26686 3.96877 9.48355C3.51979 10.1323 3.01275 10.7763 2.75261 11.5077C2.28307 12.8134 3.03802 13.9422 4.40804 13.9112C5.25014 13.8913 6.16056 13.6275 6.88583 13.2024C8.46264 12.2728 9.97314 11.2283 11.4413 10.1316C13.891 8.30854 16.3168 6.45452 18.679 4.52229C19.2089 4.08859 19.7861 3.25724 19.7329 2.6429C19.6385 1.57338 18.5505 1.39049 17.6568 1.33165C13.5128 1.0674 9.36426 0.837734 5.22301 0.610211C4.42885 0.564184 3.56751 0.39091 2.86167 0.625991C2.12081 0.874902 1.16602 1.41332 0.962114 2.06112C0.624424 3.13743 1.50765 3.92399 2.53387 4.21284C3.80329 4.57203 5.11242 4.78697 7.04977 5.20758L7.04239 5.20545Z" fill="black"/>
</svg>
