<svg width="601" height="777" viewBox="0 0 601 777" fill="none" xmlns="http://www.w3.org/2000/svg">
    <path d="M1.38243 213.213C0.549439 190.591 0.132945 179.28 4.23625 170.516C7.84505 162.809 13.818 156.454 21.2869 152.374C29.7792 147.735 41.0942 147.449 63.7244 146.878L508.385 135.656C531.296 135.078 542.751 134.789 551.527 139.067C559.244 142.829 565.546 148.974 569.502 156.593C574 165.259 574 176.718 574 199.636V713C574 735.402 574 746.603 569.64 755.16C565.805 762.686 559.686 768.805 552.16 772.64C543.603 777 532.402 777 510 777H83.829C62.1607 777 51.3265 777 42.9314 772.839C35.5433 769.176 29.4675 763.32 25.5358 756.072C21.0683 747.835 20.6696 737.009 19.8723 715.355L1.38243 213.213Z" fill="#EAEAE9"/>
    <path d="M482.033 210.09C486.417 216.615 496.221 215.947 499.679 208.888L566.8 71.8946C570.259 64.8354 564.779 56.6792 556.936 57.2135L404.736 67.582C396.893 68.1163 392.569 76.9403 396.954 83.4653L482.033 210.09Z" fill="#FF9F0A"/>
    <path d="M493.595 129.158C493.769 131.713 493.192 133.937 491.865 135.831C490.537 137.725 488.631 138.757 486.145 138.926C483.59 139.1 481.529 138.374 479.962 136.746C478.463 135.114 477.622 132.952 477.439 130.259L474.941 93.5965C474.767 91.0419 475.344 88.8176 476.672 86.9237C477.999 85.0298 479.906 83.9981 482.392 83.8288C484.946 83.6548 486.973 84.3838 488.471 86.0158C490.039 87.6431 490.914 89.8032 491.098 92.4959L493.595 129.158ZM486.448 143.38C488.865 143.215 491.032 143.969 492.949 145.642C494.867 147.315 495.91 149.394 496.079 151.88C496.249 154.365 495.497 156.567 493.824 158.484C492.151 160.402 490.107 161.443 487.69 161.607C485.204 161.777 483.005 161.059 481.093 159.455C479.244 157.778 478.233 155.662 478.059 153.107C477.894 150.691 478.614 148.526 480.218 146.613C481.886 144.627 483.963 143.549 486.448 143.38Z" fill="black"/>
</svg>
