<svg width="170" height="88" viewBox="0 0 170 88" fill="none" xmlns="http://www.w3.org/2000/svg">
<path fill-rule="evenodd" clip-rule="evenodd" d="M20.4296 43.8184C20.52 45.0405 20.6266 46.2665 20.688 47.4953C20.8487 50.649 21.0799 53.8092 21.1139 56.9771C21.1308 58.345 20.9113 59.7827 20.476 61.0807C19.5959 63.7017 17.6805 65.3489 14.8697 65.6341C12.0895 65.9197 9.70061 64.8492 8.44642 62.3951C7.42849 60.4019 6.76641 58.1597 6.36387 55.9486C4.52091 45.8617 2.84665 35.7435 1.07798 25.647C0.189618 20.5315 2.24336 16.5634 7.15871 14.754C9.53534 13.8794 12.0883 13.3052 14.6076 13.0495C21.2163 12.3802 27.845 11.7973 34.4763 11.5245C36.8025 11.427 39.3306 11.9727 41.4768 12.8869C44.0834 14.0056 45.498 16.3923 45.3141 19.3452C45.1292 22.2604 43.5509 24.4741 40.855 25.4906C38.8696 26.237 36.6469 26.4849 34.5064 26.691C31.1147 27.0117 27.7078 27.101 24.0075 27.311C24.297 28.1689 24.3718 28.6594 24.6133 29.0433C35.2987 45.9942 48.7028 60.0362 67.3878 68.4782C80.6509 74.4733 94.4633 77.4085 109.097 75.7733C119.189 74.6485 128.491 71.3261 136.856 65.5296C144.771 60.0414 150.492 52.8997 153.343 43.6922C155.072 38.1165 156.661 32.4972 158.169 26.8588C159.93 20.26 159.293 13.5102 159.256 6.8111C159.247 5.67632 159.204 4.52666 159.287 3.39334C159.392 1.95925 159.724 0.245559 161.346 0.181724C162.513 0.132155 164.043 0.96129 164.852 1.88114C165.899 3.07185 166.583 4.6798 167.085 6.22392C169.431 13.4508 170.001 20.8682 168.677 28.3666C167.901 32.7368 166.862 37.0545 165.87 41.3837C161.752 59.3953 150.547 71.7592 134.147 79.7367C118.264 87.4661 101.524 88.8222 84.4026 85.3398C61.5816 80.6948 42.6595 69.4653 27.773 51.6804C25.5225 48.9864 23.2704 46.2852 21.0199 43.5912C20.8159 43.6686 20.6207 43.7516 20.424 43.8273L20.4296 43.8184Z" fill="#EA0F0F"/>
</svg>
