<svg width="86" height="41" viewBox="0 0 86 41" fill="none" xmlns="http://www.w3.org/2000/svg">
<path fill-rule="evenodd" clip-rule="evenodd" d="M66.2903 0.31977C69.4282 3.15449 72.7189 5.13015 76.6163 6.37474C76.0769 6.58496 75.5391 6.80232 75.0001 7.00787C73.9242 7.4215 72.8311 7.79371 71.7726 8.24878C62.1527 12.3835 52.0828 14.6791 41.7313 15.8553C39.2445 16.1368 36.7517 16.4836 34.304 17.0035C30.4215 17.8241 29.4286 20.0526 31.7079 23.2913C33.3224 25.5847 35.3759 27.584 37.3449 29.6067C39.413 31.7272 41.621 33.7092 43.7482 35.776C44.2036 36.2169 44.5751 36.7492 45.1488 37.4352C29.8212 35.8126 15.1024 32.3989 0.280581 29.5876C0.230659 29.7197 0.183313 29.8497 0.131275 29.9792C0.553933 30.2151 0.953065 30.5265 1.4073 30.6758C11.1566 33.9006 20.9185 37.0418 31.2101 38.2301C34.2914 38.587 37.318 39.3812 40.3816 39.9035C42.3103 40.235 44.256 40.5091 46.2075 40.6709C47.461 40.7755 48.935 40.9623 49.6373 39.5319C50.3396 38.1014 49.3227 37.072 48.4312 36.1614C45.8379 33.5166 43.1799 30.9343 40.5688 28.3044C38.6717 26.3936 36.7878 24.4675 34.9401 22.5068C34.4607 21.9958 34.1484 21.332 33.5835 20.4752C34.7295 20.218 35.5589 19.9761 36.4028 19.8554C39.4862 19.4061 42.5708 18.9688 45.6605 18.5788C54.0417 17.519 62.1369 15.3864 69.9563 12.1465C72.5839 11.059 75.2887 10.152 77.9661 9.1862C78.6453 8.94089 79.3586 8.78311 80.4673 8.47102C79.8937 9.45406 79.5427 10.0918 79.1582 10.7101C77.3035 13.7066 75.4152 16.6837 73.5846 19.6987C72.6789 21.1918 72.7269 22.1926 73.5716 22.7724C74.5269 23.4275 75.5696 23.0416 76.5572 21.5791C79.4386 17.3067 82.3111 13.0289 85.1527 8.72968C86.3217 6.96056 86.1402 6.02828 84.3958 4.82867C83.4583 4.18451 82.4519 3.59796 81.4032 3.16293C76.8714 1.27888 72.1367 0.261414 67.216 0.104909C67.0284 0.0983094 66.8389 0.187908 66.2929 0.317631L66.2903 0.31977Z" fill="black"/>
</svg>
