<svg width="120" height="104" viewBox="0 0 120 104" fill="none" xmlns="http://www.w3.org/2000/svg">
<path fill-rule="evenodd" clip-rule="evenodd" d="M105.836 17.8442C103.782 19.8054 101.91 21.3065 100.37 23.0969C85.4863 40.4368 68.1601 55.1334 50.8963 69.9275C41.1695 78.2677 31.7918 87.0207 22.2593 95.596C19.807 97.8017 17.3632 100.023 14.9302 102.25C14.5337 102.614 14.2254 103.074 13.8705 103.488C14.0032 103.638 14.1358 103.789 14.2684 103.939C16.0426 102.615 17.8334 101.309 19.5961 99.9646C29.0883 92.724 38.6888 85.6145 48.0468 78.1975C66.4133 63.6467 84.1503 48.3906 98.8432 29.9168C100.779 27.4821 102.572 24.9366 104.365 22.3911C105.188 21.2174 105.911 19.9485 105.833 17.8392L105.836 17.8442Z" fill="black"/>
<path fill-rule="evenodd" clip-rule="evenodd" d="M96.6372 0.196698C95.9021 0.723602 95.0795 1.16744 94.4433 1.79751C91.4794 4.73495 88.5571 7.72184 85.6319 10.7037C74.9948 21.5523 63.3265 31.1796 51.3549 40.4743C43.7668 46.3626 36.3687 52.5018 28.9147 58.5665C23.7942 62.7285 18.7153 66.94 13.6363 71.1515C12.8716 71.7893 12.1987 72.541 11.8082 73.5771C15.9747 70.651 20.1305 67.7178 24.3086 64.8118C31.7977 59.6098 39.3902 54.542 46.7811 49.203C63.4162 37.1889 79.3206 24.3275 92.6238 8.49983C93.938 6.94113 95.1891 5.31867 96.3279 3.62761C96.8785 2.81306 97.0855 1.76972 97.4535 0.833616C97.1836 0.628977 96.9108 0.419301 96.638 0.20964L96.6372 0.196698Z" fill="black"/>
</svg>
