<svg width="42" height="34" viewBox="0 0 42 34" fill="none" xmlns="http://www.w3.org/2000/svg">
<path fill-rule="evenodd" clip-rule="evenodd" d="M41.938 30.0005C41.649 29.8497 41.362 29.6966 41.0692 29.5529C37.8809 27.9846 34.6963 26.4094 31.5001 24.853C30.3224 24.281 29.126 23.7464 27.9315 23.2094C21.5706 20.3586 15.3087 17.327 9.58995 13.3047C7.78573 12.0351 6.03262 10.6917 4.24603 9.396C3.79278 9.06713 3.31905 8.75801 2.82334 8.49994C2.17274 8.16303 1.55814 8.25456 1.16686 8.67667C0.763549 9.11327 0.698214 9.7227 1.13461 10.3225C1.571 10.9223 2.05791 11.5129 2.63119 11.9773C4.45984 13.4583 6.27371 14.9718 8.20921 16.3068C14.4673 20.6232 21.305 23.8385 28.436 26.4228C31.0659 27.376 33.829 27.965 36.5246 28.7384C37.9987 29.1622 39.4609 29.6249 40.9317 30.06C41.2396 30.1511 41.5625 30.1874 41.879 30.2509C41.8979 30.1668 41.9145 30.0828 41.9334 29.9987L41.938 30.0005Z" fill="black"/>
<path fill-rule="evenodd" clip-rule="evenodd" d="M29.8801 13.7827C29.6491 13.631 29.4293 13.4559 29.1831 13.3322C28.0461 12.7653 26.8996 12.2149 25.7568 11.6574C23.675 10.6412 21.6188 9.56683 19.5054 8.61814C15.7872 6.95088 12.0378 5.35556 8.29536 3.73956C8.02298 3.62286 7.7248 3.56426 7.43424 3.49157C6.92404 3.36398 6.43021 3.38621 6.17659 3.91773C5.91599 4.46994 6.29204 4.83282 6.67921 5.1479C6.90913 5.3354 7.15796 5.50997 7.41935 5.6522C11.4652 7.85609 15.604 9.81303 20.1074 10.9719C22.999 11.7157 25.819 12.7422 28.6715 13.6388C29.0445 13.7572 29.4248 13.857 29.8014 13.966C29.8268 13.9035 29.8521 13.841 29.8775 13.7785L29.8801 13.7827Z" fill="black"/>
</svg>
