<svg width="39" height="40" viewBox="0 0 39 40" fill="none" xmlns="http://www.w3.org/2000/svg">
<path fill-rule="evenodd" clip-rule="evenodd" d="M36.5732 11.1462C35.92 12.1808 35.4224 13.0109 34.8839 13.8104C31.6212 18.6658 28.3463 23.5153 25.075 28.365C24.983 28.502 24.8791 28.6294 24.7904 28.7701C24.1518 29.7611 24.1957 30.0526 25.2077 30.6341C26.9608 31.6459 28.7353 32.6215 30.5001 33.6126C30.8883 33.8305 31.2781 34.0502 31.9042 34.4051C31.3454 34.618 31.0023 34.7752 30.6404 34.8816C27.5179 35.8132 24.3943 36.7323 21.2734 37.6657C20.6827 37.8432 20.0911 38.0384 19.5287 38.2884C19.3654 38.3612 19.1802 38.6936 19.2243 38.8397C19.2761 39.0093 19.5616 39.1879 19.7642 39.2148C20.0391 39.2509 20.3376 39.1712 20.6128 39.0955C24.9427 37.8902 29.2712 36.6795 33.5997 35.4687C33.7581 35.4241 33.9233 35.3833 34.0655 35.3058C34.6637 34.9797 34.744 34.4411 34.2023 34.0305C33.7119 33.6581 33.1534 33.3707 32.6114 33.0719C30.7322 32.0285 28.847 30.9972 26.9657 29.959C26.6843 29.8037 26.4108 29.6346 26.0318 29.4119C26.3306 28.9365 26.5749 28.5204 26.8434 28.1197C30.5336 22.5581 34.2254 16.9984 37.9156 11.4368C38.144 11.0925 38.4051 10.766 38.585 10.3978C38.899 9.76011 38.6053 9.32202 37.9058 9.37123C37.58 9.39447 37.2591 9.49779 36.9411 9.57822C33.3028 10.5015 29.6661 11.4302 26.0278 12.3535C25.6362 12.453 25.242 12.5311 24.7612 12.64C24.6623 12.1716 24.5719 11.78 24.4961 11.3821C23.9099 8.25461 23.3273 5.12736 22.7411 1.99991C22.6879 1.71673 22.6529 1.42389 22.5619 1.15109C22.3189 0.410595 21.7866 0.200926 21.121 0.59792C20.8396 0.763702 20.6007 0.999192 20.3521 1.21642C17.611 3.59496 14.8769 5.97744 12.1342 8.35412C11.8597 8.59124 11.5685 8.80972 11.2082 9.09721C10.9308 8.58018 10.6898 8.15203 10.4722 7.71628C9.38633 5.53233 8.31125 3.34542 7.2289 1.16166C7.12112 0.941181 7.02131 0.703389 6.86019 0.520837C6.4459 0.0460961 5.85815 0.0587439 5.4885 0.567499C5.30164 0.827089 5.18603 1.15085 5.08699 1.46308C3.575 6.17699 2.06843 10.8894 0.56688 15.6074C0.46598 15.9213 0.368259 16.2425 0.335906 16.569C0.291229 17.0349 0.0190121 17.6518 0.631748 17.8836C1.26368 18.1217 1.45506 17.4898 1.66778 17.0684C1.90811 16.5917 2.10367 16.0877 2.27635 15.5808C3.50134 11.9904 4.71946 8.39602 5.93755 4.8017C6.06863 4.41668 6.20322 4.03187 6.40696 3.4361C6.67831 3.93152 6.88001 4.25997 7.04542 4.6042C7.92769 6.42767 8.7973 8.25576 9.67603 10.079C9.81899 10.3759 9.95603 10.6849 10.1503 10.9491C10.5456 11.4849 10.9762 11.5632 11.5423 11.2051C11.8189 11.0302 12.0645 10.8022 12.3112 10.5866C14.8532 8.35702 17.3935 6.12557 19.9339 3.8941C20.2716 3.59652 20.6045 3.28981 21.1173 2.8278C21.2639 3.4052 21.396 3.81326 21.4707 4.23243C21.9873 7.12194 22.4897 10.0107 23.0027 12.9C23.0608 13.226 23.1154 13.5519 23.2095 13.8692C23.3728 14.4315 23.7758 14.6732 24.3404 14.5901C24.705 14.5353 25.0634 14.4287 25.4198 14.3237C28.6669 13.3846 31.9159 12.4404 35.163 11.5013C35.5446 11.3906 35.9355 11.3052 36.5699 11.1425L36.5732 11.1462Z" fill="black"/>
</svg>
