<svg width="88" height="33" viewBox="0 0 88 33" fill="none" xmlns="http://www.w3.org/2000/svg">
<path d="M5.97211 14.9973C5.97211 14.4862 6.10786 14.0789 6.37938 13.7754C6.66687 13.456 7.05818 13.2963 7.5533 13.2963C8.04842 13.2963 8.43175 13.456 8.70326 13.7754C8.99075 14.0789 9.1345 14.4862 9.1345 14.9973V18.5669H12.6563C13.1673 18.5669 13.5746 18.7027 13.8781 18.9742C14.1816 19.2457 14.3333 19.6371 14.3333 20.1481C14.3333 20.6592 14.1816 21.0585 13.8781 21.346C13.5906 21.6175 13.1833 21.7533 12.6563 21.7533H9.1345V25.299C9.1345 25.8101 8.99075 26.2254 8.70326 26.5448C8.43175 26.8483 8.04842 27 7.5533 27C7.04221 27 6.6509 26.8483 6.37938 26.5448C6.10786 26.2413 5.97211 25.8261 5.97211 25.299V21.7533H2.45035C1.93925 21.7533 1.53198 21.6016 1.22851 21.2981C0.925053 20.9946 0.773322 20.6113 0.773322 20.1481C0.773322 19.653 0.917067 19.2697 1.20456 18.9982C1.50802 18.7107 1.92328 18.5669 2.45035 18.5669H5.97211V14.9973ZM28.101 15.5243C28.692 15.3646 29.2909 15.2848 29.8978 15.2848C31.495 15.2848 32.7488 15.8518 33.6591 16.9858C34.5056 18.0399 34.9289 19.3895 34.9289 21.0346C34.9289 22.8234 34.322 24.3327 33.1081 25.5625C31.9102 26.7764 30.4089 27.3833 28.6041 27.3833C27.2465 27.3833 26.0087 27.0878 24.8907 26.4969C23.6609 25.858 23.046 25.0834 23.046 24.173C23.046 23.598 23.2057 23.1269 23.5251 22.7595C23.8445 22.3922 24.2359 22.2085 24.699 22.2085C25.0983 22.2085 25.5375 22.3522 26.0167 22.6397C27.1028 23.2946 27.9253 23.622 28.4843 23.622C29.1871 23.622 29.7381 23.3824 30.1374 22.9033C30.5527 22.4081 30.7603 21.6974 30.7603 20.771C30.7603 20.1481 30.6006 19.6211 30.2811 19.1898C29.9138 18.7107 29.4346 18.4711 28.8437 18.4711C28.3006 18.4711 27.7736 18.6229 27.2625 18.9263C26.7514 19.2138 26.3042 19.3575 25.9209 19.3575C25.4417 19.3575 25.0584 19.2378 24.7709 18.9982C24.4994 18.7426 24.3636 18.3833 24.3636 17.9201C24.3636 17.6646 24.3636 17.433 24.3636 17.2253C24.3636 17.0017 24.4036 16.6264 24.4834 16.0993L25.0824 11.4036C25.1622 10.7328 25.4018 10.2776 25.8011 10.0381C26.0886 9.86238 26.5358 9.77454 27.1427 9.77454H32.9883C33.5633 9.77454 34.0025 9.95821 34.306 10.3256C34.6254 10.6769 34.7852 11.1002 34.7852 11.5953C34.7852 12.0904 34.6414 12.4977 34.3539 12.8171C34.0185 13.2005 33.5633 13.3921 32.9883 13.3921H28.3645L28.101 15.5243ZM44.2416 9.39122C46.5575 9.39122 48.3623 10.3256 49.656 12.1942C50.806 13.8393 51.381 15.8997 51.381 18.3753C51.381 20.8509 50.806 22.9192 49.656 24.5803C48.3623 26.449 46.5575 27.3833 44.2416 27.3833C41.9257 27.3833 40.1209 26.449 38.8272 24.5803C37.6773 22.9192 37.1023 20.8509 37.1023 18.3753C37.1023 15.9157 37.6773 13.8553 38.8272 12.1942C40.1209 10.3256 41.9257 9.39122 44.2416 9.39122ZM44.2416 23.622C45.3437 23.622 46.1662 23.0231 46.7093 21.8252C47.1405 20.8828 47.3561 19.7329 47.3561 18.3753C47.3561 17.0496 47.1405 15.9157 46.7093 14.9733C46.1503 13.7595 45.3277 13.1525 44.2416 13.1525C43.1396 13.1525 42.317 13.7515 41.774 14.9494C41.3428 15.8917 41.1272 17.0337 41.1272 18.3753C41.1272 19.7169 41.3428 20.8589 41.774 21.8012C42.333 23.0151 43.1556 23.622 44.2416 23.622Z" fill="black"/>
<circle cx="71.9009" cy="16.4707" r="16" fill="#EA0F0F"/>
<path d="M74.7244 8.4707C77.5833 8.4707 79.9009 10.7883 79.9009 13.6472C79.9009 16.5061 77.5833 18.8236 74.7244 18.8236C74.4645 18.8236 74.2538 19.0343 74.2538 19.2942C74.2538 19.5253 74.4203 19.7174 74.6398 19.7572L74.7244 19.7648H79.9009V24.4707H74.7244C71.8655 24.4707 69.5479 22.1531 69.5479 19.2942C69.5479 16.4353 71.8655 14.1178 74.7244 14.1178C74.9843 14.1178 75.195 13.9071 75.195 13.6472C75.195 13.4162 75.0285 13.224 74.809 13.1842L74.7244 13.1766H69.0774C68.8463 13.1766 68.6542 13.3431 68.6143 13.5626L68.6068 13.6472V24.4707H63.9009V13.6472C63.9009 10.858 66.1068 8.58408 68.8692 8.47481L69.0774 8.4707H74.7244Z" fill="white"/>
</svg>
