<svg width="76" height="63" viewBox="0 0 76 63" fill="none" xmlns="http://www.w3.org/2000/svg">
<path fill-rule="evenodd" clip-rule="evenodd" d="M24.0648 15.0252C25.6072 15.3802 26.5211 15.6066 27.4421 15.8024C32.3895 16.8391 37.3121 18.004 42.2887 18.8704C49.7146 20.1663 53.3035 19.0186 58.9811 13.8731C59.3812 14.7053 59.7731 15.482 60.13 16.272C62.5095 21.4696 65.1648 26.5107 68.5631 31.1007C69.4555 32.3036 70.5063 33.4197 71.6383 34.3935C72.5453 35.1707 73.7539 35.4542 74.8272 34.591C75.8619 33.7564 75.9838 32.5778 75.5505 31.4108C75.2109 30.5013 74.7485 29.6172 74.2217 28.8041C70.4139 22.9453 67.6652 16.5794 65.3208 10.0062C64.5741 7.90898 63.6697 5.872 62.8191 3.80983C62.6156 3.31784 62.3845 2.83023 62.1085 2.3752C61.3038 1.04762 60.146 0.319966 58.5663 0.487394C57.1007 0.643554 56.1028 1.50261 55.5975 2.86661C55.102 4.2114 54.7151 5.59193 54.2487 6.94878C53.0565 10.4073 50.6191 12.2867 47.0054 12.1791C44.0881 12.0923 41.1522 11.835 38.2907 11.3052C32.3638 10.2095 26.4754 8.88123 20.5756 7.64689C20.054 7.53759 19.542 7.38759 19.0145 7.30374C15.6894 6.77991 13.6733 9.08341 14.7001 12.3446C15.0956 13.6048 15.8241 14.7592 16.3911 15.9677C17.7862 18.949 19.3275 21.8727 20.5238 24.9316C21.2953 26.9004 21.7273 29.0486 22.0256 31.1553C22.7261 36.1274 21.1317 40.2603 16.7462 42.882C12.6189 45.354 8.31429 47.517 4.08157 49.8038C3.61361 50.0554 3.07608 50.1731 2.59657 50.406C0.898134 51.2165 0.0415706 52.4246 0.176196 53.9144C0.328696 55.6228 1.36624 56.6822 2.90437 57.1917C3.90499 57.5238 4.97611 57.6684 6.01898 57.8655C11.333 58.8792 16.6171 60.0202 21.9589 60.8472C27.1206 61.6489 32.3286 62.1395 37.5265 62.7189C38.2664 62.8033 39.0416 62.6009 39.6653 62.546C40.1987 61.2207 39.4391 60.767 38.7965 60.3348C32.6478 56.2382 26.3781 52.4087 18.8211 51.4688C17.8143 51.3443 16.8365 51.0282 15.3394 50.6836C16.5967 49.9647 17.4187 49.4942 18.2345 49.0276C20.9536 47.4651 23.5694 45.7769 25.5359 43.2314C28.2959 39.6564 29.3383 35.5895 29.1206 31.1416C28.9042 26.6885 27.6675 22.5316 25.7684 18.5494C25.3114 17.5969 24.8482 16.6482 24.0609 15.019L24.0648 15.0252Z" fill="black"/>
</svg>
