<svg width="61" height="75" viewBox="0 0 61 75" fill="none" xmlns="http://www.w3.org/2000/svg">
<path fill-rule="evenodd" clip-rule="evenodd" d="M53.4404 3.21294C53.5447 3.5313 54.1404 5.60345 54.7126 7.8331C55.2847 10.0627 56.8431 15.2301 58.0984 19.3298C60.9749 28.4825 61.1065 29.8462 59.2684 30.4927C58.3644 30.8037 57.3923 29.4564 55.6527 25.3779C54.8665 23.5094 54.1347 21.9588 54.0169 21.9354C53.917 21.9347 53.7074 22.6134 53.5726 23.4548C53.1413 26.2448 50.573 36.1076 49.2585 40.121C45.5951 51.2463 35.1482 72.2279 1.1869 74.9911C-2.55256 71.5122 23.5763 71.0033 35.1592 54.5468C40.6178 46.7914 43.8584 39.0589 46.5723 27.7442C47.8161 22.5748 49.1404 14.8607 48.804 14.8807C48.7041 14.88 48.3805 15.3529 48.0637 15.9655C47.1975 17.7093 45.2496 20.4206 43.8918 21.796C42.3755 23.3526 41.1124 23.7736 40.4584 22.9512C39.9503 22.3123 40.4179 21.2029 43.8248 14.9096C45.4688 11.8785 46.7167 8.97968 47.6551 5.94117C48.4117 3.4915 49.2212 1.36431 49.4126 1.23056C49.604 1.09681 50.2486 0.896547 50.7968 0.830732C51.5602 0.723692 51.9409 0.884154 52.5089 1.66091C52.895 2.20884 53.3393 2.89235 53.4404 3.21294Z" fill="#EA0F0F"/>
</svg>
