<svg width="59" height="158" viewBox="0 0 59 158" fill="none" xmlns="http://www.w3.org/2000/svg">
<path fill-rule="evenodd" clip-rule="evenodd" d="M41.6914 136.809C41.4139 136.188 41.1074 135.58 40.863 134.951C27.1243 98.7717 16.6202 61.6113 7.80577 23.9585C6.28894 17.481 5.62901 10.8111 4.4393 4.24755C4.21097 2.98611 4.42576 0.88231 2.51973 0.907072C0.568189 0.935861 0.784016 2.92489 0.796879 4.26853C0.81954 6.76975 0.912413 9.29181 1.26186 11.7648C1.92896 16.4875 2.59182 21.2309 3.62316 25.88C10.9317 58.738 19.5198 91.2308 30.9611 122.915C32.9832 128.522 35.1338 134.083 37.1974 139.673C37.5963 140.748 37.8957 141.865 38.2407 142.962C38.0206 143.131 37.8047 143.295 37.5887 143.469C35.0126 141.412 32.3034 139.496 29.8855 137.267C21.7721 129.787 15.2831 120.95 9.09306 111.883C8.28959 110.707 7.44474 109.531 6.45013 108.52C5.01158 107.07 3.26793 106.901 1.93109 107.865C0.523668 108.883 0.210289 110.871 1.41527 112.676C3.46453 115.749 5.70895 118.685 7.76652 121.748C13.6686 130.567 19.6121 139.361 27.0549 146.989C30.0468 150.054 33.1466 153.046 36.4089 155.819C39.8317 158.729 41.9891 158.142 43.7747 153.938C47.4467 145.264 50.0666 136.236 52.6162 127.196C54.6297 120.069 56.3377 112.859 58.1282 105.673C58.9029 102.554 58.1542 100.493 56.2065 99.8607C54.1846 99.2031 52.2785 100.658 51.2756 103.914C50.3949 106.769 49.7372 109.682 48.9804 112.57C46.8663 120.652 44.7481 128.729 42.6381 136.807C42.3198 136.811 42.0097 136.814 41.6954 136.822L41.6914 136.809Z" fill="black"/>
</svg>
