<svg width="117" height="141" viewBox="0 0 117 141" fill="none" xmlns="http://www.w3.org/2000/svg">
<path fill-rule="evenodd" clip-rule="evenodd" d="M70.4324 74.8109C69.5448 75.387 68.6918 76.0292 67.7622 76.5302C63.5901 78.7813 59.4266 81.0488 55.2079 83.2061C42.3466 89.7872 29.522 96.4385 16.9967 103.655C15.3327 104.614 13.6986 105.62 12.042 106.588C11.678 106.8 11.2838 106.955 10.6889 107.238C11.0693 105.189 11.9138 103.594 12.7516 102.031C14.8056 98.1899 16.9749 94.4085 19.0908 90.6003C19.5007 89.8595 19.9586 89.1299 20.2596 88.3417C20.8803 86.7155 20.3625 85.1321 19.0369 84.3222C17.7723 83.5484 16.2183 83.7703 15.0531 85.0142C14.3629 85.7515 13.7642 86.593 13.2134 87.4459C9.62805 93.0295 6.41317 98.8139 4.03337 105.029C3.42921 106.601 2.9153 108.271 2.72605 109.933C2.20107 114.536 4.1649 116.438 7.40487 117.438C10.7044 118.456 14.1276 118.794 17.5439 119.098C22.082 119.503 26.6274 119.807 31.1717 120.159C32.7869 120.284 34.3194 120.076 35.6693 119.079C37.0591 118.053 37.3311 117.17 36.7566 115.313C36.4839 115.274 36.1064 115.33 35.8624 115.175C32.754 113.179 29.1448 113.524 25.7301 113.047C22.5037 112.594 19.2349 112.446 15.9869 112.152C15.3828 112.097 14.787 111.993 13.8098 111.857C14.6042 111.338 15.0909 110.994 15.6002 110.689C27.0415 103.839 38.8945 97.7687 50.7908 91.7813C55.7813 89.2679 60.824 86.8638 65.8081 84.338C68.069 83.1904 70.2851 81.9323 72.4351 80.588C73.5187 79.9099 74.537 79.0319 75.3685 78.0583C77.3781 75.7101 77.1769 72.8974 74.9284 70.7833C73.0525 69.0192 70.7699 67.8967 68.4092 66.9609C65.0606 65.6339 61.673 64.4227 58.3155 63.1136C57.0715 62.6296 55.7944 62.1525 54.8963 61.091C54.873 60.1301 55.5028 59.578 56.0892 59.0886C57.7363 57.717 59.3864 56.336 61.1424 55.112C66.8544 51.1245 73.0371 47.9596 79.2154 44.7864C87.211 40.6812 95.5341 37.3508 103.867 34.0338C106.432 33.0113 108.964 31.8988 111.483 30.7616C112.503 30.2991 113.485 29.7175 114.422 29.0942C115.052 28.6736 115.841 28.2053 115.476 27.2079C115.241 26.5653 114.569 26.4545 113.378 26.7782C113.269 26.807 113.164 26.8471 113.055 26.879C96.4224 32.058 80.4442 38.8108 65.2797 47.4457C61.706 49.4806 58.2964 51.8184 54.8947 54.1413C53.5566 55.0554 52.3185 56.1903 51.2631 57.4231C48.9252 60.1469 49.1233 63.4044 51.8966 65.6528C53.4886 66.9457 55.3643 67.9634 57.2426 68.8056C60.1139 70.0891 63.1151 71.0843 66.0352 72.2652C67.5329 72.8725 68.9763 73.6116 70.4444 74.2927C70.4397 74.4641 70.436 74.6322 70.4313 74.8036L70.4324 74.8109Z" fill="#EA0F0F"/>
<path fill-rule="evenodd" clip-rule="evenodd" d="M48.7349 49.0854C49.0827 48.9474 49.4488 48.8392 49.7816 48.6724C53.7381 46.6312 57.7571 44.6992 61.6285 42.5108C71.1734 37.1179 80.9287 32.2114 91.3363 28.7192C96.8431 26.8696 102.408 25.266 108.21 24.6859C108.433 24.6648 108.7 24.6885 108.868 24.5779C109.124 24.4045 109.476 24.1401 109.485 23.8977C109.498 23.6666 109.17 23.2613 108.924 23.2026C108.334 23.0584 107.692 22.9573 107.098 23.0366C104.372 23.4116 101.626 23.7151 98.9435 24.3041C90.8791 26.0694 83.1598 28.8984 75.7218 32.4742C70.5429 34.964 65.4747 37.685 60.3837 40.3574C56.6763 42.3027 53.323 44.803 50.0529 47.4119C49.5345 47.8255 49.0544 48.2925 48.5542 48.736C48.6138 48.8545 48.6743 48.97 48.7339 49.0886L48.7349 49.0854Z" fill="#EA0F0F"/>
</svg>
