<svg width="136" height="31" viewBox="0 0 136 31" fill="none" xmlns="http://www.w3.org/2000/svg">
<path d="M7.35361 14.9232C8.51994 14.7951 9.49167 14.8494 10.2688 15.086C11.2535 15.3804 11.7894 15.9251 11.8767 16.7204C11.9218 17.1312 11.8293 17.5103 11.5991 17.8574C11.3808 18.1899 11.0662 18.3787 10.6553 18.4238C10.5227 18.4384 9.98912 18.3427 9.05441 18.1368C8.55982 18.0301 8.1336 17.9964 7.77575 18.0357C6.5564 18.1695 5.67738 18.7154 5.13867 19.6732C4.65605 20.531 4.48093 21.5629 4.61332 22.769C4.74571 23.9751 5.14786 24.9504 5.81977 25.6948C6.50493 26.4378 7.37766 26.7511 8.43796 26.6348C9.10064 26.562 9.65592 26.4273 10.1038 26.2306C10.5649 26.0324 11.0386 25.8262 11.5248 25.6118C12.0814 25.5507 12.5009 25.7059 12.7831 26.0773C12.9712 26.3249 13.0842 26.6211 13.122 26.9657C13.2108 27.7741 12.7623 28.4538 11.7765 29.0046C10.9675 29.4556 10.0196 29.7407 8.93282 29.86C6.77247 30.0972 4.97609 29.5566 3.54371 28.2384C2.18631 26.9924 1.38978 25.2958 1.1541 23.1487C0.914055 20.9618 1.36046 19.102 2.49332 17.5693C3.62617 16.0365 5.24627 15.1545 7.35361 14.9232ZM23.6196 22.5137C23.7956 24.1174 23.4595 25.5157 22.6113 26.7087C21.763 27.9017 20.5636 28.5834 19.0129 28.7536C17.4622 28.9238 16.1442 28.5252 15.0588 27.5579C13.972 26.5773 13.3399 25.2785 13.1624 23.6615C12.9863 22.0578 13.3232 20.6661 14.1728 19.4863C15.0211 18.2933 16.2205 17.6117 17.7712 17.4415C19.3219 17.2713 20.6399 17.6699 21.7253 18.6372C22.8107 19.6046 23.4421 20.8967 23.6196 22.5137ZM16.2637 23.3211C16.3481 24.0898 16.6035 24.7056 17.0299 25.1685C17.4695 25.63 18.0207 25.8243 18.6834 25.7516C19.3461 25.6789 19.8353 25.3703 20.1512 24.8259C20.4788 24.2668 20.6011 23.6096 20.5182 22.8541C20.4353 22.0986 20.1887 21.502 19.7785 21.0641C19.3227 20.5776 18.7634 20.3707 18.1007 20.4435C17.438 20.5162 16.9422 20.8255 16.6131 21.3713C16.2973 21.9157 16.1808 22.5656 16.2637 23.3211ZM34.7053 21.2968C34.8814 22.9005 34.5453 24.2989 33.697 25.4919C32.8488 26.6849 31.6494 27.3665 30.0987 27.5367C28.548 27.7069 27.23 27.3084 26.1446 26.341C25.0578 25.3604 24.4256 24.0616 24.2481 22.4447C24.0721 20.841 24.4089 19.4492 25.2586 18.2695C26.1068 17.0765 27.3063 16.3949 28.857 16.2247C30.4077 16.0545 31.7257 16.453 32.8111 17.4204C33.8964 18.3877 34.5278 19.6799 34.7053 21.2968ZM27.3495 22.1043C27.4339 22.873 27.6893 23.4888 28.1157 23.9517C28.5553 24.4131 29.1065 24.6075 29.7691 24.5348C30.4318 24.462 30.9211 24.1535 31.2369 23.6091C31.5645 23.05 31.6869 22.3927 31.604 21.6373C31.521 20.8818 31.2745 20.2851 30.8642 19.8473C30.4084 19.3608 29.8492 19.1539 29.1865 19.2266C28.5238 19.2994 28.0279 19.6087 27.6989 20.1545C27.383 20.6989 27.2666 21.3488 27.3495 22.1043ZM34.7599 12.6995C34.709 12.2357 34.806 11.836 35.0509 11.5006C35.3075 11.1505 35.6678 10.95 36.1317 10.8991C36.5823 10.8497 36.9709 10.968 37.2974 11.254C37.6239 11.5401 37.8118 11.9085 37.8613 12.3591L39.2143 24.6851C39.2652 25.149 39.1623 25.5559 38.9057 25.906C38.6608 26.2414 38.3064 26.4346 37.8425 26.4855C37.3919 26.535 37.0041 26.4233 36.679 26.1505C36.354 25.8776 36.1653 25.5026 36.1129 25.0255L34.7599 12.6995ZM47.6479 13.478C47.907 12.4167 48.1494 11.6926 48.3752 11.3056C48.7486 10.6745 49.2931 10.3196 50.0088 10.241C50.592 10.177 51.0947 10.2962 51.5168 10.5986C51.939 10.901 52.4519 11.663 53.0554 12.8844L57.0842 20.9932C57.3589 21.5399 57.5365 21.9362 57.6172 22.1822C57.6978 22.4282 57.7527 22.6837 57.7818 22.9488C57.8269 23.3597 57.7234 23.6996 57.4712 23.9688C57.2191 24.2379 56.8544 24.3986 56.3773 24.451C55.8869 24.5048 55.4932 24.4005 55.1961 24.138C54.9593 23.936 54.7316 23.572 54.5129 23.046L53.9756 21.8173L48.6874 22.3978L48.4294 23.7138C48.3153 24.2629 48.1712 24.661 47.9972 24.9081C47.7655 25.242 47.4045 25.4359 46.9141 25.4897C46.4503 25.5407 46.0594 25.4628 45.7417 25.2563C45.4357 25.035 45.2609 24.7256 45.2173 24.328C45.1896 24.0761 45.1878 23.8148 45.2117 23.5439C45.2474 23.2583 45.3348 22.8329 45.474 22.2676L47.6479 13.478ZM50.5054 13.8484L49.3099 19.2712L52.6896 18.9002L50.5054 13.8484ZM57.6164 14.8988C57.5669 14.4482 57.6646 14.0551 57.9095 13.7198C58.1661 13.3697 58.5264 13.1692 58.9903 13.1182C59.3746 13.076 59.7243 13.145 60.0391 13.325C60.2966 13.4711 60.5002 13.6768 60.6501 13.9421C60.9156 13.5507 61.1966 13.2382 61.4928 13.0045C61.851 12.7237 62.2421 12.5601 62.6663 12.5135C63.0904 12.467 63.4782 12.5787 63.8298 12.8486C64.1813 13.1185 64.3825 13.4854 64.4335 13.9493C64.4887 14.4529 64.3513 14.8503 64.0211 15.1414C63.8132 15.3252 63.3697 15.5616 62.6905 15.8508C62.0099 16.1267 61.5611 16.4375 61.3442 16.7833C61.1259 17.1158 61.0582 17.6597 61.1411 18.4152L61.5601 22.2323C61.611 22.6961 61.5081 23.1031 61.2514 23.4532C61.0066 23.7886 60.6522 23.9818 60.1883 24.0327C59.7377 24.0821 59.3499 23.9705 59.0248 23.6976C58.6998 23.4248 58.5111 23.0498 58.4587 22.5727L57.6164 14.8988ZM67.1097 15.2651L66.7519 15.3044C66.235 15.3611 65.8184 15.2929 65.5021 15.0996C65.1976 14.8915 65.0177 14.5357 64.9624 14.0321C64.9085 13.5417 65.0084 13.1686 65.262 12.9127C65.5142 12.6436 65.9053 12.4799 66.4355 12.4217L66.7933 12.3824L66.5685 10.3347C66.5176 9.87086 66.6146 9.47123 66.8595 9.13584C67.1161 8.78575 67.4764 8.58524 67.9403 8.53432C68.3909 8.48486 68.7787 8.59654 69.1038 8.86937C69.4288 9.1422 69.6175 9.51718 69.6699 9.99432L69.8947 12.042L70.7495 11.9482C71.2664 11.8914 71.6771 11.9671 71.9817 12.1751C72.298 12.3684 72.483 12.7103 72.5369 13.2006C72.5907 13.691 72.4849 14.0715 72.2195 14.3421C71.9541 14.6127 71.5696 14.7756 71.066 14.8309L70.2111 14.9247L70.9007 21.207C70.9516 21.6709 70.8487 22.0778 70.5921 22.4279C70.3472 22.7633 69.9928 22.9565 69.5289 23.0074C69.0783 23.0569 68.6905 22.9452 68.3654 22.6723C68.0404 22.3995 67.8517 22.0245 67.7993 21.5474L67.1097 15.2651ZM77.2496 17.6731C77.2961 18.0973 77.5025 18.4502 77.8688 18.7319C78.3527 19.108 79.0387 19.2473 79.9267 19.1499C80.4966 19.0873 81.108 18.8525 81.7608 18.4455C82.4136 18.0385 82.8262 17.8256 82.9985 17.8067C83.3696 17.7659 83.6882 17.8584 83.9544 18.084C84.2324 18.2949 84.394 18.6058 84.4391 19.0167C84.5191 19.7457 84.0817 20.404 83.1268 20.9917C82.1851 21.5779 81.0913 21.9394 79.8455 22.0762C78.2285 22.2537 76.8575 21.8609 75.7324 20.8979C74.6191 19.9202 73.9736 18.6229 73.7962 17.006C73.6259 15.4553 73.9907 14.0739 74.8905 12.8618C75.7889 11.6365 77.0266 10.9372 78.6038 10.7641C80.075 10.6026 81.354 11.0122 82.4408 11.9928C83.4688 12.9262 84.0606 14.102 84.2163 15.5201C84.273 16.037 84.193 16.408 83.9762 16.633C83.7595 16.858 83.3861 16.9996 82.8559 17.0578L77.2496 17.6731ZM81.0298 15.0852C80.9832 14.6611 80.7599 14.2765 80.3599 13.9314C79.8996 13.5259 79.3844 13.3544 78.8145 13.417C78.2579 13.4781 77.804 13.7425 77.453 14.2103C77.1151 14.6766 76.9688 15.1152 77.0139 15.526L81.0298 15.0852ZM86.6575 13.1194L86.2996 13.1587C85.7827 13.2155 85.3661 13.1472 85.0498 12.9539C84.7453 12.7459 84.5654 12.39 84.5101 11.8864C84.4563 11.396 84.5562 11.0229 84.8098 10.767C85.0619 10.4979 85.4531 10.3342 85.9832 10.276L86.3411 10.2368L86.1861 8.82523C86.0799 7.85771 86.2901 7.02313 86.8167 6.32148C87.3551 5.60513 88.0948 5.1953 89.0358 5.09201C89.619 5.028 90.093 5.06986 90.458 5.21759C90.9348 5.40669 91.203 5.77294 91.2627 6.31634C91.3689 7.28387 90.9316 7.82146 89.9508 7.92911C89.699 7.95675 89.5214 8.05002 89.4182 8.2089C89.3281 8.36633 89.3042 8.63723 89.3464 9.02158L89.4424 9.89633L90.2973 9.80249C90.8142 9.74576 91.2249 9.8214 91.5294 10.0294C91.8457 10.2227 92.0308 10.5646 92.0846 11.055C92.1385 11.5453 92.0327 11.9258 91.7673 12.1964C91.5019 12.467 91.1174 12.6299 90.6137 12.6852L89.7589 12.779L90.4484 19.0613C90.4994 19.5252 90.3965 19.9322 90.1398 20.2822C89.8949 20.6176 89.5406 20.8108 89.0767 20.8617C88.6261 20.9112 88.2382 20.7995 87.9132 20.5267C87.5881 20.2538 87.3994 19.8788 87.3471 19.4017L86.6575 13.1194ZM104.148 17.5575C104.199 18.0214 104.096 18.4284 103.84 18.7785C103.595 19.1138 103.24 19.307 102.777 19.3579C102.445 19.3943 102.136 19.3276 101.849 19.1579C101.576 18.9867 101.365 18.7752 101.216 18.5232C100.654 19.3897 99.8097 19.8848 98.6831 20.0084C97.3445 20.1554 96.1509 19.7297 95.1024 18.7315C94.0539 17.7333 93.4431 16.4456 93.27 14.8684C93.0969 13.2912 93.4079 11.909 94.2031 10.7218C95.0101 9.51992 96.0896 8.84477 97.4414 8.69638C98.0511 8.62946 98.5642 8.66033 98.9807 8.78898C99.4105 8.91618 99.8291 9.18545 100.236 9.5968C100.338 9.30392 100.486 9.0597 100.679 8.86412C100.921 8.62297 101.221 8.48275 101.579 8.44347C102.029 8.394 102.417 8.50569 102.742 8.77852C103.067 9.05135 103.255 9.4197 103.306 9.88358L104.148 17.5575ZM96.3713 14.528C96.4557 15.2967 96.7111 15.9125 97.1375 16.3754C97.5771 16.8368 98.1283 17.0312 98.791 16.9585C99.4537 16.8857 99.9429 16.5772 100.259 16.0328C100.586 15.4737 100.709 14.8164 100.626 14.061C100.543 13.3055 100.296 12.7088 99.8861 12.271C99.4303 11.7845 98.871 11.5776 98.2083 11.6503C97.5456 11.7231 97.0498 12.0324 96.7207 12.5782C96.4049 13.1226 96.2884 13.7725 96.3713 14.528ZM109.158 7.41032C110.086 7.30848 110.882 7.35518 111.547 7.55043C112.476 7.82406 112.981 8.33198 113.063 9.07419C113.109 9.49831 113.022 9.86335 112.801 10.1693C112.591 10.4606 112.307 10.6259 111.95 10.6651C111.724 10.6899 111.397 10.6386 110.967 10.5114C110.537 10.3842 110.104 10.3446 109.666 10.3926C108.924 10.4741 108.382 10.7885 108.039 11.3358C107.697 11.8831 107.567 12.5344 107.65 13.2899C107.735 14.0586 107.99 14.6744 108.416 15.1373C108.856 15.5988 109.407 15.7931 110.07 15.7204C110.521 15.6709 110.925 15.5662 111.283 15.4062C111.654 15.2447 112.031 15.0759 112.414 14.8997C112.759 14.8619 113.073 14.9749 113.357 15.2389C113.641 15.5028 113.802 15.8071 113.84 16.1517C113.917 16.8541 113.52 17.461 112.651 17.9722C111.945 18.385 111.195 18.6351 110.399 18.7224C108.849 18.8926 107.531 18.494 106.445 17.5267C105.359 16.5461 104.726 15.2473 104.549 13.6303C104.373 12.0266 104.71 10.6349 105.559 9.45515C106.408 8.26214 107.607 7.58053 109.158 7.41032ZM115.996 9.89908L115.638 9.93836C115.121 9.99509 114.704 9.92681 114.388 9.7335C114.084 9.52549 113.904 9.16966 113.848 8.66601C113.795 8.17563 113.894 7.8025 114.148 7.54664C114.4 7.27752 114.791 7.11386 115.322 7.05567L115.679 7.01639L115.455 4.96869C115.404 4.50481 115.501 4.10518 115.746 3.76979C116.002 3.41969 116.362 3.21918 116.826 3.16827C117.277 3.1188 117.665 3.23049 117.99 3.50332C118.315 3.77615 118.504 4.15113 118.556 4.62826L118.781 6.67596L119.636 6.58213C120.153 6.52539 120.563 6.60103 120.868 6.80904C121.184 7.00235 121.369 7.3442 121.423 7.83459C121.477 8.32498 121.371 8.70546 121.106 8.97603C120.84 9.2466 120.456 9.40953 119.952 9.46481L119.097 9.55865L119.787 15.8409C119.838 16.3048 119.735 16.7118 119.478 17.0619C119.233 17.3973 118.879 17.5904 118.415 17.6413C117.964 17.6908 117.577 17.5791 117.252 17.3063C116.926 17.0335 116.738 16.6585 116.685 16.1813L115.996 9.89908ZM124.014 13.5058C124.226 13.4825 124.818 13.6254 125.791 13.9344C126.264 14.0837 126.699 14.1366 127.096 14.0929C127.401 14.0595 127.614 13.9825 127.735 13.8619C127.868 13.7266 127.923 13.5595 127.901 13.3607C127.876 13.1354 127.757 12.9674 127.544 12.8567C126.823 12.6408 126.088 12.4263 125.341 12.2133C124.425 11.9382 123.782 11.6399 123.411 11.3184C122.938 10.9143 122.657 10.3147 122.57 9.51947C122.465 8.5652 122.727 7.71154 123.355 6.9585C124.031 6.14662 124.972 5.67448 126.178 5.5421C126.973 5.45481 127.74 5.53828 128.479 5.79252C129.413 6.11917 129.921 6.64697 130.001 7.37592C130.044 7.77353 129.96 8.10472 129.748 8.36947C129.535 8.63422 129.237 8.7877 128.852 8.82989C128.733 8.84298 128.237 8.72305 127.364 8.47011C126.921 8.34437 126.561 8.29677 126.282 8.32732C126.044 8.35351 125.851 8.42834 125.703 8.55183C125.569 8.67387 125.514 8.84754 125.539 9.07285C125.571 9.36443 126.022 9.62344 126.892 9.84988C128.093 10.1607 128.908 10.4334 129.336 10.6681C130.25 11.1714 130.761 11.9201 130.87 12.9141C130.987 13.9744 130.689 14.8722 129.979 15.6075C129.28 16.328 128.38 16.7487 127.28 16.8694C126.207 16.9873 125.252 16.9043 124.416 16.6205C123.483 16.3071 122.98 15.819 122.907 15.1563C122.861 14.7322 122.947 14.3606 123.167 14.0413C123.387 13.7221 123.669 13.5436 124.014 13.5058ZM134.772 9.8501C134.826 10.3405 134.732 10.7733 134.492 11.1484C134.251 11.5235 133.893 11.7373 133.415 11.7897C132.925 11.8435 132.523 11.72 132.208 11.4192C131.906 11.117 131.727 10.7074 131.671 10.1905L130.898 3.15279C130.844 2.66241 130.938 2.22964 131.178 1.85449C131.419 1.47934 131.777 1.26558 132.255 1.21321C132.745 1.15938 133.141 1.28359 133.442 1.58584C133.757 1.88663 133.943 2.29547 133.999 2.81237L134.772 9.8501ZM133.509 12.6445C133.973 12.5936 134.396 12.7216 134.779 13.0283C135.161 13.3351 135.379 13.7271 135.431 14.2042C135.483 14.6813 135.356 15.1111 135.049 15.4935C134.743 15.8759 134.357 16.0926 133.893 16.1435C133.416 16.1959 132.987 16.0753 132.606 15.7818C132.237 15.4736 132.026 15.0743 131.972 14.5839C131.921 14.12 132.042 13.6976 132.336 13.3166C132.641 12.9209 133.032 12.6969 133.509 12.6445Z" fill="#EA0F0F"/>
</svg>
