<svg width="52" height="58" viewBox="0 0 52 58" fill="none" xmlns="http://www.w3.org/2000/svg">
<path fill-rule="evenodd" clip-rule="evenodd" d="M34.3 28.7349C27.4656 25.9584 20.4631 23.5659 13.5391 21.0082C11.8138 20.3659 9.92469 19.6635 10.0343 17.408C10.1502 14.9764 12.1286 14.3269 14.139 13.9107C14.8711 13.7562 15.5986 13.4984 16.3427 13.4242C24.5767 12.6498 32.8101 11.7989 41.0643 11.1967C44.5043 10.9502 46.4449 12.5097 47.4101 15.8179C48.325 18.9886 48.0015 22.1605 46.613 25.1295C46.1303 26.1741 45.175 27 44.659 27.6392C40.9899 28.7907 37.9419 30.2096 34.3 28.7349ZM38.6513 25.1975C39.0518 22.7064 39.4267 20.3726 39.8706 17.5711C34.0824 17.1874 28.7503 17.9143 23.3469 19.3117C28.3519 21.2399 33.3569 23.168 38.6513 25.1975Z" fill="black"/>
<path fill-rule="evenodd" clip-rule="evenodd" d="M6.1226 43.1054C5.41927 41.9391 4.6705 40.796 4.0353 39.5947C3.4001 38.3934 2.73822 37.1769 2.33797 35.8935C1.35866 32.7462 2.56387 31.2639 5.83992 31.4856C6.72926 31.5482 7.68741 31.6715 8.46892 32.0679C13.9736 34.8347 19.5571 37.4555 24.8592 40.5759C27.8954 42.3612 27.8841 45.0753 25.3542 47.8035C23.6162 49.684 21.7176 51.4163 19.8533 53.1789C16.589 56.2645 14.735 56.2356 12.1384 52.6787C9.92525 49.6358 8.00679 46.365 5.95991 43.1985C6.02047 43.1674 6.06573 43.125 6.12244 43.0863L6.1226 43.1054ZM16.5971 47.6552C17.7524 46.6402 18.651 45.853 19.8969 44.7532C17.2578 43.2637 15.0686 42.0236 12.8833 40.7912C12.6683 41.0071 12.4647 41.2268 12.2573 41.4388C13.6194 43.3814 14.9739 45.3278 16.6047 47.6513L16.5971 47.6552Z" fill="black"/>
<path fill-rule="evenodd" clip-rule="evenodd" d="M23.3433 19.3041C28.3483 21.2323 33.3533 23.1605 38.6477 25.19C39.0481 22.6989 39.4231 20.365 39.8669 17.5636C34.0788 17.1798 28.7467 17.9068 23.3433 19.3041Z" fill="white"/>
<path fill-rule="evenodd" clip-rule="evenodd" d="M12.2414 41.4476C13.6035 43.3902 14.9581 45.3366 16.5888 47.6601C17.7441 46.6451 18.6427 45.8579 19.8886 44.7581C17.2494 43.2686 15.0602 42.0285 12.875 40.7961C12.6599 41.012 12.4564 41.2317 12.2489 41.4437L12.2414 41.4476Z" fill="white"/>
</svg>
