<svg width="68" height="142" viewBox="0 0 68 142" fill="none" xmlns="http://www.w3.org/2000/svg">
<path fill-rule="evenodd" clip-rule="evenodd" d="M46.0202 70.4312C45.475 71.406 44.9816 72.4378 44.3752 73.3487C41.6547 77.4392 38.9472 81.544 36.1553 85.5523C27.6453 97.777 19.1904 110.062 11.1816 122.836C10.1175 124.533 9.09486 126.268 8.04016 127.972C7.80844 128.346 7.53141 128.671 7.13036 129.213C6.74188 126.858 6.8992 124.805 7.06222 122.79C7.45818 117.838 7.97152 112.904 8.43075 107.963C8.51866 107.002 8.6507 106.035 8.63093 105.067C8.58994 103.07 7.60926 101.575 6.21851 101.235C4.89129 100.91 3.66521 101.771 3.11776 103.574C2.7937 104.643 2.58226 105.788 2.41495 106.925C1.33665 114.363 0.63824 121.869 0.788442 129.503C0.824753 131.435 0.970186 133.436 1.38538 135.299C2.5342 140.458 4.83694 141.716 7.89809 141.493C11.0155 141.267 14.0017 140.259 16.9706 139.218C20.9148 137.836 24.83 136.343 28.7608 134.901C30.1581 134.389 31.3711 133.552 32.1586 131.94C32.9695 130.281 32.8925 129.222 31.7701 127.456C31.528 127.523 31.2309 127.735 30.9729 127.666C27.6783 126.765 24.7716 128.581 21.7445 129.436C18.8835 130.24 16.0921 131.39 13.2679 132.374C12.7425 132.557 12.207 132.683 11.3409 132.929C11.8279 132.053 12.1172 131.489 12.4386 130.956C19.6653 119.011 27.5065 107.739 35.4124 96.5395C38.7284 91.8392 42.1258 87.2357 45.4321 82.5248C46.9313 80.3857 48.3548 78.1458 49.6931 75.8398C50.3675 74.677 50.918 73.3254 51.279 71.9458C52.1531 68.6168 51.0135 65.6736 48.3989 64.3012C46.2175 63.1559 43.9165 62.8632 41.6145 62.8024C38.3493 62.7167 35.0914 62.771 31.825 62.7082C30.6151 62.6859 29.3799 62.6845 28.2606 61.9029C27.9094 60.8792 28.2467 60.0335 28.5693 59.2726C29.4767 57.1386 30.3832 54.9932 31.4329 52.9744C34.8448 46.4006 38.9353 40.5226 43.0193 34.6374C48.3049 27.0227 54.1326 20.1098 59.973 13.2074C61.7708 11.0809 63.5089 8.87135 65.2277 6.64037C65.9237 5.73441 66.5461 4.71598 67.116 3.67095C67.4993 2.96641 67.9992 2.14695 67.3486 1.22106C66.9302 0.624233 66.328 0.774444 65.4416 1.59919C65.3607 1.6735 65.2865 1.75873 65.2059 1.83681C53.0503 14.0642 41.9868 27.7215 32.255 43.0762C29.9615 46.6948 27.9101 50.5732 25.8604 54.4325C25.0541 55.9509 24.408 57.6667 23.9488 59.4146C22.9291 63.2789 24.2196 66.7014 27.3205 68.008C29.1014 68.7605 31.0251 69.1035 32.8904 69.2568C35.7404 69.4868 38.5998 69.355 41.4553 69.4553C42.9204 69.5084 44.3855 69.7251 45.8514 69.8694C45.9066 70.0555 45.9615 70.2377 46.0167 70.4238L46.0202 70.4312Z" fill="#EA0F0F"/>
</svg>
