<svg width="696" height="305" viewBox="0 0 696 305" fill="none" xmlns="http://www.w3.org/2000/svg">
<path d="M693.448 228.783C695.722 252.847 696.859 264.878 692.888 274.209C689.4 282.407 683.274 289.205 675.483 293.526C666.615 298.445 654.531 298.564 630.361 298.801L64.6294 304.364C42.0286 304.587 30.7282 304.698 22.0861 300.369C14.4854 296.562 8.2951 290.432 4.41345 282.869C0 274.27 0 262.969 0 240.368V64C0 41.5979 0 30.3969 4.35974 21.8404C8.19464 14.3139 14.3139 8.19467 21.8403 4.35974C30.3969 0 41.5979 0 64 0H613.59C634.154 0 644.436 0 652.574 3.86072C659.741 7.26093 665.735 12.7154 669.795 19.5309C674.404 27.2693 675.371 37.5058 677.306 57.9786L693.448 228.783Z" fill="#EAEAE9"/>
</svg>
