<svg width="72" height="51" viewBox="0 0 72 51" fill="none" xmlns="http://www.w3.org/2000/svg">
<path d="M25.4585 11.6412C25.625 10.1238 25.9127 9.0379 26.3213 8.38353C26.9546 7.31732 28.0515 6.60309 29.612 6.24086C30.906 5.94047 32.0781 6.14796 33.1284 6.86334C34.2078 7.53197 34.8939 8.49174 35.1866 9.74265C35.2842 10.1596 35.3088 10.6934 35.2604 11.3441C35.2032 11.9569 35.1168 12.6164 35.0012 13.3226L30.1886 44.7135C29.9116 46.6162 29.6404 47.8582 29.3752 48.4393C28.7862 49.695 27.7305 50.4996 26.2081 50.853C24.7238 51.1976 23.4388 50.9364 22.353 50.0694C21.7633 49.6068 20.9497 48.6167 19.9123 47.099L1.88869 21.0091C1.64774 20.6654 1.30535 20.1454 0.861505 19.4491C0.455725 18.744 0.212916 18.2208 0.133077 17.8797C-0.150793 16.6667 0.0194843 15.5081 0.643908 14.404C1.26833 13.2999 2.2466 12.5932 3.57871 12.284C5.13918 11.9218 6.41663 12.0648 7.41106 12.7132C8.07697 13.1582 8.84046 14.02 9.70152 15.2989L22.4635 34.3373L25.4585 11.6412Z" fill="#EA0F0F"/>
<path d="M47.1543 34.3009C47.6871 34.1772 49.1314 34.2616 51.4871 34.554C53.8429 34.8464 55.9151 34.785 57.704 34.3698C59.3406 33.9899 60.4698 33.3281 61.0916 32.3844C61.7515 31.4319 61.9573 30.425 61.7089 29.3636C61.3363 27.7716 59.8257 26.8034 57.1769 26.4591C56.6758 26.3756 54.83 26.2046 51.6396 25.946C47.3886 25.614 44.4164 24.7453 42.7232 23.3399C41.0591 21.8877 39.9166 19.835 39.2957 17.1815C38.3021 12.936 38.9957 9.29806 41.3763 6.26759C43.5438 3.52639 46.7018 1.67429 50.8503 0.711273C54.5041 -0.136887 57.4727 -0.226504 59.756 0.442424C62.0305 1.07345 63.385 2.31766 63.8197 4.17506C64.1124 5.42596 63.9758 6.55673 63.4097 7.56737C62.8437 8.578 61.9517 9.22468 60.7338 9.5074C60.0106 9.67526 58.4464 9.67867 56.0412 9.51763C54.6965 9.43012 53.5103 9.50564 52.4827 9.74419C51.2267 10.0357 50.2745 10.5965 49.626 11.4264C49.0068 12.2096 48.8125 13.094 49.0431 14.0796C49.3181 15.2547 50.591 15.9783 52.8617 16.2505C55.1236 16.4848 57.1159 16.6817 58.8386 16.8414C62.1141 17.1201 64.667 17.8264 66.4973 18.9602C69.0227 20.4921 70.6979 23.0207 71.5229 26.546C72.5785 31.0568 71.8824 34.8552 69.4345 37.9413C67.1706 40.7848 63.7551 42.7367 59.1878 43.7969C55.9146 44.5567 52.8408 44.7107 49.9662 44.2589C46.4676 43.7123 44.4698 42.3776 43.9731 40.2548C43.6537 38.8902 43.7637 37.6457 44.3032 36.5214C44.8337 35.3591 45.7841 34.6189 47.1543 34.3009Z" fill="#EA0F0F"/>
</svg>
