<svg width="237" height="121" viewBox="0 0 237 121" fill="none" xmlns="http://www.w3.org/2000/svg">
<path fill-rule="evenodd" clip-rule="evenodd" d="M128.703 37.6935C131.064 36.8538 132.864 36.064 134.737 35.5742C143.896 33.1563 153.077 30.8304 162.24 28.4367C181.582 23.3838 200.934 18.3406 220.263 13.2248C224.9 11.9974 229.502 10.5766 233.27 7.36942C234.676 6.17386 236.268 5.12071 236.925 2.67526C235.732 2.08466 234.615 1.29744 233.376 0.961781C229.705 -0.0445219 225.984 -0.144922 222.285 0.902751C215.089 2.94308 207.912 5.08975 200.689 7.03325C184.317 11.4333 167.908 15.7075 151.532 20.0835C144.527 21.9577 137.527 23.8271 130.596 25.9435C127.947 26.7503 125.316 27.948 123.014 29.4734C117.945 32.8505 116.834 38.0866 120.181 43.1923C121.885 45.7866 124.094 48.1564 126.467 50.1766C130.108 53.2754 134.126 55.9407 137.899 58.8919C140.069 60.5861 142.488 62.0861 143.856 64.9216C141.928 66.1774 139.823 66.3504 137.784 66.6208C126.957 68.0556 116.099 68.2458 105.223 67.2832C88.1532 65.7804 71.4752 62.1564 54.9629 57.7342C45.4744 55.1947 36.0978 52.2518 26.6597 49.5588C22.3896 48.3463 18.0897 47.201 13.7684 46.2C11.6198 45.7021 9.37708 45.3813 7.17845 45.3505C1.08875 45.2699 -1.49229 49.7669 1.64021 55.0239C2.82723 57.0178 4.22669 58.9954 5.91669 60.5478C10.901 65.1267 15.8895 69.7491 21.2222 73.9037C38.7703 87.59 57.8802 98.9496 76.6648 110.797C80.8137 113.411 85.0562 115.886 89.3137 118.328C90.72 119.139 92.2691 119.744 93.8149 120.238C95.0583 120.637 96.3934 120.689 97.1437 118.79C93.5938 116.107 90.0552 113.299 86.3788 110.692C71.7926 100.345 57.0588 90.2094 42.5906 79.7009C33.8983 73.3821 25.575 66.5525 17.1533 59.8566C15.446 58.5016 14.0676 56.7414 11.8954 54.507C13.8085 54.9486 14.9966 55.163 16.1493 55.4974C26.3698 58.4474 36.5596 61.5223 46.8154 64.3618C64.983 69.3811 83.3212 73.5975 102.095 75.6498C114.234 76.9822 126.379 77.1476 138.498 75.456C141.378 75.0527 144.308 74.5247 147.023 73.5211C153.563 71.1099 155.328 65.3332 151.655 59.3645C148.827 54.7628 144.442 51.7596 140.435 48.3807C138.557 46.8015 136.493 45.4319 134.679 43.791C132.789 42.0814 131.094 40.1528 128.713 37.7033L128.703 37.6935Z" fill="black"/>
</svg>
