<svg width="258" height="82" viewBox="0 0 258 82" fill="none" xmlns="http://www.w3.org/2000/svg">
<path d="M1 34.7567C1 28.6692 1.00079 24.1642 1.29404 20.6043C1.58634 17.056 2.16406 14.5369 3.26754 12.4035C5.26157 8.5485 8.43951 5.43466 12.3344 3.5196C14.4898 2.45982 17.0201 1.93355 20.5737 1.71361C24.1388 1.49296 28.6428 1.58397 34.7291 1.70801L224.618 5.57807C230.485 5.69763 234.825 5.78685 238.258 6.13549C241.679 6.48293 244.112 7.08142 246.181 8.17293C249.92 10.1456 252.949 13.237 254.845 17.0151C255.894 19.1057 256.443 21.5511 256.721 24.9785C256.999 28.4177 257 32.7589 257 38.6268V44.6951C257 50.5942 256.999 54.9588 256.719 58.4152C256.439 61.8599 255.886 64.3158 254.829 66.4126C252.919 70.202 249.868 73.2969 246.107 75.2617C244.026 76.3489 241.578 76.9373 238.138 77.2669C234.686 77.5977 230.322 77.6617 224.423 77.7472L34.5346 80.4994C28.4799 80.5871 23.9993 80.6513 20.4533 80.4115C16.9188 80.1726 14.4024 79.6355 12.2595 78.5709C8.38714 76.647 5.23085 73.5362 3.25111 69.6921C2.15556 67.5649 1.58207 65.0565 1.2919 61.5259C1.00079 57.9836 1 53.5027 1 47.4473L1 34.7567Z" fill="white" stroke="#EA0F0F" stroke-width="2"/>
</svg>
