<svg width="86" height="43" viewBox="0 0 86 43" fill="none" xmlns="http://www.w3.org/2000/svg">
<path fill-rule="evenodd" clip-rule="evenodd" d="M0.747844 1.35986C2.3616 0.485344 3.47788 0.904492 4.58143 1.22588C11.8401 3.32707 18.8813 6.00979 25.7653 9.11791C42.2523 16.5695 58.4964 24.4963 74.566 32.7841C74.7786 32.8946 75.0349 32.9235 75.6696 33.1055C74.4764 31.2132 73.4793 29.5603 72.398 27.9526C71.3337 26.3745 70.2019 24.8365 69.0735 23.3045C68.531 22.5695 67.8616 21.9219 67.3732 21.1578C66.4477 19.6988 66.596 18.3099 67.6643 17.3682C68.7872 16.3777 70.412 16.4424 71.7717 17.5752C72.1492 17.8914 72.4916 18.2769 72.7852 18.6731C76.5676 23.819 80.3232 28.9869 84.1176 34.1263C85.6403 36.1825 85.0417 38.1851 84.0995 40.1437C83.8972 40.5661 83.2385 40.9121 82.7245 41.0371C75.6816 42.7322 68.4952 42.618 61.3039 42.1656C58.9211 42.0123 57.3797 40.3767 57.3874 38.4126C57.3967 36.3896 58.8722 34.896 61.2759 34.763C63.1067 34.659 64.9479 34.8205 66.7863 34.8672C67.8517 34.8953 68.9098 34.9313 70.097 34.5338C69.4408 34.1425 68.8024 33.7069 68.1224 33.3633C52.4412 25.4246 36.7038 17.5936 20.4843 10.7536C14.6243 8.28084 8.89695 5.50437 3.11805 2.83693C2.38577 2.49818 1.73278 1.98899 0.745222 1.36902L0.747844 1.35986Z" fill="black"/>
</svg>
