<svg width="38" height="35" viewBox="0 0 38 35" fill="none" xmlns="http://www.w3.org/2000/svg">
<path fill-rule="evenodd" clip-rule="evenodd" d="M0 27.0326C0.215653 30.1828 2.21535 30.5982 3.81314 30.9628C10.1063 32.4012 16.4386 33.6572 22.7709 34.8727C24.7902 35.2577 26.7507 34.8424 27.6329 32.6139C28.5347 30.3247 27.133 28.7647 25.5548 27.5188C23.1532 25.6246 20.6439 23.8824 17.6934 21.7147C19.5264 20.0231 20.8693 18.6455 22.3495 17.4503C26.1626 14.381 30.0541 11.3928 33.8966 8.3641C34.7886 7.65505 35.6807 6.93592 36.5139 6.14583C37.8078 4.92017 38.4744 3.37033 37.6118 1.6686C36.5825 -0.377538 34.7102 -0.185099 32.9458 0.382146C31.8872 0.726545 30.8776 1.32421 29.9267 1.93197C21.0752 7.52339 13.1451 14.3203 5.68543 21.735C3.74456 23.6595 3.85235 27.6404 0.00981196 27.0225L0 27.0326Z" fill="black"/>
</svg>
