<svg width="28" height="34" viewBox="0 0 28 34" fill="none" xmlns="http://www.w3.org/2000/svg">
<path fill-rule="evenodd" clip-rule="evenodd" d="M16.5909 13.0632C12.9454 15.0732 9.39443 17.3014 5.8051 19.433C4.90867 19.9623 3.92752 20.5421 3.04914 19.6516C2.10137 18.6926 2.56475 17.5685 3.1349 16.5171C3.34133 16.1332 3.50402 15.7127 3.74756 15.3534C6.46171 11.3946 9.14449 7.4074 11.9362 3.50379C13.1014 1.87865 14.4507 1.59565 16.1533 2.39993C17.7814 3.17536 18.9543 4.50316 19.6527 6.22991C19.9006 6.83488 19.8856 7.56886 19.9561 8.03731C19.0751 10.1023 18.5315 11.9903 16.5909 13.0632ZM16.7511 9.80379C15.8838 8.69576 15.0711 7.65774 14.0934 6.41454C11.8074 8.85109 10.1416 11.4989 8.72271 14.4286C11.3496 12.9174 13.9765 11.4062 16.7511 9.80379Z" fill="black"/>
<path fill-rule="evenodd" clip-rule="evenodd" d="M12.0758 30.9844C11.342 30.8627 10.6009 30.7698 9.87786 30.6047C9.15484 30.4395 8.41584 30.2805 7.74584 29.98C6.10357 29.2421 5.94323 28.1518 7.2389 26.7744C7.59161 26.4013 7.99439 26.0203 8.44339 25.8199C11.5957 24.3989 14.7175 22.8884 17.9393 21.6897C19.7836 21.0026 20.885 22.0205 21.0654 24.1661C21.1918 25.6424 21.1989 27.135 21.2309 28.6237C21.2867 31.23 20.5928 32.0455 18.1886 31.8755C16.1349 31.7265 14.0968 31.361 12.0539 31.0916C12.0635 31.0531 12.0629 31.0171 12.068 30.9773L12.0758 30.9844ZM17.7829 28.0137C17.7946 27.1201 17.8046 26.4258 17.815 25.4601C16.2373 26.0806 14.9267 26.5935 13.6207 27.1076C13.6295 27.284 13.6441 27.4567 13.6541 27.6283C14.9466 27.7461 16.2378 27.8687 17.7841 28.0089L17.7829 28.0137Z" fill="black"/>
<path fill-rule="evenodd" clip-rule="evenodd" d="M8.71838 14.4277C11.3453 12.9165 13.9721 11.4053 16.7468 9.80293C15.8795 8.69491 15.0668 7.65688 14.089 6.41369C11.8031 8.85024 10.1373 11.498 8.71838 14.4277Z" fill="white"/>
<path fill-rule="evenodd" clip-rule="evenodd" d="M13.6564 27.6371C14.9489 27.7549 16.2401 27.8775 17.7864 28.0177C17.7981 27.124 17.8081 26.4297 17.8185 25.464C16.2408 26.0845 14.9302 26.5974 13.6242 27.1115C13.633 27.2879 13.6476 27.4607 13.6576 27.6322L13.6564 27.6371Z" fill="white"/>
</svg>
