<svg width="95" height="35" viewBox="0 0 95 35" fill="none" xmlns="http://www.w3.org/2000/svg">
<rect x="1.91406" width="93" height="28" rx="14" transform="rotate(3.91986 1.91406 0)" fill="black"/>
<path d="M20.5761 19.2387C20.6469 18.8912 20.6561 18.5864 20.6035 18.3244C20.5588 18.0629 20.4574 17.8289 20.2993 17.6223C20.1495 17.4084 19.9591 17.2153 19.7282 17.0428C19.4978 16.8626 19.2354 16.6919 18.941 16.5308C18.3985 16.2195 17.8969 15.8837 17.4361 15.5232C16.9752 15.1627 16.5719 14.7631 16.2261 14.3244C15.8881 13.8862 15.6437 13.3957 15.493 12.8529C15.3428 12.3023 15.314 11.6934 15.4067 11.0263C15.5136 10.2662 15.7554 9.59367 16.1323 9.00868C16.5091 8.4237 16.9808 7.93919 17.5474 7.55515C18.1146 7.16332 18.7406 6.88514 19.4253 6.72063C20.1105 6.54832 20.819 6.49506 21.5505 6.56085C22.57 6.6542 23.4103 6.96236 24.0714 7.48534C24.733 8.00053 25.2044 8.66321 25.4856 9.47339C25.7752 10.2763 25.871 11.1638 25.7731 12.136L22.4418 11.896C22.4908 11.5235 22.4934 11.1438 22.4494 10.7571C22.4132 10.3709 22.2865 10.049 22.0692 9.79137C21.8603 9.52646 21.5222 9.37409 21.0551 9.33426C20.642 9.30595 20.2732 9.37465 19.9486 9.54034C19.6245 9.69825 19.3544 9.92641 19.1382 10.2248C18.922 10.5232 18.7732 10.8654 18.692 11.2514C18.6322 11.5527 18.6446 11.8276 18.7294 12.0762C18.822 12.3253 18.9551 12.5537 19.1288 12.7614C19.3109 12.9618 19.5173 13.1482 19.7483 13.3207C19.9792 13.4931 20.212 13.6383 20.4467 13.7561C21.011 14.0924 21.5274 14.441 21.996 14.802C22.4724 15.1635 22.8674 15.5704 23.181 16.0226C23.5029 16.4675 23.7228 16.972 23.8408 17.5361C23.9665 18.1007 23.9817 18.736 23.8864 19.4421C23.7701 20.225 23.5316 20.9056 23.1709 21.4839C22.818 22.0627 22.3699 22.5449 21.8267 22.9305C21.284 23.3084 20.6741 23.5798 19.9972 23.7449C19.3203 23.9099 18.6043 23.9587 17.8493 23.8913C17.0403 23.8124 16.3259 23.6108 15.706 23.2864C15.0866 22.9542 14.5758 22.5237 14.1735 21.995C13.7795 21.459 13.5006 20.8447 13.3366 20.1522C13.1731 19.4519 13.1418 18.7098 13.2425 17.9257L16.5737 18.1657C16.5252 18.5305 16.5048 18.8854 16.5125 19.2305C16.5202 19.5755 16.5854 19.8815 16.708 20.1483C16.8307 20.4151 17.0192 20.6356 17.2735 20.8096C17.5278 20.9837 17.8732 21.0856 18.3097 21.1155C18.7228 21.1438 19.0833 21.0824 19.3912 20.9312C19.6997 20.7723 19.954 20.5469 20.1541 20.2552C20.3542 19.9635 20.4949 19.6247 20.5761 19.2387ZM36.0152 7.78692L31.8909 24.6068L28.5589 24.3785L32.6832 7.5586L36.0152 7.78692ZM40.1072 8.06731L39.4215 10.8747L27.9757 10.0904L28.6614 7.28302L40.1072 8.06731ZM48.3777 22.8939L47.6811 25.6888L40.5026 25.1969L41.1758 22.4004L48.3777 22.8939ZM45.6557 8.4475L41.5431 25.2682L38.1994 25.0391L42.3003 8.21758L45.6557 8.4475ZM49.1815 15.6194L48.5139 18.334L42.2824 17.907L42.9383 15.1916L49.1815 15.6194ZM51.782 8.86728L51.0846 11.6738L43.9178 11.1827L44.6152 8.3762L51.782 8.86728ZM57.1705 20.3249L53.5938 20.0681L54.2912 17.2616L57.5281 17.5069C58.043 17.5343 58.492 17.4398 58.8748 17.2233C59.2583 16.9989 59.5646 16.6989 59.794 16.3231C60.0317 15.94 60.2021 15.5092 60.3054 15.0308C60.3767 14.6754 60.4068 14.2938 60.3956 13.8858C60.3844 13.4779 60.2837 13.1186 60.0936 12.808C59.9112 12.4979 59.5951 12.3118 59.1452 12.2496L56.6682 12.0564L53.2413 26.0698L49.9092 25.8415L54.0102 9.01996L59.4926 9.40737C60.5271 9.50958 61.3819 9.8344 62.057 10.3818C62.7404 10.922 63.2175 11.6164 63.4883 12.465C63.7668 13.3142 63.8287 14.2385 63.6741 15.2381C63.4953 16.3613 63.1012 17.3132 62.4918 18.0937C61.8901 18.8747 61.1331 19.4649 60.2209 19.8644C59.3091 20.2561 58.2924 20.4096 57.1705 20.3249ZM79.4198 25.1267L78.7888 27.8203L69.0499 27.153L69.6032 24.736L75.2701 19.3451C75.6153 18.9929 75.966 18.6176 76.3222 18.2191C76.6867 17.8134 77.0058 17.385 77.2795 16.9339C77.5615 16.4755 77.7549 15.9954 77.8598 15.4936C77.9102 15.2152 77.9402 14.8922 77.9497 14.5248C77.9592 14.1574 77.8917 13.8278 77.7473 13.536C77.6028 13.2442 77.336 13.0811 76.9468 13.0466C76.4485 13.0046 76.0442 13.1335 75.7339 13.4333C75.4237 13.7331 75.1826 14.1081 75.0108 14.5584C74.8468 15.0092 74.7325 15.4203 74.6679 15.7917L71.4979 15.598C71.637 14.5974 71.9736 13.6846 72.5078 12.8599C73.0498 12.0356 73.7359 11.3935 74.5662 10.9336C75.4047 10.4664 76.3532 10.2808 77.4117 10.3768C78.3615 10.4575 79.1418 10.7263 79.7526 11.1832C80.3718 11.6329 80.8049 12.2264 81.0519 12.9637C81.2995 13.6933 81.3492 14.5111 81.201 15.4172C81.0921 16.091 80.8847 16.7189 80.5785 17.3009C80.2724 17.8829 79.9102 18.4258 79.492 18.9296C79.0738 19.4335 78.6215 19.9193 78.1353 20.3872C77.6568 20.8556 77.187 21.3128 76.7257 21.7589L73.8547 24.7454L79.4198 25.1267Z" fill="white"/>
</svg>
