<svg width="61" height="41" viewBox="0 0 61 41" fill="none" xmlns="http://www.w3.org/2000/svg">
<path fill-rule="evenodd" clip-rule="evenodd" d="M52.8229 7.94231C49.3494 14.6381 45.8743 21.3384 42.4008 28.0341C42.5141 28.1321 42.6245 28.2239 42.7377 28.322C43.1039 28.0249 43.5252 27.7737 43.8259 27.4167C48.1258 22.2974 52.423 17.1719 56.6916 12.0257C57.6954 10.8173 58.7029 9.58462 59.4937 8.24166C61.5587 4.742 59.5034 0.820281 55.384 0.521811C50.461 0.170057 45.5253 0.14743 40.6829 1.32974C35.8975 2.49699 31.1174 3.69186 26.3554 4.94983C23.8951 5.59853 22.972 6.6568 23.221 8.1807C23.4954 9.83198 24.7642 10.595 27.4545 10.2309C31.5513 9.67894 35.618 8.90032 39.6986 8.22433C40.1592 8.14673 40.6263 8.10747 41.2628 8.39216C40.6691 8.79067 40.0943 9.2218 39.4788 9.58152C27.2945 16.7294 16.0613 25.2118 4.96594 33.8937C3.43697 35.0892 2.1606 36.6341 0.887679 38.1135C0.267757 38.8362 0.390069 38.9375 1.24514 40.0572C2.04138 39.2605 2.734 38.2975 3.66396 37.6834C10.0679 33.4484 16.5937 29.3865 22.9421 25.0644C31.831 19.019 40.963 13.3914 50.5221 8.46465C51.1238 8.15638 51.6792 7.76433 52.2608 7.41274C52.4481 7.58927 52.6355 7.76579 52.8229 7.94231Z" fill="black"/>
</svg>
