<svg width="94" height="31" viewBox="0 0 94 31" fill="none" xmlns="http://www.w3.org/2000/svg">
<rect x="1.21177" y="0.4" width="91.9504" height="30.1168" rx="4.12441" fill="#A9A9A9" stroke="#A6A6A6" stroke-width="0.8"/>
<path fill-rule="evenodd" clip-rule="evenodd" d="M11.7672 6.95605C8.27383 6.95605 6.99609 8.23356 6.99609 11.7262V19.1901C6.99609 22.6828 8.27383 23.9603 11.7672 23.9603H19.227C22.7202 23.9603 24.0003 22.6828 24.0003 19.1901V11.7262C24.0003 8.23356 22.7226 6.95605 19.2292 6.95605H11.7672Z" fill="black"/>
<path fill-rule="evenodd" clip-rule="evenodd" d="M14.4134 16.8177H15.0961L14.7536 16.0214L14.4134 16.8177ZM14.2453 17.219L14.0428 17.6823H13.5817L14.5623 15.4581H14.9608L15.9374 17.6823H15.464L15.2641 17.219H14.2453ZM21.6655 17.6807H22.1111V15.458H21.6655V17.6807ZM19.8916 16.7259H20.7132V16.3206H19.8916V15.865H21.0842V15.4596H19.4461V17.6822H21.1271V17.2768H19.8916V16.7259ZM18.1208 16.9885L17.6156 15.458H17.2468L16.7416 16.9885L16.2498 15.4592H15.7691L16.5451 17.6836H16.9188L17.4249 16.2225L17.931 17.6836H18.3081L19.082 15.4592H18.6137L18.1208 16.9885ZM12.9013 16.732C12.9013 17.0938 12.7216 17.2872 12.3953 17.2872C12.0671 17.2872 11.8864 17.0882 11.8864 16.7166V15.4595H11.4348V16.732C11.4348 17.3579 11.7827 17.7169 12.3891 17.7169C13.0015 17.7169 13.3526 17.3511 13.3526 16.7134V15.4581H12.9013V16.732ZM10.3571 15.4581H10.8085V17.6837H10.3571V16.7798H9.33731V17.6837H8.88562V15.4581H9.33731V16.3558H10.3571V15.4581Z" fill="#8A8A8F"/>
<path fill-rule="evenodd" clip-rule="evenodd" d="M15.4988 12.6231C14.0033 12.6231 12.7748 11.4589 12.6718 9.98925C12.6641 9.87897 12.7544 9.78906 12.865 9.78906C12.9755 9.78906 13.0642 9.87899 13.0733 9.98916C13.1754 11.2378 14.2244 12.2227 15.4988 12.2227C16.7733 12.2227 17.8223 11.2378 17.9244 9.98916C17.9334 9.87899 18.0222 9.78906 18.1327 9.78906C18.2433 9.78906 18.3336 9.87897 18.3259 9.98925C18.2228 11.4589 16.9943 12.6231 15.4988 12.6231Z" fill="#8A8A8F"/>
<path d="M33.0421 8.88216C33.0421 8.78858 33.0274 8.70601 32.9981 8.63445C32.9706 8.56106 32.921 8.495 32.8495 8.43628C32.7797 8.37757 32.6825 8.3216 32.5577 8.26839C32.4348 8.21518 32.2788 8.16105 32.0898 8.106C31.8916 8.04729 31.7127 7.98215 31.5531 7.91059C31.3935 7.83719 31.2568 7.7537 31.143 7.66013C31.0292 7.56655 30.9421 7.4592 30.8815 7.3381C30.821 7.217 30.7907 7.07847 30.7907 6.9225C30.7907 6.76653 30.8228 6.6225 30.887 6.49038C30.9513 6.35827 31.043 6.24359 31.1623 6.14634C31.2834 6.04726 31.4274 5.97019 31.5944 5.91515C31.7614 5.8601 31.9476 5.83258 32.1531 5.83258C32.454 5.83258 32.7091 5.89038 32.9183 6.00597C33.1293 6.11974 33.2898 6.26928 33.3999 6.4546C33.51 6.63809 33.5651 6.83443 33.5651 7.0436H33.0366C33.0366 6.89314 33.0045 6.76011 32.9403 6.64451C32.8761 6.52708 32.7788 6.43534 32.6485 6.36928C32.5183 6.30139 32.3531 6.26744 32.1531 6.26744C31.9641 6.26744 31.8082 6.29589 31.6852 6.35277C31.5623 6.40965 31.4705 6.48671 31.41 6.58396C31.3513 6.68121 31.3219 6.79222 31.3219 6.917C31.3219 7.0014 31.3393 7.07847 31.3742 7.14819C31.4109 7.21608 31.4669 7.27939 31.5421 7.3381C31.6192 7.39682 31.7164 7.45095 31.8338 7.50049C31.9531 7.55003 32.0953 7.59774 32.2605 7.64361C32.488 7.70783 32.6843 7.77939 32.8495 7.85829C33.0146 7.93719 33.1504 8.02619 33.2568 8.12527C33.3651 8.22252 33.4449 8.33353 33.4963 8.4583C33.5495 8.58124 33.5761 8.72069 33.5761 8.87666C33.5761 9.03996 33.543 9.18767 33.477 9.31978C33.4109 9.45189 33.3164 9.56474 33.1935 9.65832C33.0706 9.7519 32.9228 9.82438 32.7504 9.87575C32.5797 9.9253 32.3889 9.95007 32.1779 9.95007C31.9926 9.95007 31.81 9.92438 31.6302 9.873C31.4522 9.82162 31.2898 9.74456 31.143 9.6418C30.9981 9.53905 30.8815 9.41244 30.7935 9.26198C30.7072 9.10969 30.6641 8.93354 30.6641 8.73354H31.1925C31.1925 8.87115 31.2192 8.9895 31.2724 9.08859C31.3256 9.18584 31.3981 9.26657 31.4898 9.33079C31.5834 9.39501 31.6889 9.44272 31.8063 9.47391C31.9256 9.50327 32.0494 9.51795 32.1779 9.51795C32.3632 9.51795 32.5201 9.49226 32.6485 9.44088C32.777 9.38951 32.8742 9.31611 32.9403 9.2207C33.0082 9.12528 33.0421 9.01244 33.0421 8.88216ZM34.5536 8.43904V8.37573C34.5536 8.16105 34.5848 7.96196 34.6472 7.77848C34.7096 7.59315 34.7995 7.4326 34.917 7.29682C35.0344 7.1592 35.1766 7.05278 35.3436 6.97755C35.5105 6.90048 35.6977 6.86195 35.905 6.86195C36.1142 6.86195 36.3023 6.90048 36.4693 6.97755C36.6381 7.05278 36.7812 7.1592 36.8986 7.29682C37.0179 7.4326 37.1087 7.59315 37.1711 7.77848C37.2335 7.96196 37.2647 8.16105 37.2647 8.37573V8.43904C37.2647 8.65372 37.2335 8.8528 37.1711 9.03629C37.1087 9.21978 37.0179 9.38033 36.8986 9.51795C36.7812 9.65373 36.639 9.76016 36.472 9.83722C36.3069 9.91245 36.1197 9.95007 35.9105 9.95007C35.7014 9.95007 35.5133 9.91245 35.3463 9.83722C35.1793 9.76016 35.0362 9.65373 34.917 9.51795C34.7995 9.38033 34.7096 9.21978 34.6472 9.03629C34.5848 8.8528 34.5536 8.65372 34.5536 8.43904ZM35.0628 8.37573V8.43904C35.0628 8.58766 35.0803 8.72803 35.1151 8.86014C35.15 8.99042 35.2023 9.10602 35.272 9.20694C35.3436 9.30786 35.4326 9.38767 35.539 9.44639C35.6454 9.50327 35.7693 9.53171 35.9105 9.53171C36.05 9.53171 36.172 9.50327 36.2766 9.44639C36.383 9.38767 36.4711 9.30786 36.5408 9.20694C36.6106 9.10602 36.6629 8.99042 36.6977 8.86014C36.7344 8.72803 36.7528 8.58766 36.7528 8.43904V8.37573C36.7528 8.22894 36.7344 8.09041 36.6977 7.96013C36.6629 7.82802 36.6096 7.7115 36.5381 7.61058C36.4684 7.50783 36.3803 7.42709 36.2739 7.36838C36.1693 7.30966 36.0463 7.2803 35.905 7.2803C35.7656 7.2803 35.6427 7.30966 35.5362 7.36838C35.4316 7.42709 35.3436 7.50783 35.272 7.61058C35.2023 7.7115 35.15 7.82802 35.1151 7.96013C35.0803 8.09041 35.0628 8.22894 35.0628 8.37573ZM38.2808 8.43904V8.37573C38.2808 8.16105 38.312 7.96196 38.3744 7.77848C38.4368 7.59315 38.5267 7.4326 38.6441 7.29682C38.7615 7.1592 38.9038 7.05278 39.0707 6.97755C39.2377 6.90048 39.4249 6.86195 39.6322 6.86195C39.8414 6.86195 40.0295 6.90048 40.1964 6.97755C40.3652 7.05278 40.5084 7.1592 40.6258 7.29682C40.7451 7.4326 40.8359 7.59315 40.8983 7.77848C40.9607 7.96196 40.9919 8.16105 40.9919 8.37573V8.43904C40.9919 8.65372 40.9607 8.8528 40.8983 9.03629C40.8359 9.21978 40.7451 9.38033 40.6258 9.51795C40.5084 9.65373 40.3662 9.76016 40.1992 9.83722C40.034 9.91245 39.8469 9.95007 39.6377 9.95007C39.4285 9.95007 39.2405 9.91245 39.0735 9.83722C38.9065 9.76016 38.7634 9.65373 38.6441 9.51795C38.5267 9.38033 38.4368 9.21978 38.3744 9.03629C38.312 8.8528 38.2808 8.65372 38.2808 8.43904ZM38.79 8.37573V8.43904C38.79 8.58766 38.8074 8.72803 38.8423 8.86014C38.8771 8.99042 38.9294 9.10602 38.9992 9.20694C39.0707 9.30786 39.1597 9.38767 39.2661 9.44639C39.3726 9.50327 39.4964 9.53171 39.6377 9.53171C39.7772 9.53171 39.8992 9.50327 40.0038 9.44639C40.1102 9.38767 40.1983 9.30786 40.268 9.20694C40.3377 9.10602 40.39 8.99042 40.4249 8.86014C40.4616 8.72803 40.4799 8.58766 40.4799 8.43904V8.37573C40.4799 8.22894 40.4616 8.09041 40.4249 7.96013C40.39 7.82802 40.3368 7.7115 40.2652 7.61058C40.1955 7.50783 40.1074 7.42709 40.001 7.36838C39.8964 7.30966 39.7735 7.2803 39.6322 7.2803C39.4928 7.2803 39.3698 7.30966 39.2634 7.36838C39.1588 7.42709 39.0707 7.50783 38.9992 7.61058C38.9294 7.7115 38.8771 7.82802 38.8423 7.96013C38.8074 8.09041 38.79 8.22894 38.79 8.37573ZM42.652 7.55278V9.89502H42.1428V6.917H42.6245L42.652 7.55278ZM42.5309 8.29316L42.319 8.2849C42.3208 8.08123 42.3511 7.89316 42.4098 7.72068C42.4685 7.54636 42.5511 7.39498 42.6575 7.26654C42.7639 7.1381 42.8905 7.03902 43.0373 6.96929C43.186 6.89773 43.3502 6.86195 43.53 6.86195C43.6768 6.86195 43.8089 6.88213 43.9263 6.9225C44.0438 6.96103 44.1438 7.02342 44.2263 7.10966C44.3108 7.1959 44.375 7.30783 44.419 7.44544C44.463 7.58122 44.4851 7.74728 44.4851 7.94362V9.89502H43.9731V7.93811C43.9731 7.78215 43.9502 7.65737 43.9043 7.56379C43.8585 7.46838 43.7915 7.39957 43.7034 7.35737C43.6153 7.31333 43.5071 7.29131 43.3786 7.29131C43.252 7.29131 43.1364 7.31792 43.0318 7.37113C42.9291 7.42434 42.8401 7.49774 42.7649 7.59132C42.6915 7.6849 42.6337 7.79224 42.5915 7.91334C42.5511 8.03261 42.5309 8.15921 42.5309 8.29316Z" fill="black"/>
<path d="M33.4207 15.2967L30.8662 22.3296H29.8222L32.7636 14.6131H33.4366L33.4207 15.2967ZM35.5619 22.3296L33.002 15.2967L32.9861 14.6131H33.6592L36.6112 22.3296H35.5619ZM35.4294 19.473V20.3104H31.0941V19.473H35.4294ZM38.4768 17.6975V24.5343H37.491V16.5952H38.392L38.4768 17.6975ZM42.3403 19.4147V19.526C42.3403 19.9429 42.2909 20.3298 42.1919 20.6866C42.093 21.04 41.9481 21.3474 41.7573 21.6088C41.5701 21.8703 41.3387 22.0734 41.0631 22.2183C40.7875 22.3632 40.4713 22.4356 40.1144 22.4356C39.7505 22.4356 39.429 22.3755 39.1498 22.2554C38.8707 22.1353 38.634 21.9604 38.4397 21.7307C38.2453 21.5011 38.0899 21.2255 37.9733 20.9039C37.8602 20.5824 37.7825 20.2203 37.7401 19.8175V19.2239C37.7825 18.7999 37.862 18.4201 37.9786 18.0844C38.0952 17.7488 38.2489 17.4626 38.4397 17.2259C38.634 16.9856 38.8689 16.8036 39.1445 16.68C39.4201 16.5528 39.7381 16.4892 40.0985 16.4892C40.4589 16.4892 40.7786 16.5599 41.0578 16.7012C41.3369 16.839 41.5719 17.0368 41.7626 17.2948C41.9534 17.5527 42.0965 17.8618 42.1919 18.2222C42.2909 18.5791 42.3403 18.9766 42.3403 19.4147ZM41.3546 19.526V19.4147C41.3546 19.1285 41.3245 18.86 41.2645 18.6091C41.2044 18.3547 41.1108 18.1321 40.9836 17.9413C40.8599 17.747 40.7009 17.5951 40.5066 17.4856C40.3123 17.3725 40.0808 17.316 39.8123 17.316C39.565 17.316 39.3495 17.3584 39.1657 17.4432C38.9855 17.528 38.8318 17.6428 38.7046 17.7876C38.5775 17.929 38.4732 18.0915 38.392 18.2752C38.3142 18.4554 38.2559 18.6427 38.2171 18.837V20.2097C38.2877 20.457 38.3867 20.6902 38.5139 20.9092C38.6411 21.1248 38.8106 21.2997 39.0226 21.4339C39.2346 21.5646 39.5014 21.63 39.8229 21.63C40.0879 21.63 40.3158 21.5752 40.5066 21.4657C40.7009 21.3527 40.8599 21.199 40.9836 21.0046C41.1108 20.8103 41.2044 20.5877 41.2645 20.3369C41.3245 20.0825 41.3546 19.8122 41.3546 19.526ZM44.5715 17.6975V24.5343H43.5858V16.5952H44.4868L44.5715 17.6975ZM48.4351 19.4147V19.526C48.4351 19.9429 48.3857 20.3298 48.2867 20.6866C48.1878 21.04 48.0429 21.3474 47.8521 21.6088C47.6649 21.8703 47.4335 22.0734 47.1579 22.2183C46.8823 22.3632 46.566 22.4356 46.2092 22.4356C45.8453 22.4356 45.5237 22.3755 45.2446 22.2554C44.9655 22.1353 44.7288 21.9604 44.5344 21.7307C44.3401 21.5011 44.1847 21.2255 44.0681 20.9039C43.955 20.5824 43.8773 20.2203 43.8349 19.8175V19.2239C43.8773 18.7999 43.9568 18.4201 44.0734 18.0844C44.19 17.7488 44.3437 17.4626 44.5344 17.2259C44.7288 16.9856 44.9637 16.8036 45.2393 16.68C45.5149 16.5528 45.8329 16.4892 46.1933 16.4892C46.5537 16.4892 46.8734 16.5599 47.1526 16.7012C47.4317 16.839 47.6666 17.0368 47.8574 17.2948C48.0482 17.5527 48.1913 17.8618 48.2867 18.2222C48.3857 18.5791 48.4351 18.9766 48.4351 19.4147ZM47.4494 19.526V19.4147C47.4494 19.1285 47.4193 18.86 47.3593 18.6091C47.2992 18.3547 47.2056 18.1321 47.0784 17.9413C46.9547 17.747 46.7957 17.5951 46.6014 17.4856C46.4071 17.3725 46.1756 17.316 45.9071 17.316C45.6598 17.316 45.4443 17.3584 45.2605 17.4432C45.0803 17.528 44.9266 17.6428 44.7994 17.7876C44.6722 17.929 44.568 18.0915 44.4868 18.2752C44.409 18.4554 44.3507 18.6427 44.3119 18.837V20.2097C44.3825 20.457 44.4815 20.6902 44.6086 20.9092C44.7358 21.1248 44.9054 21.2997 45.1174 21.4339C45.3294 21.5646 45.5962 21.63 45.9177 21.63C46.1827 21.63 46.4106 21.5752 46.6014 21.4657C46.7957 21.3527 46.9547 21.199 47.0784 21.0046C47.2056 20.8103 47.2992 20.5877 47.3593 20.3369C47.4193 20.0825 47.4494 19.8122 47.4494 19.526ZM55.5369 18.4872V21.312C55.4415 21.4534 55.2895 21.6123 55.0811 21.789C54.8726 21.9621 54.5847 22.1141 54.2172 22.2448C53.8533 22.372 53.3834 22.4356 52.8075 22.4356C52.3375 22.4356 51.9047 22.3543 51.509 22.1918C51.1168 22.0257 50.7759 21.7855 50.4861 21.471C50.2 21.153 49.9774 20.7679 49.8184 20.3157C49.6629 19.8599 49.5852 19.344 49.5852 18.7681V18.1692C49.5852 17.5933 49.6523 17.0792 49.7866 16.627C49.9244 16.1747 50.1258 15.7914 50.3907 15.4769C50.6557 15.1589 50.9808 14.9187 51.3659 14.7561C51.751 14.5901 52.1927 14.5071 52.6909 14.5071C53.2809 14.5071 53.7738 14.6095 54.1695 14.8144C54.5688 15.0158 54.8797 15.295 55.1023 15.6518C55.3284 16.0087 55.4733 16.415 55.5369 16.8708H54.514C54.4681 16.5917 54.3762 16.3373 54.2384 16.1076C54.1042 15.8779 53.9116 15.6942 53.6607 15.5564C53.4099 15.4151 53.0866 15.3444 52.6909 15.3444C52.334 15.3444 52.0249 15.4098 51.7634 15.5405C51.5019 15.6713 51.2864 15.8585 51.1168 16.1023C50.9472 16.3461 50.82 16.6411 50.7352 16.9874C50.654 17.3336 50.6133 17.724 50.6133 18.1586V18.7681C50.6133 19.2133 50.6646 19.6108 50.767 19.9606C50.873 20.3104 51.0232 20.6089 51.2175 20.8562C51.4118 21.1 51.6433 21.2855 51.9118 21.4127C52.1839 21.5399 52.4842 21.6035 52.8128 21.6035C53.1767 21.6035 53.4717 21.5735 53.6978 21.5134C53.924 21.4498 54.1006 21.3756 54.2278 21.2908C54.355 21.2025 54.4522 21.1195 54.5193 21.0417V19.314H52.7333V18.4872H55.5369ZM60.4657 21.3491V18.3971C60.4657 18.171 60.4198 17.9749 60.3279 17.8088C60.2396 17.6392 60.1053 17.5085 59.9251 17.4167C59.7449 17.3248 59.5223 17.2789 59.2573 17.2789C59.01 17.2789 58.7927 17.3213 58.6055 17.4061C58.4217 17.4909 58.2769 17.6022 58.1709 17.7399C58.0684 17.8777 58.0172 18.0261 58.0172 18.1851H57.0367C57.0367 17.9802 57.0897 17.777 57.1957 17.5757C57.3017 17.3743 57.4536 17.1923 57.6515 17.0298C57.8529 16.8637 58.0932 16.733 58.3723 16.6376C58.6549 16.5387 58.9694 16.4892 59.3156 16.4892C59.7326 16.4892 60.1 16.5599 60.418 16.7012C60.7395 16.8425 60.9904 17.0563 61.1706 17.3425C61.3543 17.6251 61.4462 17.9802 61.4462 18.4077V21.0788C61.4462 21.2696 61.4621 21.4728 61.4939 21.6883C61.5292 21.9038 61.5804 22.0893 61.6476 22.2448V22.3296H60.6247C60.5752 22.2165 60.5364 22.0664 60.5081 21.8791C60.4798 21.6883 60.4657 21.5117 60.4657 21.3491ZM60.6353 18.8529L60.6459 19.5419H59.6548C59.3757 19.5419 59.1266 19.5649 58.9076 19.6108C58.6885 19.6532 58.5048 19.7185 58.3564 19.8069C58.208 19.8952 58.0949 20.0065 58.0172 20.1408C57.9395 20.2715 57.9006 20.4252 57.9006 20.6018C57.9006 20.782 57.9412 20.9463 58.0225 21.0947C58.1038 21.2431 58.2256 21.3615 58.3882 21.4498C58.5542 21.5346 58.7574 21.577 58.9977 21.577C59.298 21.577 59.563 21.5134 59.7926 21.3862C60.0223 21.259 60.2042 21.1036 60.3385 20.9198C60.4763 20.7361 60.5505 20.5577 60.5611 20.3846L60.9798 20.8562C60.9551 21.0046 60.8879 21.1689 60.7784 21.3491C60.6689 21.5293 60.5222 21.7024 60.3385 21.8685C60.1583 22.031 59.9428 22.1671 59.6919 22.2766C59.4446 22.3826 59.1655 22.4356 58.8546 22.4356C58.4659 22.4356 58.125 22.3596 57.8317 22.2077C57.542 22.0558 57.3158 21.8526 57.1533 21.5982C56.9943 21.3403 56.9148 21.0523 56.9148 20.7343C56.9148 20.427 56.9749 20.1567 57.095 19.9235C57.2152 19.6867 57.3883 19.4907 57.6144 19.3352C57.8405 19.1762 58.1126 19.0561 58.4306 18.9748C58.7486 18.8935 59.1037 18.8529 59.4958 18.8529H60.6353ZM64.0537 14.1891V22.3296H63.0679V14.1891H64.0537ZM66.693 14.1891V22.3296H65.7072V14.1891H66.693ZM70.6467 22.4356C70.2474 22.4356 69.8852 22.3685 69.5602 22.2342C69.2387 22.0964 68.9613 21.9038 68.7281 21.6565C68.4985 21.4092 68.3218 21.1159 68.1981 20.7767C68.0745 20.4376 68.0126 20.0666 68.0126 19.6638V19.4412C68.0126 18.9748 68.0815 18.5597 68.2193 18.1957C68.3571 17.8283 68.5444 17.5174 68.7811 17.263C69.0178 17.0086 69.2864 16.816 69.5867 16.6853C69.887 16.5546 70.1979 16.4892 70.5195 16.4892C70.9293 16.4892 71.2826 16.5599 71.5794 16.7012C71.8797 16.8425 72.1253 17.0404 72.3161 17.2948C72.5069 17.5456 72.6482 17.8424 72.7401 18.1851C72.8319 18.5243 72.8779 18.8953 72.8779 19.2981V19.738H68.5956V18.9377H71.8974V18.8635C71.8833 18.6091 71.8303 18.3618 71.7384 18.1215C71.6501 17.8813 71.5088 17.6834 71.3144 17.528C71.1201 17.3725 70.8551 17.2948 70.5195 17.2948C70.2969 17.2948 70.0919 17.3425 69.9047 17.4379C69.7174 17.5297 69.5567 17.6675 69.4224 17.8512C69.2881 18.035 69.1839 18.2593 69.1097 18.5243C69.0355 18.7893 68.9984 19.0949 68.9984 19.4412V19.6638C68.9984 19.9358 69.0355 20.192 69.1097 20.4323C69.1874 20.669 69.2987 20.8774 69.4436 21.0576C69.592 21.2378 69.7704 21.3792 69.9789 21.4816C70.1909 21.5841 70.4311 21.6353 70.6997 21.6353C71.0459 21.6353 71.3392 21.5646 71.5794 21.4233C71.8197 21.282 72.0299 21.093 72.2101 20.8562L72.8037 21.3279C72.68 21.5152 72.5228 21.6936 72.332 21.8632C72.1412 22.0328 71.9062 22.1706 71.6271 22.2766C71.3515 22.3826 71.0247 22.4356 70.6467 22.4356ZM75.0031 17.4962V22.3296H74.0226V16.5952H74.9766L75.0031 17.4962ZM76.7944 16.5634L76.7891 17.475C76.7079 17.4573 76.6302 17.4467 76.556 17.4432C76.4853 17.4361 76.404 17.4326 76.3122 17.4326C76.086 17.4326 75.8864 17.4679 75.7133 17.5386C75.5402 17.6092 75.3935 17.7081 75.2734 17.8353C75.1533 17.9625 75.0579 18.1145 74.9872 18.2911C74.9201 18.4643 74.8759 18.655 74.8547 18.8635L74.5791 19.0225C74.5791 18.6762 74.6127 18.3512 74.6798 18.0473C74.7505 17.7435 74.8582 17.475 75.0031 17.2418C75.148 17.005 75.3317 16.8213 75.5543 16.6906C75.7804 16.5563 76.0489 16.4892 76.3599 16.4892C76.4305 16.4892 76.5118 16.498 76.6037 16.5157C76.6955 16.5298 76.7591 16.5457 76.7944 16.5634ZM79.4073 21.736L81.0025 16.5952H82.0519L79.7517 23.2147C79.6987 23.356 79.6281 23.5079 79.5398 23.6704C79.455 23.8365 79.3454 23.9937 79.2112 24.1421C79.0769 24.2905 78.9144 24.4107 78.7236 24.5025C78.5363 24.5979 78.312 24.6456 78.0505 24.6456C77.9728 24.6456 77.8738 24.635 77.7537 24.6138C77.6336 24.5926 77.5488 24.5749 77.4993 24.5608L77.494 23.7658C77.5223 23.7694 77.5665 23.7729 77.6265 23.7764C77.6901 23.7835 77.7343 23.787 77.759 23.787C77.9816 23.787 78.1706 23.757 78.3261 23.6969C78.4816 23.6404 78.6123 23.5432 78.7183 23.4055C78.8278 23.2712 78.9214 23.0857 78.9992 22.849L79.4073 21.736ZM78.236 16.5952L79.7252 21.047L79.9796 22.0805L79.2748 22.4409L77.1654 16.5952H78.236Z" fill="black"/>
</svg>
