<svg width="95" height="33" viewBox="0 0 95 33" fill="none" xmlns="http://www.w3.org/2000/svg">
<rect y="4.27441" width="93" height="28" rx="14" transform="rotate(-2.63428 0 4.27441)" fill="black"/>
<path d="M20.736 21.2573C20.7667 20.904 20.741 20.6001 20.6589 20.3458C20.5846 20.0912 20.4571 19.8702 20.2764 19.683C20.1032 19.4876 19.8921 19.3175 19.6429 19.1725C19.3935 19.0198 19.1133 18.8802 18.8025 18.7537C18.228 18.5064 17.6913 18.23 17.1924 17.9245C16.6934 17.6189 16.2471 17.268 15.8535 16.8716C15.4677 16.4749 15.1689 16.0154 14.9572 15.4934C14.7451 14.9635 14.647 14.3619 14.663 13.6886C14.6824 12.9213 14.8459 12.2255 15.1535 11.6013C15.4611 10.9772 15.8744 10.442 16.3935 9.99577C16.9123 9.54176 17.5024 9.19396 18.1638 8.95236C18.825 8.70296 19.5227 8.56919 20.257 8.55105C21.2804 8.52742 22.1504 8.73766 22.8669 9.18176C23.583 9.61806 24.127 10.2226 24.4988 10.9954C24.8781 11.76 25.0746 12.6308 25.0882 13.6078L21.7514 13.7496C21.7576 13.3739 21.7167 12.9965 21.6289 12.6173C21.5489 12.2378 21.3862 11.9324 21.141 11.7012C20.9032 11.4619 20.55 11.3491 20.0813 11.3629C19.6677 11.3819 19.3091 11.4923 19.0056 11.6939C18.7017 11.8878 18.4593 12.1453 18.2786 12.4664C18.0979 12.7876 17.9891 13.1445 17.9525 13.5372C17.9274 13.8434 17.9712 14.1151 18.0838 14.3524C18.2042 14.5893 18.3625 14.801 18.5588 14.9875C18.7625 15.1658 18.989 15.3274 19.2381 15.4724C19.4872 15.6173 19.735 15.735 19.9816 15.8253C20.5806 16.0949 21.1335 16.3823 21.6402 16.6875C22.1548 16.9923 22.5936 17.3514 22.9567 17.7648C23.3273 18.1701 23.6034 18.6462 23.785 19.1931C23.9744 19.7397 24.062 20.3691 24.0478 21.0815C24.0217 21.8726 23.8624 22.5759 23.5701 23.1916C23.2856 23.8069 22.8955 24.3371 22.3998 24.7822C21.9037 25.2195 21.3289 25.5588 20.6752 25.8001C20.0215 26.0413 19.3158 26.1715 18.5581 26.1907C17.7454 26.2047 17.0126 26.0859 16.3597 25.8344C15.7065 25.5751 15.1499 25.2057 14.6898 24.7264C14.2373 24.2388 13.89 23.6604 13.6481 22.9912C13.4057 22.3141 13.2899 21.5803 13.3004 20.79L16.6373 20.6482C16.6307 21.016 16.651 21.371 16.698 21.7129C16.745 22.0549 16.8447 22.3514 16.997 22.6024C17.1493 22.8535 17.3618 23.051 17.6343 23.1949C17.9068 23.3388 18.2616 23.4006 18.6986 23.3805C19.1123 23.3615 19.4634 23.2593 19.7521 23.074C20.0404 22.8808 20.2673 22.628 20.4328 22.3153C20.5982 22.0027 20.6993 21.65 20.736 21.2573ZM34.7671 8.11807L32.5896 25.2988L29.2533 25.4523L31.4308 8.27157L34.7671 8.11807ZM38.8643 7.92956L38.5035 10.7968L27.043 11.3241L27.4038 8.45685L38.8643 7.92956ZM48.773 21.7153L48.4 24.5714L41.2123 24.9021L41.5619 22.0471L48.773 21.7153ZM44.42 7.67395L42.2542 24.8541L38.9062 25.0082L41.0602 7.82853L44.42 7.67395ZM48.7413 14.3965L48.3879 17.1696L42.1484 17.4567L42.4901 14.6841L48.7413 14.3965ZM50.5541 7.39172L50.1816 10.2595L43.0056 10.5897L43.3781 7.72188L50.5541 7.39172ZM57.2152 18.1594L53.6325 18.3126L54.005 15.4447L57.2488 15.319C57.7635 15.2875 58.1987 15.1423 58.5544 14.8835C58.9097 14.6169 59.1798 14.2838 59.3648 13.8843C59.5572 13.4765 59.6774 13.0291 59.7253 12.5421C59.7556 12.1809 59.7419 11.7983 59.6843 11.3943C59.6266 10.9903 59.4855 10.6448 59.2612 10.358C59.0446 10.0707 58.7093 9.92192 58.2552 9.91153L55.7724 10.0023L53.9674 24.3152L50.6311 24.4687L52.7852 7.28907L58.276 7.04817C59.3154 7.03163 60.2017 7.25676 60.9348 7.72356C61.6754 8.18219 62.2287 8.81759 62.5945 9.62976C62.9682 10.4416 63.1352 11.3528 63.0957 12.3635C63.0463 13.4998 62.7634 14.4904 62.247 15.3354C61.7384 16.1799 61.0538 16.8527 60.1931 17.3538C59.332 17.847 58.3394 18.1155 57.2152 18.1594ZM78.8444 6.06664L76.7382 23.2676L73.5307 23.4151L75.1927 10.3288L71.8896 11.7126L72.2493 8.82189L78.4342 6.07378L78.8444 6.06664Z" fill="white"/>
</svg>
