<svg width="471" height="279" viewBox="0 0 471 279" fill="none" xmlns="http://www.w3.org/2000/svg">
    <path d="M0 98.0644C0 76.1566 0 65.2027 4.22629 56.7541C7.94507 49.32 13.8875 43.2292 21.2275 39.3281C29.5693 34.8946 40.5198 34.6244 62.4209 34.0838L405.421 25.6185C428.32 25.0533 439.77 24.7708 448.541 29.0508C456.254 32.8143 462.552 38.9588 466.505 46.5764C471 55.2395 471 66.6927 471 89.599V214.269C471 237.217 471 248.691 466.494 257.362C462.531 264.987 456.219 271.134 448.491 274.891C439.702 279.165 428.232 278.858 405.292 278.246L62.2921 269.09C40.432 268.506 29.502 268.214 21.1778 263.775C13.8529 259.869 7.92487 253.78 4.21549 246.354C0 237.914 0 226.98 0 205.112V98.0644Z" fill="#EA0F0F"/>
    <rect x="276.184" width="157" height="48" rx="24" transform="rotate(5 276.184 0)" fill="black"/>
    <path d="M310.926 24.5746L309.874 28.9292C309.579 30.1504 309.189 31.3867 308.703 32.6381C308.229 33.8906 307.605 35.0418 306.83 36.0916C306.069 37.1307 305.14 37.9376 304.042 38.5121C302.958 39.076 301.671 39.2692 300.18 39.0918C299.038 38.9683 298.109 38.6341 297.392 38.0891C296.687 37.5451 296.152 36.8689 295.787 36.0606C295.423 35.2523 295.194 34.3677 295.102 33.4068C295.009 32.4459 295.006 31.4751 295.092 30.4945C295.19 29.5032 295.337 28.569 295.531 27.692L296.584 23.3199C296.867 22.1094 297.256 20.8848 297.753 19.646C298.25 18.3956 298.874 17.2503 299.624 16.2101C300.385 15.1709 301.314 14.3699 302.41 13.8071C303.518 13.2452 304.817 13.053 306.307 13.2305C307.438 13.3529 308.355 13.6861 309.061 14.2301C309.766 14.7741 310.301 15.4503 310.665 16.2586C311.031 17.0552 311.26 17.9339 311.352 18.8949C311.446 19.8441 311.444 20.8085 311.346 21.7882C311.26 22.7688 311.12 23.6976 310.926 24.5746ZM304.945 29.2038L306.315 23.4301C306.361 23.1753 306.434 22.8112 306.534 22.3376C306.635 21.8524 306.721 21.3365 306.793 20.7898C306.865 20.2315 306.882 19.6978 306.845 19.1887C306.82 18.6689 306.705 18.2295 306.501 17.8705C306.298 17.4999 305.958 17.2878 305.481 17.2342C304.796 17.1273 304.224 17.2772 303.765 17.684C303.306 18.0909 302.929 18.6285 302.636 19.2968C302.343 19.9535 302.108 20.627 301.93 21.3172C301.751 22.0074 301.608 22.5771 301.498 23.0263L300.163 28.8031C300.117 29.0578 300.038 29.4273 299.925 29.9115C299.825 30.3851 299.738 30.9068 299.664 31.4768C299.592 32.0351 299.568 32.5742 299.593 33.094C299.619 33.6138 299.733 34.059 299.935 34.4296C300.151 34.7896 300.496 35.0081 300.972 35.085C301.645 35.1909 302.217 35.041 302.688 34.6351C303.159 34.2176 303.543 33.6689 303.837 32.9889C304.132 32.3088 304.363 31.6174 304.531 30.9144C304.71 30.2125 304.848 29.6423 304.945 29.2038ZM311.892 37.3461C311.963 36.5406 312.29 35.8928 312.874 35.4028C313.458 34.9128 314.153 34.6972 314.96 34.756C315.731 34.8117 316.358 35.1135 316.839 35.6615C317.322 36.1978 317.535 36.8517 317.479 37.6232C317.419 38.4414 317.092 39.0892 316.497 39.5665C315.914 40.0448 315.226 40.2551 314.431 40.1974C313.671 40.1426 313.043 39.8525 312.548 39.3268C312.054 38.7895 311.835 38.1293 311.892 37.3461ZM337.012 37.8498L335.989 41.8717L321.402 40.5956L322.301 36.9863L330.952 29.0617C331.48 28.5432 332.016 27.9902 332.562 27.4027C333.12 26.8045 333.61 26.1711 334.034 25.5023C334.469 24.8228 334.773 24.1083 334.945 23.3587C335.028 22.9425 335.082 22.459 335.107 21.9083C335.131 21.3576 335.04 20.8614 334.831 20.4196C334.623 19.9779 334.227 19.7257 333.645 19.663C332.898 19.5859 332.288 19.7678 331.815 20.2087C331.341 20.6495 330.969 21.2051 330.698 21.8755C330.44 22.5469 330.257 23.1603 330.149 23.7155L325.401 23.3354C325.637 21.8386 326.168 20.4793 326.992 19.2574C327.829 18.0366 328.876 17.093 330.134 16.4267C331.405 15.7497 332.833 15.4982 334.417 15.6721C335.839 15.8201 337.002 16.2453 337.905 16.9478C338.821 17.6396 339.454 18.5419 339.803 19.6548C340.154 20.7559 340.206 21.9838 339.958 23.3385C339.775 24.346 339.446 25.2818 338.971 26.146C338.495 27.0102 337.937 27.8142 337.295 28.558C336.654 29.3017 335.962 30.0176 335.219 30.7055C334.489 31.3944 333.771 32.0669 333.067 32.7228L328.676 37.1206L337.012 37.8498ZM359.66 32.7379L354.371 32.2752L355.344 28.6195L359.439 29.013C360.128 29.0616 360.747 28.9805 361.295 28.7696C361.844 28.5471 362.297 28.2044 362.655 27.7417C363.013 27.2789 363.269 26.7073 363.423 26.0267C363.557 25.4384 363.602 24.9189 363.559 24.4682C363.529 24.0067 363.356 23.627 363.041 23.3288C362.739 23.0201 362.268 22.8201 361.629 22.7289L358.741 22.4586L353.206 43.378L348.198 42.9398L354.824 17.828L362.212 18.492C363.284 18.6094 364.251 18.8527 365.112 19.2222C365.975 19.58 366.691 20.072 367.259 20.6982C367.841 21.3137 368.252 22.0555 368.494 22.9236C368.736 23.7917 368.766 24.7943 368.584 25.9312C368.377 27.2188 367.931 28.2797 367.247 29.1139C366.575 29.9373 365.721 30.5508 364.686 30.9543C363.662 31.3588 362.529 31.542 361.285 31.5038L359.66 32.7379ZM356.638 43.6783L349.984 43.0961L353.032 39.1103L357.251 39.497C357.942 39.5339 358.551 39.4226 359.08 39.163C359.608 38.9034 360.041 38.5295 360.378 38.0414C360.716 37.5416 360.961 36.9572 361.114 36.2883C361.225 35.8158 361.286 35.327 361.295 34.8219C361.305 34.3052 361.197 33.8605 360.97 33.4878C360.745 33.1034 360.319 32.8603 359.693 32.7585L355.177 32.3457L356.184 28.693L361.244 29.1533L361.975 30.6818C363.081 30.8139 363.955 31.1727 364.598 31.7583C365.253 32.3332 365.696 33.0543 365.926 33.9214C366.156 34.7884 366.184 35.7496 366.009 36.8048C365.759 38.4533 365.199 39.8159 364.328 40.8926C363.47 41.9586 362.379 42.7336 361.054 43.2177C359.731 43.6901 358.259 43.8436 356.638 43.6783ZM392.106 21.0898L385.445 46.1986L380.56 45.7712L377.563 28.3931L373.135 45.1216L368.127 44.6834L374.753 19.5716L379.656 20.0006L382.686 37.3992L387.116 20.6532L392.106 21.0898ZM401.269 36.3782L395.981 35.9156L396.954 32.2599L401.048 32.6534C401.738 32.702 402.357 32.6208 402.905 32.41C403.453 32.1874 403.907 31.8448 404.265 31.382C404.623 30.9193 404.879 30.3476 405.033 29.667C405.166 29.0788 405.212 28.5593 405.169 28.1085C405.139 27.6471 404.966 27.2673 404.651 26.9692C404.349 26.6604 403.878 26.4605 403.239 26.3693L400.351 26.099L394.815 47.0184L389.807 46.5802L396.433 21.4684L403.821 22.1324C404.893 22.2497 405.86 22.4931 406.722 22.8626C407.585 23.2204 408.3 23.7124 408.869 24.3385C409.45 24.9541 409.862 25.6959 410.104 26.564C410.345 27.4321 410.375 28.4346 410.193 29.5715C409.987 30.8592 409.541 31.9201 408.856 32.7542C408.184 33.5777 407.331 34.1912 406.295 34.5947C405.272 34.9992 404.138 35.1823 402.895 35.1441L401.269 36.3782ZM398.248 47.3186L391.593 46.7365L394.642 42.7507L398.86 43.1374C399.551 43.1743 400.161 43.063 400.689 42.8033C401.218 42.5437 401.651 42.1699 401.987 41.6817C402.325 41.1819 402.571 40.5976 402.723 39.9286C402.835 39.4561 402.895 38.9673 402.904 38.4623C402.914 37.9456 402.806 37.5008 402.58 37.1282C402.355 36.7438 401.929 36.5007 401.303 36.3988L396.786 35.986L397.794 32.3334L402.853 32.7937L403.584 34.3222C404.69 34.4542 405.565 34.8131 406.207 35.3987C406.863 35.9736 407.306 36.6946 407.536 37.5617C407.766 38.4288 407.793 39.39 407.619 40.4452C407.369 42.0937 406.808 43.4563 405.938 44.533C405.08 45.599 403.988 46.374 402.664 46.858C401.34 47.3304 399.868 47.484 398.248 47.3186Z" fill="white"/>
</svg>
