<svg width="58" height="269" viewBox="0 0 58 269" fill="none" xmlns="http://www.w3.org/2000/svg">
<path fill-rule="evenodd" clip-rule="evenodd" d="M8.70058 138.262C21.3504 173.61 33.8138 208.433 46.2797 243.262C46.4364 243.265 46.591 243.276 46.7476 243.278C47.1535 239.79 47.3652 236.201 48.0156 232.827C48.6815 229.374 49.995 226.31 52.7673 223.634C53.5407 228.885 54.4645 233.556 54.4862 238.208C54.497 240.369 54.3474 242.494 54.3297 244.654C54.2874 250.235 54.2451 255.816 54.2626 261.406C54.2753 264.103 54.5852 267.034 52.0514 267.939C49.6227 268.806 47.5288 266.844 45.7315 264.773C40.9658 259.28 36.2989 253.657 31.6026 248.069C29.0021 244.978 26.4176 241.873 23.8263 238.778C23.4088 238.283 22.9386 237.831 22.5757 237.283C21.632 235.867 21.1686 234.369 21.7643 232.906C22.405 231.331 23.6883 230.739 25.1894 231.338C26.6666 231.933 28.1837 232.847 29.4736 233.99C31.9323 236.163 34.2393 238.611 36.6171 240.941C37.4939 241.8 38.3954 242.627 39.766 243.169C38.7832 240.198 37.8403 237.216 36.8177 234.254C29.266 212.439 21.7988 190.601 14.0949 168.831C10.6697 159.146 6.76475 149.607 3.07773 140.008C2.21429 137.763 1.18875 135.554 0.534545 133.267C-0.652768 129.134 1.24915 126.676 4.76171 128.051C6.86792 128.878 9.0171 130.258 10.8739 131.895C15.2311 135.738 19.4352 139.876 23.6921 143.92C27.1131 147.172 30.3855 150.719 33.9584 153.647C37.3249 156.409 40.9161 158.886 44.5705 160.849C49.2568 163.367 51.6672 161.916 51.7738 156.342C51.8793 151.07 51.7381 145.576 50.7347 140.219C47.6583 123.817 44.2293 107.434 40.7319 91.06C35.9386 68.5986 27.6126 44.4116 21.5183 22.1353C20.8868 19.8244 16.3219 2.35996 16.7988 0.563352C18.8808 5.58343 27.6361 30.0899 29.56 35.2938C35.1827 50.4774 39.6176 65.9395 43.3391 81.5218C47.7033 99.7818 51.8981 118.073 55.8446 136.381C57.0834 142.136 57.4568 148.006 57.8711 153.78C58.0802 156.683 57.7767 159.634 57.1954 162.305C56.0148 167.721 52.4638 170.102 47.4583 169.083C45.6305 168.713 43.7584 167.926 41.9671 167.032C37.027 164.568 32.5354 160.964 28.2721 156.88C22.7417 151.579 17.2714 146.188 11.7564 140.859C10.8802 140.014 9.92448 139.304 8.69856 138.27L8.70058 138.262Z" fill="black"/>
</svg>
