<svg width="22" height="65" viewBox="0 0 22 65" fill="none" xmlns="http://www.w3.org/2000/svg">
<path fill-rule="evenodd" clip-rule="evenodd" d="M13.3732 50.4831C13.3738 49.4933 13.369 48.8061 13.3778 48.1193C13.5236 38.2243 13.7869 28.3281 13.7654 18.4332C13.7527 13.0608 13.2605 7.69349 12.9673 2.32705C12.9393 1.79745 12.8719 1.23059 12.6544 0.761397C12.5023 0.43184 12.0862 0.0928761 11.7401 0.0292684C11.493 -0.0181009 11.0411 0.324465 10.8873 0.605063C10.5866 1.16419 10.313 1.78961 10.2362 2.41355C10.0082 4.27868 9.70744 6.15988 9.74158 8.02758C9.99415 21.5877 9.11936 35.1287 8.77557 48.6772C8.76791 48.9821 8.69921 49.2876 8.52456 49.6535C7.38653 47.8802 6.24396 46.1769 4.61975 44.8267C3.08803 43.5512 2.11804 41.6853 0.521478 40.4578C0.399653 40.5201 0.275486 40.5845 0.15366 40.6467C0.246608 41.1939 0.3098 41.7516 0.436845 42.293C0.898889 44.2785 1.36327 46.2618 1.85956 48.2369C2.04162 48.9628 2.2205 49.7179 2.57 50.3692C4.66643 54.2951 6.7951 58.2038 8.95376 62.0929C9.31026 62.7377 9.81276 63.3411 10.3618 63.8351C12.2569 65.543 14.7038 65.0895 15.8767 62.807C16.393 61.8039 16.8252 60.7489 17.1833 59.6761C18.5702 55.5416 19.928 51.3951 21.2544 47.2432C21.4984 46.4836 21.6313 45.6623 21.6617 44.8676C21.705 43.7456 21.0984 42.9382 20.152 42.6391C19.1608 42.3252 18.3279 42.6372 17.7057 43.4204C17.2413 44.0067 16.8561 44.6629 16.48 45.3149C15.5957 46.8572 14.7402 48.4161 13.867 49.9654C13.819 50.05 13.7288 50.1131 13.3755 50.4809L13.3732 50.4831Z" fill="#EA0F0F"/>
</svg>
