<svg width="445" height="293" viewBox="0 0 445 293" fill="none" xmlns="http://www.w3.org/2000/svg">
    <path d="M0.953321 88.7141C-0.0730183 64.8346 -0.586188 52.8948 3.7887 43.835C7.63311 35.8737 14.0067 29.4104 21.9135 25.4551C30.9113 20.954 42.8571 21.3003 66.7487 21.9928L382.854 31.1558C404.668 31.7881 415.574 32.1043 423.879 36.55C431.186 40.462 437.098 46.5476 440.797 53.9654C445 62.3951 445 73.3064 445 95.1289V229C445 251.402 445 262.603 440.64 271.16C436.805 278.686 430.686 284.805 423.16 288.64C414.603 293 403.402 293 381 293H71.0418C49.4941 293 38.7202 293 30.3524 288.871C22.9875 285.238 16.9197 279.425 12.973 272.223C8.4888 264.04 8.02616 253.276 7.1009 231.748L0.953321 88.7141Z" fill="#EAEAE9"/>
    <rect x="268.776" y="0.543945" width="157" height="48" rx="24" transform="rotate(5 268.776 0.543945)" fill="#EA0F0F"/>
    <path d="M302.427 14.4006L295.868 39.5536L291.07 39.1338L296.149 20.0095L290.962 21.4085L292.073 17.1826L301.816 14.3295L302.427 14.4006ZM304.485 37.8901C304.555 37.0845 304.883 36.4368 305.467 35.9467C306.051 35.4567 306.746 35.2411 307.552 35.2999C308.324 35.3556 308.95 35.6575 309.432 36.2054C309.914 36.7417 310.128 37.3956 310.072 38.1671C310.012 38.9853 309.685 39.6331 309.09 40.1104C308.507 40.5888 307.818 40.7991 307.023 40.7413C306.263 40.6866 305.636 40.3964 305.141 39.8708C304.647 39.3335 304.428 38.6733 304.485 37.8901ZM332.03 27.613L330.978 31.9676C330.683 33.1887 330.293 34.425 329.807 35.6765C329.333 36.929 328.708 38.0801 327.934 39.1299C327.173 40.1691 326.243 40.9759 325.146 41.5505C324.062 42.1143 322.774 42.3076 321.284 42.1301C320.142 42.0067 319.213 41.6724 318.496 41.1274C317.79 40.5834 317.256 39.9073 316.891 39.099C316.526 38.2907 316.298 37.4061 316.206 36.4452C316.113 35.4842 316.11 34.5135 316.196 33.5328C316.294 32.5415 316.441 31.6074 316.635 30.7304L317.688 26.3582C317.97 25.1478 318.36 23.9232 318.856 22.6844C319.354 21.4339 319.978 20.2886 320.727 19.2484C321.489 18.2093 322.418 17.4083 323.514 16.8454C324.622 16.2836 325.921 16.0914 327.411 16.2688C328.541 16.3912 329.459 16.7245 330.164 17.2685C330.87 17.8125 331.405 18.4886 331.769 19.2969C332.135 20.0935 332.364 20.9723 332.456 21.9332C332.55 22.8825 332.547 23.8469 332.45 24.8265C332.364 25.8071 332.224 26.736 332.03 27.613ZM326.049 32.2421L327.419 26.4685C327.464 26.2137 327.537 25.8495 327.638 25.376C327.739 24.8908 327.825 24.3748 327.897 23.8282C327.969 23.2699 327.986 22.7362 327.948 22.227C327.923 21.7072 327.809 21.2678 327.605 20.9089C327.402 20.5382 327.062 20.3261 326.584 20.2726C325.9 20.1656 325.328 20.3155 324.869 20.7224C324.41 21.1292 324.033 21.6668 323.739 22.3352C323.447 22.9919 323.211 23.6653 323.033 24.3556C322.855 25.0458 322.711 25.6155 322.601 26.0647L321.267 31.8414C321.221 32.0962 321.142 32.4657 321.029 32.9499C320.928 33.4234 320.842 33.9452 320.768 34.5152C320.696 35.0735 320.672 35.6125 320.697 36.1323C320.722 36.6521 320.836 37.0973 321.039 37.468C321.255 37.828 321.6 38.0464 322.076 38.1233C322.749 38.2293 323.321 38.0793 323.792 37.6735C324.263 37.256 324.647 36.7072 324.941 36.0272C325.236 35.3472 325.467 34.6557 325.635 33.9528C325.814 33.2509 325.952 32.6807 326.049 32.2421ZM352.252 33.2818L346.964 32.8192L347.937 29.1635L352.031 29.557C352.721 29.6056 353.34 29.5244 353.888 29.3135C354.436 29.091 354.89 28.7484 355.248 28.2856C355.606 27.8229 355.862 27.2512 356.016 26.5706C356.149 25.9824 356.195 25.4629 356.152 25.0121C356.122 24.5507 355.949 24.1709 355.634 23.8728C355.332 23.564 354.861 23.364 354.222 23.2728L351.334 23.0025L345.798 43.9219L340.79 43.4838L347.416 18.372L354.804 19.036C355.876 19.1533 356.843 19.3967 357.705 19.7662C358.568 20.124 359.283 20.616 359.852 21.2421C360.433 21.8576 360.845 22.5995 361.087 23.4676C361.328 24.3357 361.358 25.3382 361.176 26.4751C360.97 27.7628 360.524 28.8237 359.839 29.6578C359.167 30.4813 358.314 31.0948 357.278 31.4983C356.255 31.9028 355.121 32.0859 353.878 32.0477L352.252 33.2818ZM349.231 44.2222L342.576 43.64L345.625 39.6542L349.843 40.041C350.534 40.0779 351.144 39.9665 351.673 39.7069C352.201 39.4473 352.634 39.0734 352.971 38.5853C353.308 38.0855 353.554 37.5011 353.706 36.8322C353.818 36.3597 353.879 35.8709 353.887 35.3659C353.897 34.8491 353.789 34.4044 353.563 34.0317C353.338 33.6474 352.912 33.4043 352.286 33.3024L347.769 32.8896L348.777 29.237L353.836 29.6973L354.567 31.2258C355.673 31.3578 356.548 31.7166 357.19 32.3022C357.846 32.8772 358.289 33.5982 358.519 34.4653C358.749 35.3324 358.776 36.2935 358.602 37.3487C358.352 38.9973 357.791 40.3599 356.921 41.4365C356.063 42.5025 354.972 43.2776 353.647 43.7616C352.323 44.234 350.851 44.3875 349.231 44.2222ZM384.699 21.6338L378.038 46.7425L373.152 46.3151L370.156 28.937L365.728 45.6655L360.719 45.2274L367.345 20.1155L372.249 20.5445L375.279 37.9432L379.708 21.1972L384.699 21.6338ZM393.862 36.9222L388.573 36.4595L389.546 32.8038L393.641 33.1973C394.331 33.2459 394.949 33.1648 395.497 32.9539C396.046 32.7314 396.499 32.3887 396.858 31.926C397.216 31.4633 397.472 30.8916 397.625 30.211C397.759 29.6227 397.804 29.1032 397.762 28.6525C397.731 28.1911 397.559 27.8113 397.244 27.5132C396.941 27.2044 396.471 27.0044 395.832 26.9132L392.944 26.6429L387.408 47.5623L382.4 47.1241L389.026 22.0123L396.414 22.6764C397.486 22.7937 398.453 23.0371 399.314 23.4065C400.177 23.7643 400.893 24.2563 401.462 24.8825C402.043 25.498 402.455 26.2398 402.696 27.1079C402.938 27.976 402.968 28.9786 402.786 30.1155C402.579 31.4031 402.133 32.464 401.449 33.2982C400.777 34.1216 399.923 34.7351 398.888 35.1386C397.864 35.5431 396.731 35.7263 395.487 35.6881L393.862 36.9222ZM390.84 47.8626L384.186 47.2804L387.234 43.2946L391.453 43.6813C392.144 43.7182 392.754 43.6069 393.282 43.3473C393.811 43.0877 394.243 42.7138 394.58 42.2257C394.918 41.7259 395.163 41.1415 395.316 40.4726C395.428 40.0001 395.488 39.5113 395.497 39.0062C395.507 38.4895 395.399 38.0448 395.173 37.6721C394.947 37.2877 394.522 37.0446 393.895 36.9428L389.379 36.53L390.387 32.8774L395.446 33.3376L396.177 34.8661C397.283 34.9982 398.157 35.357 398.8 35.9426C399.456 36.5175 399.898 37.2386 400.128 38.1057C400.358 38.9728 400.386 39.9339 400.211 40.9891C399.961 42.6376 399.401 44.0002 398.53 45.0769C397.672 46.1429 396.581 46.9179 395.257 47.402C393.933 47.8744 392.461 48.0279 390.84 47.8626Z" fill="white"/>
</svg>
