<svg width="63" height="60" viewBox="0 0 63 60" fill="none" xmlns="http://www.w3.org/2000/svg">
<path fill-rule="evenodd" clip-rule="evenodd" d="M21.7829 21.3232C21.6197 21.0707 21.4274 20.8323 21.2971 20.5631C20.9643 19.8623 20.6754 19.0942 21.3414 18.4353C22.0956 17.6847 22.8734 18.0266 23.6021 18.5206C24.0982 18.8574 24.5522 19.2982 25.101 19.4968C29.817 21.2019 34.0201 23.8198 38.1967 26.515C42.7447 29.447 47.3946 32.224 51.9323 35.1738C54.2841 36.701 54.0972 39.022 51.6008 40.3714C49.2336 41.6501 46.8276 42.8522 44.4168 44.0466C43.2436 44.6303 42.0504 44.7353 41.018 43.7968C40.5178 43.3438 40.0573 42.8425 39.6159 42.3283C36.0262 38.1677 32.4352 34.0133 28.8622 29.8361C26.4651 27.0308 24.1022 24.2025 21.7217 21.3806C21.7445 21.3652 21.7649 21.3461 21.7891 21.3244L21.7829 21.3232ZM43.2957 39.1609C44.1266 38.7318 44.9637 38.3039 46.15 37.6898C43.1509 35.8788 40.4949 34.2696 37.8351 32.6629C37.7415 32.7799 37.6504 32.9007 37.5568 33.0178C39.4177 35.0103 41.2787 37.0029 43.2919 39.1635L43.2957 39.1609Z" fill="black"/>
<path fill-rule="evenodd" clip-rule="evenodd" d="M18.1676 30.1071C19.0852 31.3174 20.1235 32.4342 21.1238 33.5776C22.2843 34.9049 23.4788 36.2062 24.6358 37.5383C25.1165 38.0898 25.3174 38.7438 24.9939 39.4632C24.6603 40.2009 24.0035 40.3804 23.2795 40.3874C22.8884 40.391 22.4952 40.3635 22.1044 40.3231C20.0069 40.1232 17.9057 39.9427 15.8108 39.7005C14.3041 39.526 12.7929 39.3334 11.3093 39.0212C9.28554 38.5964 8.78596 37.9826 8.60821 35.928C8.29742 32.3807 8.00299 28.831 7.72311 25.2812C7.56919 23.3259 7.79726 23.0255 9.80668 22.4351C12.6489 24.9849 15.8439 27.048 18.1611 30.1059L18.1676 30.1071ZM11.4278 36.138C13.1735 37.0174 18.4985 37.7945 20.6716 37.4902C17.2982 33.3684 13.1461 29.9729 10.7241 25.1076C11.3539 28.8109 11.714 32.4767 11.4261 36.1404L11.4278 36.138Z" fill="black"/>
</svg>
