<svg width="20" height="34" viewBox="0 0 20 34" fill="none" xmlns="http://www.w3.org/2000/svg">
<path fill-rule="evenodd" clip-rule="evenodd" d="M16.253 20.3844C17.5854 20.4678 19.0361 20.6311 19.3338 22.2398C19.6455 23.9332 18.2415 24.6246 17.0378 25.2125C12.2122 27.563 7.58402 30.5621 2.27718 30.6961C1.43403 31.515 1.55585 32.8477 0.0720844 33.2086C0.130076 30.2632 0.182252 27.4584 1.23141 24.8559C4.27293 17.3289 7.49266 9.87201 10.6809 2.40015C10.9761 1.70736 11.4431 1.02389 11.9852 0.510513C12.9722 -0.424857 14.194 -0.00150387 14.3216 1.32256C14.4015 2.1368 14.2548 3.00532 14.0831 3.83179C13.2221 7.90604 12.2988 11.9759 11.449 16.0513C11.1777 17.3509 11.0666 18.677 10.8507 20.2025C12.8458 20.2625 14.5549 20.28 16.253 20.3844ZM11.1706 23.1331C8.90296 22.8702 8.07599 21.8527 8.24292 19.4584C8.304 18.62 8.50362 17.7873 8.63691 16.9474C8.75099 16.2328 8.87208 15.5166 8.56221 14.6915C6.75153 19.4435 4.93387 24.1971 2.97822 29.3224C6.59322 27.3855 9.91588 25.6093 13.2345 23.8302C13.1902 23.6495 13.1389 23.4703 13.0947 23.2896C12.4523 23.2389 11.8054 23.2039 11.1665 23.1304L11.1706 23.1331Z" fill="black"/>
</svg>
