<svg width="222" height="81" viewBox="0 0 222 81" fill="none" xmlns="http://www.w3.org/2000/svg">
<path fill-rule="evenodd" clip-rule="evenodd" d="M192.638 24.5414C191.756 24.9103 190.891 25.3198 189.998 25.6423C138.683 43.7472 86.1044 57.3197 32.8943 68.5252C23.7404 70.4536 14.3468 71.1831 5.0836 72.6535C3.30336 72.9356 0.355459 72.5767 0.322464 75.2318C0.293517 77.9504 3.09547 77.7063 4.98355 77.7266C8.49822 77.766 12.0446 77.7084 15.5313 77.292C22.1897 76.4971 28.877 75.7088 35.445 74.4046C81.8655 65.16 127.819 54.1232 172.738 39.0899C180.686 36.4331 188.575 33.5962 196.501 30.8812C198.026 30.3563 199.606 29.971 201.159 29.5217C201.388 29.833 201.612 30.1383 201.848 30.4441C198.867 33.9731 196.079 37.6916 192.861 40.9955C182.065 52.0819 169.42 60.8676 156.461 69.2303C154.781 70.3158 153.099 71.4589 151.643 72.8153C149.555 74.7775 149.255 77.2009 150.562 79.09C151.942 81.0789 154.724 81.5718 157.303 79.945C161.691 77.1785 165.896 74.1363 170.273 71.3579C182.872 63.3891 195.438 55.3619 206.418 45.2136C210.831 41.1341 215.145 36.9023 219.156 32.4379C223.366 27.7539 222.618 24.7329 216.775 22.1268C204.72 16.7666 192.131 12.8617 179.522 9.05428C169.581 6.04783 159.512 3.46438 149.481 0.766697C145.126 -0.400782 142.205 0.583355 141.247 3.27776C140.251 6.07489 142.228 8.77073 146.766 10.2598C150.745 11.5673 154.814 12.566 158.845 13.702C170.123 16.8758 181.396 20.0551 192.669 23.2229C192.662 23.6663 192.656 24.0983 192.656 24.5361L192.638 24.5414Z" fill="#EA0F0F"/>
</svg>
