<svg width="59" height="55" viewBox="0 0 59 55" fill="none" xmlns="http://www.w3.org/2000/svg">
<path fill-rule="evenodd" clip-rule="evenodd" d="M26.132 26.6989C23.4978 22.9235 22.6388 18.9352 24.9447 14.7144C28.374 8.43666 35.6535 8.22557 39.4574 14.3142C40.2153 15.5267 40.8385 16.8927 41.2092 18.2718C41.8121 20.5157 42.1683 22.8231 42.6111 25.1069C42.7298 25.7062 42.7914 26.311 42.894 26.9987C44.8243 26.7797 46.3678 26.0763 47.4938 24.8086C48.5942 23.5689 49.5934 22.1847 50.3556 20.7117C53.3552 14.9227 55.0671 8.65332 56.7967 2.40014C56.9583 1.80697 56.722 0.85455 58.1396 0.712596C58.2642 1.87843 58.5233 3.03235 58.4917 4.17718C58.3728 8.98896 58.305 13.809 57.9561 18.6093C57.4316 25.8217 52.0006 31.8657 44.9145 33.4154C43.989 33.6161 43.0589 33.7933 42.1495 33.9765C41.7056 35.4003 41.3305 36.7067 40.8904 37.992C39.2454 42.7879 36.6148 46.9166 32.7133 50.1999C26.1088 55.7524 16.3918 56.2322 9.73368 51.1838C6.00598 48.3578 3.73052 44.4607 2.48638 40.0215C0.316557 32.2679 0.300085 24.4488 2.13494 16.6735C3.22461 12.0573 5.61229 8.07291 8.90885 4.69808C10.0045 3.57663 11.362 2.64428 12.7442 1.88295C13.8831 1.25913 15.2297 0.897194 16.5813 1.6686C14.6555 4.47146 12.6912 7.09705 10.9697 9.86847C5.17148 19.219 5.03087 29.2673 7.97227 39.5552C8.53138 41.5073 9.73326 43.3471 10.9186 45.0492C12.8198 47.7833 15.5711 49.196 18.9053 49.4159C21.6133 49.5957 24.2148 49.1487 26.5731 47.8203C32.0728 44.7289 35.0941 39.8499 36.6569 33.566C32.0902 32.5229 28.6298 30.2973 26.1256 26.7059L26.132 26.6989ZM34.2415 18.0729C33.8337 17.4981 32.8672 16.8098 32.3636 16.9404C31.6701 17.1221 31.0131 17.9502 30.6409 18.6594C30.34 19.2343 30.3346 20.0677 30.4568 20.7411C30.9374 23.4788 33.9945 26.1788 37.1731 26.6104C36.7838 23.5115 36.039 20.6084 34.2447 18.0694L34.2415 18.0729Z" fill="black"/>
</svg>
