<svg width="96" height="128" viewBox="0 0 96 128" fill="none" xmlns="http://www.w3.org/2000/svg">
<path fill-rule="evenodd" clip-rule="evenodd" d="M35.2834 65.855C36.04 66.5948 36.7497 67.3925 37.5624 68.0669C41.2089 71.0962 44.8438 74.1399 48.5545 77.0864C59.8663 86.0735 71.1283 95.122 81.9853 104.666C83.4278 105.934 84.8316 107.242 86.2649 108.518C86.5798 108.798 86.9358 109.027 87.4633 109.422C87.4943 107.338 86.9808 105.608 86.4674 103.91C85.2108 99.7398 83.8293 95.605 82.5056 91.4545C82.2497 90.6473 81.9446 89.8419 81.8049 89.0097C81.5169 87.2932 82.3367 85.8428 83.7959 85.3101C85.1882 84.8008 86.668 85.3247 87.5652 86.7738C88.0965 87.6327 88.5176 88.5757 88.8894 89.5204C91.3039 95.7012 93.3156 102.006 94.4237 108.568C94.7061 110.228 94.8809 111.966 94.7387 113.634C94.3461 118.25 92.0459 119.727 88.6724 120.069C85.237 120.417 81.8143 120.073 78.4051 119.698C73.8761 119.201 69.3601 118.603 64.8356 118.052C63.2274 117.856 61.7659 117.35 60.639 116.107C59.4787 114.827 59.3862 113.907 60.3153 112.2C60.5904 112.216 60.9495 112.345 61.2192 112.242C64.6599 110.897 68.1304 111.947 71.5721 112.152C74.8245 112.344 78.0584 112.843 81.3006 113.195C81.9037 113.26 82.5084 113.275 83.4932 113.335C82.8166 112.67 82.4072 112.237 81.9682 111.837C72.1015 102.866 61.6775 94.5788 51.1947 86.364C46.7975 82.9162 42.3276 79.5654 37.9392 76.1068C35.9488 74.536 34.0241 72.8657 32.1813 71.1241C31.2526 70.2457 30.4274 69.1842 29.8041 68.0659C28.2968 65.3676 29.0484 62.6497 31.6695 61.0203C33.8563 59.6605 36.3154 59.01 38.8143 58.5579C42.3587 57.9169 45.9186 57.3972 49.4682 56.7756C50.7832 56.5462 52.1293 56.3303 53.219 55.4666C53.4312 54.5291 52.9227 53.8637 52.4442 53.2683C51.0998 51.599 49.7543 49.9198 48.2739 48.3738C43.46 43.3386 38.0224 39.0171 32.5907 34.6884C25.5612 29.0877 18.0577 24.1822 10.5423 19.2878C8.22857 17.7797 5.966 16.19 3.72103 14.5787C2.81148 13.924 1.96346 13.1603 1.16826 12.3646C0.633116 11.828 -0.0483066 11.2134 0.50657 10.3076C0.863135 9.72385 1.54447 9.7478 2.64804 10.2998C2.7486 10.3494 2.84364 10.4095 2.94453 10.4623C18.2302 18.8181 32.5638 28.5878 45.7288 40.0423C48.8314 42.7417 51.7133 45.7057 54.5904 48.6536C55.7221 49.8134 56.7122 51.1701 57.5039 52.5868C59.259 55.7179 58.4228 58.8725 55.2607 60.5301C53.4451 61.4839 51.4056 62.1119 49.3981 62.5674C46.3302 63.2597 43.1917 63.6438 40.0962 64.226C38.5081 64.5262 36.9474 64.9663 35.3738 65.3447C35.3446 65.5136 35.3151 65.6792 35.286 65.8481L35.2834 65.855Z" fill="black"/>
<path fill-rule="evenodd" clip-rule="evenodd" d="M61.626 44.9108C61.3122 44.707 60.9745 44.5288 60.6812 44.2996C57.2047 41.5186 53.6453 38.8323 50.2812 35.9238C41.9866 28.7553 33.3897 22.0223 23.8746 16.5472C18.8405 13.6484 13.7009 10.9794 8.12692 9.26705C7.91279 9.20244 7.64617 9.17302 7.5034 9.03149C7.28679 8.81114 6.99336 8.48241 7.03189 8.24288C7.06489 8.01386 7.46647 7.68115 7.71934 7.67214C8.32655 7.64717 8.97527 7.67441 9.54196 7.86926C12.1411 8.77433 14.773 9.61301 17.2869 10.7192C24.8451 14.0394 31.8554 18.3344 38.4427 23.3062C43.0292 26.7679 47.4616 30.4345 51.926 34.058C55.1772 36.6959 57.9719 39.8081 60.6636 43.0104C61.0904 43.5181 61.469 44.0705 61.872 44.6038C61.7902 44.7084 61.7081 44.8096 61.6263 44.9141L61.626 44.9108Z" fill="black"/>
</svg>
