<svg width="93" height="31" viewBox="0 0 93 31" fill="none" xmlns="http://www.w3.org/2000/svg">
<path d="M85.3643 0.000100479H7.39023C7.10601 0.000100479 6.82519 0.000100479 6.54172 0.00164631C6.30442 0.00319215 6.06902 0.0076828 5.82945 0.0114624C5.30899 0.0175698 4.78975 0.0632295 4.27625 0.148045C3.76347 0.234706 3.26675 0.398088 2.80289 0.632664C2.33961 0.869224 1.91629 1.17661 1.5483 1.54367C1.17837 1.9097 0.87001 2.33278 0.63507 2.79664C0.399481 3.25958 0.236124 3.75566 0.150639 4.26775C0.0643409 4.77919 0.0179033 5.29653 0.0117426 5.81513C0.00454978 6.05211 0.00379019 6.28987 0 6.52688V24.3923C0.00379019 24.6323 0.00454978 24.8648 0.0117426 25.1048C0.0179052 25.6234 0.0643428 26.1407 0.150639 26.6521C0.235888 27.1645 0.399255 27.6609 0.63507 28.124C0.869903 28.5864 1.17831 29.0077 1.5483 29.3717C1.91489 29.7404 2.33849 30.048 2.80289 30.2828C3.26675 30.518 3.76341 30.6823 4.27625 30.7703C4.78984 30.8545 5.30902 30.9001 5.82945 30.907C6.06902 30.9122 6.30442 30.9153 6.54172 30.9153C6.82518 30.9168 7.10602 30.9168 7.39023 30.9168H85.3643C85.6429 30.9168 85.926 30.9168 86.2045 30.9153C86.4407 30.9153 86.6829 30.9122 86.9191 30.907C87.4385 30.9005 87.9567 30.8548 88.4693 30.7703C88.9837 30.6817 89.4822 30.5174 89.9483 30.2828C90.4123 30.0479 90.8355 29.7403 91.2018 29.3717C91.5708 29.0063 91.8799 28.5853 92.1176 28.124C92.3516 27.6606 92.5135 27.1642 92.5975 26.6521C92.6839 26.1407 92.732 25.6235 92.7413 25.1048C92.7443 24.8648 92.7443 24.6323 92.7443 24.3923C92.7504 24.1115 92.7504 23.8322 92.7504 23.5469V7.37074C92.7504 7.08769 92.7504 6.80691 92.7443 6.52688C92.7443 6.28987 92.7443 6.05211 92.7413 5.8151C92.732 5.29646 92.6839 4.77923 92.5975 4.26772C92.5132 3.75592 92.3514 3.25988 92.1176 2.79661C91.6392 1.86685 90.8805 1.11003 89.9483 0.632594C89.4822 0.398591 88.9837 0.235253 88.4693 0.147975C87.9568 0.0627862 87.4386 0.0171107 86.9191 0.0113542C86.6829 0.00758232 86.4407 0.00305302 86.2045 0.00154583C85.926 0 85.6429 0 85.3643 0V0.000100479Z" fill="#A6A6A6"/>
<path d="M6.54609 30.2404C6.30993 30.2404 6.07948 30.2373 5.84518 30.2321C5.3598 30.2258 4.87556 30.1836 4.39643 30.106C3.94966 30.0293 3.51686 29.8866 3.11231 29.6825C2.71146 29.4802 2.34586 29.2149 2.02951 28.8968C1.70857 28.5824 1.44138 28.2178 1.23852 27.8174C1.03342 27.4144 0.891483 26.9824 0.817646 26.5365C0.737908 26.0574 0.694767 25.573 0.688593 25.0873C0.683679 24.9243 0.677246 24.3816 0.677246 24.3816V6.52674C0.677246 6.52674 0.684098 5.99234 0.688632 5.83534C0.694543 5.35047 0.737434 4.86676 0.816933 4.38838C0.890906 3.94127 1.03296 3.50804 1.23816 3.10372C1.44028 2.70359 1.70599 2.33871 2.02499 2.02322C2.34363 1.70473 2.7104 1.43806 3.11193 1.23293C3.51555 1.02957 3.94753 0.887842 4.3934 0.812512C4.87411 0.734112 5.36003 0.691725 5.84709 0.685707L6.54647 0.67627H86.2013L86.909 0.686086C87.3917 0.691805 87.8732 0.733813 88.3495 0.811754C88.7999 0.88803 89.2363 1.03074 89.6446 1.2352C90.449 1.64859 91.1035 2.30261 91.5164 3.1056C91.7183 3.50714 91.8582 3.93683 91.9312 4.38008C92.0117 4.86238 92.0567 5.3499 92.0659 5.83874C92.0682 6.05763 92.0682 6.29275 92.0682 6.52674C92.0743 6.81659 92.0743 7.09247 92.0743 7.37061V23.5467C92.0743 23.8275 92.0743 24.1015 92.0682 24.3778C92.0682 24.6291 92.0682 24.8594 92.0652 25.0964C92.0561 25.5765 92.0119 26.0553 91.9327 26.529C91.8604 26.9781 91.7192 27.4134 91.5142 27.8197C91.3099 28.2158 91.0442 28.5772 90.727 28.8908C90.4103 29.2106 90.0441 29.4774 89.6423 29.6811C89.2352 29.8867 88.7994 30.0299 88.3495 30.106C87.8704 30.1841 87.3861 30.2262 86.9007 30.2321C86.6737 30.2373 86.4359 30.2404 86.2051 30.2404L85.3649 30.2419L6.54609 30.2404Z" fill="black"/>
<path d="M19.1975 15.6911C19.2059 15.0459 19.3777 14.4134 19.697 13.8523C20.0164 13.2912 20.4729 12.8198 21.0241 12.4819C20.6739 11.9832 20.212 11.5728 19.675 11.2833C19.138 10.9938 18.5407 10.8332 17.9306 10.8142C16.629 10.6779 15.3672 11.5908 14.7039 11.5908C14.0278 11.5908 13.0067 10.8277 11.907 10.8502C11.1957 10.8732 10.5025 11.0794 9.89497 11.4489C9.28739 11.8184 8.78616 12.3386 8.44011 12.9587C6.94108 15.5467 8.05922 19.3503 9.49516 21.4423C10.2136 22.4666 11.0532 23.6109 12.1519 23.5703C13.227 23.5259 13.6285 22.8867 14.9262 22.8867C16.2119 22.8867 16.5886 23.5703 17.7096 23.5445C18.8632 23.5259 19.5901 22.5156 20.2833 21.4815C20.7995 20.7516 21.1967 19.9449 21.4602 19.0913C20.79 18.8086 20.218 18.3354 19.8156 17.7308C19.4133 17.1261 19.1983 16.4167 19.1975 15.6911Z" fill="white"/>
<path d="M17.0805 9.43819C17.7095 8.68521 18.0194 7.71738 17.9443 6.74023C16.9833 6.84088 16.0957 7.29888 15.4581 8.02298C15.1465 8.37671 14.9077 8.78824 14.7556 9.23404C14.6035 9.67983 14.541 10.1512 14.5717 10.6211C15.0523 10.626 15.5279 10.5221 15.9624 10.3172C16.397 10.1123 16.7793 9.81177 17.0805 9.43819Z" fill="white"/>
<path d="M32.7868 20.977H29.118L28.2369 23.5712H26.683L30.158 13.9731H31.7725L35.2476 23.5712H33.6671L32.7868 20.977ZM29.498 19.7799H32.4061L30.9725 15.5696H30.9324L29.498 19.7799Z" fill="white"/>
<path d="M42.7531 20.0728C42.7531 22.2474 41.5859 23.6445 39.8245 23.6445C39.3783 23.6678 38.9346 23.5653 38.5441 23.3488C38.1536 23.1323 37.8322 22.8105 37.6166 22.4202H37.5832V25.8863H36.1428V16.5735H37.5371V17.7374H37.5636C37.7891 17.3491 38.116 17.0289 38.5094 16.8111C38.9029 16.5933 39.3482 16.4858 39.798 16.5003C41.579 16.5003 42.7531 17.9042 42.7531 20.0728ZM41.2725 20.0728C41.2725 18.656 40.5383 17.7246 39.418 17.7246C38.3175 17.7246 37.5772 18.6757 37.5772 20.0728C37.5772 21.4828 38.3175 22.427 39.418 22.427C40.5383 22.427 41.2725 21.5024 41.2725 20.0728Z" fill="white"/>
<path d="M50.4763 20.0728C50.4763 22.2474 49.3091 23.6445 47.5478 23.6445C47.1016 23.6678 46.6579 23.5653 46.2674 23.3488C45.8769 23.1322 45.5554 22.8104 45.3398 22.4202H45.3065V25.8863H43.8661V16.5735H45.2603V17.7374H45.2868C45.5123 17.3491 45.8392 17.0289 46.2327 16.8111C46.6261 16.5932 47.0715 16.4858 47.5213 16.5003C49.3023 16.5003 50.4763 17.9042 50.4763 20.0728ZM48.9958 20.0728C48.9958 18.656 48.2616 17.7246 47.1413 17.7246C46.0407 17.7246 45.3005 18.6757 45.3005 20.0728C45.3005 21.4828 46.0407 22.427 47.1413 22.427C48.2616 22.427 48.9958 21.5024 48.9958 20.0728H48.9958Z" fill="white"/>
<path d="M55.5813 20.8968C55.6881 21.8487 56.6153 22.4736 57.8824 22.4736C59.0965 22.4736 59.97 21.8486 59.97 20.9904C59.97 20.2454 59.4431 19.7993 58.1957 19.4936L56.9483 19.194C55.1809 18.7683 54.3604 17.944 54.3604 16.6065C54.3604 14.9505 55.8076 13.813 57.8627 13.813C59.8965 13.813 61.2908 14.9505 61.3377 16.6065H59.8837C59.7966 15.6487 59.0026 15.0705 57.8422 15.0705C56.6819 15.0705 55.8879 15.6555 55.8879 16.5069C55.8879 17.1855 56.395 17.5847 57.6356 17.8904L58.696 18.1501C60.6709 18.6158 61.4914 19.4068 61.4914 20.8107C61.4914 22.6064 60.057 23.7311 57.7756 23.7311C55.6411 23.7311 54.1999 22.6328 54.1068 20.8968L55.5813 20.8968Z" fill="white"/>
<path d="M64.5984 14.9175V16.5735H65.9329V17.711H64.5984V21.5688C64.5984 22.1681 64.8656 22.4474 65.4522 22.4474C65.6107 22.4446 65.7688 22.4335 65.9261 22.4142V23.5448C65.6623 23.594 65.3943 23.6162 65.126 23.6113C63.7053 23.6113 63.1512 23.0791 63.1512 21.722V17.711H62.1309V16.5735H63.1512V14.9175H64.5984Z" fill="white"/>
<path d="M66.7089 20.0726C66.7089 17.8709 68.0092 16.4873 70.0371 16.4873C72.0717 16.4873 73.366 17.8708 73.366 20.0726C73.366 22.2804 72.0785 23.6579 70.0371 23.6579C67.9964 23.6579 66.7089 22.2804 66.7089 20.0726ZM71.8983 20.0726C71.8983 18.5623 71.2042 17.6708 70.037 17.6708C68.8699 17.6708 68.1765 18.569 68.1765 20.0726C68.1765 21.589 68.8699 22.4736 70.037 22.4736C71.2042 22.4736 71.8983 21.589 71.8983 20.0726H71.8983Z" fill="white"/>
<path d="M74.5488 16.5735H75.9227V17.7645H75.956C76.0489 17.3925 76.2675 17.0638 76.5749 16.8336C76.8822 16.6033 77.2598 16.4856 77.6439 16.5002C77.8099 16.4997 77.9755 16.5176 78.1374 16.5538V17.8974C77.9279 17.8335 77.7093 17.8042 77.4902 17.8106C77.281 17.8021 77.0724 17.8389 76.8787 17.9184C76.6851 17.998 76.511 18.1183 76.3684 18.2713C76.2258 18.4242 76.118 18.6061 76.0526 18.8045C75.9872 19.0029 75.9656 19.2131 75.9893 19.4206V23.5712H74.5488L74.5488 16.5735Z" fill="white"/>
<path d="M84.7818 21.5158C84.588 22.7861 83.3474 23.6579 81.7602 23.6579C79.7187 23.6579 78.4517 22.294 78.4517 20.1058C78.4517 17.9109 79.7256 16.4873 81.6996 16.4873C83.6411 16.4873 84.8621 17.8173 84.8621 19.939V20.4311H79.9057V20.5179C79.8828 20.7755 79.9152 21.0349 80.0006 21.279C80.086 21.5232 80.2225 21.7464 80.401 21.9338C80.5796 22.1213 80.7961 22.2687 81.0361 22.3664C81.2762 22.464 81.5344 22.5096 81.7935 22.5001C82.1339 22.5319 82.4755 22.4532 82.7674 22.2759C83.0594 22.0986 83.2862 21.832 83.4141 21.5158L84.7818 21.5158ZM79.9125 19.4273H83.4209C83.4338 19.1957 83.3986 18.964 83.3175 18.7466C83.2363 18.5293 83.111 18.331 82.9494 18.1642C82.7878 17.9974 82.5933 17.8658 82.3782 17.7775C82.1632 17.6892 81.9321 17.6462 81.6996 17.6512C81.4651 17.6498 81.2325 17.6948 81.0155 17.7834C80.7984 17.8721 80.6011 18.0028 80.435 18.1679C80.2688 18.333 80.1371 18.5293 80.0474 18.7455C79.9578 18.9616 79.9119 19.1934 79.9125 19.4273V19.4273Z" fill="white"/>
<path d="M29.3193 6.7484C29.6213 6.72679 29.9243 6.77228 30.2066 6.8816C30.4888 6.99091 30.7432 7.16133 30.9513 7.38055C31.1595 7.59976 31.3163 7.86232 31.4104 8.14928C31.5045 8.43625 31.5336 8.74046 31.4955 9.03997C31.4955 10.5133 30.6969 11.3603 29.3193 11.3603H27.6488V6.7484H29.3193ZM28.3671 10.7081H29.2391C29.4549 10.7209 29.6708 10.6856 29.8712 10.6048C30.0716 10.5239 30.2514 10.3995 30.3975 10.2406C30.5436 10.0817 30.6523 9.89238 30.7158 9.6863C30.7792 9.48023 30.7958 9.26264 30.7643 9.04937C30.7935 8.83695 30.7753 8.62071 30.7108 8.41615C30.6464 8.21158 30.5374 8.02376 30.3917 7.86614C30.2459 7.70852 30.067 7.585 29.8677 7.50443C29.6684 7.42387 29.4538 7.38825 29.2391 7.40013H28.3671V10.7081Z" fill="white"/>
<path d="M32.307 9.61882C32.285 9.3901 32.3113 9.15933 32.384 8.94131C32.4567 8.72329 32.5744 8.52284 32.7293 8.35282C32.8843 8.18279 33.0732 8.04694 33.2839 7.95397C33.4946 7.86101 33.7225 7.81299 33.9529 7.81299C34.1833 7.81299 34.4112 7.86101 34.6219 7.95397C34.8326 8.04694 35.0215 8.18279 35.1765 8.35282C35.3315 8.52284 35.4491 8.72329 35.5218 8.94131C35.5945 9.15933 35.6208 9.3901 35.5988 9.61882C35.6212 9.84777 35.5953 10.0789 35.5227 10.2972C35.4502 10.5156 35.3326 10.7164 35.1776 10.8868C35.0226 11.0571 34.8336 11.1933 34.6226 11.2864C34.4117 11.3796 34.1836 11.4277 33.9529 11.4277C33.7222 11.4277 33.4941 11.3796 33.2832 11.2864C33.0723 11.1933 32.8832 11.0571 32.7282 10.8868C32.5732 10.7164 32.4556 10.5156 32.3831 10.2972C32.3105 10.0789 32.2846 9.84777 32.307 9.61882ZM34.8904 9.61882C34.8904 8.86439 34.5505 8.42321 33.954 8.42321C33.3553 8.42321 33.0185 8.86439 33.0185 9.61882C33.0185 10.3793 33.3553 10.8171 33.954 10.8171C34.5505 10.8171 34.8904 10.3763 34.8904 9.61882H34.8904Z" fill="white"/>
<path d="M39.9739 11.3608H39.2594L38.5381 8.79745H38.4836L37.7652 11.3608H37.0575L36.0955 7.88037H36.7941L37.4193 10.5361H37.4708L38.1884 7.88037H38.8492L39.5667 10.5361H39.6212L40.2434 7.88037H40.9322L39.9739 11.3608Z" fill="white"/>
<path d="M41.741 7.88018H42.404V8.43307H42.4555C42.5428 8.23449 42.6901 8.06803 42.8768 7.95688C43.0635 7.84573 43.2803 7.79543 43.497 7.813C43.6669 7.80026 43.8374 7.8258 43.996 7.88771C44.1545 7.94961 44.2971 8.04631 44.4131 8.17063C44.5292 8.29495 44.6156 8.4437 44.6662 8.60588C44.7167 8.76805 44.73 8.93948 44.7051 9.10748V11.3605H44.0163V9.27996C44.0163 8.72066 43.7726 8.44251 43.2631 8.44251C43.1478 8.43715 43.0327 8.45672 42.9257 8.49987C42.8187 8.54303 42.7223 8.60874 42.6432 8.69251C42.564 8.77629 42.504 8.87613 42.4671 8.98522C42.4303 9.0943 42.4176 9.21003 42.4298 9.32449V11.3606H41.741L41.741 7.88018Z" fill="white"/>
<path d="M45.8049 6.52148H46.4937V11.3605H45.8049V6.52148Z" fill="white"/>
<path d="M47.4506 9.61888C47.4287 9.39014 47.455 9.15936 47.5277 8.94134C47.6005 8.72331 47.7181 8.52286 47.8731 8.35283C48.0281 8.18279 48.217 8.04694 48.4277 7.95397C48.6385 7.86101 48.8663 7.81299 49.0968 7.81299C49.3272 7.81299 49.5551 7.86101 49.7658 7.95397C49.9765 8.04694 50.1654 8.18279 50.3204 8.35283C50.4754 8.52286 50.593 8.72331 50.6658 8.94134C50.7385 9.15936 50.7648 9.39014 50.7429 9.61888C50.7652 9.84785 50.7393 10.0789 50.6667 10.2973C50.5941 10.5157 50.4766 10.7165 50.3215 10.8868C50.1665 11.0572 49.9774 11.1933 49.7665 11.2865C49.5556 11.3796 49.3275 11.4278 49.0968 11.4278C48.8661 11.4278 48.6379 11.3796 48.427 11.2865C48.2161 11.1933 48.027 11.0572 47.872 10.8868C47.717 10.7165 47.5994 10.5157 47.5268 10.2973C47.4543 10.0789 47.4283 9.84785 47.4506 9.61888ZM50.034 9.61888C50.034 8.86446 49.6942 8.42328 49.0977 8.42328C48.499 8.42328 48.1622 8.86446 48.1622 9.61889C48.1622 10.3794 48.499 10.8171 49.0977 10.8171C49.6942 10.8171 50.034 10.3763 50.034 9.61888H50.034Z" fill="white"/>
<path d="M51.4675 10.3763C51.4675 9.7498 51.9353 9.38863 52.7656 9.33731L53.7111 9.28296V8.98255C53.7111 8.61496 53.4673 8.40739 52.9965 8.40739C52.612 8.40739 52.3456 8.54816 52.2691 8.79423H51.6023C51.6727 8.19643 52.2366 7.81299 53.0283 7.81299C53.9033 7.81299 54.3968 8.24737 54.3968 8.98255V11.3606H53.7338V10.8714H53.6793C53.5686 11.0469 53.4133 11.1899 53.2291 11.2859C53.045 11.3819 52.8385 11.4275 52.6309 11.4179C52.4844 11.4331 52.3363 11.4175 52.1962 11.3721C52.0561 11.3268 51.9271 11.2526 51.8175 11.1545C51.7079 11.0564 51.6201 10.9364 51.5598 10.8024C51.4995 10.6683 51.4681 10.5232 51.4675 10.3763ZM53.7111 10.0789V9.78792L52.8588 9.84227C52.3781 9.87434 52.1601 10.0374 52.1601 10.3442C52.1601 10.6574 52.4326 10.8397 52.8073 10.8397C52.9171 10.8508 53.028 10.8398 53.1334 10.8072C53.2388 10.7747 53.3366 10.7214 53.4209 10.6504C53.5052 10.5794 53.5744 10.4922 53.6242 10.394C53.6741 10.2959 53.7036 10.1887 53.7111 10.0789Z" fill="white"/>
<path d="M55.301 9.61883C55.301 8.51908 55.868 7.8224 56.7498 7.8224C56.9679 7.81237 57.1844 7.86447 57.3739 7.9726C57.5634 8.08073 57.7182 8.24042 57.8201 8.433H57.8715V6.52148H58.5603V11.3605H57.9003V10.8106H57.8458C57.7361 11.0019 57.5759 11.1596 57.3827 11.2667C57.1895 11.3737 56.9706 11.426 56.7498 11.4179C55.8619 11.4179 55.301 10.7212 55.301 9.61883ZM56.0126 9.61883C56.0126 10.357 56.3615 10.8012 56.9451 10.8012C57.5256 10.8012 57.8844 10.3506 57.8844 9.62185C57.8844 8.89648 57.5219 8.43945 56.9451 8.43945C56.3653 8.43945 56.0125 8.88667 56.0125 9.61883H56.0126Z" fill="white"/>
<path d="M61.4111 9.61882C61.3892 9.3901 61.4154 9.15933 61.4881 8.94131C61.5609 8.72329 61.6785 8.52284 61.8335 8.35282C61.9884 8.18279 62.1773 8.04694 62.388 7.95397C62.5988 7.86101 62.8266 7.81299 63.057 7.81299C63.2874 7.81299 63.5153 7.86101 63.726 7.95397C63.9367 8.04694 64.1256 8.18279 64.2806 8.35282C64.4356 8.52284 64.5532 8.72329 64.6259 8.94131C64.6987 9.15933 64.7249 9.3901 64.703 9.61882C64.7253 9.84777 64.6994 10.0789 64.6269 10.2972C64.5543 10.5156 64.4368 10.7164 64.2817 10.8868C64.1267 11.0571 63.9377 11.1933 63.7268 11.2864C63.5159 11.3796 63.2877 11.4277 63.057 11.4277C62.8264 11.4277 62.5982 11.3796 62.3873 11.2864C62.1764 11.1933 61.9873 11.0571 61.8323 10.8868C61.6773 10.7164 61.5598 10.5156 61.4872 10.2972C61.4147 10.0789 61.3887 9.84777 61.4111 9.61882ZM63.9945 9.61882C63.9945 8.86439 63.6546 8.42321 63.0582 8.42321C62.4594 8.42321 62.1226 8.86439 62.1226 9.61882C62.1226 10.3793 62.4595 10.8171 63.0582 10.8171C63.6546 10.8171 63.9945 10.3763 63.9945 9.61882Z" fill="white"/>
<path d="M65.6272 7.88018H66.2903V8.43307H66.3417C66.4291 8.23449 66.5763 8.06803 66.763 7.95688C66.9497 7.84573 67.1665 7.79543 67.3833 7.813C67.5531 7.80026 67.7236 7.8258 67.8822 7.88771C68.0408 7.94961 68.1834 8.04631 68.2994 8.17063C68.4154 8.29495 68.5019 8.4437 68.5524 8.60588C68.6029 8.76805 68.6162 8.93948 68.5913 9.10748V11.3605H67.9025V9.27996C67.9025 8.72066 67.6588 8.44251 67.1494 8.44251C67.0341 8.43715 66.919 8.45672 66.812 8.49987C66.705 8.54303 66.6086 8.60874 66.5294 8.69251C66.4503 8.77629 66.3902 8.87613 66.3534 8.98522C66.3165 9.0943 66.3038 9.21003 66.316 9.32449V11.3606H65.6272V7.88018Z" fill="white"/>
<path d="M72.4841 7.01367V7.89603H73.2403V8.47459H72.4841V10.2642C72.4841 10.6288 72.6347 10.7884 72.9776 10.7884C73.0654 10.7882 73.1531 10.7829 73.2403 10.7726V11.3447C73.1166 11.3668 72.9912 11.3785 72.8656 11.3798C72.0996 11.3798 71.7945 11.1111 71.7945 10.4401V8.47456H71.2405V7.896H71.7945V7.01367H72.4841Z" fill="white"/>
<path d="M74.1804 6.52148H74.8632V8.43944H74.9177C75.0092 8.23901 75.1605 8.0716 75.351 7.96003C75.5414 7.84846 75.7617 7.79816 75.9819 7.81597C76.1508 7.80681 76.3197 7.83493 76.4765 7.89834C76.6332 7.96176 76.7741 8.05889 76.8889 8.18282C77.0037 8.30675 77.0896 8.45441 77.1406 8.61528C77.1916 8.77616 77.2064 8.94626 77.1839 9.11348V11.3605H76.4944V9.28292C76.4944 8.72701 76.2347 8.44547 75.748 8.44547C75.6297 8.43579 75.5106 8.45202 75.3991 8.49302C75.2877 8.53403 75.1866 8.59882 75.1029 8.68287C75.0192 8.76691 74.9549 8.86818 74.9145 8.97959C74.8742 9.09099 74.8587 9.20985 74.8692 9.32783V11.3605H74.1804L74.1804 6.52148Z" fill="white"/>
<path d="M81.1977 10.4209C81.1041 10.739 80.9013 11.0141 80.6249 11.1982C80.3484 11.3823 80.0158 11.4635 79.6854 11.4278C79.4554 11.4338 79.2269 11.3899 79.0157 11.2991C78.8045 11.2082 78.6156 11.0727 78.4622 10.9017C78.3088 10.7308 78.1946 10.5287 78.1274 10.3093C78.0602 10.0899 78.0417 9.85859 78.0731 9.63137C78.0425 9.40344 78.0613 9.17162 78.1284 8.95159C78.1954 8.73156 78.3091 8.52847 78.4617 8.35605C78.6142 8.18363 78.8022 8.04592 79.0128 7.95224C79.2234 7.85855 79.4517 7.81109 79.6823 7.81305C80.6535 7.81305 81.2393 8.47466 81.2393 9.56757V9.80724H78.7748V9.84573C78.764 9.97346 78.7801 10.102 78.822 10.2232C78.864 10.3443 78.9309 10.4554 79.0184 10.5493C79.1059 10.6432 79.2121 10.7178 79.3302 10.7683C79.4483 10.8188 79.5758 10.8442 79.7043 10.8428C79.869 10.8625 80.036 10.8329 80.1838 10.7578C80.3317 10.6827 80.4538 10.5654 80.5346 10.4209L81.1977 10.4209ZM78.7748 9.29925H80.5376C80.5463 9.18244 80.5304 9.06511 80.4909 8.9548C80.4514 8.84449 80.3892 8.74364 80.3083 8.65873C80.2274 8.57382 80.1296 8.50673 80.0211 8.46176C79.9126 8.4168 79.796 8.39496 79.6785 8.39764C79.5594 8.39615 79.4412 8.41845 79.3308 8.46324C79.2205 8.50803 79.1202 8.57439 79.036 8.65842C78.9518 8.74244 78.8853 8.84243 78.8404 8.95249C78.7955 9.06255 78.7732 9.18046 78.7748 9.29925H78.7748Z" fill="white"/>
</svg>
