<svg width="105" height="31" viewBox="0 0 105 31" fill="none" xmlns="http://www.w3.org/2000/svg">
<g clip-path="url(#clip0_1_1697)">
<path d="M100.957 30.9158H4.60425C2.44594 30.9158 0.750122 29.1381 0.750122 27.0512V3.86362C0.750122 1.69945 2.52302 -0.000976562 4.60425 -0.000976562H100.957C103.116 -0.000976562 104.812 1.77674 104.812 3.86362V27.0512C104.812 29.1381 103.116 30.9158 100.957 30.9158Z" fill="black"/>
<path d="M100.958 0.61736C102.731 0.61736 104.195 2.08591 104.195 3.86362V27.0512C104.195 28.8289 102.731 30.2975 100.958 30.2975H4.60449C2.83159 30.2975 1.36703 28.8289 1.36703 27.0512V3.86362C1.36703 2.08591 2.83159 0.61736 4.60449 0.61736H100.958ZM100.958 -0.000976562H4.60449C2.44618 -0.000976562 0.750366 1.77674 0.750366 3.86362V27.0512C0.750366 29.2154 2.52326 30.9158 4.60449 30.9158H100.958C103.116 30.9158 104.812 29.1381 104.812 27.0512V3.86362C104.812 1.77674 103.116 -0.000976562 100.958 -0.000976562Z" fill="#A6A6A6"/>
<path d="M37.2893 7.88267C37.2893 8.501 37.1351 9.04205 36.7497 9.42851C36.2872 9.89226 35.7476 10.1241 35.0539 10.1241C34.3601 10.1241 33.8205 9.89226 33.358 9.42851C32.8956 8.96476 32.6643 8.42371 32.6643 7.72808C32.6643 7.03246 32.8956 6.49141 33.358 6.02766C33.8205 5.56391 34.3601 5.33203 35.0539 5.33203C35.3622 5.33203 35.6705 5.40932 35.9789 5.56391C36.2872 5.71849 36.5184 5.87308 36.6726 6.10495L36.2872 6.49141C35.9789 6.10495 35.5934 5.95037 35.0539 5.95037C34.5914 5.95037 34.1289 6.10495 33.8205 6.49141C33.4351 6.80058 33.281 7.26433 33.281 7.80538C33.281 8.34642 33.4351 8.81017 33.8205 9.11934C34.206 9.42851 34.5914 9.66038 35.0539 9.66038C35.5934 9.66038 35.9789 9.5058 36.3643 9.11934C36.5955 8.88746 36.7497 8.5783 36.7497 8.19184H35.0539V7.65079H37.2893C37.2893 7.65079 37.2893 7.80538 37.2893 7.88267Z" fill="white" stroke="#15151D" stroke-width="0.15678" stroke-miterlimit="10"/>
<path d="M40.8358 5.95022H38.7546V7.41877H40.6817V7.95981H38.7546V9.42836H40.8358V10.0467H38.1379V5.40918H40.8358V5.95022Z" fill="white" stroke="#15151D" stroke-width="0.15678" stroke-miterlimit="10"/>
<path d="M43.379 10.0467H42.7623V5.95022H41.4519V5.40918H44.6894V5.95022H43.379V10.0467Z" fill="white" stroke="#15151D" stroke-width="0.15678" stroke-miterlimit="10"/>
<path d="M46.9236 10.0467V5.40918H47.5407V10.0467H46.9236Z" fill="white" stroke="#15151D" stroke-width="0.15678" stroke-miterlimit="10"/>
<path d="M50.1607 10.0467H49.544V5.95022H48.2336V5.40918H51.394V5.95022H50.0836V10.0467H50.1607Z" fill="white" stroke="#15151D" stroke-width="0.15678" stroke-miterlimit="10"/>
<path d="M57.4845 9.42851C57.022 9.89226 56.4825 10.1241 55.7887 10.1241C55.095 10.1241 54.5554 9.89226 54.0929 9.42851C53.6304 8.96476 53.3992 8.42371 53.3992 7.72808C53.3992 7.03246 53.6304 6.49141 54.0929 6.02766C54.5554 5.56391 55.095 5.33203 55.7887 5.33203C56.4825 5.33203 57.022 5.56391 57.4845 6.02766C57.947 6.49141 58.1783 7.03246 58.1783 7.72808C58.1783 8.42371 57.947 8.96476 57.4845 9.42851ZM54.5554 9.04205C54.8637 9.35122 55.3262 9.58309 55.7887 9.58309C56.2512 9.58309 56.7137 9.42851 57.022 9.04205C57.3304 8.73288 57.5616 8.26913 57.5616 7.72808C57.5616 7.18704 57.4075 6.72329 57.022 6.41412C56.7137 6.10495 56.2512 5.87308 55.7887 5.87308C55.3262 5.87308 54.8637 6.02766 54.5554 6.41412C54.2471 6.72329 54.0158 7.18704 54.0158 7.72808C54.0158 8.26913 54.17 8.73288 54.5554 9.04205Z" fill="white" stroke="#15151D" stroke-width="0.15678" stroke-miterlimit="10"/>
<path d="M59.0256 10.0467V5.40918H59.7194L61.9548 9.0419V8.1144V5.40918H62.5714V10.0467H61.9548L59.5652 6.25939V7.18689V10.0467H59.0256Z" fill="white" stroke="#15151D" stroke-width="0.15678" stroke-miterlimit="10"/>
<path d="M53.2453 16.8485C51.3953 16.8485 49.9307 18.2398 49.9307 20.1721C49.9307 22.0271 51.3953 23.4957 53.2453 23.4957C55.0952 23.4957 56.5598 22.1044 56.5598 20.1721C56.5598 18.1625 55.0952 16.8485 53.2453 16.8485ZM53.2453 22.1044C52.2432 22.1044 51.3953 21.2542 51.3953 20.0948C51.3953 18.9354 52.2432 18.0852 53.2453 18.0852C54.2473 18.0852 55.0952 18.8581 55.0952 20.0948C55.0952 21.2542 54.2473 22.1044 53.2453 22.1044ZM46.0766 16.8485C44.2266 16.8485 42.762 18.2398 42.762 20.1721C42.762 22.0271 44.2266 23.4957 46.0766 23.4957C47.9266 23.4957 49.3911 22.1044 49.3911 20.1721C49.3911 18.1625 47.9266 16.8485 46.0766 16.8485ZM46.0766 22.1044C45.0745 22.1044 44.2266 21.2542 44.2266 20.0948C44.2266 18.9354 45.0745 18.0852 46.0766 18.0852C47.0787 18.0852 47.9266 18.8581 47.9266 20.0948C47.9266 21.2542 47.0787 22.1044 46.0766 22.1044ZM37.5204 17.8533V19.2446H40.835C40.7579 20.0175 40.4496 20.6359 40.0642 21.0223C39.6017 21.4861 38.8308 22.0271 37.5204 22.0271C35.4392 22.0271 33.8976 20.404 33.8976 18.3171C33.8976 16.2302 35.5163 14.6071 37.5204 14.6071C38.5996 14.6071 39.4475 15.0708 40.0642 15.6119L41.0662 14.6071C40.2183 13.8342 39.1392 13.2158 37.5975 13.2158C34.8225 13.2158 32.433 15.5346 32.433 18.3171C32.433 21.0996 34.8225 23.4184 37.5975 23.4184C39.1392 23.4184 40.2183 22.9546 41.1433 21.9498C42.0683 21.0223 42.3766 19.7083 42.3766 18.7036C42.3766 18.3944 42.3766 18.0852 42.2995 17.8533H37.5204ZM72.5159 18.9354C72.2076 18.1625 71.4367 16.8485 69.7409 16.8485C68.0451 16.8485 66.6576 18.1625 66.6576 20.1721C66.6576 22.0271 68.0451 23.4957 69.8951 23.4957C71.3597 23.4957 72.2846 22.5682 72.593 22.0271L71.5138 21.2542C71.1284 21.7952 70.6659 22.1817 69.8951 22.1817C69.1243 22.1817 68.6618 21.8725 68.2764 21.1769L72.6701 19.3219L72.5159 18.9354ZM68.0451 20.0175C68.0451 18.7808 69.0472 18.0852 69.7409 18.0852C70.2805 18.0852 70.8201 18.3944 70.9742 18.7808L68.0451 20.0175ZM64.4222 23.1865H65.8868V13.525H64.4222V23.1865ZM62.1098 17.5442C61.7243 17.1577 61.1077 16.7713 60.3369 16.7713C58.7181 16.7713 57.1765 18.2398 57.1765 20.0948C57.1765 21.9498 58.641 23.3411 60.3369 23.3411C61.1077 23.3411 61.7243 22.9546 62.0327 22.5682H62.1098V23.0319C62.1098 24.2686 61.416 24.9642 60.3369 24.9642C59.4889 24.9642 58.8723 24.3459 58.7181 23.8048L57.4848 24.3459C57.8702 25.1961 58.7952 26.2782 60.4139 26.2782C62.1098 26.2782 63.4972 25.2734 63.4972 22.8773V17.0031H62.1098V17.5442ZM60.4139 22.1044C59.4119 22.1044 58.564 21.2542 58.564 20.0948C58.564 18.9354 59.4119 18.0852 60.4139 18.0852C61.416 18.0852 62.1868 18.9354 62.1868 20.0948C62.1868 21.2542 61.416 22.1044 60.4139 22.1044ZM79.2221 13.525H75.7534V23.1865H77.2179V19.5538H79.2221C80.8408 19.5538 82.3825 18.3944 82.3825 16.5394C82.3825 14.6844 80.8408 13.525 79.2221 13.525ZM79.2992 18.1625H77.2179V14.839H79.2992C80.3783 14.839 80.995 15.7665 80.995 16.4621C80.9179 17.3123 80.3012 18.1625 79.2992 18.1625ZM88.1636 16.7713C87.0845 16.7713 86.0053 17.235 85.6199 18.2398L86.9303 18.7808C87.2387 18.2398 87.7011 18.0852 88.2407 18.0852C89.0116 18.0852 89.7053 18.549 89.7824 19.3219V19.3992C89.5511 19.2446 88.9345 19.0127 88.3178 19.0127C86.9303 19.0127 85.5428 19.7856 85.5428 21.1769C85.5428 22.4909 86.6991 23.3411 87.9324 23.3411C88.9345 23.3411 89.397 22.8773 89.7824 22.4136H89.8595V23.1865H91.2469V19.4765C91.0928 17.776 89.7824 16.7713 88.1636 16.7713ZM88.0095 22.1044C87.547 22.1044 86.8532 21.8725 86.8532 21.2542C86.8532 20.4813 87.7011 20.2494 88.3949 20.2494C89.0115 20.2494 89.3199 20.404 89.7053 20.5586C89.5511 21.4861 88.7803 22.1044 88.0095 22.1044ZM96.1031 17.0031L94.4844 21.1769H94.4073L92.7115 17.0031H91.1699L93.7136 22.8773L92.249 26.1236H93.7136L97.6448 17.0031H96.1031ZM83.1533 23.1865H84.6179V13.525H83.1533V23.1865Z" fill="white"/>
<path d="M8.76786 5.7959C8.53661 6.02777 8.38245 6.41423 8.38245 6.87799V23.9595C8.38245 24.4233 8.53661 24.8097 8.76786 25.0416L8.84494 25.1189L18.4032 15.5347V15.4574V15.3801L8.76786 5.7959Z" fill="url(#paint0_linear_1_1697)"/>
<path d="M21.5631 18.7808L18.4027 15.6118V15.4572V15.3799L21.5631 12.2109L21.6402 12.2882L25.4172 14.4524C26.4964 15.0707 26.4964 16.0755 25.4172 16.6939L21.5631 18.7808Z" fill="url(#paint1_linear_1_1697)"/>
<path d="M21.6405 18.7033L18.403 15.457L8.7677 25.1185C9.15311 25.505 9.69269 25.505 10.3864 25.1958L21.6405 18.7033Z" fill="url(#paint2_linear_1_1697)"/>
<path d="M21.6406 12.2113L10.3866 5.79607C9.69281 5.40961 9.15323 5.4869 8.76782 5.87336L18.4031 15.4576L21.6406 12.2113Z" fill="url(#paint3_linear_1_1697)"/>
<path opacity="0.2" d="M21.5646 18.627L10.3877 24.9649C9.77099 25.3514 9.23142 25.2741 8.846 24.9649L8.76892 25.0422L8.846 25.1195C9.23142 25.4286 9.77099 25.5059 10.3877 25.1195L21.5646 18.627Z" fill="black"/>
<path opacity="0.12" d="M8.76864 24.9649C8.53722 24.733 8.46008 24.3466 8.46008 23.8828V23.9601C8.46008 24.4239 8.61436 24.8103 8.84578 25.0422V24.9649H8.76864Z" fill="black"/>
<path opacity="0.12" d="M25.4182 16.4618L21.5641 18.626L21.6412 18.7033L25.4182 16.5391C25.9578 16.23 26.189 15.8435 26.189 15.457C26.189 15.8435 25.8807 16.1527 25.4182 16.4618Z" fill="black"/>
<path opacity="0.25" d="M10.3859 5.87327L25.417 14.4527C25.8795 14.7619 26.1878 15.071 26.1878 15.4575C26.1878 15.071 25.9566 14.6846 25.417 14.3754L10.3859 5.79598C9.30677 5.17764 8.45886 5.71869 8.45886 6.95536V7.03265C8.45886 5.79598 9.30677 5.25494 10.3859 5.87327Z" fill="white"/>
</g>
<defs>
<linearGradient id="paint0_linear_1_1697" x1="17.555" y1="6.7309" x2="4.58363" y2="19.6672" gradientUnits="userSpaceOnUse">
<stop stop-color="#00A0FF"/>
<stop offset="0.00657445" stop-color="#00A1FF"/>
<stop offset="0.2601" stop-color="#00BEFF"/>
<stop offset="0.5122" stop-color="#00D2FF"/>
<stop offset="0.7604" stop-color="#00DFFF"/>
<stop offset="1" stop-color="#00E3FF"/>
</linearGradient>
<linearGradient id="paint1_linear_1_1697" x1="26.8312" y1="15.4583" x2="8.17964" y2="15.4583" gradientUnits="userSpaceOnUse">
<stop stop-color="#FFE000"/>
<stop offset="0.4087" stop-color="#FFBD00"/>
<stop offset="0.7754" stop-color="#FFA500"/>
<stop offset="1" stop-color="#FF9C00"/>
</linearGradient>
<linearGradient id="paint2_linear_1_1697" x1="19.8884" y1="17.2317" x2="2.29812" y2="34.7743" gradientUnits="userSpaceOnUse">
<stop stop-color="#FF3A44"/>
<stop offset="1" stop-color="#C31162"/>
</linearGradient>
<linearGradient id="paint3_linear_1_1697" x1="6.37618" y1="0.13536" x2="14.231" y2="7.96884" gradientUnits="userSpaceOnUse">
<stop stop-color="#32A071"/>
<stop offset="0.0685" stop-color="#2DA771"/>
<stop offset="0.4762" stop-color="#15CF74"/>
<stop offset="0.8009" stop-color="#06E775"/>
<stop offset="1" stop-color="#00F076"/>
</linearGradient>
<clipPath id="clip0_1_1697">
<rect width="104.061" height="30.9168" fill="white" transform="translate(0.750366)"/>
</clipPath>
</defs>
</svg>
