<svg width="305" height="259" viewBox="0 0 305 259" fill="none" xmlns="http://www.w3.org/2000/svg">
<path fill-rule="evenodd" clip-rule="evenodd" d="M191.801 162.95C138.77 185.253 86.5261 207.221 34.2725 229.193C34.0923 228.955 33.9055 228.73 33.7252 228.493C37.0863 223.748 40.7772 219.183 43.7364 214.197C46.7637 209.095 48.6334 203.454 48.4258 196.03C41.7992 201.044 35.6385 205.141 30.5192 210.603C28.1397 213.139 25.9821 215.879 23.6368 218.458C17.5726 225.115 11.5084 231.773 5.36615 238.35C2.39812 241.516 -1.16267 244.502 0.714008 249.468C2.51447 254.226 7.03314 255.128 11.3353 255.446C22.7456 256.286 34.1856 256.821 45.6211 257.442C51.9495 257.79 58.2754 258.097 64.5977 258.425C65.6135 258.482 66.6399 258.672 67.6513 258.582C70.2702 258.361 72.4355 257.304 73.363 254.66C74.3632 251.813 73.559 249.141 71.2036 247.54C68.8795 245.972 66.1613 244.718 63.4502 244.084C58.2868 242.871 52.9951 242.214 47.7513 241.311C45.818 240.977 43.8922 240.567 41.7471 239.1C46.114 237.101 50.4471 235.029 54.8478 233.103C87.2867 218.947 119.655 204.634 152.216 190.765C166.7 184.592 181.567 179.329 196.253 173.66C199.688 172.336 203.269 171.303 206.514 169.608C212.384 166.552 212.923 160.724 207.442 156.946C204.152 154.684 200.208 153.009 196.313 152.087C187.174 149.926 177.883 148.349 168.636 146.579C161.202 145.161 153.614 144.318 146.363 142.282C139.528 140.368 132.75 137.771 126.464 134.47C118.402 130.238 117.263 124.817 123.246 118.069C128.901 111.679 135.077 105.407 142.08 100.621C163.525 85.9777 185.348 71.8986 207.239 57.9348C237.264 38.7732 268.845 22.3402 300.139 5.39798C303.385 3.63944 303.422 3.72255 304.85 0.866889C296.995 3.59527 288.835 6.05234 280.958 9.24082C257.965 18.5299 236.012 29.9747 214.734 42.6584C189.797 57.5168 165.016 72.6728 140.5 88.2297C132.795 93.1227 125.943 99.4827 119.151 105.666C115.734 108.775 112.847 112.726 110.579 116.776C105.984 124.989 107.395 133.263 114.177 139.756C116.652 142.13 119.632 144.079 122.639 145.778C130.929 150.464 139.96 153.114 149.258 154.846C161.323 157.089 173.419 159.133 185.497 161.319C187.415 161.669 189.274 162.3 191.795 162.963L191.801 162.95Z" fill="#EA0F0F"/>
</svg>
