<svg width="237" height="199" viewBox="0 0 237 199" fill="none" xmlns="http://www.w3.org/2000/svg">
<path d="M168.006 107.37C165.82 109.677 165.968 112.924 166.79 115.276C167.965 118.646 171.326 120.797 174.293 120.087C188.726 116.62 205.355 108.53 214.46 103.623C209.759 123.273 207.418 132.158 203.576 146.588C202.373 151.108 205.314 155.553 208.418 156.9C211.524 158.243 214.445 155.981 215.563 152.978C220.935 138.517 226.414 117.506 231.41 94.4379C232.283 90.3962 231.537 87.0302 229.264 84.7886C226.994 82.5486 223.836 81.4757 220.741 83.8043C220.541 83.957 201.912 96.1408 170.899 105.797C170.028 106.07 168.59 106.754 168.002 107.368L168.006 107.37Z" fill="#EA0F0F"/>
<path d="M211.789 98.2347C209.144 97.0847 205.578 97.6611 204.068 100.172C181.176 138.234 134.233 154.029 94.0955 136.581C51.3391 117.994 28.1365 74.8414 37.2339 29.5797C37.9403 26.0732 36.4045 22.62 33.062 21.558C29.7294 20.4914 27.0424 22.7284 26.3409 26.2326C16.0264 77.5512 41.8106 128.425 90.159 149.443C135.557 169.178 190 151.397 215.769 108.55C217.544 105.6 216.04 101.19 213.131 99.0157C212.699 98.6917 212.247 98.4336 211.785 98.233L211.789 98.2347Z" fill="#EA0F0F"/>
</svg>
