<svg width="443" height="62" viewBox="0 0 443 62" fill="none" xmlns="http://www.w3.org/2000/svg">
<path fill-rule="evenodd" clip-rule="evenodd" d="M425.507 1.04394C422.681 1.40249 414.473 2.6731 407.253 3.98864C380.952 8.49555 373.015 9.54085 348.945 11.7995C335.457 13.0554 321.786 14.6319 318.563 15.4232C315.339 16.2146 308.267 17.8224 302.773 18.9311C297.279 20.1501 286.53 23.0754 278.803 25.4209C255.498 32.5846 248.003 32.8037 221.185 26.8232C213.583 25.1254 211.564 25.1382 185.724 26.6847C151.994 28.8733 126.68 32.4136 107.43 37.5274C93.1193 41.4633 92.8445 41.4787 60.484 43.3902L27.9227 45.4131L21.8703 42.8274C18.5231 41.4022 14.15 39.0128 12.1153 37.5141C5.81825 33.019 0.586136 35.2349 0.980139 42.2739C1.19978 46.1977 2.89585 47.9256 13.8416 54.6845C24.0023 61.0866 26.8794 61.6267 43.7166 60.5841C51.8884 60.0266 66.6899 58.6973 76.565 57.5336C92.0375 55.7561 96.4306 54.8091 108.184 51.1165C122.931 46.3549 140.78 42.321 158.295 39.728C190.01 35.0282 197.196 34.2155 208.028 34.0198C218.24 33.9489 221.531 34.3756 232.534 37.095C244.166 39.9794 246.12 40.1704 255.961 39.6196C264.695 39.1307 269.094 38.2836 279.687 35.0565C304.639 27.5002 320.669 24.4797 347.776 21.9508C361.472 20.6834 377.494 18.8751 383.361 18.0359C393.145 16.4767 425.864 11.1098 436.257 9.21599C439.291 8.74567 441.046 7.83612 441.873 6.47778C443.085 4.48693 442.8 1.97898 441.155 1.16962C439.653 0.442431 431.104 0.420161 425.507 1.03395L425.507 1.04394Z" fill="#EA0F0F"/>
</svg>
