<svg width="229" height="203" viewBox="0 0 229 203" fill="none" xmlns="http://www.w3.org/2000/svg">
<path d="M157.879 149.305C157.914 147.325 159.217 145.503 161.212 144.899C163.682 144.151 166.279 145.548 167.016 148.015C171.589 163.353 175.896 173.533 178.83 179.561C184.436 169.459 189.924 159.598 198.557 150.165C200.302 148.259 203.853 147.552 206.096 148.81C210.698 151.388 207.481 156.413 205.736 158.319C196.595 168.309 190.509 177.635 184.577 188.431L182.897 191.484C182.114 192.903 180.653 193.816 179.038 193.901C177.422 193.986 175.035 193.854 173.931 191.645C173.667 191.116 166.698 179.663 158.074 150.726C157.933 150.254 157.87 149.776 157.879 149.31L157.879 149.305Z" fill="black"/>
<path d="M49.9605 7.08302C47.9482 6.85286 46.1811 9.53536 48.7946 10.1613C64.9273 14.0248 91.8422 26.6898 106.868 67.0077C93.8953 70.6296 82.9368 77.8043 76.4682 86.4793C68.7104 96.8831 67.467 105.87 67.7889 111.579C68.2062 118.955 71.4706 125.443 76.7462 129.377C81.4 132.847 88.2031 134.668 94.2071 133.24C102.465 131.276 110.585 125.066 115.151 116.048C120.988 104.515 121.489 89.812 118.569 74.0183C128.79 73.2777 139.504 75.6941 150.178 84.2702C182.31 110.081 174.315 150.006 171.499 168.603C171.249 170.261 173.362 173.459 173.2 174.683C172.862 177.242 174.661 179.578 177.218 179.903C179.772 180.226 182.116 178.415 182.45 175.856C182.603 174.684 182.817 173.288 183.056 171.7C185.856 153.192 193.303 104.023 156.12 76.2964C142.515 66.1518 129.143 64.2917 116.537 65.5968C106.756 36.4694 74.2607 9.86236 49.9605 7.08302ZM82.3441 121.874C73.7265 115.448 76.7336 101.709 83.9389 92.0462C89.2795 84.884 97.8712 78.7675 108.596 75.749C110.911 87.9775 110.928 99.9549 105.436 110.807C102.105 117.391 96.766 122.119 91.1601 123.452C88.8432 124.004 85.4333 124.178 82.3418 121.872L82.3441 121.874Z" fill="black"/>
</svg>
