<svg width="67" height="23" viewBox="0 0 67 23" fill="none" xmlns="http://www.w3.org/2000/svg">
<path fill-rule="evenodd" clip-rule="evenodd" d="M0.481466 14.1607C1.14669 13.2782 14.3542 3.26499 17.3581 1.39928C20.3274 -0.466428 21.8657 -0.466428 22.8774 1.39928C23.262 2.05471 23.366 2.8075 23.2274 3.72251C23.0541 4.77055 21.2351 10.8219 19.6622 15.4684C19.5236 15.8934 19.9428 15.7636 21.443 14.8454C24.3777 13.1127 28.1161 11.539 30.7735 10.9193C32.835 10.4293 33.2889 10.4293 34.408 10.8219C36.4696 11.5423 37.1001 12.9829 36.8195 16.286C36.7155 17.7591 36.6809 18.9694 36.7502 18.9694C36.8195 18.9694 38.6731 18.3789 40.8732 17.6293C45.7307 15.994 48.0348 15.7961 49.3271 16.9415C49.8156 17.3665 50.3042 18.0868 50.4462 18.5443L50.6576 19.3944L58.765 19.2646L66.8725 19.1349L66.9764 19.8552C67.1497 20.8708 66.5225 21.0655 59.7802 21.9156C51.1149 23.0285 48.3882 22.7008 47.4458 20.3776L47.1651 19.6248L44.2652 20.6404C38.1846 22.7689 37.4882 22.9636 35.8806 22.9961C34.5882 23.0285 34.0304 22.8663 33.3652 22.2758C32.2461 21.2926 32.0381 20.3127 32.3881 17.3989C32.5613 16.0913 32.5613 14.9459 32.3881 14.8454C31.8303 14.5176 27.7419 16.0232 24.9112 17.5612C18.3075 21.192 17.3304 21.4548 15.9307 19.8844C15.0229 18.9013 15.1961 17.1037 16.6998 11.6071C17.469 8.92376 18.0268 6.66546 17.9575 6.60057C17.8882 6.53567 15.0575 8.53116 11.6344 11.0166C4.01893 16.5456 2.83054 17.3308 1.81538 17.3308C0.173098 17.3308 -0.561408 15.5624 0.488402 14.1575L0.481466 14.1607Z" fill="#EA0F0F"/>
</svg>
