<svg width="67" height="23" viewBox="0 0 67 23" fill="none" xmlns="http://www.w3.org/2000/svg">
<path fill-rule="evenodd" clip-rule="evenodd" d="M66.5185 14.1607C65.8533 13.2782 52.6458 3.26499 49.6419 1.39928C46.6726 -0.466428 45.1343 -0.466428 44.1226 1.39928C43.738 2.05471 43.634 2.8075 43.7726 3.72251C43.9459 4.77055 45.7649 10.8219 47.3378 15.4684C47.4764 15.8934 47.0572 15.7636 45.557 14.8454C42.6223 13.1127 38.8839 11.539 36.2265 10.9193C34.165 10.4293 33.7111 10.4293 32.592 10.8219C30.5304 11.5423 29.8999 12.9829 30.1805 16.286C30.2845 17.7591 30.3191 18.9694 30.2498 18.9694C30.1805 18.9694 28.3269 18.3789 26.1268 17.6293C21.2693 15.994 18.9652 15.7961 17.6729 16.9415C17.1844 17.3665 16.6958 18.0868 16.5538 18.5443L16.3424 19.3944L8.23498 19.2646L0.127524 19.1349L0.0235663 19.8552C-0.149667 20.8708 0.477454 21.0655 7.2198 21.9156C15.8851 23.0285 18.6118 22.7008 19.5542 20.3776L19.8349 19.6248L22.7348 20.6404C28.8154 22.7689 29.5118 22.9636 31.1194 22.9961C32.4118 23.0285 32.9696 22.8663 33.6348 22.2758C34.7539 21.2926 34.9619 20.3127 34.6119 17.3989C34.4387 16.0913 34.4387 14.9459 34.6119 14.8454C35.1697 14.5176 39.2581 16.0232 42.0888 17.5612C48.6925 21.192 49.6696 21.4548 51.0693 19.8844C51.9771 18.9013 51.8039 17.1037 50.3002 11.6071C49.531 8.92376 48.9732 6.66546 49.0425 6.60057C49.1118 6.53567 51.9425 8.53116 55.3656 11.0166C62.9811 16.5456 64.1695 17.3308 65.1846 17.3308C66.8269 17.3308 67.5614 15.5624 66.5116 14.1575L66.5185 14.1607Z" fill="#EA0F0F"/>
</svg>
