<svg width="73" height="82" viewBox="0 0 73 82" fill="none" xmlns="http://www.w3.org/2000/svg">
<path fill-rule="evenodd" clip-rule="evenodd" d="M56.3208 73.7863C55.6349 73.4705 54.9501 73.1472 54.261 72.8325C44.9295 68.5969 36.6299 63.0314 30.7387 54.387C30.2204 53.6292 29.6182 53.5223 28.792 53.4584C26.4875 53.2798 24.1439 53.1791 21.896 52.6704C15.4522 51.1998 9.88058 48.2224 6.10639 42.5116C4.03401 39.3751 2.43236 36.0034 1.30037 32.4151C-1.70995 22.8895 1.13562 13.6495 8.98315 7.62835C13.3744 4.25863 18.4003 2.19311 23.7043 0.727038C26.6405 -0.0849081 29.582 0.338166 32.5322 0.841853C32.0766 1.06842 31.6114 1.2002 31.144 1.19487C28.7024 1.1692 26.4488 1.87361 24.2463 2.81905C23.1526 3.2875 22.0535 3.73958 20.9685 4.22336C17.0689 5.97312 13.2487 7.85326 10.0478 10.7632C4.7377 15.5968 2.42112 21.5874 3.75676 28.7404C4.67434 33.6417 6.7247 38.1925 9.93181 42.0624C14.5202 47.6051 20.7236 49.6681 27.9426 50.0692C27.5656 49.2478 27.3135 48.6835 27.0473 48.1309C25.3218 44.5489 23.8669 40.8797 23.6112 36.8749C23.3468 32.7132 24.7237 29.2994 28.2929 26.9561C31.1272 25.0963 34.2516 24.1657 37.6432 24.3349C41.8348 24.5438 45.2967 26.1229 47.2657 30.1342C48.3316 32.304 48.5605 34.5948 48.1285 36.9281C46.8607 43.7739 42.9344 48.5569 36.7518 51.5646C36.0342 51.9155 35.3059 52.2444 34.5492 52.597C40.0459 60.8246 57.7441 71.8843 64.5458 71.4297C64.1726 67.9197 63.8005 64.413 63.424 60.904C64.0837 61.1847 64.3848 61.5482 64.6347 61.9428C67.6721 66.7377 69.5462 72.0852 71.9443 77.184C72.7288 78.8534 72.1839 80.5086 70.4357 81.1916C69.1192 81.7065 67.5581 82.0173 66.1602 81.8621C60.7838 81.2698 55.4281 80.4786 50.0701 79.7026C48.5994 79.4911 47.7724 78.5427 47.7606 77.3642C47.75 76.1889 48.5427 75.2807 49.9461 74.9083C50.3483 74.8041 50.7734 74.7578 51.1897 74.707C52.854 74.5116 54.5184 74.3272 56.1805 74.1361C56.2294 74.0224 56.274 73.9065 56.3219 73.7896L56.3208 73.7863ZM38.94 46.0143C42.0462 43.4938 43.9699 40.2374 44.6001 36.2699C45.3152 31.7636 42.8971 28.7058 38.3609 28.2852C35.6792 28.0359 33.2158 28.7608 30.9273 30.0676C28.6693 31.3573 27.5307 33.3561 27.6389 35.9687C27.6952 37.2925 27.859 38.6359 28.1849 39.9236C28.5651 41.4185 29.0833 42.8944 29.7048 44.3117C30.4382 45.9793 31.3456 47.5728 32.2562 49.3502C34.9935 48.8635 37.0374 47.5594 38.94 46.0143Z" fill="#262626"/>
</svg>
