<svg width="56" height="57" viewBox="0 0 56 57" fill="none" xmlns="http://www.w3.org/2000/svg">
<path fill-rule="evenodd" clip-rule="evenodd" d="M9.47822 51.6682C9.66313 51.3959 9.83538 51.1148 10.0323 50.8538C21.4434 35.9698 34.1016 22.1512 47.403 8.89419C49.6911 6.61339 52.2817 4.63213 54.6905 2.46243C55.1535 2.04558 56.0806 1.59289 55.5748 0.823038C55.0556 0.0356994 54.288 0.634271 53.7349 0.984492C52.705 1.63592 51.6847 2.32128 50.7514 3.09853C48.9691 4.58276 47.177 6.07057 45.5199 7.68423C33.8126 19.0969 22.5893 30.9368 12.4423 43.7312C10.6464 45.9941 8.90249 48.2978 7.1241 50.5733C6.7823 51.012 6.3976 51.4207 6.03329 51.8427C5.90608 51.7964 5.78168 51.7508 5.65382 51.7073C5.83564 50.1303 5.92476 48.5351 6.21943 46.978C7.20783 41.7534 9.18028 36.8421 11.3261 31.9932C11.6042 31.3641 11.8715 30.7181 12.0316 30.0535C12.2581 29.0953 11.8749 28.3418 11.128 28.045C10.3405 27.7333 9.4358 28.116 9.00151 29.0702C8.26205 30.6935 7.62964 32.3614 6.89575 33.9859C4.77807 38.6537 2.68142 43.332 1.45766 48.3213C0.965828 50.3269 0.53277 52.3573 0.232554 54.3978C-0.0825979 56.5388 0.721091 57.2668 2.92656 56.9144C7.47316 56.1828 11.8927 54.9319 16.2992 53.6491C19.7741 52.6392 23.2042 51.4835 26.6453 50.3678C28.1386 49.8823 28.7973 49.0484 28.5529 48.0928C28.2996 47.1005 27.2014 46.6979 25.5925 47.1254C24.1813 47.4997 22.804 47.9798 21.4112 48.4131C17.5147 49.6272 13.6189 50.8386 9.72521 52.0533C9.64102 51.9245 9.55897 51.7991 9.47413 51.6731L9.47822 51.6682Z" fill="#EA0F0F"/>
</svg>
