<svg width="72" height="41" viewBox="0 0 72 41" fill="none" xmlns="http://www.w3.org/2000/svg">
<path fill-rule="evenodd" clip-rule="evenodd" d="M71.459 0.593143C70.0054 -0.102673 69.0615 0.322806 68.1227 0.661105C61.9472 2.87496 55.9954 5.59318 50.2058 8.68041C36.3401 16.0811 22.7139 23.8908 9.26094 32.0116C9.08303 32.1198 8.86227 32.1579 8.32218 32.3499C9.24422 30.6162 10.0105 29.1041 10.8526 27.6279C11.6817 26.1787 12.5718 24.7618 13.4593 23.3503C13.8861 22.673 14.4283 22.067 14.8064 21.3667C15.5221 20.0297 15.3098 18.8071 14.3257 18.0252C13.2912 17.2028 11.8845 17.3392 10.7722 18.4084C10.4635 18.7069 10.1893 19.0648 9.95827 19.43C6.98399 24.1706 4.0342 28.9295 1.0491 33.665C-0.14923 35.5598 0.490968 37.3039 1.42677 38.9924C1.62783 39.3565 2.2205 39.6309 2.67427 39.7166C8.8908 40.8747 15.1231 40.4238 21.3393 39.6732C23.3988 39.4214 24.6386 37.8981 24.5138 36.1594C24.3841 34.3685 23.0132 33.1177 20.9183 33.117C19.3226 33.114 17.7338 33.3466 16.1405 33.4775C15.2172 33.5542 14.3008 33.6376 13.2461 33.3434C13.7923 32.965 14.3204 32.5482 14.8901 32.2108C28.0268 24.418 41.2189 16.7179 54.889 9.87176C59.8279 7.39693 64.6334 4.65966 69.4901 2.01642C70.1055 1.68082 70.6418 1.19816 71.4619 0.601129L71.459 0.593143Z" fill="black"/>
</svg>
