<svg width="73" height="38" viewBox="0 0 73 38" fill="none" xmlns="http://www.w3.org/2000/svg">
<path fill-rule="evenodd" clip-rule="evenodd" d="M0.476075 0.93987C0.802307 2.5103 1.70406 2.9915 2.53415 3.52216C7.98565 7.0201 13.6994 10.0325 19.6058 12.6908C33.7569 19.053 48.0857 24.9758 62.5551 30.5713C62.747 30.6448 62.9096 30.795 63.3851 31.1019C61.4678 31.441 59.8182 31.7666 58.1514 32.0105C56.5136 32.248 54.8645 32.4178 53.2212 32.5862C52.4322 32.6663 51.6299 32.6119 50.8519 32.7445C49.3705 33.0023 48.5366 33.9197 48.513 35.1738C48.4879 36.4922 49.4403 37.5149 50.9495 37.7333C51.3697 37.7929 51.8159 37.7888 52.2419 37.7464C57.757 37.1755 63.2717 36.5741 68.7893 36.0148C70.9994 35.7941 71.9863 34.22 72.7518 32.4475C72.9174 32.0658 72.7771 31.4312 72.5718 31.0217C69.7474 25.4215 65.6481 20.7967 61.3228 16.3685C59.8874 14.9032 57.9446 14.8633 56.6522 16.0288C55.3218 17.2302 55.1619 19.0762 56.42 20.7242C57.3764 21.9811 58.514 23.0879 59.5742 24.2607C60.1893 24.9397 60.8055 25.6093 61.2078 26.6194C60.5821 26.4221 59.937 26.2627 59.3294 26.0217C45.3081 20.4735 31.3263 14.825 17.7288 8.27616C12.8151 5.91098 7.77517 3.8119 2.77837 1.61472C2.1447 1.33674 1.44292 1.21124 0.480656 0.932743L0.476075 0.93987Z" fill="black"/>
</svg>
