<svg width="40" height="39" viewBox="0 0 40 39" fill="none" xmlns="http://www.w3.org/2000/svg">
<path fill-rule="evenodd" clip-rule="evenodd" d="M17.6351 17.3573C16.4193 18.335 15.2988 19.4336 14.1511 20.4939C12.8189 21.7241 11.5132 22.9884 10.1762 24.2151C9.62261 24.7248 8.96354 24.9509 8.23463 24.6417C7.4872 24.3228 7.30119 23.6553 7.28894 22.9137C7.28247 22.5131 7.30742 22.1093 7.34549 21.7076C7.53231 19.5522 7.69952 17.3937 7.92913 15.2397C8.09454 13.6905 8.27832 12.1361 8.58295 10.6062C8.99749 8.51946 9.61381 7.98855 11.6876 7.74277C15.268 7.31443 18.851 6.90278 22.4342 6.50602C24.4079 6.28773 24.7129 6.51212 25.3237 8.55275C22.7688 11.5439 20.7081 14.8817 17.6362 17.3507L17.6351 17.3573ZM11.4957 10.6384C10.62 12.4543 9.87338 17.9346 10.1964 20.1518C14.335 16.5676 17.7346 12.208 22.6311 9.57557C18.8954 10.3356 15.1956 10.8182 11.4933 10.6366L11.4957 10.6384Z" fill="black"/>
<path fill-rule="evenodd" clip-rule="evenodd" d="M27.7062 14.3617C27.8237 14.1988 27.9261 14.0213 28.061 13.8747C28.4136 13.4971 28.8168 13.1303 29.3644 13.3823C29.9873 13.6666 29.9512 14.2325 29.8118 14.8051C29.7166 15.195 29.5489 15.5843 29.5493 15.9731C29.5539 19.3143 28.8904 22.5605 28.1741 25.8091C27.3958 29.3459 26.7342 32.908 25.9428 36.4428C25.5335 38.2744 24.0811 38.7256 22.7095 37.5073C21.4094 36.3517 20.1473 35.1534 18.8888 33.9503C18.2748 33.3653 17.9475 32.651 18.2902 31.7815C18.4551 31.3606 18.6582 30.9525 18.8734 30.5531C20.6103 27.3104 22.3431 24.0684 24.0937 20.832C25.27 18.66 26.4678 16.5036 27.6578 14.3378C27.6722 14.3482 27.6883 14.3562 27.7068 14.3659L27.7062 14.3617ZM21.6116 32.0612C22.056 32.4716 22.501 32.8862 23.1363 33.4718C23.575 31.1694 23.967 29.1291 24.3565 27.0871C24.2647 27.0577 24.1711 27.0307 24.0793 27.0012C23.2787 28.6421 22.4782 30.2831 21.6092 32.0594L21.6116 32.0612Z" fill="black"/>
</svg>
