<svg width="320" height="174" viewBox="0 0 320 174" fill="none" xmlns="http://www.w3.org/2000/svg">
	<path d="M0 44.7225C0 30.8645 0 23.9356 2.7276 18.7142C5.12575 14.1234 8.94467 10.4316 13.614 8.19021C18.9247 5.6409 25.8497 5.87542 39.6997 6.34446L282.9 14.5806C295.928 15.0218 302.442 15.2424 307.399 17.918C311.762 20.2726 315.288 23.9203 317.494 28.36C320 33.4049 320 39.9228 320 52.9586V128.807C320 141.959 320 148.535 317.462 153.605C315.229 158.067 311.661 161.722 307.255 164.062C302.246 166.721 295.673 166.879 282.525 167.196L39.3245 173.053C25.5921 173.384 18.7259 173.549 13.4662 170.98C8.84116 168.721 5.06501 165.034 2.69511 160.465C0 155.269 0 148.4 0 134.664V44.7225Z" fill="#EA0F0F"/>
	<rect x="189.909" y="0.620605" width="103" height="28" rx="14" transform="rotate(3.27295 189.909 0.620605)" fill="black"/>
	<path d="M212.328 14.3917L211.715 17.3146C211.542 18.1342 211.307 18.9659 211.008 19.8096C210.718 20.6537 210.325 21.4333 209.83 22.1484C209.343 22.8562 208.74 23.4125 208.021 23.8174C207.309 24.2149 206.455 24.3696 205.459 24.2813C204.695 24.222 204.069 24.0179 203.581 23.6691C203.1 23.3208 202.73 22.881 202.471 22.3497C202.211 21.8184 202.041 21.2335 201.961 20.5951C201.88 19.9566 201.858 19.3098 201.895 18.6546C201.941 17.9921 202.02 17.3666 202.132 16.7783L202.746 13.8437C202.91 13.0314 203.144 12.2076 203.45 11.3721C203.757 10.5289 204.15 9.75314 204.628 9.04494C205.115 8.33718 205.718 7.78476 206.437 7.38767C207.164 6.99103 208.025 6.83686 209.022 6.92515C209.778 6.98401 210.396 7.18761 210.877 7.53595C211.358 7.88429 211.728 8.3241 211.987 8.85538C212.247 9.37887 212.417 9.95985 212.498 10.5983C212.579 11.229 212.597 11.8717 212.552 12.5264C212.514 13.1816 212.44 13.8034 212.328 14.3917ZM208.435 17.5966L209.232 13.7217C209.257 13.551 209.299 13.3068 209.356 12.9893C209.414 12.6639 209.461 12.3184 209.497 11.9527C209.535 11.5792 209.535 11.2232 209.5 10.8847C209.473 10.5388 209.388 10.2483 209.245 10.0132C209.102 9.77029 208.871 9.63579 208.552 9.6097C208.093 9.55218 207.715 9.66359 207.417 9.94393C207.12 10.2243 206.88 10.5901 206.697 11.0413C206.515 11.4848 206.372 11.9383 206.267 12.4018C206.163 12.8653 206.078 13.2479 206.014 13.5494L205.241 17.4256C205.215 17.5963 205.17 17.8441 205.104 18.169C205.047 18.4866 205 18.836 204.962 19.2173C204.925 19.5908 204.92 19.9505 204.947 20.2964C204.974 20.6422 205.059 20.9366 205.202 21.1795C205.353 21.4151 205.587 21.5537 205.906 21.5954C206.357 21.6525 206.735 21.541 207.04 21.2612C207.346 20.9735 207.591 20.6001 207.773 20.141C207.956 19.682 208.096 19.2166 208.194 18.7448C208.299 18.2735 208.379 17.8907 208.435 17.5966ZM213.269 22.8851C213.3 22.3469 213.505 21.9087 213.884 21.5704C214.264 21.2321 214.723 21.0745 215.261 21.0974C215.776 21.1191 216.2 21.3076 216.532 21.6631C216.864 22.0108 217.019 22.4422 216.998 22.9574C216.974 23.5039 216.769 23.9421 216.383 24.2721C216.004 24.6026 215.549 24.7566 215.018 24.734C214.511 24.7128 214.087 24.5321 213.746 24.1918C213.406 23.8437 213.247 23.4081 213.269 22.8851ZM230.059 22.7184L229.459 25.419L219.713 24.8616L220.239 22.4385L225.844 16.984C226.186 16.6279 226.532 16.2486 226.884 15.8462C227.244 15.4364 227.558 15.0044 227.826 14.5502C228.103 14.0887 228.291 13.6065 228.39 13.1035C228.438 12.8245 228.464 12.5013 228.469 12.1338C228.475 11.7663 228.403 11.4375 228.256 11.1473C228.108 10.8572 227.839 10.697 227.45 10.6669C226.951 10.6306 226.548 10.7641 226.241 11.0673C225.935 11.3706 225.698 11.7484 225.531 12.2005C225.372 12.6531 225.262 13.0655 225.202 13.4377L222.03 13.2797C222.158 12.2776 222.484 11.3611 223.009 10.5304C223.542 9.70004 224.22 9.05024 225.045 8.58095C225.879 8.10431 226.825 7.90802 227.884 7.99208C228.835 8.06209 229.618 8.32208 230.234 8.77204C230.859 9.21465 231.298 9.80322 231.554 10.5377C231.81 11.2645 231.868 12.0817 231.73 12.9893C231.629 13.6643 231.429 14.2946 231.129 14.88C230.83 15.4654 230.474 16.0124 230.061 16.5209C229.649 17.0294 229.202 17.5203 228.721 17.9937C228.248 18.4674 227.783 18.9299 227.327 19.3812L224.49 22.3999L230.059 22.7184ZM245.13 18.8616L241.597 18.6595L242.171 16.204L244.908 16.3839C245.368 16.4024 245.779 16.3359 246.14 16.1844C246.501 16.0251 246.796 15.7877 247.026 15.4721C247.255 15.1566 247.414 14.7705 247.503 14.3139C247.58 13.9192 247.6 13.5721 247.562 13.2726C247.533 12.9657 247.41 12.7161 247.194 12.5238C246.987 12.3241 246.669 12.2003 246.241 12.1524L244.312 12.0303L241.043 26.0814L237.697 25.8901L241.608 9.02335L246.544 9.3174C247.261 9.37403 247.91 9.51679 248.492 9.74569C249.074 9.96678 249.561 10.2802 249.952 10.6861C250.352 11.0845 250.641 11.5706 250.82 12.1442C250.998 12.7178 251.038 13.3853 250.94 14.1465C250.828 15.0087 250.552 15.7246 250.113 16.2942C249.682 16.8565 249.125 17.2824 248.443 17.5721C247.769 17.8622 247.018 18.007 246.188 18.0066L245.13 18.8616ZM243.336 26.2126L238.89 25.9583L240.842 23.2411L243.661 23.414C244.122 23.4247 244.526 23.3383 244.873 23.1547C245.22 22.9711 245.501 22.7132 245.715 22.3812C245.93 22.0414 246.082 21.647 246.17 21.1982C246.235 20.8811 246.266 20.5542 246.261 20.2175C246.258 19.8729 246.177 19.5788 246.018 19.335C245.861 19.0834 245.572 18.9299 245.153 18.8746L242.135 18.6903L242.733 16.2361L246.114 16.4411L246.631 17.445C247.371 17.5108 247.961 17.7323 248.401 18.1096C248.849 18.4796 249.159 18.9511 249.329 19.5243C249.5 20.0975 249.538 20.7374 249.443 21.4441C249.309 22.5476 248.963 23.4668 248.405 24.2018C247.854 24.9294 247.143 25.4677 246.27 25.8169C245.397 26.1583 244.42 26.2902 243.336 26.2126ZM266.558 10.4502L262.624 27.3156L259.36 27.1289L257.014 15.609L254.399 26.8452L251.053 26.6539L254.964 9.78714L258.24 9.97447L260.609 21.5074L263.224 10.2595L266.558 10.4502ZM273.012 20.4561L269.479 20.254L270.054 17.7984L272.79 17.9784C273.251 17.9969 273.661 17.9304 274.022 17.7789C274.383 17.6196 274.679 17.3821 274.908 17.0666C275.137 16.751 275.296 16.365 275.385 15.9083C275.462 15.5137 275.482 15.1666 275.445 14.8671C275.415 14.5602 275.293 14.3106 275.077 14.1183C274.869 13.9186 274.551 13.7948 274.124 13.7468L272.194 13.6248L268.925 27.6759L265.579 27.4846L269.49 10.6178L274.427 10.9119C275.143 10.9685 275.792 11.1113 276.374 11.3402C276.956 11.5613 277.443 11.8747 277.834 12.2805C278.234 12.679 278.523 13.1651 278.702 13.7387C278.88 14.3123 278.92 14.9798 278.822 15.741C278.71 16.6032 278.435 17.3191 277.995 17.8887C277.564 18.4509 277.007 18.8769 276.326 19.1666C275.652 19.4567 274.9 19.6015 274.071 19.601L273.012 20.4561ZM271.218 27.807L266.773 27.5528L268.724 24.8356L271.543 25.0085C272.004 25.0192 272.408 24.9328 272.755 24.7492C273.102 24.5655 273.383 24.3077 273.597 23.9757C273.812 23.6358 273.964 23.2415 274.052 22.7927C274.117 22.4756 274.148 22.1487 274.144 21.8119C274.14 21.4674 274.059 21.1732 273.901 20.9294C273.743 20.6778 273.454 20.5244 273.035 20.4691L270.017 20.2848L270.615 17.8306L273.996 18.0356L274.513 19.0395C275.253 19.1052 275.843 19.3268 276.283 19.7041C276.731 20.074 277.041 20.5456 277.212 21.1188C277.382 21.692 277.42 22.3319 277.325 23.0385C277.191 24.1421 276.845 25.0613 276.287 25.7963C275.737 26.5238 275.025 27.0622 274.152 27.4114C273.28 27.7528 272.302 27.8846 271.218 27.807Z" fill="white"/>
</svg>
