<svg width="320" height="150" viewBox="0 0 320 150" fill="none" xmlns="http://www.w3.org/2000/svg">
    <path d="M0 45.5241C0 31.7285 0 24.8307 2.71094 19.6221C5.09461 15.0423 8.89161 11.3533 13.5382 9.10273C18.8229 6.54315 25.7178 6.74211 39.5076 7.14003L282.708 14.1578C295.797 14.5355 302.342 14.7244 307.325 17.3916C311.71 19.7386 315.258 23.3901 317.478 27.8411C320 32.8992 320 39.4467 320 52.5418V105.813C320 119.008 320 125.605 317.451 130.685C315.208 135.155 311.625 138.812 307.202 141.146C302.175 143.799 295.579 143.935 282.388 144.205L39.1878 149.196C25.4983 149.477 18.6536 149.617 13.4125 147.041C8.80358 144.775 5.04296 141.091 2.68332 136.53C0 131.343 0 124.496 0 110.804V45.5241Z" fill="#EAEAE9"/>
    <rect x="214" y="6.27539" width="72" height="28" rx="14" transform="rotate(-5 214 6.27539)" fill="#EA0F0F"/>
    <path d="M232.826 10.0867L231.371 27.3417L228.032 27.6338L229.475 10.3799L232.826 10.0867ZM237.38 16.9699L237.126 19.8389L231.102 20.366L231.357 17.4969L237.38 16.9699ZM238.628 9.57913L238.374 12.4599L231.731 13.041L231.973 10.1613L238.628 9.57913ZM240.829 9.38652L245.967 8.9488C246.989 8.89073 247.865 9.03764 248.593 9.38953C249.329 9.73295 249.897 10.2636 250.297 10.9815C250.704 11.6909 250.91 12.5591 250.913 13.5861C250.918 14.4406 250.8 15.1998 250.56 15.8639C250.327 16.5195 249.971 17.1075 249.491 17.6278C249.01 18.1404 248.408 18.6049 247.683 19.0211L246.604 19.7273L242.145 20.1174L242.387 17.2377L245.214 17.0139C245.735 16.9605 246.168 16.801 246.513 16.5355C246.858 16.2701 247.119 15.9297 247.294 15.5144C247.477 15.0984 247.579 14.6464 247.599 14.1584C247.614 13.7885 247.585 13.4185 247.514 13.0483C247.45 12.6775 247.306 12.3725 247.081 12.1334C246.856 11.8942 246.521 11.7824 246.075 11.7979L243.938 11.9731L242.725 26.3483L239.386 26.6405L240.829 9.38652ZM246.939 25.9796L244.56 18.5532L247.922 18.2474L250.484 25.4813L250.5 25.6681L246.939 25.9796ZM262.237 21.7945L261.983 24.6635L254.815 25.2906L255.046 22.4236L262.237 21.7945ZM257.308 7.94479L255.854 25.1997L252.515 25.4919L253.958 8.23792L257.308 7.94479ZM261.904 14.4832L261.665 17.2685L255.443 17.8129L255.67 15.0286L261.904 14.4832ZM263.426 7.4096L263.172 10.2903L256.016 10.9164L256.269 8.03569L263.426 7.4096ZM273.93 20.7715L273.675 23.6406L266.507 24.2677L266.739 21.4006L273.93 20.7715ZM269.001 6.92182L267.546 24.1768L264.207 24.4689L265.651 7.21495L269.001 6.92182ZM273.596 13.4603L273.358 16.2456L267.135 16.79L267.362 14.0057L273.596 13.4603ZM275.118 6.38663L274.864 9.26736L267.708 9.89346L267.962 7.01272L275.118 6.38663Z" fill="white"/>
</svg>
