<svg width="414" height="268" viewBox="0 0 414 268" fill="none" xmlns="http://www.w3.org/2000/svg">
<path d="M0 74.6292C0 51.3993 0 39.7843 4.58161 31.0546C8.60947 23.38 15.0211 17.2214 22.8516 13.5056C31.7586 9.27896 43.3642 9.74634 66.5753 10.6811L352.575 22.1987C374.158 23.0679 384.95 23.5025 393.156 27.9794C400.379 31.9195 406.211 37.9909 409.857 45.366C414 53.7458 414 64.5462 414 86.1469V193.95C414 215.78 414 226.694 409.795 235.126C406.095 242.545 400.18 248.631 392.87 252.542C384.563 256.987 373.653 257.299 351.832 257.924L65.8321 266.115C42.8534 266.773 31.3641 267.102 22.5583 262.835C14.8155 259.083 8.48876 252.935 4.51703 245.303C0 236.623 0 225.129 0 202.141V74.6292Z" fill="#EAEAE9"/>
<path d="M65.3984 67.4893V95.9268H59.5391V67.4893H65.3984ZM76.7266 79.6377V84.208H63.7969V79.6377H76.7266ZM78.0938 67.4893V72.0791H63.7969V67.4893H78.0938ZM86.2578 79.4033V95.9268H80.6328V74.7939H85.9258L86.2578 79.4033ZM92.625 74.6572L92.5273 79.8721C92.2539 79.833 91.9219 79.8005 91.5312 79.7744C91.1536 79.7354 90.8086 79.7158 90.4961 79.7158C89.7018 79.7158 89.0117 79.82 88.4258 80.0283C87.8529 80.2236 87.3711 80.5166 86.9805 80.9072C86.6029 81.2979 86.3164 81.7731 86.1211 82.333C85.9388 82.8929 85.8346 83.5309 85.8086 84.2471L84.6758 83.8955C84.6758 82.5283 84.8125 81.2718 85.0859 80.126C85.3594 78.9671 85.7565 77.958 86.2773 77.0986C86.8112 76.2393 87.4622 75.5752 88.2305 75.1064C88.9987 74.6377 89.8776 74.4033 90.8672 74.4033C91.1797 74.4033 91.4987 74.4294 91.8242 74.4814C92.1497 74.5205 92.4167 74.5791 92.625 74.6572ZM104.617 96.3174C102.977 96.3174 101.505 96.057 100.203 95.5361C98.901 95.0023 97.7943 94.2666 96.8828 93.3291C95.9844 92.3916 95.2943 91.3044 94.8125 90.0674C94.3307 88.8174 94.0898 87.4893 94.0898 86.083V85.3018C94.0898 83.7002 94.3177 82.2354 94.7734 80.9072C95.2292 79.5791 95.8802 78.4268 96.7266 77.4502C97.5859 76.4736 98.6276 75.7249 99.8516 75.2041C101.076 74.6702 102.456 74.4033 103.992 74.4033C105.49 74.4033 106.818 74.6507 107.977 75.1455C109.135 75.6403 110.105 76.3434 110.887 77.2549C111.681 78.1663 112.28 79.2601 112.684 80.5361C113.087 81.7992 113.289 83.2054 113.289 84.7549V87.0986H96.4922V83.3486H107.762V82.9189C107.762 82.1377 107.618 81.4411 107.332 80.8291C107.059 80.2041 106.642 79.7093 106.082 79.3447C105.522 78.9801 104.806 78.7979 103.934 78.7979C103.191 78.7979 102.553 78.9606 102.02 79.2861C101.486 79.6117 101.049 80.0674 100.711 80.6533C100.385 81.2393 100.138 81.9294 99.9688 82.7236C99.8125 83.5049 99.7344 84.3643 99.7344 85.3018V86.083C99.7344 86.9294 99.8516 87.7106 100.086 88.4268C100.333 89.1429 100.678 89.7614 101.121 90.2822C101.577 90.8031 102.124 91.2067 102.762 91.4932C103.413 91.7796 104.148 91.9229 104.969 91.9229C105.984 91.9229 106.928 91.7275 107.801 91.3369C108.686 90.9333 109.448 90.3278 110.086 89.5205L112.82 92.4893C112.378 93.1273 111.772 93.7393 111.004 94.3252C110.249 94.9111 109.337 95.3929 108.27 95.7705C107.202 96.1351 105.984 96.3174 104.617 96.3174ZM126.219 96.3174C124.578 96.3174 123.107 96.057 121.805 95.5361C120.503 95.0023 119.396 94.2666 118.484 93.3291C117.586 92.3916 116.896 91.3044 116.414 90.0674C115.932 88.8174 115.691 87.4893 115.691 86.083V85.3018C115.691 83.7002 115.919 82.2354 116.375 80.9072C116.831 79.5791 117.482 78.4268 118.328 77.4502C119.188 76.4736 120.229 75.7249 121.453 75.2041C122.677 74.6702 124.057 74.4033 125.594 74.4033C127.091 74.4033 128.419 74.6507 129.578 75.1455C130.737 75.6403 131.707 76.3434 132.488 77.2549C133.283 78.1663 133.882 79.2601 134.285 80.5361C134.689 81.7992 134.891 83.2054 134.891 84.7549V87.0986H118.094V83.3486H129.363V82.9189C129.363 82.1377 129.22 81.4411 128.934 80.8291C128.66 80.2041 128.243 79.7093 127.684 79.3447C127.124 78.9801 126.408 78.7979 125.535 78.7979C124.793 78.7979 124.155 78.9606 123.621 79.2861C123.087 79.6117 122.651 80.0674 122.312 80.6533C121.987 81.2393 121.74 81.9294 121.57 82.7236C121.414 83.5049 121.336 84.3643 121.336 85.3018V86.083C121.336 86.9294 121.453 87.7106 121.688 88.4268C121.935 89.1429 122.28 89.7614 122.723 90.2822C123.178 90.8031 123.725 91.2067 124.363 91.4932C125.014 91.7796 125.75 91.9229 126.57 91.9229C127.586 91.9229 128.53 91.7275 129.402 91.3369C130.288 90.9333 131.049 90.3278 131.688 89.5205L134.422 92.4893C133.979 93.1273 133.374 93.7393 132.605 94.3252C131.85 94.9111 130.939 95.3929 129.871 95.7705C128.803 96.1351 127.586 96.3174 126.219 96.3174ZM164.891 86.4932H170.73C170.613 88.4072 170.086 90.1064 169.148 91.5908C168.224 93.0752 166.928 94.234 165.262 95.0674C163.608 95.9007 161.616 96.3174 159.285 96.3174C157.462 96.3174 155.828 96.0049 154.383 95.3799C152.938 94.7419 151.701 93.8304 150.672 92.6455C149.656 91.4606 148.882 90.0283 148.348 88.3486C147.814 86.6689 147.547 84.7874 147.547 82.7041V80.7314C147.547 78.6481 147.82 76.7666 148.367 75.0869C148.927 73.3942 149.721 71.9554 150.75 70.7705C151.792 69.5856 153.035 68.6742 154.48 68.0361C155.926 67.3981 157.54 67.0791 159.324 67.0791C161.694 67.0791 163.693 67.5088 165.32 68.3682C166.961 69.2275 168.23 70.4124 169.129 71.9229C170.04 73.4333 170.587 75.152 170.77 77.0791H164.91C164.845 75.9333 164.617 74.9632 164.227 74.1689C163.836 73.3617 163.243 72.7562 162.449 72.3525C161.668 71.9359 160.626 71.7275 159.324 71.7275C158.348 71.7275 157.495 71.9098 156.766 72.2744C156.036 72.639 155.424 73.1924 154.93 73.9346C154.435 74.6768 154.064 75.6143 153.816 76.7471C153.582 77.8669 153.465 79.182 153.465 80.6924V82.7041C153.465 84.1755 153.576 85.471 153.797 86.5908C154.018 87.6976 154.357 88.6351 154.812 89.4033C155.281 90.1585 155.88 90.7314 156.609 91.1221C157.352 91.4997 158.243 91.6885 159.285 91.6885C160.509 91.6885 161.518 91.4932 162.312 91.1025C163.107 90.7119 163.712 90.1325 164.129 89.3643C164.559 88.596 164.812 87.639 164.891 86.4932ZM179.715 65.9268V95.9268H174.09V65.9268H179.715ZM178.914 84.6182H177.371C177.384 83.1468 177.579 81.7926 177.957 80.5557C178.335 79.3057 178.875 78.2249 179.578 77.3135C180.281 76.389 181.121 75.6729 182.098 75.165C183.087 74.6572 184.181 74.4033 185.379 74.4033C186.421 74.4033 187.365 74.5531 188.211 74.8525C189.07 75.139 189.806 75.6077 190.418 76.2588C191.043 76.8968 191.525 77.7367 191.863 78.7783C192.202 79.82 192.371 81.083 192.371 82.5674V95.9268H186.707V82.5283C186.707 81.5908 186.57 80.8551 186.297 80.3213C186.036 79.7744 185.652 79.3903 185.145 79.1689C184.65 78.9346 184.038 78.8174 183.309 78.8174C182.501 78.8174 181.811 78.9671 181.238 79.2666C180.678 79.5661 180.229 79.9827 179.891 80.5166C179.552 81.0374 179.305 81.6494 179.148 82.3525C178.992 83.0557 178.914 83.8109 178.914 84.6182ZM202.586 74.7939V95.9268H196.941V74.7939H202.586ZM196.59 69.2861C196.59 68.4658 196.876 67.7887 197.449 67.2549C198.022 66.721 198.79 66.4541 199.754 66.4541C200.704 66.4541 201.466 66.721 202.039 67.2549C202.625 67.7887 202.918 68.4658 202.918 69.2861C202.918 70.1064 202.625 70.7835 202.039 71.3174C201.466 71.8512 200.704 72.1182 199.754 72.1182C198.79 72.1182 198.022 71.8512 197.449 71.3174C196.876 70.7835 196.59 70.1064 196.59 69.2861ZM207.234 65.9268H212.859V91.083L212.293 95.9268H207.234V65.9268ZM226.238 85.1455V85.5557C226.238 87.1312 226.069 88.5765 225.73 89.8916C225.405 91.2067 224.897 92.346 224.207 93.3096C223.517 94.2601 222.658 95.0023 221.629 95.5361C220.613 96.057 219.415 96.3174 218.035 96.3174C216.746 96.3174 215.626 96.057 214.676 95.5361C213.738 95.0153 212.951 94.2796 212.312 93.3291C211.674 92.3786 211.16 91.2653 210.77 89.9893C210.379 88.7132 210.086 87.32 209.891 85.8096V84.9111C210.086 83.4007 210.379 82.0075 210.77 80.7314C211.16 79.4554 211.674 78.3421 212.312 77.3916C212.951 76.4411 213.738 75.7054 214.676 75.1846C215.613 74.6637 216.72 74.4033 217.996 74.4033C219.389 74.4033 220.6 74.6702 221.629 75.2041C222.671 75.7249 223.53 76.4671 224.207 77.4307C224.897 78.3812 225.405 79.514 225.73 80.8291C226.069 82.1312 226.238 83.57 226.238 85.1455ZM220.613 85.5557V85.1455C220.613 84.2861 220.548 83.4788 220.418 82.7236C220.301 81.9554 220.092 81.2848 219.793 80.7119C219.493 80.126 219.083 79.6637 218.562 79.3252C218.055 78.9867 217.397 78.8174 216.59 78.8174C215.822 78.8174 215.171 78.9476 214.637 79.208C214.103 79.4684 213.66 79.833 213.309 80.3018C212.97 80.7705 212.716 81.3304 212.547 81.9814C212.378 82.6195 212.273 83.3226 212.234 84.0908V86.6494C212.273 87.6781 212.443 88.5895 212.742 89.3838C213.055 90.165 213.523 90.7835 214.148 91.2393C214.786 91.682 215.613 91.9033 216.629 91.9033C217.423 91.9033 218.081 91.7471 218.602 91.4346C219.122 91.1221 219.526 90.6794 219.812 90.1064C220.112 89.5335 220.32 88.863 220.438 88.0947C220.555 87.3135 220.613 86.4671 220.613 85.5557ZM235.672 74.7939V95.9268H230.027V74.7939H235.672ZM229.676 69.2861C229.676 68.4658 229.962 67.7887 230.535 67.2549C231.108 66.721 231.876 66.4541 232.84 66.4541C233.79 66.4541 234.552 66.721 235.125 67.2549C235.711 67.7887 236.004 68.4658 236.004 69.2861C236.004 70.1064 235.711 70.7835 235.125 71.3174C234.552 71.8512 233.79 72.1182 232.84 72.1182C231.876 72.1182 231.108 71.8512 230.535 71.3174C229.962 70.7835 229.676 70.1064 229.676 69.2861Z" fill="black"/>
<path d="M60.2266 124.021L65.3945 134.015L70.5762 124.021H73.5703L66.707 136.489V143.927H64.0684V136.489L57.2051 124.021H60.2266ZM74.1719 136.694V136.38C74.1719 135.313 74.3268 134.325 74.6367 133.413C74.9466 132.493 75.3932 131.695 75.9766 131.021C76.5599 130.337 77.2663 129.808 78.0957 129.435C78.9251 129.052 79.8548 128.86 80.8848 128.86C81.9238 128.86 82.8581 129.052 83.6875 129.435C84.526 129.808 85.237 130.337 85.8203 131.021C86.4128 131.695 86.8639 132.493 87.1738 133.413C87.4837 134.325 87.6387 135.313 87.6387 136.38V136.694C87.6387 137.761 87.4837 138.75 87.1738 139.661C86.8639 140.573 86.4128 141.37 85.8203 142.054C85.237 142.728 84.5306 143.257 83.7012 143.64C82.8809 144.013 81.9512 144.2 80.9121 144.2C79.873 144.2 78.9388 144.013 78.1094 143.64C77.2799 143.257 76.569 142.728 75.9766 142.054C75.3932 141.37 74.9466 140.573 74.6367 139.661C74.3268 138.75 74.1719 137.761 74.1719 136.694ZM76.7012 136.38V136.694C76.7012 137.433 76.7878 138.13 76.9609 138.786C77.1341 139.433 77.3939 140.007 77.7402 140.509C78.0957 141.01 78.5378 141.407 79.0664 141.698C79.5951 141.981 80.2103 142.122 80.9121 142.122C81.6048 142.122 82.2109 141.981 82.7305 141.698C83.2591 141.407 83.6966 141.01 84.043 140.509C84.3893 140.007 84.6491 139.433 84.8223 138.786C85.0046 138.13 85.0957 137.433 85.0957 136.694V136.38C85.0957 135.651 85.0046 134.963 84.8223 134.315C84.6491 133.659 84.3848 133.08 84.0293 132.579C83.6829 132.069 83.2454 131.668 82.7168 131.376C82.1973 131.084 81.5866 130.938 80.8848 130.938C80.1921 130.938 79.5814 131.084 79.0527 131.376C78.5332 131.668 78.0957 132.069 77.7402 132.579C77.3939 133.08 77.1341 133.659 76.9609 134.315C76.7878 134.963 76.7012 135.651 76.7012 136.38ZM99.8613 140.509V129.134H102.404V143.927H99.9844L99.8613 140.509ZM100.34 137.392L101.393 137.364C101.393 138.349 101.288 139.26 101.078 140.099C100.878 140.928 100.549 141.648 100.094 142.259C99.638 142.869 99.041 143.348 98.3027 143.694C97.5645 144.032 96.6667 144.2 95.6094 144.2C94.8893 144.2 94.2285 144.095 93.627 143.886C93.0345 143.676 92.5241 143.353 92.0957 142.915C91.6673 142.478 91.3346 141.908 91.0977 141.206C90.8698 140.504 90.7559 139.661 90.7559 138.677V129.134H93.2852V138.704C93.2852 139.369 93.3581 139.921 93.5039 140.358C93.6589 140.787 93.8639 141.129 94.1191 141.384C94.3835 141.63 94.6751 141.803 94.9941 141.903C95.3223 142.004 95.6595 142.054 96.0059 142.054C97.0814 142.054 97.9336 141.849 98.5625 141.438C99.1914 141.019 99.6426 140.459 99.916 139.757C100.199 139.046 100.34 138.257 100.34 137.392ZM107.805 122.927V124.431L107.518 129.462H105.754L105.768 124.663V122.927H107.805ZM113.902 122.927V143.927H111.359V122.927H113.902ZM120.711 122.927V143.927H118.168V122.927H120.711ZM141.301 129.134H143.598V143.612C143.598 144.916 143.333 146.028 142.805 146.948C142.276 147.869 141.538 148.566 140.59 149.04C139.651 149.523 138.566 149.765 137.336 149.765C136.826 149.765 136.224 149.683 135.531 149.519C134.848 149.364 134.173 149.095 133.508 148.712C132.852 148.338 132.3 147.832 131.854 147.194L133.18 145.69C133.799 146.438 134.447 146.957 135.121 147.249C135.805 147.541 136.479 147.687 137.145 147.687C137.947 147.687 138.639 147.536 139.223 147.235C139.806 146.935 140.257 146.488 140.576 145.896C140.904 145.312 141.068 144.592 141.068 143.735V132.388L141.301 129.134ZM131.115 136.694V136.407C131.115 135.277 131.247 134.252 131.512 133.331C131.785 132.401 132.173 131.604 132.674 130.938C133.184 130.273 133.799 129.763 134.52 129.407C135.24 129.043 136.051 128.86 136.953 128.86C137.883 128.86 138.694 129.024 139.387 129.353C140.089 129.672 140.681 130.141 141.164 130.761C141.656 131.371 142.044 132.11 142.326 132.976C142.609 133.841 142.805 134.821 142.914 135.915V137.173C142.814 138.257 142.618 139.233 142.326 140.099C142.044 140.965 141.656 141.703 141.164 142.313C140.681 142.924 140.089 143.394 139.387 143.722C138.685 144.041 137.865 144.2 136.926 144.2C136.042 144.2 135.24 144.013 134.52 143.64C133.809 143.266 133.198 142.742 132.688 142.067C132.177 141.393 131.785 140.6 131.512 139.688C131.247 138.768 131.115 137.77 131.115 136.694ZM133.645 136.407V136.694C133.645 137.433 133.717 138.125 133.863 138.772C134.018 139.42 134.251 139.989 134.561 140.481C134.88 140.974 135.285 141.361 135.777 141.644C136.27 141.917 136.857 142.054 137.541 142.054C138.38 142.054 139.072 141.876 139.619 141.521C140.166 141.165 140.599 140.696 140.918 140.112C141.246 139.529 141.501 138.896 141.684 138.212V134.917C141.583 134.416 141.428 133.933 141.219 133.468C141.018 132.994 140.754 132.575 140.426 132.21C140.107 131.836 139.71 131.54 139.236 131.321C138.762 131.103 138.206 130.993 137.568 130.993C136.876 130.993 136.279 131.139 135.777 131.431C135.285 131.713 134.88 132.105 134.561 132.606C134.251 133.099 134.018 133.673 133.863 134.329C133.717 134.976 133.645 135.669 133.645 136.407ZM153.578 144.2C152.548 144.2 151.614 144.027 150.775 143.681C149.946 143.325 149.23 142.828 148.629 142.19C148.036 141.552 147.581 140.796 147.262 139.921C146.943 139.046 146.783 138.089 146.783 137.05V136.476C146.783 135.272 146.961 134.201 147.316 133.263C147.672 132.315 148.155 131.513 148.766 130.856C149.376 130.2 150.069 129.703 150.844 129.366C151.618 129.029 152.421 128.86 153.25 128.86C154.307 128.86 155.219 129.043 155.984 129.407C156.759 129.772 157.393 130.282 157.885 130.938C158.377 131.586 158.742 132.351 158.979 133.235C159.215 134.11 159.334 135.067 159.334 136.106V137.241H148.287V135.177H156.805V134.985C156.768 134.329 156.632 133.691 156.395 133.071C156.167 132.451 155.802 131.941 155.301 131.54C154.799 131.139 154.116 130.938 153.25 130.938C152.676 130.938 152.147 131.062 151.664 131.308C151.181 131.545 150.766 131.9 150.42 132.374C150.074 132.848 149.805 133.427 149.613 134.11C149.422 134.794 149.326 135.582 149.326 136.476V137.05C149.326 137.752 149.422 138.412 149.613 139.032C149.814 139.643 150.101 140.181 150.475 140.646C150.857 141.11 151.318 141.475 151.855 141.739C152.402 142.004 153.022 142.136 153.715 142.136C154.608 142.136 155.365 141.953 155.984 141.589C156.604 141.224 157.146 140.737 157.611 140.126L159.143 141.343C158.824 141.826 158.418 142.286 157.926 142.724C157.434 143.161 156.827 143.517 156.107 143.79C155.396 144.063 154.553 144.2 153.578 144.2ZM168.48 129.134V131.075H160.482V129.134H168.48ZM163.189 125.538H165.719V140.263C165.719 140.764 165.796 141.142 165.951 141.397C166.106 141.653 166.307 141.821 166.553 141.903C166.799 141.985 167.063 142.026 167.346 142.026C167.555 142.026 167.774 142.008 168.002 141.972C168.239 141.926 168.417 141.89 168.535 141.862L168.549 143.927C168.348 143.991 168.084 144.05 167.756 144.104C167.437 144.168 167.049 144.2 166.594 144.2C165.974 144.2 165.404 144.077 164.885 143.831C164.365 143.585 163.951 143.175 163.641 142.601C163.34 142.017 163.189 141.233 163.189 140.249V125.538ZM187.115 141.397V133.782C187.115 133.199 186.997 132.693 186.76 132.265C186.532 131.827 186.186 131.49 185.721 131.253C185.256 131.016 184.682 130.897 183.998 130.897C183.36 130.897 182.799 131.007 182.316 131.226C181.842 131.444 181.469 131.731 181.195 132.087C180.931 132.442 180.799 132.825 180.799 133.235H178.27C178.27 132.707 178.406 132.183 178.68 131.663C178.953 131.144 179.345 130.674 179.855 130.255C180.375 129.826 180.995 129.489 181.715 129.243C182.444 128.988 183.255 128.86 184.148 128.86C185.224 128.86 186.172 129.043 186.992 129.407C187.822 129.772 188.469 130.323 188.934 131.062C189.408 131.791 189.645 132.707 189.645 133.81V140.7C189.645 141.192 189.686 141.716 189.768 142.272C189.859 142.828 189.991 143.307 190.164 143.708V143.927H187.525C187.398 143.635 187.298 143.248 187.225 142.765C187.152 142.272 187.115 141.817 187.115 141.397ZM187.553 134.958L187.58 136.735H185.023C184.303 136.735 183.661 136.795 183.096 136.913C182.531 137.022 182.057 137.191 181.674 137.419C181.291 137.647 180.999 137.934 180.799 138.28C180.598 138.618 180.498 139.014 180.498 139.47C180.498 139.935 180.603 140.358 180.812 140.741C181.022 141.124 181.337 141.429 181.756 141.657C182.184 141.876 182.708 141.985 183.328 141.985C184.103 141.985 184.786 141.821 185.379 141.493C185.971 141.165 186.441 140.764 186.787 140.29C187.143 139.816 187.334 139.356 187.361 138.909L188.441 140.126C188.378 140.509 188.204 140.933 187.922 141.397C187.639 141.862 187.261 142.309 186.787 142.737C186.322 143.157 185.766 143.507 185.119 143.79C184.481 144.063 183.761 144.2 182.959 144.2C181.956 144.2 181.077 144.004 180.32 143.612C179.573 143.22 178.99 142.696 178.57 142.04C178.16 141.375 177.955 140.632 177.955 139.812C177.955 139.019 178.11 138.321 178.42 137.72C178.73 137.109 179.176 136.603 179.76 136.202C180.343 135.792 181.045 135.482 181.865 135.272C182.686 135.063 183.602 134.958 184.613 134.958H187.553ZM212.969 137.597H215.594C215.457 138.854 215.097 139.98 214.514 140.974C213.93 141.967 213.105 142.756 212.039 143.339C210.973 143.913 209.642 144.2 208.047 144.2C206.88 144.2 205.818 143.981 204.861 143.544C203.913 143.106 203.098 142.487 202.414 141.685C201.73 140.873 201.202 139.903 200.828 138.772C200.464 137.633 200.281 136.366 200.281 134.972V132.989C200.281 131.595 200.464 130.332 200.828 129.202C201.202 128.063 201.735 127.088 202.428 126.276C203.13 125.465 203.973 124.841 204.957 124.403C205.941 123.966 207.049 123.747 208.279 123.747C209.783 123.747 211.055 124.03 212.094 124.595C213.133 125.16 213.939 125.944 214.514 126.946C215.097 127.94 215.457 129.093 215.594 130.405H212.969C212.841 129.476 212.604 128.678 212.258 128.013C211.911 127.338 211.419 126.819 210.781 126.454C210.143 126.09 209.309 125.907 208.279 125.907C207.395 125.907 206.616 126.076 205.941 126.413C205.276 126.75 204.715 127.229 204.26 127.849C203.813 128.468 203.476 129.211 203.248 130.077C203.02 130.943 202.906 131.905 202.906 132.962V134.972C202.906 135.947 203.007 136.863 203.207 137.72C203.417 138.576 203.731 139.328 204.15 139.976C204.57 140.623 205.103 141.133 205.75 141.507C206.397 141.871 207.163 142.054 208.047 142.054C209.168 142.054 210.061 141.876 210.727 141.521C211.392 141.165 211.893 140.655 212.23 139.989C212.577 139.324 212.823 138.526 212.969 137.597ZM221.336 122.927V143.927H218.807V122.927H221.336ZM220.734 135.97L219.682 135.929C219.691 134.917 219.841 133.983 220.133 133.126C220.424 132.26 220.835 131.508 221.363 130.87C221.892 130.232 222.521 129.74 223.25 129.394C223.988 129.038 224.804 128.86 225.697 128.86C226.426 128.86 227.083 128.961 227.666 129.161C228.249 129.353 228.746 129.662 229.156 130.091C229.576 130.519 229.895 131.075 230.113 131.759C230.332 132.433 230.441 133.258 230.441 134.233V143.927H227.898V134.206C227.898 133.431 227.785 132.812 227.557 132.347C227.329 131.873 226.996 131.531 226.559 131.321C226.121 131.103 225.583 130.993 224.945 130.993C224.316 130.993 223.742 131.125 223.223 131.39C222.712 131.654 222.27 132.019 221.896 132.483C221.532 132.948 221.245 133.481 221.035 134.083C220.835 134.675 220.734 135.304 220.734 135.97ZM236.977 129.134V143.927H234.434V129.134H236.977ZM234.242 125.21C234.242 124.8 234.365 124.453 234.611 124.171C234.867 123.888 235.24 123.747 235.732 123.747C236.215 123.747 236.585 123.888 236.84 124.171C237.104 124.453 237.236 124.8 237.236 125.21C237.236 125.602 237.104 125.939 236.84 126.222C236.585 126.495 236.215 126.632 235.732 126.632C235.24 126.632 234.867 126.495 234.611 126.222C234.365 125.939 234.242 125.602 234.242 125.21ZM241.023 122.927H243.566V141.056L243.348 143.927H241.023V122.927ZM253.561 136.407V136.694C253.561 137.77 253.433 138.768 253.178 139.688C252.923 140.6 252.549 141.393 252.057 142.067C251.564 142.742 250.963 143.266 250.252 143.64C249.541 144.013 248.725 144.2 247.805 144.2C246.866 144.2 246.041 144.041 245.33 143.722C244.628 143.394 244.036 142.924 243.553 142.313C243.07 141.703 242.682 140.965 242.391 140.099C242.108 139.233 241.912 138.257 241.803 137.173V135.915C241.912 134.821 242.108 133.841 242.391 132.976C242.682 132.11 243.07 131.371 243.553 130.761C244.036 130.141 244.628 129.672 245.33 129.353C246.032 129.024 246.848 128.86 247.777 128.86C248.707 128.86 249.532 129.043 250.252 129.407C250.972 129.763 251.574 130.273 252.057 130.938C252.549 131.604 252.923 132.401 253.178 133.331C253.433 134.252 253.561 135.277 253.561 136.407ZM251.018 136.694V136.407C251.018 135.669 250.949 134.976 250.812 134.329C250.676 133.673 250.457 133.099 250.156 132.606C249.855 132.105 249.459 131.713 248.967 131.431C248.475 131.139 247.868 130.993 247.148 130.993C246.51 130.993 245.954 131.103 245.48 131.321C245.016 131.54 244.619 131.836 244.291 132.21C243.963 132.575 243.694 132.994 243.484 133.468C243.284 133.933 243.133 134.416 243.033 134.917V138.212C243.179 138.85 243.416 139.465 243.744 140.058C244.081 140.641 244.528 141.119 245.084 141.493C245.649 141.867 246.346 142.054 247.176 142.054C247.859 142.054 248.443 141.917 248.926 141.644C249.418 141.361 249.814 140.974 250.115 140.481C250.425 139.989 250.653 139.42 250.799 138.772C250.945 138.125 251.018 137.433 251.018 136.694ZM259.508 129.134V143.927H256.965V129.134H259.508ZM256.773 125.21C256.773 124.8 256.896 124.453 257.143 124.171C257.398 123.888 257.771 123.747 258.264 123.747C258.747 123.747 259.116 123.888 259.371 124.171C259.635 124.453 259.768 124.8 259.768 125.21C259.768 125.602 259.635 125.939 259.371 126.222C259.116 126.495 258.747 126.632 258.264 126.632C257.771 126.632 257.398 126.495 257.143 126.222C256.896 125.939 256.773 125.602 256.773 125.21ZM274.26 141.302L278.061 129.134H279.729L279.4 131.554L275.531 143.927H273.904L274.26 141.302ZM271.703 129.134L274.943 141.438L275.176 143.927H273.467L269.174 129.134H271.703ZM283.365 141.343L286.455 129.134H288.971L284.678 143.927H282.982L283.365 141.343ZM280.098 129.134L283.816 141.097L284.24 143.927H282.627L278.648 131.526L278.32 129.134H280.098ZM294.316 129.134V143.927H291.773V129.134H294.316ZM291.582 125.21C291.582 124.8 291.705 124.453 291.951 124.171C292.206 123.888 292.58 123.747 293.072 123.747C293.555 123.747 293.924 123.888 294.18 124.171C294.444 124.453 294.576 124.8 294.576 125.21C294.576 125.602 294.444 125.939 294.18 126.222C293.924 126.495 293.555 126.632 293.072 126.632C292.58 126.632 292.206 126.495 291.951 126.222C291.705 125.939 291.582 125.602 291.582 125.21ZM304.57 129.134V131.075H296.572V129.134H304.57ZM299.279 125.538H301.809V140.263C301.809 140.764 301.886 141.142 302.041 141.397C302.196 141.653 302.396 141.821 302.643 141.903C302.889 141.985 303.153 142.026 303.436 142.026C303.645 142.026 303.864 142.008 304.092 141.972C304.329 141.926 304.507 141.89 304.625 141.862L304.639 143.927C304.438 143.991 304.174 144.05 303.846 144.104C303.527 144.168 303.139 144.2 302.684 144.2C302.064 144.2 301.494 144.077 300.975 143.831C300.455 143.585 300.04 143.175 299.73 142.601C299.43 142.017 299.279 141.233 299.279 140.249V125.538ZM310.066 122.927V143.927H307.537V122.927H310.066ZM309.465 135.97L308.412 135.929C308.421 134.917 308.572 133.983 308.863 133.126C309.155 132.26 309.565 131.508 310.094 130.87C310.622 130.232 311.251 129.74 311.98 129.394C312.719 129.038 313.535 128.86 314.428 128.86C315.157 128.86 315.813 128.961 316.396 129.161C316.98 129.353 317.477 129.662 317.887 130.091C318.306 130.519 318.625 131.075 318.844 131.759C319.062 132.433 319.172 133.258 319.172 134.233V143.927H316.629V134.206C316.629 133.431 316.515 132.812 316.287 132.347C316.059 131.873 315.727 131.531 315.289 131.321C314.852 131.103 314.314 130.993 313.676 130.993C313.047 130.993 312.473 131.125 311.953 131.39C311.443 131.654 311.001 132.019 310.627 132.483C310.262 132.948 309.975 133.481 309.766 134.083C309.565 134.675 309.465 135.304 309.465 135.97ZM67.6504 177.397V169.782C67.6504 169.199 67.5319 168.693 67.2949 168.265C67.0671 167.827 66.7207 167.49 66.2559 167.253C65.791 167.016 65.2168 166.897 64.5332 166.897C63.8952 166.897 63.3346 167.007 62.8516 167.226C62.3776 167.444 62.0039 167.731 61.7305 168.087C61.4661 168.442 61.334 168.825 61.334 169.235H58.8047C58.8047 168.707 58.9414 168.183 59.2148 167.663C59.4883 167.144 59.8802 166.674 60.3906 166.255C60.9102 165.826 61.5299 165.489 62.25 165.243C62.9792 164.988 63.7904 164.86 64.6836 164.86C65.7591 164.86 66.707 165.043 67.5273 165.407C68.3568 165.772 69.0039 166.323 69.4688 167.062C69.9427 167.791 70.1797 168.707 70.1797 169.81V176.7C70.1797 177.192 70.2207 177.716 70.3027 178.272C70.3939 178.828 70.526 179.307 70.6992 179.708V179.927H68.0605C67.9329 179.635 67.8327 179.248 67.7598 178.765C67.6868 178.272 67.6504 177.817 67.6504 177.397ZM68.0879 170.958L68.1152 172.735H65.5586C64.8385 172.735 64.196 172.795 63.6309 172.913C63.0658 173.022 62.5918 173.191 62.209 173.419C61.8262 173.647 61.5345 173.934 61.334 174.28C61.1335 174.618 61.0332 175.014 61.0332 175.47C61.0332 175.935 61.138 176.358 61.3477 176.741C61.5573 177.124 61.8717 177.429 62.291 177.657C62.7194 177.876 63.2435 177.985 63.8633 177.985C64.638 177.985 65.3216 177.821 65.9141 177.493C66.5065 177.165 66.9759 176.764 67.3223 176.29C67.6777 175.816 67.8691 175.356 67.8965 174.909L68.9766 176.126C68.9128 176.509 68.7396 176.933 68.457 177.397C68.1745 177.862 67.7962 178.309 67.3223 178.737C66.8574 179.157 66.3014 179.507 65.6543 179.79C65.0163 180.063 64.2962 180.2 63.4941 180.2C62.4915 180.2 61.612 180.004 60.8555 179.612C60.1081 179.22 59.5247 178.696 59.1055 178.04C58.6953 177.375 58.4902 176.632 58.4902 175.812C58.4902 175.019 58.6452 174.321 58.9551 173.72C59.265 173.109 59.7116 172.603 60.2949 172.202C60.8783 171.792 61.5801 171.482 62.4004 171.272C63.2207 171.063 64.1367 170.958 65.1484 170.958H68.0879ZM83.6328 167.458V179.927H81.1035V165.134H83.5645L83.6328 167.458ZM88.2539 165.052L88.2402 167.403C88.0306 167.358 87.8301 167.33 87.6387 167.321C87.4564 167.303 87.2467 167.294 87.0098 167.294C86.4264 167.294 85.9115 167.385 85.4648 167.567C85.0182 167.75 84.64 168.005 84.3301 168.333C84.0202 168.661 83.7741 169.053 83.5918 169.509C83.4186 169.955 83.3047 170.448 83.25 170.985L82.5391 171.396C82.5391 170.502 82.6257 169.664 82.7988 168.88C82.9811 168.096 83.2591 167.403 83.6328 166.802C84.0065 166.191 84.4805 165.717 85.0547 165.38C85.638 165.034 86.3307 164.86 87.1328 164.86C87.3151 164.86 87.5247 164.883 87.7617 164.929C87.9987 164.965 88.1628 165.006 88.2539 165.052ZM98.7676 177.397V169.782C98.7676 169.199 98.6491 168.693 98.4121 168.265C98.1842 167.827 97.8379 167.49 97.373 167.253C96.9082 167.016 96.334 166.897 95.6504 166.897C95.0124 166.897 94.4518 167.007 93.9688 167.226C93.4948 167.444 93.1211 167.731 92.8477 168.087C92.5833 168.442 92.4512 168.825 92.4512 169.235H89.9219C89.9219 168.707 90.0586 168.183 90.332 167.663C90.6055 167.144 90.9974 166.674 91.5078 166.255C92.0273 165.826 92.6471 165.489 93.3672 165.243C94.0964 164.988 94.9076 164.86 95.8008 164.86C96.8763 164.86 97.8242 165.043 98.6445 165.407C99.474 165.772 100.121 166.323 100.586 167.062C101.06 167.791 101.297 168.707 101.297 169.81V176.7C101.297 177.192 101.338 177.716 101.42 178.272C101.511 178.828 101.643 179.307 101.816 179.708V179.927H99.1777C99.0501 179.635 98.9499 179.248 98.877 178.765C98.804 178.272 98.7676 177.817 98.7676 177.397ZM99.2051 170.958L99.2324 172.735H96.6758C95.9557 172.735 95.3132 172.795 94.748 172.913C94.1829 173.022 93.709 173.191 93.3262 173.419C92.9434 173.647 92.6517 173.934 92.4512 174.28C92.2507 174.618 92.1504 175.014 92.1504 175.47C92.1504 175.935 92.2552 176.358 92.4648 176.741C92.6745 177.124 92.9889 177.429 93.4082 177.657C93.8366 177.876 94.3607 177.985 94.9805 177.985C95.7552 177.985 96.4388 177.821 97.0312 177.493C97.6237 177.165 98.0931 176.764 98.4395 176.29C98.7949 175.816 98.9863 175.356 99.0137 174.909L100.094 176.126C100.03 176.509 99.8568 176.933 99.5742 177.397C99.2917 177.862 98.9134 178.309 98.4395 178.737C97.9746 179.157 97.4186 179.507 96.7715 179.79C96.1335 180.063 95.4134 180.2 94.6113 180.2C93.6087 180.2 92.7292 180.004 91.9727 179.612C91.2253 179.22 90.6419 178.696 90.2227 178.04C89.8125 177.375 89.6074 176.632 89.6074 175.812C89.6074 175.019 89.7624 174.321 90.0723 173.72C90.3822 173.109 90.8288 172.603 91.4121 172.202C91.9954 171.792 92.6973 171.482 93.5176 171.272C94.3379 171.063 95.2539 170.958 96.2656 170.958H99.2051ZM107.805 168.292V179.927H105.275V165.134H107.668L107.805 168.292ZM107.203 171.97L106.15 171.929C106.16 170.917 106.31 169.983 106.602 169.126C106.893 168.26 107.303 167.508 107.832 166.87C108.361 166.232 108.99 165.74 109.719 165.394C110.457 165.038 111.273 164.86 112.166 164.86C112.895 164.86 113.551 164.961 114.135 165.161C114.718 165.353 115.215 165.662 115.625 166.091C116.044 166.519 116.363 167.075 116.582 167.759C116.801 168.433 116.91 169.258 116.91 170.233V179.927H114.367V170.206C114.367 169.431 114.253 168.812 114.025 168.347C113.798 167.873 113.465 167.531 113.027 167.321C112.59 167.103 112.052 166.993 111.414 166.993C110.785 166.993 110.211 167.125 109.691 167.39C109.181 167.654 108.739 168.019 108.365 168.483C108.001 168.948 107.714 169.481 107.504 170.083C107.303 170.675 107.203 171.304 107.203 171.97ZM130.076 177.056V158.927H132.619V179.927H130.295L130.076 177.056ZM120.123 172.694V172.407C120.123 171.277 120.26 170.252 120.533 169.331C120.816 168.401 121.212 167.604 121.723 166.938C122.242 166.273 122.857 165.763 123.568 165.407C124.288 165.043 125.09 164.86 125.975 164.86C126.904 164.86 127.715 165.024 128.408 165.353C129.11 165.672 129.702 166.141 130.186 166.761C130.678 167.371 131.065 168.11 131.348 168.976C131.63 169.841 131.826 170.821 131.936 171.915V173.173C131.835 174.257 131.639 175.233 131.348 176.099C131.065 176.965 130.678 177.703 130.186 178.313C129.702 178.924 129.11 179.394 128.408 179.722C127.706 180.041 126.886 180.2 125.947 180.2C125.081 180.2 124.288 180.013 123.568 179.64C122.857 179.266 122.242 178.742 121.723 178.067C121.212 177.393 120.816 176.6 120.533 175.688C120.26 174.768 120.123 173.77 120.123 172.694ZM122.666 172.407V172.694C122.666 173.433 122.739 174.125 122.885 174.772C123.04 175.42 123.277 175.989 123.596 176.481C123.915 176.974 124.32 177.361 124.812 177.644C125.305 177.917 125.893 178.054 126.576 178.054C127.415 178.054 128.103 177.876 128.641 177.521C129.188 177.165 129.625 176.696 129.953 176.112C130.281 175.529 130.536 174.896 130.719 174.212V170.917C130.609 170.416 130.45 169.933 130.24 169.468C130.04 168.994 129.775 168.575 129.447 168.21C129.128 167.836 128.732 167.54 128.258 167.321C127.793 167.103 127.242 166.993 126.604 166.993C125.911 166.993 125.314 167.139 124.812 167.431C124.32 167.713 123.915 168.105 123.596 168.606C123.277 169.099 123.04 169.673 122.885 170.329C122.739 170.976 122.666 171.669 122.666 172.407ZM135.887 172.694V172.38C135.887 171.313 136.042 170.325 136.352 169.413C136.661 168.493 137.108 167.695 137.691 167.021C138.275 166.337 138.981 165.808 139.811 165.435C140.64 165.052 141.57 164.86 142.6 164.86C143.639 164.86 144.573 165.052 145.402 165.435C146.241 165.808 146.952 166.337 147.535 167.021C148.128 167.695 148.579 168.493 148.889 169.413C149.199 170.325 149.354 171.313 149.354 172.38V172.694C149.354 173.761 149.199 174.75 148.889 175.661C148.579 176.573 148.128 177.37 147.535 178.054C146.952 178.728 146.245 179.257 145.416 179.64C144.596 180.013 143.666 180.2 142.627 180.2C141.588 180.2 140.654 180.013 139.824 179.64C138.995 179.257 138.284 178.728 137.691 178.054C137.108 177.37 136.661 176.573 136.352 175.661C136.042 174.75 135.887 173.761 135.887 172.694ZM138.416 172.38V172.694C138.416 173.433 138.503 174.13 138.676 174.786C138.849 175.433 139.109 176.007 139.455 176.509C139.811 177.01 140.253 177.407 140.781 177.698C141.31 177.981 141.925 178.122 142.627 178.122C143.32 178.122 143.926 177.981 144.445 177.698C144.974 177.407 145.411 177.01 145.758 176.509C146.104 176.007 146.364 175.433 146.537 174.786C146.719 174.13 146.811 173.433 146.811 172.694V172.38C146.811 171.651 146.719 170.963 146.537 170.315C146.364 169.659 146.1 169.08 145.744 168.579C145.398 168.069 144.96 167.668 144.432 167.376C143.912 167.084 143.301 166.938 142.6 166.938C141.907 166.938 141.296 167.084 140.768 167.376C140.248 167.668 139.811 168.069 139.455 168.579C139.109 169.08 138.849 169.659 138.676 170.315C138.503 170.963 138.416 171.651 138.416 172.38ZM155.041 168.073V179.927H152.498V165.134H154.904L155.041 168.073ZM154.521 171.97L153.346 171.929C153.355 170.917 153.487 169.983 153.742 169.126C153.997 168.26 154.376 167.508 154.877 166.87C155.378 166.232 156.003 165.74 156.75 165.394C157.497 165.038 158.363 164.86 159.348 164.86C160.04 164.86 160.678 164.961 161.262 165.161C161.845 165.353 162.351 165.658 162.779 166.077C163.208 166.496 163.54 167.034 163.777 167.69C164.014 168.347 164.133 169.14 164.133 170.069V179.927H161.604V170.192C161.604 169.418 161.471 168.798 161.207 168.333C160.952 167.868 160.587 167.531 160.113 167.321C159.639 167.103 159.083 166.993 158.445 166.993C157.698 166.993 157.074 167.125 156.572 167.39C156.071 167.654 155.67 168.019 155.369 168.483C155.068 168.948 154.85 169.481 154.713 170.083C154.585 170.675 154.521 171.304 154.521 171.97ZM164.105 170.575L162.41 171.095C162.419 170.284 162.551 169.504 162.807 168.757C163.071 168.009 163.449 167.344 163.941 166.761C164.443 166.177 165.058 165.717 165.787 165.38C166.516 165.034 167.35 164.86 168.289 164.86C169.082 164.86 169.784 164.965 170.395 165.175C171.014 165.384 171.534 165.708 171.953 166.146C172.382 166.574 172.705 167.125 172.924 167.8C173.143 168.474 173.252 169.276 173.252 170.206V179.927H170.709V170.179C170.709 169.349 170.577 168.707 170.312 168.251C170.057 167.786 169.693 167.463 169.219 167.28C168.754 167.089 168.198 166.993 167.551 166.993C166.995 166.993 166.503 167.089 166.074 167.28C165.646 167.472 165.286 167.736 164.994 168.073C164.702 168.401 164.479 168.78 164.324 169.208C164.178 169.636 164.105 170.092 164.105 170.575ZM186.773 158.927V179.927H184.23V158.927H186.773ZM190.164 172.694V172.38C190.164 171.313 190.319 170.325 190.629 169.413C190.939 168.493 191.385 167.695 191.969 167.021C192.552 166.337 193.258 165.808 194.088 165.435C194.917 165.052 195.847 164.86 196.877 164.86C197.916 164.86 198.85 165.052 199.68 165.435C200.518 165.808 201.229 166.337 201.812 167.021C202.405 167.695 202.856 168.493 203.166 169.413C203.476 170.325 203.631 171.313 203.631 172.38V172.694C203.631 173.761 203.476 174.75 203.166 175.661C202.856 176.573 202.405 177.37 201.812 178.054C201.229 178.728 200.523 179.257 199.693 179.64C198.873 180.013 197.943 180.2 196.904 180.2C195.865 180.2 194.931 180.013 194.102 179.64C193.272 179.257 192.561 178.728 191.969 178.054C191.385 177.37 190.939 176.573 190.629 175.661C190.319 174.75 190.164 173.761 190.164 172.694ZM192.693 172.38V172.694C192.693 173.433 192.78 174.13 192.953 174.786C193.126 175.433 193.386 176.007 193.732 176.509C194.088 177.01 194.53 177.407 195.059 177.698C195.587 177.981 196.202 178.122 196.904 178.122C197.597 178.122 198.203 177.981 198.723 177.698C199.251 177.407 199.689 177.01 200.035 176.509C200.382 176.007 200.641 175.433 200.814 174.786C200.997 174.13 201.088 173.433 201.088 172.694V172.38C201.088 171.651 200.997 170.963 200.814 170.315C200.641 169.659 200.377 169.08 200.021 168.579C199.675 168.069 199.238 167.668 198.709 167.376C198.189 167.084 197.579 166.938 196.877 166.938C196.184 166.938 195.574 167.084 195.045 167.376C194.525 167.668 194.088 168.069 193.732 168.579C193.386 169.08 193.126 169.659 192.953 170.315C192.78 170.963 192.693 171.651 192.693 172.38ZM206.133 172.694V172.38C206.133 171.313 206.288 170.325 206.598 169.413C206.908 168.493 207.354 167.695 207.938 167.021C208.521 166.337 209.227 165.808 210.057 165.435C210.886 165.052 211.816 164.86 212.846 164.86C213.885 164.86 214.819 165.052 215.648 165.435C216.487 165.808 217.198 166.337 217.781 167.021C218.374 167.695 218.825 168.493 219.135 169.413C219.445 170.325 219.6 171.313 219.6 172.38V172.694C219.6 173.761 219.445 174.75 219.135 175.661C218.825 176.573 218.374 177.37 217.781 178.054C217.198 178.728 216.492 179.257 215.662 179.64C214.842 180.013 213.912 180.2 212.873 180.2C211.834 180.2 210.9 180.013 210.07 179.64C209.241 179.257 208.53 178.728 207.938 178.054C207.354 177.37 206.908 176.573 206.598 175.661C206.288 174.75 206.133 173.761 206.133 172.694ZM208.662 172.38V172.694C208.662 173.433 208.749 174.13 208.922 174.786C209.095 175.433 209.355 176.007 209.701 176.509C210.057 177.01 210.499 177.407 211.027 177.698C211.556 177.981 212.171 178.122 212.873 178.122C213.566 178.122 214.172 177.981 214.691 177.698C215.22 177.407 215.658 177.01 216.004 176.509C216.35 176.007 216.61 175.433 216.783 174.786C216.965 174.13 217.057 173.433 217.057 172.694V172.38C217.057 171.651 216.965 170.963 216.783 170.315C216.61 169.659 216.346 169.08 215.99 168.579C215.644 168.069 215.206 167.668 214.678 167.376C214.158 167.084 213.548 166.938 212.846 166.938C212.153 166.938 211.542 167.084 211.014 167.376C210.494 167.668 210.057 168.069 209.701 168.579C209.355 169.08 209.095 169.659 208.922 170.315C208.749 170.963 208.662 171.651 208.662 172.38ZM225.314 158.927V179.927H222.771V158.927H225.314ZM234.352 165.134L227.898 172.038L224.289 175.784L224.084 173.091L226.668 170.001L231.262 165.134H234.352ZM232.041 179.927L226.764 172.872L228.076 170.616L235.021 179.927H232.041ZM252.631 177.397V169.782C252.631 169.199 252.512 168.693 252.275 168.265C252.048 167.827 251.701 167.49 251.236 167.253C250.771 167.016 250.197 166.897 249.514 166.897C248.876 166.897 248.315 167.007 247.832 167.226C247.358 167.444 246.984 167.731 246.711 168.087C246.447 168.442 246.314 168.825 246.314 169.235H243.785C243.785 168.707 243.922 168.183 244.195 167.663C244.469 167.144 244.861 166.674 245.371 166.255C245.891 165.826 246.51 165.489 247.23 165.243C247.96 164.988 248.771 164.86 249.664 164.86C250.74 164.86 251.688 165.043 252.508 165.407C253.337 165.772 253.984 166.323 254.449 167.062C254.923 167.791 255.16 168.707 255.16 169.81V176.7C255.16 177.192 255.201 177.716 255.283 178.272C255.374 178.828 255.507 179.307 255.68 179.708V179.927H253.041C252.913 179.635 252.813 179.248 252.74 178.765C252.667 178.272 252.631 177.817 252.631 177.397ZM253.068 170.958L253.096 172.735H250.539C249.819 172.735 249.176 172.795 248.611 172.913C248.046 173.022 247.572 173.191 247.189 173.419C246.807 173.647 246.515 173.934 246.314 174.28C246.114 174.618 246.014 175.014 246.014 175.47C246.014 175.935 246.118 176.358 246.328 176.741C246.538 177.124 246.852 177.429 247.271 177.657C247.7 177.876 248.224 177.985 248.844 177.985C249.618 177.985 250.302 177.821 250.895 177.493C251.487 177.165 251.956 176.764 252.303 176.29C252.658 175.816 252.85 175.356 252.877 174.909L253.957 176.126C253.893 176.509 253.72 176.933 253.438 177.397C253.155 177.862 252.777 178.309 252.303 178.737C251.838 179.157 251.282 179.507 250.635 179.79C249.997 180.063 249.277 180.2 248.475 180.2C247.472 180.2 246.592 180.004 245.836 179.612C245.089 179.22 244.505 178.696 244.086 178.04C243.676 177.375 243.471 176.632 243.471 175.812C243.471 175.019 243.626 174.321 243.936 173.72C244.245 173.109 244.692 172.603 245.275 172.202C245.859 171.792 246.561 171.482 247.381 171.272C248.201 171.063 249.117 170.958 250.129 170.958H253.068ZM261.668 168.292V179.927H259.139V165.134H261.531L261.668 168.292ZM261.066 171.97L260.014 171.929C260.023 170.917 260.173 169.983 260.465 169.126C260.757 168.26 261.167 167.508 261.695 166.87C262.224 166.232 262.853 165.74 263.582 165.394C264.32 165.038 265.136 164.86 266.029 164.86C266.758 164.86 267.415 164.961 267.998 165.161C268.581 165.353 269.078 165.662 269.488 166.091C269.908 166.519 270.227 167.075 270.445 167.759C270.664 168.433 270.773 169.258 270.773 170.233V179.927H268.23V170.206C268.23 169.431 268.117 168.812 267.889 168.347C267.661 167.873 267.328 167.531 266.891 167.321C266.453 167.103 265.915 166.993 265.277 166.993C264.648 166.993 264.074 167.125 263.555 167.39C263.044 167.654 262.602 168.019 262.229 168.483C261.864 168.948 261.577 169.481 261.367 170.083C261.167 170.675 261.066 171.304 261.066 171.97ZM283.939 177.056V158.927H286.482V179.927H284.158L283.939 177.056ZM273.986 172.694V172.407C273.986 171.277 274.123 170.252 274.396 169.331C274.679 168.401 275.076 167.604 275.586 166.938C276.105 166.273 276.721 165.763 277.432 165.407C278.152 165.043 278.954 164.86 279.838 164.86C280.768 164.86 281.579 165.024 282.271 165.353C282.973 165.672 283.566 166.141 284.049 166.761C284.541 167.371 284.928 168.11 285.211 168.976C285.493 169.841 285.689 170.821 285.799 171.915V173.173C285.699 174.257 285.503 175.233 285.211 176.099C284.928 176.965 284.541 177.703 284.049 178.313C283.566 178.924 282.973 179.394 282.271 179.722C281.57 180.041 280.749 180.2 279.811 180.2C278.945 180.2 278.152 180.013 277.432 179.64C276.721 179.266 276.105 178.742 275.586 178.067C275.076 177.393 274.679 176.6 274.396 175.688C274.123 174.768 273.986 173.77 273.986 172.694ZM276.529 172.407V172.694C276.529 173.433 276.602 174.125 276.748 174.772C276.903 175.42 277.14 175.989 277.459 176.481C277.778 176.974 278.184 177.361 278.676 177.644C279.168 177.917 279.756 178.054 280.439 178.054C281.278 178.054 281.966 177.876 282.504 177.521C283.051 177.165 283.488 176.696 283.816 176.112C284.145 175.529 284.4 174.896 284.582 174.212V170.917C284.473 170.416 284.313 169.933 284.104 169.468C283.903 168.994 283.639 168.575 283.311 168.21C282.992 167.836 282.595 167.54 282.121 167.321C281.656 167.103 281.105 166.993 280.467 166.993C279.774 166.993 279.177 167.139 278.676 167.431C278.184 167.713 277.778 168.105 277.459 168.606C277.14 169.099 276.903 169.673 276.748 170.329C276.602 170.976 276.529 171.669 276.529 172.407ZM64.8477 214.122C65.4492 214.122 66.0052 213.999 66.5156 213.753C67.026 213.507 67.4453 213.17 67.7734 212.741C68.1016 212.304 68.2884 211.807 68.334 211.251H70.7402C70.6947 212.126 70.3984 212.942 69.8516 213.698C69.3138 214.446 68.6074 215.052 67.7324 215.517C66.8574 215.972 65.8958 216.2 64.8477 216.2C63.7357 216.2 62.765 216.004 61.9355 215.612C61.1152 215.22 60.4316 214.683 59.8848 213.999C59.347 213.315 58.9414 212.532 58.668 211.647C58.4036 210.754 58.2715 209.811 58.2715 208.817V208.243C58.2715 207.25 58.4036 206.311 58.668 205.427C58.9414 204.534 59.347 203.745 59.8848 203.062C60.4316 202.378 61.1152 201.84 61.9355 201.448C62.765 201.056 63.7357 200.86 64.8477 200.86C66.0052 200.86 67.0169 201.097 67.8828 201.571C68.7487 202.036 69.4277 202.674 69.9199 203.485C70.4212 204.287 70.6947 205.199 70.7402 206.22H68.334C68.2884 205.609 68.1152 205.058 67.8145 204.565C67.5228 204.073 67.1217 203.681 66.6113 203.39C66.11 203.089 65.5221 202.938 64.8477 202.938C64.0729 202.938 63.4212 203.093 62.8926 203.403C62.373 203.704 61.9583 204.114 61.6484 204.634C61.3477 205.144 61.1289 205.714 60.9922 206.343C60.8646 206.963 60.8008 207.596 60.8008 208.243V208.817C60.8008 209.465 60.8646 210.103 60.9922 210.731C61.1198 211.36 61.334 211.93 61.6348 212.44C61.9447 212.951 62.3594 213.361 62.8789 213.671C63.4076 213.972 64.0638 214.122 64.8477 214.122ZM76.1133 194.927V215.927H73.584V194.927H76.1133ZM75.5117 207.97L74.459 207.929C74.4681 206.917 74.6185 205.983 74.9102 205.126C75.2018 204.26 75.612 203.508 76.1406 202.87C76.6693 202.232 77.2982 201.74 78.0273 201.394C78.7656 201.038 79.5814 200.86 80.4746 200.86C81.2038 200.86 81.86 200.961 82.4434 201.161C83.0267 201.353 83.5234 201.662 83.9336 202.091C84.3529 202.519 84.6719 203.075 84.8906 203.759C85.1094 204.433 85.2188 205.258 85.2188 206.233V215.927H82.6758V206.206C82.6758 205.431 82.5618 204.812 82.334 204.347C82.1061 203.873 81.7734 203.531 81.3359 203.321C80.8984 203.103 80.3607 202.993 79.7227 202.993C79.0938 202.993 78.5195 203.125 78 203.39C77.4896 203.654 77.0475 204.019 76.6738 204.483C76.3092 204.948 76.0221 205.481 75.8125 206.083C75.612 206.675 75.5117 207.304 75.5117 207.97ZM97.7285 213.397V205.782C97.7285 205.199 97.61 204.693 97.373 204.265C97.1452 203.827 96.7988 203.49 96.334 203.253C95.8691 203.016 95.2949 202.897 94.6113 202.897C93.9733 202.897 93.4128 203.007 92.9297 203.226C92.4557 203.444 92.082 203.731 91.8086 204.087C91.5443 204.442 91.4121 204.825 91.4121 205.235H88.8828C88.8828 204.707 89.0195 204.183 89.293 203.663C89.5664 203.144 89.9583 202.674 90.4688 202.255C90.9883 201.826 91.6081 201.489 92.3281 201.243C93.0573 200.988 93.8685 200.86 94.7617 200.86C95.8372 200.86 96.7852 201.043 97.6055 201.407C98.4349 201.772 99.082 202.323 99.5469 203.062C100.021 203.791 100.258 204.707 100.258 205.81V212.7C100.258 213.192 100.299 213.716 100.381 214.272C100.472 214.828 100.604 215.307 100.777 215.708V215.927H98.1387C98.0111 215.635 97.9108 215.248 97.8379 214.765C97.765 214.272 97.7285 213.817 97.7285 213.397ZM98.166 206.958L98.1934 208.735H95.6367C94.9167 208.735 94.2741 208.795 93.709 208.913C93.1439 209.022 92.6699 209.191 92.2871 209.419C91.9043 209.647 91.6126 209.934 91.4121 210.28C91.2116 210.618 91.1113 211.014 91.1113 211.47C91.1113 211.935 91.2161 212.358 91.4258 212.741C91.6354 213.124 91.9499 213.429 92.3691 213.657C92.7975 213.876 93.3216 213.985 93.9414 213.985C94.7161 213.985 95.3997 213.821 95.9922 213.493C96.5846 213.165 97.054 212.764 97.4004 212.29C97.7559 211.816 97.9473 211.356 97.9746 210.909L99.0547 212.126C98.9909 212.509 98.8177 212.933 98.5352 213.397C98.2526 213.862 97.8743 214.309 97.4004 214.737C96.9355 215.157 96.3796 215.507 95.7324 215.79C95.0944 216.063 94.3743 216.2 93.5723 216.2C92.5697 216.2 91.6901 216.004 90.9336 215.612C90.1862 215.22 89.6029 214.696 89.1836 214.04C88.7734 213.375 88.5684 212.632 88.5684 211.812C88.5684 211.019 88.7233 210.321 89.0332 209.72C89.3431 209.109 89.7897 208.603 90.373 208.202C90.9564 207.792 91.6582 207.482 92.4785 207.272C93.2988 207.063 94.2148 206.958 95.2266 206.958H98.166ZM106.766 203.458V215.927H104.236V201.134H106.697L106.766 203.458ZM111.387 201.052L111.373 203.403C111.163 203.358 110.963 203.33 110.771 203.321C110.589 203.303 110.38 203.294 110.143 203.294C109.559 203.294 109.044 203.385 108.598 203.567C108.151 203.75 107.773 204.005 107.463 204.333C107.153 204.661 106.907 205.053 106.725 205.509C106.551 205.955 106.438 206.448 106.383 206.985L105.672 207.396C105.672 206.502 105.758 205.664 105.932 204.88C106.114 204.096 106.392 203.403 106.766 202.802C107.139 202.191 107.613 201.717 108.188 201.38C108.771 201.034 109.464 200.86 110.266 200.86C110.448 200.86 110.658 200.883 110.895 200.929C111.132 200.965 111.296 201.006 111.387 201.052ZM121.9 213.397V205.782C121.9 205.199 121.782 204.693 121.545 204.265C121.317 203.827 120.971 203.49 120.506 203.253C120.041 203.016 119.467 202.897 118.783 202.897C118.145 202.897 117.585 203.007 117.102 203.226C116.628 203.444 116.254 203.731 115.98 204.087C115.716 204.442 115.584 204.825 115.584 205.235H113.055C113.055 204.707 113.191 204.183 113.465 203.663C113.738 203.144 114.13 202.674 114.641 202.255C115.16 201.826 115.78 201.489 116.5 201.243C117.229 200.988 118.04 200.86 118.934 200.86C120.009 200.86 120.957 201.043 121.777 201.407C122.607 201.772 123.254 202.323 123.719 203.062C124.193 203.791 124.43 204.707 124.43 205.81V212.7C124.43 213.192 124.471 213.716 124.553 214.272C124.644 214.828 124.776 215.307 124.949 215.708V215.927H122.311C122.183 215.635 122.083 215.248 122.01 214.765C121.937 214.272 121.9 213.817 121.9 213.397ZM122.338 206.958L122.365 208.735H119.809C119.089 208.735 118.446 208.795 117.881 208.913C117.316 209.022 116.842 209.191 116.459 209.419C116.076 209.647 115.785 209.934 115.584 210.28C115.383 210.618 115.283 211.014 115.283 211.47C115.283 211.935 115.388 212.358 115.598 212.741C115.807 213.124 116.122 213.429 116.541 213.657C116.969 213.876 117.493 213.985 118.113 213.985C118.888 213.985 119.572 213.821 120.164 213.493C120.757 213.165 121.226 212.764 121.572 212.29C121.928 211.816 122.119 211.356 122.146 210.909L123.227 212.126C123.163 212.509 122.99 212.933 122.707 213.397C122.424 213.862 122.046 214.309 121.572 214.737C121.107 215.157 120.551 215.507 119.904 215.79C119.266 216.063 118.546 216.2 117.744 216.2C116.742 216.2 115.862 216.004 115.105 215.612C114.358 215.22 113.775 214.696 113.355 214.04C112.945 213.375 112.74 212.632 112.74 211.812C112.74 211.019 112.895 210.321 113.205 209.72C113.515 209.109 113.962 208.603 114.545 208.202C115.128 207.792 115.83 207.482 116.65 207.272C117.471 207.063 118.387 206.958 119.398 206.958H122.338ZM134.328 214.122C134.93 214.122 135.486 213.999 135.996 213.753C136.507 213.507 136.926 213.17 137.254 212.741C137.582 212.304 137.769 211.807 137.814 211.251H140.221C140.175 212.126 139.879 212.942 139.332 213.698C138.794 214.446 138.088 215.052 137.213 215.517C136.338 215.972 135.376 216.2 134.328 216.2C133.216 216.2 132.245 216.004 131.416 215.612C130.596 215.22 129.912 214.683 129.365 213.999C128.827 213.315 128.422 212.532 128.148 211.647C127.884 210.754 127.752 209.811 127.752 208.817V208.243C127.752 207.25 127.884 206.311 128.148 205.427C128.422 204.534 128.827 203.745 129.365 203.062C129.912 202.378 130.596 201.84 131.416 201.448C132.245 201.056 133.216 200.86 134.328 200.86C135.486 200.86 136.497 201.097 137.363 201.571C138.229 202.036 138.908 202.674 139.4 203.485C139.902 204.287 140.175 205.199 140.221 206.22H137.814C137.769 205.609 137.596 205.058 137.295 204.565C137.003 204.073 136.602 203.681 136.092 203.39C135.59 203.089 135.003 202.938 134.328 202.938C133.553 202.938 132.902 203.093 132.373 203.403C131.854 203.704 131.439 204.114 131.129 204.634C130.828 205.144 130.609 205.714 130.473 206.343C130.345 206.963 130.281 207.596 130.281 208.243V208.817C130.281 209.465 130.345 210.103 130.473 210.731C130.6 211.36 130.814 211.93 131.115 212.44C131.425 212.951 131.84 213.361 132.359 213.671C132.888 213.972 133.544 214.122 134.328 214.122ZM149.258 201.134V203.075H141.26V201.134H149.258ZM143.967 197.538H146.496V212.263C146.496 212.764 146.574 213.142 146.729 213.397C146.883 213.653 147.084 213.821 147.33 213.903C147.576 213.985 147.84 214.026 148.123 214.026C148.333 214.026 148.551 214.008 148.779 213.972C149.016 213.926 149.194 213.89 149.312 213.862L149.326 215.927C149.126 215.991 148.861 216.05 148.533 216.104C148.214 216.168 147.827 216.2 147.371 216.2C146.751 216.2 146.182 216.077 145.662 215.831C145.143 215.585 144.728 215.175 144.418 214.601C144.117 214.017 143.967 213.233 143.967 212.249V197.538ZM158.363 216.2C157.333 216.2 156.399 216.027 155.561 215.681C154.731 215.325 154.016 214.828 153.414 214.19C152.822 213.552 152.366 212.796 152.047 211.921C151.728 211.046 151.568 210.089 151.568 209.05V208.476C151.568 207.272 151.746 206.201 152.102 205.263C152.457 204.315 152.94 203.513 153.551 202.856C154.161 202.2 154.854 201.703 155.629 201.366C156.404 201.029 157.206 200.86 158.035 200.86C159.092 200.86 160.004 201.043 160.77 201.407C161.544 201.772 162.178 202.282 162.67 202.938C163.162 203.586 163.527 204.351 163.764 205.235C164.001 206.11 164.119 207.067 164.119 208.106V209.241H153.072V207.177H161.59V206.985C161.553 206.329 161.417 205.691 161.18 205.071C160.952 204.451 160.587 203.941 160.086 203.54C159.585 203.139 158.901 202.938 158.035 202.938C157.461 202.938 156.932 203.062 156.449 203.308C155.966 203.545 155.551 203.9 155.205 204.374C154.859 204.848 154.59 205.427 154.398 206.11C154.207 206.794 154.111 207.582 154.111 208.476V209.05C154.111 209.752 154.207 210.412 154.398 211.032C154.599 211.643 154.886 212.181 155.26 212.646C155.643 213.11 156.103 213.475 156.641 213.739C157.188 214.004 157.807 214.136 158.5 214.136C159.393 214.136 160.15 213.953 160.77 213.589C161.389 213.224 161.932 212.737 162.396 212.126L163.928 213.343C163.609 213.826 163.203 214.286 162.711 214.724C162.219 215.161 161.613 215.517 160.893 215.79C160.182 216.063 159.339 216.2 158.363 216.2ZM169.602 203.458V215.927H167.072V201.134H169.533L169.602 203.458ZM174.223 201.052L174.209 203.403C173.999 203.358 173.799 203.33 173.607 203.321C173.425 203.303 173.215 203.294 172.979 203.294C172.395 203.294 171.88 203.385 171.434 203.567C170.987 203.75 170.609 204.005 170.299 204.333C169.989 204.661 169.743 205.053 169.561 205.509C169.387 205.955 169.273 206.448 169.219 206.985L168.508 207.396C168.508 206.502 168.594 205.664 168.768 204.88C168.95 204.096 169.228 203.403 169.602 202.802C169.975 202.191 170.449 201.717 171.023 201.38C171.607 201.034 172.299 200.86 173.102 200.86C173.284 200.86 173.493 200.883 173.73 200.929C173.967 200.965 174.132 201.006 174.223 201.052ZM179.309 201.134V215.927H176.766V201.134H179.309ZM176.574 197.21C176.574 196.8 176.697 196.453 176.943 196.171C177.199 195.888 177.572 195.747 178.064 195.747C178.548 195.747 178.917 195.888 179.172 196.171C179.436 196.453 179.568 196.8 179.568 197.21C179.568 197.602 179.436 197.939 179.172 198.222C178.917 198.495 178.548 198.632 178.064 198.632C177.572 198.632 177.199 198.495 176.943 198.222C176.697 197.939 176.574 197.602 176.574 197.21ZM191.982 212.003C191.982 211.638 191.9 211.301 191.736 210.991C191.581 210.672 191.258 210.385 190.766 210.13C190.283 209.866 189.553 209.638 188.578 209.446C187.758 209.273 187.015 209.068 186.35 208.831C185.693 208.594 185.133 208.307 184.668 207.97C184.212 207.632 183.861 207.236 183.615 206.78C183.369 206.325 183.246 205.791 183.246 205.181C183.246 204.597 183.374 204.046 183.629 203.526C183.893 203.007 184.262 202.547 184.736 202.146C185.219 201.744 185.798 201.43 186.473 201.202C187.147 200.974 187.899 200.86 188.729 200.86C189.913 200.86 190.925 201.07 191.764 201.489C192.602 201.909 193.245 202.469 193.691 203.171C194.138 203.864 194.361 204.634 194.361 205.481H191.832C191.832 205.071 191.709 204.675 191.463 204.292C191.226 203.9 190.875 203.576 190.41 203.321C189.954 203.066 189.394 202.938 188.729 202.938C188.027 202.938 187.457 203.048 187.02 203.267C186.591 203.476 186.277 203.745 186.076 204.073C185.885 204.401 185.789 204.748 185.789 205.112C185.789 205.386 185.835 205.632 185.926 205.851C186.026 206.06 186.199 206.256 186.445 206.438C186.691 206.612 187.038 206.776 187.484 206.931C187.931 207.086 188.501 207.241 189.193 207.396C190.406 207.669 191.404 207.997 192.188 208.38C192.971 208.763 193.555 209.232 193.938 209.788C194.32 210.344 194.512 211.019 194.512 211.812C194.512 212.459 194.375 213.051 194.102 213.589C193.837 214.127 193.45 214.591 192.939 214.983C192.438 215.366 191.837 215.667 191.135 215.886C190.442 216.095 189.663 216.2 188.797 216.2C187.493 216.2 186.391 215.968 185.488 215.503C184.586 215.038 183.902 214.437 183.438 213.698C182.973 212.96 182.74 212.181 182.74 211.36H185.283C185.32 212.053 185.52 212.604 185.885 213.015C186.249 213.416 186.696 213.703 187.225 213.876C187.753 214.04 188.277 214.122 188.797 214.122C189.49 214.122 190.068 214.031 190.533 213.849C191.007 213.666 191.367 213.416 191.613 213.097C191.859 212.778 191.982 212.413 191.982 212.003ZM204.027 201.134V203.075H196.029V201.134H204.027ZM198.736 197.538H201.266V212.263C201.266 212.764 201.343 213.142 201.498 213.397C201.653 213.653 201.854 213.821 202.1 213.903C202.346 213.985 202.61 214.026 202.893 214.026C203.102 214.026 203.321 214.008 203.549 213.972C203.786 213.926 203.964 213.89 204.082 213.862L204.096 215.927C203.895 215.991 203.631 216.05 203.303 216.104C202.984 216.168 202.596 216.2 202.141 216.2C201.521 216.2 200.951 216.077 200.432 215.831C199.912 215.585 199.497 215.175 199.188 214.601C198.887 214.017 198.736 213.233 198.736 212.249V197.538ZM209.742 201.134V215.927H207.199V201.134H209.742ZM207.008 197.21C207.008 196.8 207.131 196.453 207.377 196.171C207.632 195.888 208.006 195.747 208.498 195.747C208.981 195.747 209.35 195.888 209.605 196.171C209.87 196.453 210.002 196.8 210.002 197.21C210.002 197.602 209.87 197.939 209.605 198.222C209.35 198.495 208.981 198.632 208.498 198.632C208.006 198.632 207.632 198.495 207.377 198.222C207.131 197.939 207.008 197.602 207.008 197.21ZM219.723 214.122C220.324 214.122 220.88 213.999 221.391 213.753C221.901 213.507 222.32 213.17 222.648 212.741C222.977 212.304 223.163 211.807 223.209 211.251H225.615C225.57 212.126 225.273 212.942 224.727 213.698C224.189 214.446 223.482 215.052 222.607 215.517C221.732 215.972 220.771 216.2 219.723 216.2C218.611 216.2 217.64 216.004 216.811 215.612C215.99 215.22 215.307 214.683 214.76 213.999C214.222 213.315 213.816 212.532 213.543 211.647C213.279 210.754 213.146 209.811 213.146 208.817V208.243C213.146 207.25 213.279 206.311 213.543 205.427C213.816 204.534 214.222 203.745 214.76 203.062C215.307 202.378 215.99 201.84 216.811 201.448C217.64 201.056 218.611 200.86 219.723 200.86C220.88 200.86 221.892 201.097 222.758 201.571C223.624 202.036 224.303 202.674 224.795 203.485C225.296 204.287 225.57 205.199 225.615 206.22H223.209C223.163 205.609 222.99 205.058 222.689 204.565C222.398 204.073 221.997 203.681 221.486 203.39C220.985 203.089 220.397 202.938 219.723 202.938C218.948 202.938 218.296 203.093 217.768 203.403C217.248 203.704 216.833 204.114 216.523 204.634C216.223 205.144 216.004 205.714 215.867 206.343C215.74 206.963 215.676 207.596 215.676 208.243V208.817C215.676 209.465 215.74 210.103 215.867 210.731C215.995 211.36 216.209 211.93 216.51 212.44C216.82 212.951 217.234 213.361 217.754 213.671C218.283 213.972 218.939 214.122 219.723 214.122ZM237.072 212.003C237.072 211.638 236.99 211.301 236.826 210.991C236.671 210.672 236.348 210.385 235.855 210.13C235.372 209.866 234.643 209.638 233.668 209.446C232.848 209.273 232.105 209.068 231.439 208.831C230.783 208.594 230.223 208.307 229.758 207.97C229.302 207.632 228.951 207.236 228.705 206.78C228.459 206.325 228.336 205.791 228.336 205.181C228.336 204.597 228.464 204.046 228.719 203.526C228.983 203.007 229.352 202.547 229.826 202.146C230.309 201.744 230.888 201.43 231.562 201.202C232.237 200.974 232.989 200.86 233.818 200.86C235.003 200.86 236.015 201.07 236.854 201.489C237.692 201.909 238.335 202.469 238.781 203.171C239.228 203.864 239.451 204.634 239.451 205.481H236.922C236.922 205.071 236.799 204.675 236.553 204.292C236.316 203.9 235.965 203.576 235.5 203.321C235.044 203.066 234.484 202.938 233.818 202.938C233.117 202.938 232.547 203.048 232.109 203.267C231.681 203.476 231.367 203.745 231.166 204.073C230.975 204.401 230.879 204.748 230.879 205.112C230.879 205.386 230.924 205.632 231.016 205.851C231.116 206.06 231.289 206.256 231.535 206.438C231.781 206.612 232.128 206.776 232.574 206.931C233.021 207.086 233.59 207.241 234.283 207.396C235.495 207.669 236.493 207.997 237.277 208.38C238.061 208.763 238.645 209.232 239.027 209.788C239.41 210.344 239.602 211.019 239.602 211.812C239.602 212.459 239.465 213.051 239.191 213.589C238.927 214.127 238.54 214.591 238.029 214.983C237.528 215.366 236.926 215.667 236.225 215.886C235.532 216.095 234.753 216.2 233.887 216.2C232.583 216.2 231.48 215.968 230.578 215.503C229.676 215.038 228.992 214.437 228.527 213.698C228.062 212.96 227.83 212.181 227.83 211.36H230.373C230.41 212.053 230.61 212.604 230.975 213.015C231.339 213.416 231.786 213.703 232.314 213.876C232.843 214.04 233.367 214.122 233.887 214.122C234.579 214.122 235.158 214.031 235.623 213.849C236.097 213.666 236.457 213.416 236.703 213.097C236.949 212.778 237.072 212.413 237.072 212.003Z" fill="black"/>
<rect x="261" y="9.76172" width="112" height="48" rx="24" transform="rotate(-5 261 9.76172)" fill="#EA0F0F"/>
<path d="M291.471 18.0437L289.288 43.9261L284.28 44.3643L286.445 18.4834L291.471 18.0437ZM298.303 28.3684L297.92 32.672L288.885 33.4625L289.267 29.1589L298.303 28.3684ZM300.174 17.2823L299.793 21.6034L289.829 22.4751L290.192 18.1555L300.174 17.2823ZM303.415 16.9987L311.121 16.3421C312.655 16.255 313.968 16.4754 315.061 17.0032C316.165 17.5184 317.017 18.3143 317.617 19.3911C318.227 20.4552 318.535 21.7576 318.541 23.2981C318.547 24.5798 318.37 25.7187 318.01 26.7148C317.661 27.6982 317.127 28.5801 316.407 29.3607C315.686 30.1296 314.782 30.8262 313.696 31.4506L312.077 32.5098L305.388 33.0951L305.751 28.7755L309.992 28.4398C310.773 28.3596 311.422 28.1205 311.94 27.7223C312.458 27.324 312.849 26.8134 313.112 26.1905C313.387 25.5665 313.539 24.8885 313.569 24.1565C313.591 23.6017 313.549 23.0467 313.441 22.4914C313.346 21.9352 313.129 21.4777 312.792 21.119C312.455 20.7603 311.952 20.5926 311.283 20.6158L308.077 20.8786L306.258 42.4415L301.25 42.8796L303.415 16.9987ZM312.58 41.8884L309.011 30.7488L314.053 30.2901L317.896 41.1409L317.921 41.4211L312.58 41.8884ZM335.465 35.616L335.083 39.9196L324.331 40.8603L324.678 36.5597L335.465 35.616ZM328.072 14.8415L325.89 40.7239L320.882 41.1621L323.046 15.2812L328.072 14.8415ZM334.965 24.6492L334.607 28.8271L325.273 29.6437L325.614 25.4673L334.965 24.6492ZM337.248 14.0387L336.867 18.3598L326.133 19.299L326.513 14.9778L337.248 14.0387ZM352.943 34.0869L352.561 38.3905L341.809 39.3312L342.156 35.0306L352.943 34.0869ZM345.55 13.3124L343.367 39.1948L338.359 39.633L340.524 13.7521L345.55 13.3124ZM352.442 23.1201L352.084 27.298L342.751 28.1146L343.091 23.9382L352.442 23.1201ZM354.726 12.5096L354.345 16.8307L343.61 17.7699L343.991 13.4487L354.726 12.5096Z" fill="white"/>
</svg>
