<svg width="69" height="91" viewBox="0 0 69 91" fill="none" xmlns="http://www.w3.org/2000/svg">
<path d="M67.4641 13.4901C48.4834 7.62771 24.6774 11.5092 18.9397 27.5113C17.7115 30.9367 16.9293 34.6194 16.8875 37.9887C13.1999 39.7914 10.6425 42.8115 9.44434 47.0844C6.84258 56.3615 11.0033 68.6939 15.9704 76.2261C16.4389 76.937 17.3955 77.1314 18.1044 76.6597C18.8155 76.1877 19.01 75.2285 18.5411 74.5185C11.989 64.5826 10.7705 53.7646 12.4104 47.9166C13.2388 44.9604 14.8047 42.7269 17.0725 41.2522C17.5615 45.6684 19.1207 49.5211 21.6519 51.9818C23.5024 53.7803 25.5657 54.5343 27.4614 54.1071C29.0841 53.7406 30.2419 52.4902 30.8893 50.7688C30.8893 50.7688 30.8896 50.7679 30.8899 50.767C32.2188 47.2344 29.9736 42.9732 27.0339 40.2495C24.8294 38.2069 22.4862 37.1704 19.9969 37.1808C20.12 34.3952 20.5474 31.2408 21.5508 28.4444C25.7091 16.772 42.6006 9.69258 66.0553 15.252C68.3617 15.7986 70.0611 14.0491 67.4641 13.4901ZM20.0603 40.0828C22.2774 39.9428 24.211 41.4537 25.0499 42.2314C27.4725 44.476 28.8641 47.8422 28.1522 49.7352C27.991 50.1626 27.6004 50.9083 26.7913 51.0906C25.9547 51.2798 24.8639 50.7939 23.7984 49.7593C21.6349 47.6567 20.3596 44.1328 20.0606 40.0819L20.0603 40.0828Z" fill="#EA0F0F"/>
<path d="M18.94 63.8188C18.6592 63.1773 17.9953 62.4211 16.9188 62.6496C16.0862 62.8257 15.5295 63.6131 15.6837 64.4519C16.7981 70.5049 17.262 74.3733 17.4414 76.7733C16.9679 76.2658 16.4962 75.7557 16.0311 75.2507C13.6991 72.7238 11.2876 70.1107 8.71357 68.0415C8.04985 67.5087 7.08011 67.6167 6.54783 68.2825C6.01526 68.9493 6.3847 69.7494 6.95989 70.3766C9.15624 72.7682 11.3362 74.9856 13.5916 77.4304C14.9424 78.8946 16.4963 80.5827 17.918 81.7062C18.3569 82.0524 18.8975 82.2417 19.433 82.082C19.9697 81.9217 20.3773 81.4836 20.5 80.9366C20.576 80.5964 21.5023 77.5056 19.0452 64.1608C19.0231 64.0413 18.9881 63.9269 18.941 63.8191L18.94 63.8188Z" fill="#EA0F0F"/>
</svg>
