<svg width="52" height="35" viewBox="0 0 52 35" fill="none" xmlns="http://www.w3.org/2000/svg">
<path fill-rule="evenodd" clip-rule="evenodd" d="M30.2088 19.7901C30.9454 19.2087 31.4759 18.77 32.027 18.3578C37.0902 14.5049 42.1688 10.6732 47.2164 6.79916C48.3805 5.91125 49.5034 4.94935 50.5489 3.92403C51.0846 3.4008 51.543 2.71901 51.8212 2.01608C52.3723 0.610227 51.5997 -0.282951 50.1884 0.081725C49.457 0.271991 48.7359 0.589091 48.0869 0.980193C46.2275 2.07951 44.3733 3.19467 42.5757 4.3944C37.3477 7.87204 32.1455 11.4025 26.9278 14.9013C26.2995 15.3241 25.635 15.6994 24.9139 16.1433C21.7359 13.8654 18.558 11.7038 15.5036 9.37832C11.517 6.34464 7.06161 4.23585 2.54959 2.21692C1.84395 1.90509 1.06619 1.32373 0 2.21692C0.458412 2.92513 0.865312 3.70205 1.41129 4.36269C5.12494 8.89736 9.2249 13.0092 13.9944 16.3864C15.6375 17.5492 17.1879 18.8388 18.8722 20.1389C14.3447 24.0235 3.09042 29.3326 5.17645 31.7821C6.26258 33.0575 8.50661 31.8015 9.6112 31.2747C14.4426 28.9757 19.2585 26.6397 24.3525 24.1873C24.3783 24.2032 24.7594 24.3565 25.089 24.589C29.2817 27.6068 33.4692 30.6405 37.6619 33.6584C38.1718 34.023 38.6766 34.4088 39.2329 34.6837C40.2527 35.1858 41.2622 35.1012 42.1533 34.3507C42.9774 33.6478 43.3225 32.6489 42.9877 31.6658C42.6323 30.6247 42.1327 29.5201 41.391 28.7484C39.8922 27.1893 38.2439 25.757 36.5493 24.4146C34.5818 22.8555 32.4958 21.4496 30.2088 19.7901Z" fill="#EA0F0F"/>
</svg>
