<svg width="58" height="47" viewBox="0 0 58 47" fill="none" xmlns="http://www.w3.org/2000/svg">
<path fill-rule="evenodd" clip-rule="evenodd" d="M14.3285 20.6995C14.0104 20.541 13.6712 20.4141 13.3767 20.2191C12.6166 19.7076 11.8609 19.1019 12.145 18.038C12.464 16.8286 13.4628 16.7115 14.5027 16.7777C15.2109 16.8233 15.9387 16.9992 16.6178 16.8735C22.4525 15.7912 28.3118 15.9387 34.1904 16.1802C40.5901 16.4403 47.0006 16.4828 53.4004 16.7671C56.7164 16.9128 57.9185 19.3746 56.1813 22.228C54.5335 24.9331 52.8002 27.5834 51.0573 30.2291C50.2106 31.519 49.0562 32.3361 47.4397 32.0005C46.6575 31.8398 45.8869 31.6064 45.128 31.3487C38.9688 29.2734 32.812 27.2054 26.6598 25.1035C22.5307 23.6905 18.4226 22.2337 14.3005 20.794C14.3146 20.7649 14.3239 20.7334 14.3356 20.697L14.3285 20.6995ZM46.9815 25.9492C47.5718 25.0197 48.1691 24.0877 49.0109 22.7592C44.8642 22.7118 41.1887 22.6641 37.5109 22.6214C37.4856 22.7956 37.4651 22.9723 37.4399 23.1465C40.5343 24.0559 43.6287 24.9653 46.9792 25.9541L46.9815 25.9492Z" fill="black"/>
<path fill-rule="evenodd" clip-rule="evenodd" d="M15.9104 31.7496C17.5729 32.4286 19.3025 32.9411 21.0092 33.5033C22.9897 34.1562 24.9893 34.7625 26.9691 35.4222C27.7905 35.6944 28.3879 36.237 28.4896 37.1583C28.592 38.104 28.0295 38.6771 27.2951 39.1154C26.8983 39.352 26.4806 39.5584 26.0576 39.7502C23.7977 40.7972 21.5456 41.866 19.263 42.8685C17.6211 43.5893 15.9636 44.2943 14.2626 44.8619C11.9429 45.6372 11.0649 45.3132 9.65061 43.3384C7.20478 39.9313 4.77422 36.5119 2.35843 33.0838C1.028 31.1953 1.08044 30.7553 2.7762 28.9604C7.20609 29.8496 11.7039 30.0357 15.9032 31.7522L15.9104 31.7496ZM12.6533 41.8716C14.9621 41.7223 20.8613 39.3374 22.8958 37.7348C16.9806 35.5701 10.7067 34.6048 5.31597 31.1203C8.18086 34.4956 10.7482 37.9934 12.653 41.875L12.6533 41.8716Z" fill="black"/>
</svg>
